<svg xmlns="http://www.w3.org/2000/svg" xmlns:xlink="http://www.w3.org/1999/xlink" width="1792.546" height="514.552" viewBox="0 0 1792.546 514.552">
  <defs>
    <linearGradient id="linear-gradient" x1="0.517" y1="0.385" x2="0.062" y2="0.386" gradientUnits="objectBoundingBox">
      <stop offset="0" stop-color="#58a5f8"/>
      <stop offset="0.349" stop-color="#68c9e1"/>
      <stop offset="0.555" stop-color="#8fc1c1"/>
      <stop offset="1" stop-color="#fff" stop-opacity="0.039"/>
    </linearGradient>
    <clipPath id="clip-path">
      <rect width="1259.576" height="502.662" fill="none"/>
    </clipPath>
  </defs>
  <g id="Grupo_39110" data-name="Grupo 39110" transform="translate(5501 2417.491)">
    <path id="Trazado_71451" data-name="Trazado 71451" d="M0,0H1792.546V514.526H0Z" transform="translate(-3708.454 -1902.965) rotate(180)" fill="url(#linear-gradient)"/>
    <g id="Cuadrícula_de_repetición_2" data-name="Cuadrícula de repetición 2" transform="translate(-5501 -2405.601)" clip-path="url(#clip-path)">
      <g transform="translate(4449 2465.601)">
        <g id="Grupo_36334" data-name="Grupo 36334" transform="translate(-4449 -2465.601)" opacity="0.102">
          <g id="Grupo_39109" data-name="Grupo 39109">
            <g id="Grupo_36322" data-name="Grupo 36322" transform="translate(0 194.43)">
              <g id="Grupo_36321" data-name="Grupo 36321">
                <path id="Trazado_85159" data-name="Trazado 85159" d="M143.581,227.694c-.043-10.525,5.174-18.854,7.521-28.768,3.22-13.586,3.172-28.552.894-42.287a91.085,91.085,0,0,0-4.482-16.189,33.318,33.318,0,0,0-6.1-9.987,29.715,29.715,0,0,0-7.512-4.9c-6.411-2.437-13.536-2.9-20.291-3.66-15.819-1.778-31.448-3.542-46.293-9.578A147.732,147.732,0,0,1,27.136,87.476c-11.722-9.927-19.438-22.4-25-36.525C-.931,43.168-.116,33.287,1.023,25.216,2.1,17.617,7.34,11.937,11.3,5.66c5.07-8.033,19.808-7.891,21.776,2.85,1.108,6.027,5.121,10.873,7.19,16.705,1.833,5.169,5.813,10.753,8.845,15.319,5.779,8.694,15.228,15.78,24.6,21.36,26.589,15.836,59.622,7.971,86.079,23.484,26.409,15.485,34.73,46.908,33.288,75.554A119.836,119.836,0,0,1,180.55,207.6c-5.5,11.116-14.211,18.008-23.458,25.685-5.123,4.253-13.483,1.778-13.512-5.6Z" transform="translate(0 0)" fill="#f2f2f2"/>
              </g>
            </g>
            <g id="Grupo_36324" data-name="Grupo 36324" transform="translate(14.659 319.72)">
              <g id="Grupo_36323" data-name="Grupo 36323" transform="translate(0 0)">
                <path id="Trazado_85160" data-name="Trazado 85160" d="M2.678,5.43C15.659-2.62,34.217-.349,48.211,3.484,63.85,7.773,77.667,16.861,88.735,28.568c24.32,25.728,28.845,63.186,9.761,93.2-5.178,8.146-15.088,15.288-24.8,9.6-9.247-5.416-6.947-17.864-1.492-24.969,9.946-12.957,11.825-27.918,7.033-43.256-4.429-14.168-15.845-25.392-27.74-33.6a72,72,0,0,0-21.588-9.859c-8.574-2.415-17.268-2.172-25.889-4.008C-.931,14.621-1.225,7.85,2.678,5.43Z" transform="translate(0 0)" fill="#f2f2f2"/>
              </g>
            </g>
            <g id="Grupo_36326" data-name="Grupo 36326" transform="translate(17.98 129.42)">
              <g id="Grupo_36325" data-name="Grupo 36325">
                <path id="Trazado_85161" data-name="Trazado 85161" d="M11.768,6.949c.9-2.348-1.346-4.027.973-1.632a46.549,46.549,0,0,1,3.328,3.854c2.715,3.475,5.666,6.772,8.6,10.061,5.791,6.5,11.284,13.262,17.208,19.651C60.144,58.6,83.686,70.065,109.357,76.81,153.384,88.375,200.049,99,228.745,137.472c16.929,22.7,18.275,52.4,20.74,79.471,1.206,13.236,3.261,26.889,9.569,38.748,4.878,9.174,13.949,12.918,23.612,14.908,16.544,3.407,40.982-1.379,49.6-17.013,8.487-15.386,3.765-38.889,2.826-55.614-1.906-33.886,9.657-61.033,38.813-79.694,14.125-9.038,33.06-12.589,49.477-9.107,17.325,3.674,30.628,13.622,42.97,25.945,10,9.982-2.631,24.885-14.56,18.87-11.015-5.551-23.681-10.1-36-11.565-13.928-1.653-25.491,4.664-35.259,14.108-16.5,15.953-10.724,41.067-9.737,61.506,1.06,21.84-.906,44.493-14.85,62.244-14.973,19.058-41.389,25.233-64.52,25.661-25.354.466-49.133-10.84-62.513-32.632-15.934-25.957-12.9-58.572-17.82-87.408-8.293-48.6-54.581-60.386-95.39-73.048-36-11.171-68.482-24.832-91.531-56.114C16.958,46.941,11.032,36,5.794,25.062,2.942,19.107-4.407,5.831,3.679.73c3.864-2.437,9.843,1.636,8.088,6.219Z" transform="translate(0 0)" fill="#f2f2f2"/>
              </g>
            </g>
            <g id="Grupo_36328" data-name="Grupo 36328" transform="translate(12.474 46.35)">
              <g id="Grupo_36327" data-name="Grupo 36327">
                <path id="Trazado_85162" data-name="Trazado 85162" d="M20.65,13.056c.308-.637-.012-.286.154.694A11.6,11.6,0,0,0,22.8,17.821c2.492,3.922,6.454,8.079,9.9,11.652C42.993,40.15,55.19,49.1,67.215,57.715c10.89,7.8,22.2,15.134,33.7,22,16.268,9.722,35.316,14.514,53.461,19.4,45.209,12.164,93.619,24.356,127.511,58.966,33.283,33.99,33.759,81.734,32.341,126.259-.658,20.632-32.582,20.726-32.092,0,.608-25.745-2.811-50.738,1.158-76.438a88.531,88.531,0,0,1,43.169-63.243c27.091-15.833,58.764-21.684,89.575-24.412,9.155-.807,20.18-1.641,26.93-4.775,8.415-3.9,15.816-13.714,20.762-22.8,6.887-12.661,27.062-6.885,26.865,7.276-.2,14.622-2.879,27.5-12.764,38.664-7.694,8.689-19.166,13.973-30.095,17.119-11.02,3.172-22.847,3.7-34.228,4.489a204.316,204.316,0,0,0-42.619,7.425c-24.714,7.077-45.113,18.781-52.433,44.479-6.476,22.725-4.948,48.831-4.229,72.219H282.138c-1.377-39.591-3.376-85.367-37.993-111.038-41.814-31.015-96-34.732-142.709-55.069C75.075,106.755,51.41,87.4,31.024,67.382,17.11,53.731-15.961,19.9,9.142,1.551,16.606-3.9,23.916,6.258,20.65,13.056Z" fill="#f2f2f2"/>
              </g>
            </g>
            <g id="Grupo_36330" data-name="Grupo 36330" transform="translate(52.942 32.237)">
              <g id="Grupo_36329" data-name="Grupo 36329">
                <path id="Trazado_85163" data-name="Trazado 85163" d="M4.877.939C15.006,12.384,30.4,21.032,43.286,29.132A252.492,252.492,0,0,0,88.832,51.518c31.813,11.96,66,19.707,99.68,24,41.773,5.33,85.286,9.573,127.309,5.947,23.061-1.99,43.83-9.927,65.017-18.661a226.631,226.631,0,0,1,29.907-10.3c10.251-2.631,21.91-.6,32.116,1.288,10.333,1.913,10.39,18.988,0,20.853-20.644,3.708-41.3,11.491-60.771,19.183-22.984,9.083-45.529,14.855-70.212,16.955-25.3,2.153-50.654.147-75.885-1.973-18.94-1.593-37.806-3.006-56.611-5.818C142.8,97.53,107.39,87.777,73.809,72.184a209.383,209.383,0,0,1-45.37-28.242C15.008,32.864,7.987,19.67.316,4.456-1.1,1.64,2.585-1.649,4.877.939Z" fill="#f2f2f2"/>
              </g>
            </g>
            <g id="Grupo_36332" data-name="Grupo 36332" transform="translate(55.968 0)">
              <g id="Grupo_36331" data-name="Grupo 36331">
                <path id="Trazado_85164" data-name="Trazado 85164" d="M6.9,1.07c6.9,6.5,16.669,10.845,25.164,14.9A249.541,249.541,0,0,0,69.97,29.91C106.522,40.579,145.8,42.98,183.679,41.754c42.713-1.387,84.428,7.689,127.011,7.858a251.742,251.742,0,0,0,58.036-6.82C389.749,37.914,409.4,27.337,430.65,24.1c11.493-1.752,23.619,12.257,12.664,21.752C426.776,60.187,405.3,66.387,384.436,71.926a290.1,290.1,0,0,1-66.247,9.122c-23.652.649-47.045-2.766-70.445-5.7-24.123-3.023-47.73-3.773-72-3.532-39.968.4-80.377-5.323-117.983-19.123C34.138,44.03,8.56,30.23.208,4.965-1.1,1,4.117-1.554,6.9,1.07Z" fill="#f2f2f2"/>
              </g>
            </g>
          </g>
        </g>
      </g>
      <g transform="translate(4973 2465.601)">
        <g id="Grupo_36334-2" data-name="Grupo 36334" transform="translate(-4449 -2465.601)" opacity="0.102">
          <g id="Grupo_39109-2" data-name="Grupo 39109">
            <g id="Grupo_36322-2" data-name="Grupo 36322" transform="translate(0 194.43)">
              <g id="Grupo_36321-2" data-name="Grupo 36321">
                <path id="Trazado_85159-2" data-name="Trazado 85159" d="M143.581,227.694c-.043-10.525,5.174-18.854,7.521-28.768,3.22-13.586,3.172-28.552.894-42.287a91.085,91.085,0,0,0-4.482-16.189,33.318,33.318,0,0,0-6.1-9.987,29.715,29.715,0,0,0-7.512-4.9c-6.411-2.437-13.536-2.9-20.291-3.66-15.819-1.778-31.448-3.542-46.293-9.578A147.732,147.732,0,0,1,27.136,87.476c-11.722-9.927-19.438-22.4-25-36.525C-.931,43.168-.116,33.287,1.023,25.216,2.1,17.617,7.34,11.937,11.3,5.66c5.07-8.033,19.808-7.891,21.776,2.85,1.108,6.027,5.121,10.873,7.19,16.705,1.833,5.169,5.813,10.753,8.845,15.319,5.779,8.694,15.228,15.78,24.6,21.36,26.589,15.836,59.622,7.971,86.079,23.484,26.409,15.485,34.73,46.908,33.288,75.554A119.836,119.836,0,0,1,180.55,207.6c-5.5,11.116-14.211,18.008-23.458,25.685-5.123,4.253-13.483,1.778-13.512-5.6Z" transform="translate(0 0)" fill="#f2f2f2"/>
              </g>
            </g>
            <g id="Grupo_36324-2" data-name="Grupo 36324" transform="translate(14.659 319.72)">
              <g id="Grupo_36323-2" data-name="Grupo 36323" transform="translate(0 0)">
                <path id="Trazado_85160-2" data-name="Trazado 85160" d="M2.678,5.43C15.659-2.62,34.217-.349,48.211,3.484,63.85,7.773,77.667,16.861,88.735,28.568c24.32,25.728,28.845,63.186,9.761,93.2-5.178,8.146-15.088,15.288-24.8,9.6-9.247-5.416-6.947-17.864-1.492-24.969,9.946-12.957,11.825-27.918,7.033-43.256-4.429-14.168-15.845-25.392-27.74-33.6a72,72,0,0,0-21.588-9.859c-8.574-2.415-17.268-2.172-25.889-4.008C-.931,14.621-1.225,7.85,2.678,5.43Z" transform="translate(0 0)" fill="#f2f2f2"/>
              </g>
            </g>
            <g id="Grupo_36326-2" data-name="Grupo 36326" transform="translate(17.98 129.42)">
              <g id="Grupo_36325-2" data-name="Grupo 36325">
                <path id="Trazado_85161-2" data-name="Trazado 85161" d="M11.768,6.949c.9-2.348-1.346-4.027.973-1.632a46.549,46.549,0,0,1,3.328,3.854c2.715,3.475,5.666,6.772,8.6,10.061,5.791,6.5,11.284,13.262,17.208,19.651C60.144,58.6,83.686,70.065,109.357,76.81,153.384,88.375,200.049,99,228.745,137.472c16.929,22.7,18.275,52.4,20.74,79.471,1.206,13.236,3.261,26.889,9.569,38.748,4.878,9.174,13.949,12.918,23.612,14.908,16.544,3.407,40.982-1.379,49.6-17.013,8.487-15.386,3.765-38.889,2.826-55.614-1.906-33.886,9.657-61.033,38.813-79.694,14.125-9.038,33.06-12.589,49.477-9.107,17.325,3.674,30.628,13.622,42.97,25.945,10,9.982-2.631,24.885-14.56,18.87-11.015-5.551-23.681-10.1-36-11.565-13.928-1.653-25.491,4.664-35.259,14.108-16.5,15.953-10.724,41.067-9.737,61.506,1.06,21.84-.906,44.493-14.85,62.244-14.973,19.058-41.389,25.233-64.52,25.661-25.354.466-49.133-10.84-62.513-32.632-15.934-25.957-12.9-58.572-17.82-87.408-8.293-48.6-54.581-60.386-95.39-73.048-36-11.171-68.482-24.832-91.531-56.114C16.958,46.941,11.032,36,5.794,25.062,2.942,19.107-4.407,5.831,3.679.73c3.864-2.437,9.843,1.636,8.088,6.219Z" transform="translate(0 0)" fill="#f2f2f2"/>
              </g>
            </g>
            <g id="Grupo_36328-2" data-name="Grupo 36328" transform="translate(12.474 46.35)">
              <g id="Grupo_36327-2" data-name="Grupo 36327">
                <path id="Trazado_85162-2" data-name="Trazado 85162" d="M20.65,13.056c.308-.637-.012-.286.154.694A11.6,11.6,0,0,0,22.8,17.821c2.492,3.922,6.454,8.079,9.9,11.652C42.993,40.15,55.19,49.1,67.215,57.715c10.89,7.8,22.2,15.134,33.7,22,16.268,9.722,35.316,14.514,53.461,19.4,45.209,12.164,93.619,24.356,127.511,58.966,33.283,33.99,33.759,81.734,32.341,126.259-.658,20.632-32.582,20.726-32.092,0,.608-25.745-2.811-50.738,1.158-76.438a88.531,88.531,0,0,1,43.169-63.243c27.091-15.833,58.764-21.684,89.575-24.412,9.155-.807,20.18-1.641,26.93-4.775,8.415-3.9,15.816-13.714,20.762-22.8,6.887-12.661,27.062-6.885,26.865,7.276-.2,14.622-2.879,27.5-12.764,38.664-7.694,8.689-19.166,13.973-30.095,17.119-11.02,3.172-22.847,3.7-34.228,4.489a204.316,204.316,0,0,0-42.619,7.425c-24.714,7.077-45.113,18.781-52.433,44.479-6.476,22.725-4.948,48.831-4.229,72.219H282.138c-1.377-39.591-3.376-85.367-37.993-111.038-41.814-31.015-96-34.732-142.709-55.069C75.075,106.755,51.41,87.4,31.024,67.382,17.11,53.731-15.961,19.9,9.142,1.551,16.606-3.9,23.916,6.258,20.65,13.056Z" fill="#f2f2f2"/>
              </g>
            </g>
            <g id="Grupo_36330-2" data-name="Grupo 36330" transform="translate(52.942 32.237)">
              <g id="Grupo_36329-2" data-name="Grupo 36329">
                <path id="Trazado_85163-2" data-name="Trazado 85163" d="M4.877.939C15.006,12.384,30.4,21.032,43.286,29.132A252.492,252.492,0,0,0,88.832,51.518c31.813,11.96,66,19.707,99.68,24,41.773,5.33,85.286,9.573,127.309,5.947,23.061-1.99,43.83-9.927,65.017-18.661a226.631,226.631,0,0,1,29.907-10.3c10.251-2.631,21.91-.6,32.116,1.288,10.333,1.913,10.39,18.988,0,20.853-20.644,3.708-41.3,11.491-60.771,19.183-22.984,9.083-45.529,14.855-70.212,16.955-25.3,2.153-50.654.147-75.885-1.973-18.94-1.593-37.806-3.006-56.611-5.818C142.8,97.53,107.39,87.777,73.809,72.184a209.383,209.383,0,0,1-45.37-28.242C15.008,32.864,7.987,19.67.316,4.456-1.1,1.64,2.585-1.649,4.877.939Z" fill="#f2f2f2"/>
              </g>
            </g>
            <g id="Grupo_36332-2" data-name="Grupo 36332" transform="translate(55.968 0)">
              <g id="Grupo_36331-2" data-name="Grupo 36331">
                <path id="Trazado_85164-2" data-name="Trazado 85164" d="M6.9,1.07c6.9,6.5,16.669,10.845,25.164,14.9A249.541,249.541,0,0,0,69.97,29.91C106.522,40.579,145.8,42.98,183.679,41.754c42.713-1.387,84.428,7.689,127.011,7.858a251.742,251.742,0,0,0,58.036-6.82C389.749,37.914,409.4,27.337,430.65,24.1c11.493-1.752,23.619,12.257,12.664,21.752C426.776,60.187,405.3,66.387,384.436,71.926a290.1,290.1,0,0,1-66.247,9.122c-23.652.649-47.045-2.766-70.445-5.7-24.123-3.023-47.73-3.773-72-3.532-39.968.4-80.377-5.323-117.983-19.123C34.138,44.03,8.56,30.23.208,4.965-1.1,1,4.117-1.554,6.9,1.07Z" fill="#f2f2f2"/>
              </g>
            </g>
          </g>
        </g>
      </g>
      <g transform="translate(5497 2465.601)">
        <g id="Grupo_36334-3" data-name="Grupo 36334" transform="translate(-4449 -2465.601)" opacity="0.102">
          <g id="Grupo_39109-3" data-name="Grupo 39109">
            <g id="Grupo_36322-3" data-name="Grupo 36322" transform="translate(0 194.43)">
              <g id="Grupo_36321-3" data-name="Grupo 36321">
                <path id="Trazado_85159-3" data-name="Trazado 85159" d="M143.581,227.694c-.043-10.525,5.174-18.854,7.521-28.768,3.22-13.586,3.172-28.552.894-42.287a91.085,91.085,0,0,0-4.482-16.189,33.318,33.318,0,0,0-6.1-9.987,29.715,29.715,0,0,0-7.512-4.9c-6.411-2.437-13.536-2.9-20.291-3.66-15.819-1.778-31.448-3.542-46.293-9.578A147.732,147.732,0,0,1,27.136,87.476c-11.722-9.927-19.438-22.4-25-36.525C-.931,43.168-.116,33.287,1.023,25.216,2.1,17.617,7.34,11.937,11.3,5.66c5.07-8.033,19.808-7.891,21.776,2.85,1.108,6.027,5.121,10.873,7.19,16.705,1.833,5.169,5.813,10.753,8.845,15.319,5.779,8.694,15.228,15.78,24.6,21.36,26.589,15.836,59.622,7.971,86.079,23.484,26.409,15.485,34.73,46.908,33.288,75.554A119.836,119.836,0,0,1,180.55,207.6c-5.5,11.116-14.211,18.008-23.458,25.685-5.123,4.253-13.483,1.778-13.512-5.6Z" transform="translate(0 0)" fill="#f2f2f2"/>
              </g>
            </g>
            <g id="Grupo_36324-3" data-name="Grupo 36324" transform="translate(14.659 319.72)">
              <g id="Grupo_36323-3" data-name="Grupo 36323" transform="translate(0 0)">
                <path id="Trazado_85160-3" data-name="Trazado 85160" d="M2.678,5.43C15.659-2.62,34.217-.349,48.211,3.484,63.85,7.773,77.667,16.861,88.735,28.568c24.32,25.728,28.845,63.186,9.761,93.2-5.178,8.146-15.088,15.288-24.8,9.6-9.247-5.416-6.947-17.864-1.492-24.969,9.946-12.957,11.825-27.918,7.033-43.256-4.429-14.168-15.845-25.392-27.74-33.6a72,72,0,0,0-21.588-9.859c-8.574-2.415-17.268-2.172-25.889-4.008C-.931,14.621-1.225,7.85,2.678,5.43Z" transform="translate(0 0)" fill="#f2f2f2"/>
              </g>
            </g>
            <g id="Grupo_36326-3" data-name="Grupo 36326" transform="translate(17.98 129.42)">
              <g id="Grupo_36325-3" data-name="Grupo 36325">
                <path id="Trazado_85161-3" data-name="Trazado 85161" d="M11.768,6.949c.9-2.348-1.346-4.027.973-1.632a46.549,46.549,0,0,1,3.328,3.854c2.715,3.475,5.666,6.772,8.6,10.061,5.791,6.5,11.284,13.262,17.208,19.651C60.144,58.6,83.686,70.065,109.357,76.81,153.384,88.375,200.049,99,228.745,137.472c16.929,22.7,18.275,52.4,20.74,79.471,1.206,13.236,3.261,26.889,9.569,38.748,4.878,9.174,13.949,12.918,23.612,14.908,16.544,3.407,40.982-1.379,49.6-17.013,8.487-15.386,3.765-38.889,2.826-55.614-1.906-33.886,9.657-61.033,38.813-79.694,14.125-9.038,33.06-12.589,49.477-9.107,17.325,3.674,30.628,13.622,42.97,25.945,10,9.982-2.631,24.885-14.56,18.87-11.015-5.551-23.681-10.1-36-11.565-13.928-1.653-25.491,4.664-35.259,14.108-16.5,15.953-10.724,41.067-9.737,61.506,1.06,21.84-.906,44.493-14.85,62.244-14.973,19.058-41.389,25.233-64.52,25.661-25.354.466-49.133-10.84-62.513-32.632-15.934-25.957-12.9-58.572-17.82-87.408-8.293-48.6-54.581-60.386-95.39-73.048-36-11.171-68.482-24.832-91.531-56.114C16.958,46.941,11.032,36,5.794,25.062,2.942,19.107-4.407,5.831,3.679.73c3.864-2.437,9.843,1.636,8.088,6.219Z" transform="translate(0 0)" fill="#f2f2f2"/>
              </g>
            </g>
            <g id="Grupo_36328-3" data-name="Grupo 36328" transform="translate(12.474 46.35)">
              <g id="Grupo_36327-3" data-name="Grupo 36327">
                <path id="Trazado_85162-3" data-name="Trazado 85162" d="M20.65,13.056c.308-.637-.012-.286.154.694A11.6,11.6,0,0,0,22.8,17.821c2.492,3.922,6.454,8.079,9.9,11.652C42.993,40.15,55.19,49.1,67.215,57.715c10.89,7.8,22.2,15.134,33.7,22,16.268,9.722,35.316,14.514,53.461,19.4,45.209,12.164,93.619,24.356,127.511,58.966,33.283,33.99,33.759,81.734,32.341,126.259-.658,20.632-32.582,20.726-32.092,0,.608-25.745-2.811-50.738,1.158-76.438a88.531,88.531,0,0,1,43.169-63.243c27.091-15.833,58.764-21.684,89.575-24.412,9.155-.807,20.18-1.641,26.93-4.775,8.415-3.9,15.816-13.714,20.762-22.8,6.887-12.661,27.062-6.885,26.865,7.276-.2,14.622-2.879,27.5-12.764,38.664-7.694,8.689-19.166,13.973-30.095,17.119-11.02,3.172-22.847,3.7-34.228,4.489a204.316,204.316,0,0,0-42.619,7.425c-24.714,7.077-45.113,18.781-52.433,44.479-6.476,22.725-4.948,48.831-4.229,72.219H282.138c-1.377-39.591-3.376-85.367-37.993-111.038-41.814-31.015-96-34.732-142.709-55.069C75.075,106.755,51.41,87.4,31.024,67.382,17.11,53.731-15.961,19.9,9.142,1.551,16.606-3.9,23.916,6.258,20.65,13.056Z" fill="#f2f2f2"/>
              </g>
            </g>
            <g id="Grupo_36330-3" data-name="Grupo 36330" transform="translate(52.942 32.237)">
              <g id="Grupo_36329-3" data-name="Grupo 36329">
                <path id="Trazado_85163-3" data-name="Trazado 85163" d="M4.877.939C15.006,12.384,30.4,21.032,43.286,29.132A252.492,252.492,0,0,0,88.832,51.518c31.813,11.96,66,19.707,99.68,24,41.773,5.33,85.286,9.573,127.309,5.947,23.061-1.99,43.83-9.927,65.017-18.661a226.631,226.631,0,0,1,29.907-10.3c10.251-2.631,21.91-.6,32.116,1.288,10.333,1.913,10.39,18.988,0,20.853-20.644,3.708-41.3,11.491-60.771,19.183-22.984,9.083-45.529,14.855-70.212,16.955-25.3,2.153-50.654.147-75.885-1.973-18.94-1.593-37.806-3.006-56.611-5.818C142.8,97.53,107.39,87.777,73.809,72.184a209.383,209.383,0,0,1-45.37-28.242C15.008,32.864,7.987,19.67.316,4.456-1.1,1.64,2.585-1.649,4.877.939Z" fill="#f2f2f2"/>
              </g>
            </g>
            <g id="Grupo_36332-3" data-name="Grupo 36332" transform="translate(55.968 0)">
              <g id="Grupo_36331-3" data-name="Grupo 36331">
                <path id="Trazado_85164-3" data-name="Trazado 85164" d="M6.9,1.07c6.9,6.5,16.669,10.845,25.164,14.9A249.541,249.541,0,0,0,69.97,29.91C106.522,40.579,145.8,42.98,183.679,41.754c42.713-1.387,84.428,7.689,127.011,7.858a251.742,251.742,0,0,0,58.036-6.82C389.749,37.914,409.4,27.337,430.65,24.1c11.493-1.752,23.619,12.257,12.664,21.752C426.776,60.187,405.3,66.387,384.436,71.926a290.1,290.1,0,0,1-66.247,9.122c-23.652.649-47.045-2.766-70.445-5.7-24.123-3.023-47.73-3.773-72-3.532-39.968.4-80.377-5.323-117.983-19.123C34.138,44.03,8.56,30.23.208,4.965-1.1,1,4.117-1.554,6.9,1.07Z" fill="#f2f2f2"/>
              </g>
            </g>
          </g>
        </g>
      </g>
      <g transform="translate(4449 2939.601)">
        <g id="Grupo_36334-4" data-name="Grupo 36334" transform="translate(-4449 -2465.601)" opacity="0.102">
          <g id="Grupo_39109-4" data-name="Grupo 39109">
            <g id="Grupo_36322-4" data-name="Grupo 36322" transform="translate(0 194.43)">
              <g id="Grupo_36321-4" data-name="Grupo 36321">
                <path id="Trazado_85159-4" data-name="Trazado 85159" d="M143.581,227.694c-.043-10.525,5.174-18.854,7.521-28.768,3.22-13.586,3.172-28.552.894-42.287a91.085,91.085,0,0,0-4.482-16.189,33.318,33.318,0,0,0-6.1-9.987,29.715,29.715,0,0,0-7.512-4.9c-6.411-2.437-13.536-2.9-20.291-3.66-15.819-1.778-31.448-3.542-46.293-9.578A147.732,147.732,0,0,1,27.136,87.476c-11.722-9.927-19.438-22.4-25-36.525C-.931,43.168-.116,33.287,1.023,25.216,2.1,17.617,7.34,11.937,11.3,5.66c5.07-8.033,19.808-7.891,21.776,2.85,1.108,6.027,5.121,10.873,7.19,16.705,1.833,5.169,5.813,10.753,8.845,15.319,5.779,8.694,15.228,15.78,24.6,21.36,26.589,15.836,59.622,7.971,86.079,23.484,26.409,15.485,34.73,46.908,33.288,75.554A119.836,119.836,0,0,1,180.55,207.6c-5.5,11.116-14.211,18.008-23.458,25.685-5.123,4.253-13.483,1.778-13.512-5.6Z" transform="translate(0 0)" fill="#f2f2f2"/>
              </g>
            </g>
            <g id="Grupo_36324-4" data-name="Grupo 36324" transform="translate(14.659 319.72)">
              <g id="Grupo_36323-4" data-name="Grupo 36323" transform="translate(0 0)">
                <path id="Trazado_85160-4" data-name="Trazado 85160" d="M2.678,5.43C15.659-2.62,34.217-.349,48.211,3.484,63.85,7.773,77.667,16.861,88.735,28.568c24.32,25.728,28.845,63.186,9.761,93.2-5.178,8.146-15.088,15.288-24.8,9.6-9.247-5.416-6.947-17.864-1.492-24.969,9.946-12.957,11.825-27.918,7.033-43.256-4.429-14.168-15.845-25.392-27.74-33.6a72,72,0,0,0-21.588-9.859c-8.574-2.415-17.268-2.172-25.889-4.008C-.931,14.621-1.225,7.85,2.678,5.43Z" transform="translate(0 0)" fill="#f2f2f2"/>
              </g>
            </g>
            <g id="Grupo_36326-4" data-name="Grupo 36326" transform="translate(17.98 129.42)">
              <g id="Grupo_36325-4" data-name="Grupo 36325">
                <path id="Trazado_85161-4" data-name="Trazado 85161" d="M11.768,6.949c.9-2.348-1.346-4.027.973-1.632a46.549,46.549,0,0,1,3.328,3.854c2.715,3.475,5.666,6.772,8.6,10.061,5.791,6.5,11.284,13.262,17.208,19.651C60.144,58.6,83.686,70.065,109.357,76.81,153.384,88.375,200.049,99,228.745,137.472c16.929,22.7,18.275,52.4,20.74,79.471,1.206,13.236,3.261,26.889,9.569,38.748,4.878,9.174,13.949,12.918,23.612,14.908,16.544,3.407,40.982-1.379,49.6-17.013,8.487-15.386,3.765-38.889,2.826-55.614-1.906-33.886,9.657-61.033,38.813-79.694,14.125-9.038,33.06-12.589,49.477-9.107,17.325,3.674,30.628,13.622,42.97,25.945,10,9.982-2.631,24.885-14.56,18.87-11.015-5.551-23.681-10.1-36-11.565-13.928-1.653-25.491,4.664-35.259,14.108-16.5,15.953-10.724,41.067-9.737,61.506,1.06,21.84-.906,44.493-14.85,62.244-14.973,19.058-41.389,25.233-64.52,25.661-25.354.466-49.133-10.84-62.513-32.632-15.934-25.957-12.9-58.572-17.82-87.408-8.293-48.6-54.581-60.386-95.39-73.048-36-11.171-68.482-24.832-91.531-56.114C16.958,46.941,11.032,36,5.794,25.062,2.942,19.107-4.407,5.831,3.679.73c3.864-2.437,9.843,1.636,8.088,6.219Z" transform="translate(0 0)" fill="#f2f2f2"/>
              </g>
            </g>
            <g id="Grupo_36328-4" data-name="Grupo 36328" transform="translate(12.474 46.35)">
              <g id="Grupo_36327-4" data-name="Grupo 36327">
                <path id="Trazado_85162-4" data-name="Trazado 85162" d="M20.65,13.056c.308-.637-.012-.286.154.694A11.6,11.6,0,0,0,22.8,17.821c2.492,3.922,6.454,8.079,9.9,11.652C42.993,40.15,55.19,49.1,67.215,57.715c10.89,7.8,22.2,15.134,33.7,22,16.268,9.722,35.316,14.514,53.461,19.4,45.209,12.164,93.619,24.356,127.511,58.966,33.283,33.99,33.759,81.734,32.341,126.259-.658,20.632-32.582,20.726-32.092,0,.608-25.745-2.811-50.738,1.158-76.438a88.531,88.531,0,0,1,43.169-63.243c27.091-15.833,58.764-21.684,89.575-24.412,9.155-.807,20.18-1.641,26.93-4.775,8.415-3.9,15.816-13.714,20.762-22.8,6.887-12.661,27.062-6.885,26.865,7.276-.2,14.622-2.879,27.5-12.764,38.664-7.694,8.689-19.166,13.973-30.095,17.119-11.02,3.172-22.847,3.7-34.228,4.489a204.316,204.316,0,0,0-42.619,7.425c-24.714,7.077-45.113,18.781-52.433,44.479-6.476,22.725-4.948,48.831-4.229,72.219H282.138c-1.377-39.591-3.376-85.367-37.993-111.038-41.814-31.015-96-34.732-142.709-55.069C75.075,106.755,51.41,87.4,31.024,67.382,17.11,53.731-15.961,19.9,9.142,1.551,16.606-3.9,23.916,6.258,20.65,13.056Z" fill="#f2f2f2"/>
              </g>
            </g>
            <g id="Grupo_36330-4" data-name="Grupo 36330" transform="translate(52.942 32.237)">
              <g id="Grupo_36329-4" data-name="Grupo 36329">
                <path id="Trazado_85163-4" data-name="Trazado 85163" d="M4.877.939C15.006,12.384,30.4,21.032,43.286,29.132A252.492,252.492,0,0,0,88.832,51.518c31.813,11.96,66,19.707,99.68,24,41.773,5.33,85.286,9.573,127.309,5.947,23.061-1.99,43.83-9.927,65.017-18.661a226.631,226.631,0,0,1,29.907-10.3c10.251-2.631,21.91-.6,32.116,1.288,10.333,1.913,10.39,18.988,0,20.853-20.644,3.708-41.3,11.491-60.771,19.183-22.984,9.083-45.529,14.855-70.212,16.955-25.3,2.153-50.654.147-75.885-1.973-18.94-1.593-37.806-3.006-56.611-5.818C142.8,97.53,107.39,87.777,73.809,72.184a209.383,209.383,0,0,1-45.37-28.242C15.008,32.864,7.987,19.67.316,4.456-1.1,1.64,2.585-1.649,4.877.939Z" fill="#f2f2f2"/>
              </g>
            </g>
            <g id="Grupo_36332-4" data-name="Grupo 36332" transform="translate(55.968 0)">
              <g id="Grupo_36331-4" data-name="Grupo 36331">
                <path id="Trazado_85164-4" data-name="Trazado 85164" d="M6.9,1.07c6.9,6.5,16.669,10.845,25.164,14.9A249.541,249.541,0,0,0,69.97,29.91C106.522,40.579,145.8,42.98,183.679,41.754c42.713-1.387,84.428,7.689,127.011,7.858a251.742,251.742,0,0,0,58.036-6.82C389.749,37.914,409.4,27.337,430.65,24.1c11.493-1.752,23.619,12.257,12.664,21.752C426.776,60.187,405.3,66.387,384.436,71.926a290.1,290.1,0,0,1-66.247,9.122c-23.652.649-47.045-2.766-70.445-5.7-24.123-3.023-47.73-3.773-72-3.532-39.968.4-80.377-5.323-117.983-19.123C34.138,44.03,8.56,30.23.208,4.965-1.1,1,4.117-1.554,6.9,1.07Z" fill="#f2f2f2"/>
              </g>
            </g>
          </g>
        </g>
      </g>
      <g transform="translate(4973 2939.601)">
        <g id="Grupo_36334-5" data-name="Grupo 36334" transform="translate(-4449 -2465.601)" opacity="0.102">
          <g id="Grupo_39109-5" data-name="Grupo 39109">
            <g id="Grupo_36322-5" data-name="Grupo 36322" transform="translate(0 194.43)">
              <g id="Grupo_36321-5" data-name="Grupo 36321">
                <path id="Trazado_85159-5" data-name="Trazado 85159" d="M143.581,227.694c-.043-10.525,5.174-18.854,7.521-28.768,3.22-13.586,3.172-28.552.894-42.287a91.085,91.085,0,0,0-4.482-16.189,33.318,33.318,0,0,0-6.1-9.987,29.715,29.715,0,0,0-7.512-4.9c-6.411-2.437-13.536-2.9-20.291-3.66-15.819-1.778-31.448-3.542-46.293-9.578A147.732,147.732,0,0,1,27.136,87.476c-11.722-9.927-19.438-22.4-25-36.525C-.931,43.168-.116,33.287,1.023,25.216,2.1,17.617,7.34,11.937,11.3,5.66c5.07-8.033,19.808-7.891,21.776,2.85,1.108,6.027,5.121,10.873,7.19,16.705,1.833,5.169,5.813,10.753,8.845,15.319,5.779,8.694,15.228,15.78,24.6,21.36,26.589,15.836,59.622,7.971,86.079,23.484,26.409,15.485,34.73,46.908,33.288,75.554A119.836,119.836,0,0,1,180.55,207.6c-5.5,11.116-14.211,18.008-23.458,25.685-5.123,4.253-13.483,1.778-13.512-5.6Z" transform="translate(0 0)" fill="#f2f2f2"/>
              </g>
            </g>
            <g id="Grupo_36324-5" data-name="Grupo 36324" transform="translate(14.659 319.72)">
              <g id="Grupo_36323-5" data-name="Grupo 36323" transform="translate(0 0)">
                <path id="Trazado_85160-5" data-name="Trazado 85160" d="M2.678,5.43C15.659-2.62,34.217-.349,48.211,3.484,63.85,7.773,77.667,16.861,88.735,28.568c24.32,25.728,28.845,63.186,9.761,93.2-5.178,8.146-15.088,15.288-24.8,9.6-9.247-5.416-6.947-17.864-1.492-24.969,9.946-12.957,11.825-27.918,7.033-43.256-4.429-14.168-15.845-25.392-27.74-33.6a72,72,0,0,0-21.588-9.859c-8.574-2.415-17.268-2.172-25.889-4.008C-.931,14.621-1.225,7.85,2.678,5.43Z" transform="translate(0 0)" fill="#f2f2f2"/>
              </g>
            </g>
            <g id="Grupo_36326-5" data-name="Grupo 36326" transform="translate(17.98 129.42)">
              <g id="Grupo_36325-5" data-name="Grupo 36325">
                <path id="Trazado_85161-5" data-name="Trazado 85161" d="M11.768,6.949c.9-2.348-1.346-4.027.973-1.632a46.549,46.549,0,0,1,3.328,3.854c2.715,3.475,5.666,6.772,8.6,10.061,5.791,6.5,11.284,13.262,17.208,19.651C60.144,58.6,83.686,70.065,109.357,76.81,153.384,88.375,200.049,99,228.745,137.472c16.929,22.7,18.275,52.4,20.74,79.471,1.206,13.236,3.261,26.889,9.569,38.748,4.878,9.174,13.949,12.918,23.612,14.908,16.544,3.407,40.982-1.379,49.6-17.013,8.487-15.386,3.765-38.889,2.826-55.614-1.906-33.886,9.657-61.033,38.813-79.694,14.125-9.038,33.06-12.589,49.477-9.107,17.325,3.674,30.628,13.622,42.97,25.945,10,9.982-2.631,24.885-14.56,18.87-11.015-5.551-23.681-10.1-36-11.565-13.928-1.653-25.491,4.664-35.259,14.108-16.5,15.953-10.724,41.067-9.737,61.506,1.06,21.84-.906,44.493-14.85,62.244-14.973,19.058-41.389,25.233-64.52,25.661-25.354.466-49.133-10.84-62.513-32.632-15.934-25.957-12.9-58.572-17.82-87.408-8.293-48.6-54.581-60.386-95.39-73.048-36-11.171-68.482-24.832-91.531-56.114C16.958,46.941,11.032,36,5.794,25.062,2.942,19.107-4.407,5.831,3.679.73c3.864-2.437,9.843,1.636,8.088,6.219Z" transform="translate(0 0)" fill="#f2f2f2"/>
              </g>
            </g>
            <g id="Grupo_36328-5" data-name="Grupo 36328" transform="translate(12.474 46.35)">
              <g id="Grupo_36327-5" data-name="Grupo 36327">
                <path id="Trazado_85162-5" data-name="Trazado 85162" d="M20.65,13.056c.308-.637-.012-.286.154.694A11.6,11.6,0,0,0,22.8,17.821c2.492,3.922,6.454,8.079,9.9,11.652C42.993,40.15,55.19,49.1,67.215,57.715c10.89,7.8,22.2,15.134,33.7,22,16.268,9.722,35.316,14.514,53.461,19.4,45.209,12.164,93.619,24.356,127.511,58.966,33.283,33.99,33.759,81.734,32.341,126.259-.658,20.632-32.582,20.726-32.092,0,.608-25.745-2.811-50.738,1.158-76.438a88.531,88.531,0,0,1,43.169-63.243c27.091-15.833,58.764-21.684,89.575-24.412,9.155-.807,20.18-1.641,26.93-4.775,8.415-3.9,15.816-13.714,20.762-22.8,6.887-12.661,27.062-6.885,26.865,7.276-.2,14.622-2.879,27.5-12.764,38.664-7.694,8.689-19.166,13.973-30.095,17.119-11.02,3.172-22.847,3.7-34.228,4.489a204.316,204.316,0,0,0-42.619,7.425c-24.714,7.077-45.113,18.781-52.433,44.479-6.476,22.725-4.948,48.831-4.229,72.219H282.138c-1.377-39.591-3.376-85.367-37.993-111.038-41.814-31.015-96-34.732-142.709-55.069C75.075,106.755,51.41,87.4,31.024,67.382,17.11,53.731-15.961,19.9,9.142,1.551,16.606-3.9,23.916,6.258,20.65,13.056Z" fill="#f2f2f2"/>
              </g>
            </g>
            <g id="Grupo_36330-5" data-name="Grupo 36330" transform="translate(52.942 32.237)">
              <g id="Grupo_36329-5" data-name="Grupo 36329">
                <path id="Trazado_85163-5" data-name="Trazado 85163" d="M4.877.939C15.006,12.384,30.4,21.032,43.286,29.132A252.492,252.492,0,0,0,88.832,51.518c31.813,11.96,66,19.707,99.68,24,41.773,5.33,85.286,9.573,127.309,5.947,23.061-1.99,43.83-9.927,65.017-18.661a226.631,226.631,0,0,1,29.907-10.3c10.251-2.631,21.91-.6,32.116,1.288,10.333,1.913,10.39,18.988,0,20.853-20.644,3.708-41.3,11.491-60.771,19.183-22.984,9.083-45.529,14.855-70.212,16.955-25.3,2.153-50.654.147-75.885-1.973-18.94-1.593-37.806-3.006-56.611-5.818C142.8,97.53,107.39,87.777,73.809,72.184a209.383,209.383,0,0,1-45.37-28.242C15.008,32.864,7.987,19.67.316,4.456-1.1,1.64,2.585-1.649,4.877.939Z" fill="#f2f2f2"/>
              </g>
            </g>
            <g id="Grupo_36332-5" data-name="Grupo 36332" transform="translate(55.968 0)">
              <g id="Grupo_36331-5" data-name="Grupo 36331">
                <path id="Trazado_85164-5" data-name="Trazado 85164" d="M6.9,1.07c6.9,6.5,16.669,10.845,25.164,14.9A249.541,249.541,0,0,0,69.97,29.91C106.522,40.579,145.8,42.98,183.679,41.754c42.713-1.387,84.428,7.689,127.011,7.858a251.742,251.742,0,0,0,58.036-6.82C389.749,37.914,409.4,27.337,430.65,24.1c11.493-1.752,23.619,12.257,12.664,21.752C426.776,60.187,405.3,66.387,384.436,71.926a290.1,290.1,0,0,1-66.247,9.122c-23.652.649-47.045-2.766-70.445-5.7-24.123-3.023-47.73-3.773-72-3.532-39.968.4-80.377-5.323-117.983-19.123C34.138,44.03,8.56,30.23.208,4.965-1.1,1,4.117-1.554,6.9,1.07Z" fill="#f2f2f2"/>
              </g>
            </g>
          </g>
        </g>
      </g>
      <g transform="translate(5497 2939.601)">
        <g id="Grupo_36334-6" data-name="Grupo 36334" transform="translate(-4449 -2465.601)" opacity="0.102">
          <g id="Grupo_39109-6" data-name="Grupo 39109">
            <g id="Grupo_36322-6" data-name="Grupo 36322" transform="translate(0 194.43)">
              <g id="Grupo_36321-6" data-name="Grupo 36321">
                <path id="Trazado_85159-6" data-name="Trazado 85159" d="M143.581,227.694c-.043-10.525,5.174-18.854,7.521-28.768,3.22-13.586,3.172-28.552.894-42.287a91.085,91.085,0,0,0-4.482-16.189,33.318,33.318,0,0,0-6.1-9.987,29.715,29.715,0,0,0-7.512-4.9c-6.411-2.437-13.536-2.9-20.291-3.66-15.819-1.778-31.448-3.542-46.293-9.578A147.732,147.732,0,0,1,27.136,87.476c-11.722-9.927-19.438-22.4-25-36.525C-.931,43.168-.116,33.287,1.023,25.216,2.1,17.617,7.34,11.937,11.3,5.66c5.07-8.033,19.808-7.891,21.776,2.85,1.108,6.027,5.121,10.873,7.19,16.705,1.833,5.169,5.813,10.753,8.845,15.319,5.779,8.694,15.228,15.78,24.6,21.36,26.589,15.836,59.622,7.971,86.079,23.484,26.409,15.485,34.73,46.908,33.288,75.554A119.836,119.836,0,0,1,180.55,207.6c-5.5,11.116-14.211,18.008-23.458,25.685-5.123,4.253-13.483,1.778-13.512-5.6Z" transform="translate(0 0)" fill="#f2f2f2"/>
              </g>
            </g>
            <g id="Grupo_36324-6" data-name="Grupo 36324" transform="translate(14.659 319.72)">
              <g id="Grupo_36323-6" data-name="Grupo 36323" transform="translate(0 0)">
                <path id="Trazado_85160-6" data-name="Trazado 85160" d="M2.678,5.43C15.659-2.62,34.217-.349,48.211,3.484,63.85,7.773,77.667,16.861,88.735,28.568c24.32,25.728,28.845,63.186,9.761,93.2-5.178,8.146-15.088,15.288-24.8,9.6-9.247-5.416-6.947-17.864-1.492-24.969,9.946-12.957,11.825-27.918,7.033-43.256-4.429-14.168-15.845-25.392-27.74-33.6a72,72,0,0,0-21.588-9.859c-8.574-2.415-17.268-2.172-25.889-4.008C-.931,14.621-1.225,7.85,2.678,5.43Z" transform="translate(0 0)" fill="#f2f2f2"/>
              </g>
            </g>
            <g id="Grupo_36326-6" data-name="Grupo 36326" transform="translate(17.98 129.42)">
              <g id="Grupo_36325-6" data-name="Grupo 36325">
                <path id="Trazado_85161-6" data-name="Trazado 85161" d="M11.768,6.949c.9-2.348-1.346-4.027.973-1.632a46.549,46.549,0,0,1,3.328,3.854c2.715,3.475,5.666,6.772,8.6,10.061,5.791,6.5,11.284,13.262,17.208,19.651C60.144,58.6,83.686,70.065,109.357,76.81,153.384,88.375,200.049,99,228.745,137.472c16.929,22.7,18.275,52.4,20.74,79.471,1.206,13.236,3.261,26.889,9.569,38.748,4.878,9.174,13.949,12.918,23.612,14.908,16.544,3.407,40.982-1.379,49.6-17.013,8.487-15.386,3.765-38.889,2.826-55.614-1.906-33.886,9.657-61.033,38.813-79.694,14.125-9.038,33.06-12.589,49.477-9.107,17.325,3.674,30.628,13.622,42.97,25.945,10,9.982-2.631,24.885-14.56,18.87-11.015-5.551-23.681-10.1-36-11.565-13.928-1.653-25.491,4.664-35.259,14.108-16.5,15.953-10.724,41.067-9.737,61.506,1.06,21.84-.906,44.493-14.85,62.244-14.973,19.058-41.389,25.233-64.52,25.661-25.354.466-49.133-10.84-62.513-32.632-15.934-25.957-12.9-58.572-17.82-87.408-8.293-48.6-54.581-60.386-95.39-73.048-36-11.171-68.482-24.832-91.531-56.114C16.958,46.941,11.032,36,5.794,25.062,2.942,19.107-4.407,5.831,3.679.73c3.864-2.437,9.843,1.636,8.088,6.219Z" transform="translate(0 0)" fill="#f2f2f2"/>
              </g>
            </g>
            <g id="Grupo_36328-6" data-name="Grupo 36328" transform="translate(12.474 46.35)">
              <g id="Grupo_36327-6" data-name="Grupo 36327">
                <path id="Trazado_85162-6" data-name="Trazado 85162" d="M20.65,13.056c.308-.637-.012-.286.154.694A11.6,11.6,0,0,0,22.8,17.821c2.492,3.922,6.454,8.079,9.9,11.652C42.993,40.15,55.19,49.1,67.215,57.715c10.89,7.8,22.2,15.134,33.7,22,16.268,9.722,35.316,14.514,53.461,19.4,45.209,12.164,93.619,24.356,127.511,58.966,33.283,33.99,33.759,81.734,32.341,126.259-.658,20.632-32.582,20.726-32.092,0,.608-25.745-2.811-50.738,1.158-76.438a88.531,88.531,0,0,1,43.169-63.243c27.091-15.833,58.764-21.684,89.575-24.412,9.155-.807,20.18-1.641,26.93-4.775,8.415-3.9,15.816-13.714,20.762-22.8,6.887-12.661,27.062-6.885,26.865,7.276-.2,14.622-2.879,27.5-12.764,38.664-7.694,8.689-19.166,13.973-30.095,17.119-11.02,3.172-22.847,3.7-34.228,4.489a204.316,204.316,0,0,0-42.619,7.425c-24.714,7.077-45.113,18.781-52.433,44.479-6.476,22.725-4.948,48.831-4.229,72.219H282.138c-1.377-39.591-3.376-85.367-37.993-111.038-41.814-31.015-96-34.732-142.709-55.069C75.075,106.755,51.41,87.4,31.024,67.382,17.11,53.731-15.961,19.9,9.142,1.551,16.606-3.9,23.916,6.258,20.65,13.056Z" fill="#f2f2f2"/>
              </g>
            </g>
            <g id="Grupo_36330-6" data-name="Grupo 36330" transform="translate(52.942 32.237)">
              <g id="Grupo_36329-6" data-name="Grupo 36329">
                <path id="Trazado_85163-6" data-name="Trazado 85163" d="M4.877.939C15.006,12.384,30.4,21.032,43.286,29.132A252.492,252.492,0,0,0,88.832,51.518c31.813,11.96,66,19.707,99.68,24,41.773,5.33,85.286,9.573,127.309,5.947,23.061-1.99,43.83-9.927,65.017-18.661a226.631,226.631,0,0,1,29.907-10.3c10.251-2.631,21.91-.6,32.116,1.288,10.333,1.913,10.39,18.988,0,20.853-20.644,3.708-41.3,11.491-60.771,19.183-22.984,9.083-45.529,14.855-70.212,16.955-25.3,2.153-50.654.147-75.885-1.973-18.94-1.593-37.806-3.006-56.611-5.818C142.8,97.53,107.39,87.777,73.809,72.184a209.383,209.383,0,0,1-45.37-28.242C15.008,32.864,7.987,19.67.316,4.456-1.1,1.64,2.585-1.649,4.877.939Z" fill="#f2f2f2"/>
              </g>
            </g>
            <g id="Grupo_36332-6" data-name="Grupo 36332" transform="translate(55.968 0)">
              <g id="Grupo_36331-6" data-name="Grupo 36331">
                <path id="Trazado_85164-6" data-name="Trazado 85164" d="M6.9,1.07c6.9,6.5,16.669,10.845,25.164,14.9A249.541,249.541,0,0,0,69.97,29.91C106.522,40.579,145.8,42.98,183.679,41.754c42.713-1.387,84.428,7.689,127.011,7.858a251.742,251.742,0,0,0,58.036-6.82C389.749,37.914,409.4,27.337,430.65,24.1c11.493-1.752,23.619,12.257,12.664,21.752C426.776,60.187,405.3,66.387,384.436,71.926a290.1,290.1,0,0,1-66.247,9.122c-23.652.649-47.045-2.766-70.445-5.7-24.123-3.023-47.73-3.773-72-3.532-39.968.4-80.377-5.323-117.983-19.123C34.138,44.03,8.56,30.23.208,4.965-1.1,1,4.117-1.554,6.9,1.07Z" fill="#f2f2f2"/>
              </g>
            </g>
          </g>
        </g>
      </g>
    </g>
  </g>
</svg>
