<svg xmlns="http://www.w3.org/2000/svg" width="276" height="138" viewBox="0 0 276 138">
  <g id="Grupo_39118" data-name="Grupo 39118" transform="translate(-572 -3103)">
    <g id="Rectángulo_31685" data-name="Rectángulo 31685" transform="translate(572 3103)" fill="#d268cc" stroke="#d268cc" stroke-width="3">
      <rect width="276" height="138" rx="15" stroke="none"/>
      <rect x="1.5" y="1.5" width="273" height="135" rx="13.5" fill="none"/>
    </g>
    <path id="Trazado_86814" data-name="Trazado 86814" d="M43.944,18H40.359V.727h3.586ZM54.116,4.922a4.931,4.931,0,0,1,3.24,1.037A4.217,4.217,0,0,1,58.616,9.4V18H55.194V10.23a3.545,3.545,0,0,0-.27-1.547A1.9,1.9,0,0,0,53.05,7.7a2.325,2.325,0,0,0-2.332,1.441,4.951,4.951,0,0,0-.328,1.945V18H47.062V5.25h3.223V7.113A5.67,5.67,0,0,1,51.5,5.7,4.235,4.235,0,0,1,54.116,4.922Zm12.293,0a4.12,4.12,0,0,1,2.063.51,4.057,4.057,0,0,1,1.465,1.412V.75h3.387V18H70.077V16.23a4.711,4.711,0,0,1-1.629,1.652,4.573,4.573,0,0,1-2.273.516,4.747,4.747,0,0,1-3.768-1.811,6.953,6.953,0,0,1-1.529-4.646A8,8,0,0,1,62.384,6.8,4.9,4.9,0,0,1,66.409,4.922Zm.727,10.664a2.466,2.466,0,0,0,2.156-1.055,4.66,4.66,0,0,0,.738-2.73,4.188,4.188,0,0,0-1.184-3.352,2.547,2.547,0,0,0-1.687-.609,2.346,2.346,0,0,0-2.15,1.107,5.131,5.131,0,0,0-.686,2.748,5.085,5.085,0,0,0,.7,2.83A2.359,2.359,0,0,0,67.136,15.586ZM79.792,3.7H76.405V.621h3.387ZM76.405,5.227h3.387V18H76.405Zm14.25,4.582a2.964,2.964,0,0,0-.48-1.289,2.014,2.014,0,0,0-1.746-.773A2.3,2.3,0,0,0,86.12,9.422a7.006,7.006,0,0,0-.328,2.367,6.442,6.442,0,0,0,.328,2.262,2.229,2.229,0,0,0,2.25,1.594,1.984,1.984,0,0,0,1.664-.633,3.15,3.15,0,0,0,.6-1.641h3.41a5.587,5.587,0,0,1-1.1,2.883,5.355,5.355,0,0,1-4.652,2.191,5.442,5.442,0,0,1-4.535-1.828A7.4,7.4,0,0,1,82.3,11.871,7.506,7.506,0,0,1,83.905,6.75a5.588,5.588,0,0,1,4.43-1.828A6.67,6.67,0,0,1,92.267,6a5.014,5.014,0,0,1,1.811,3.809Zm12.762,1.98a3.629,3.629,0,0,1-.639.322,5.341,5.341,0,0,1-.885.229l-.75.141a4.843,4.843,0,0,0-1.512.457,1.532,1.532,0,0,0-.773,1.418,1.493,1.493,0,0,0,.475,1.236,1.786,1.786,0,0,0,1.154.381,3.4,3.4,0,0,0,1.986-.633,2.7,2.7,0,0,0,.943-2.309ZM101.39,10.23a5.213,5.213,0,0,0,1.324-.293,1,1,0,0,0,.715-.949,1.126,1.126,0,0,0-.545-1.084,3.4,3.4,0,0,0-1.6-.3,2.084,2.084,0,0,0-1.676.586,2.435,2.435,0,0,0-.469,1.172H95.917a4.9,4.9,0,0,1,.938-2.754q1.324-1.687,4.547-1.687a8.078,8.078,0,0,1,3.727.832,3.194,3.194,0,0,1,1.629,3.141v5.859q0,.609.023,1.477a1.857,1.857,0,0,0,.2.891,1.2,1.2,0,0,0,.492.387V18h-3.633a3.72,3.72,0,0,1-.211-.727q-.059-.34-.094-.773a6.862,6.862,0,0,1-1.594,1.277A4.794,4.794,0,0,1,99.5,18.4a4.191,4.191,0,0,1-2.865-.99A3.532,3.532,0,0,1,95.507,14.6a3.643,3.643,0,0,1,1.816-3.41,8.065,8.065,0,0,1,2.93-.82Zm13.043-5.309a4.12,4.12,0,0,1,2.063.51,4.057,4.057,0,0,1,1.465,1.412V.75h3.387V18H118.1V16.23a4.711,4.711,0,0,1-1.629,1.652,4.573,4.573,0,0,1-2.273.516,4.747,4.747,0,0,1-3.768-1.811,6.953,6.953,0,0,1-1.529-4.646A8,8,0,0,1,110.407,6.8,4.9,4.9,0,0,1,114.433,4.922Zm.727,10.664a2.466,2.466,0,0,0,2.156-1.055,4.66,4.66,0,0,0,.738-2.73,4.188,4.188,0,0,0-1.184-3.352,2.547,2.547,0,0,0-1.687-.609,2.346,2.346,0,0,0-2.15,1.107,5.131,5.131,0,0,0-.686,2.748,5.085,5.085,0,0,0,.7,2.83A2.359,2.359,0,0,0,115.159,15.586Zm14.953.059a2.647,2.647,0,0,0,2.25-1.043,4.852,4.852,0,0,0,.785-2.965,4.825,4.825,0,0,0-.785-2.959,2.966,2.966,0,0,0-4.506,0,4.8,4.8,0,0,0-.791,2.959,4.826,4.826,0,0,0,.791,2.965A2.663,2.663,0,0,0,130.112,15.645Zm6.539-4.008a7.4,7.4,0,0,1-1.617,4.811,7.032,7.032,0,0,1-9.82,0,7.4,7.4,0,0,1-1.617-4.811,7.454,7.454,0,0,1,1.617-4.793,6.96,6.96,0,0,1,9.82,0A7.454,7.454,0,0,1,136.652,11.637Zm9.328-6.715q.094,0,.158.006t.287.018V8.367q-.316-.035-.562-.047t-.4-.012a2.77,2.77,0,0,0-2.707,1.313,5.106,5.106,0,0,0-.387,2.273V18h-3.363V5.227h3.188V7.453a7.061,7.061,0,0,1,1.348-1.746A3.669,3.669,0,0,1,145.98,4.922Zm7.441,2.719a2.268,2.268,0,0,0-1.8.727,3.627,3.627,0,0,0-.8,1.969h5.191a2.907,2.907,0,0,0-.8-2.01A2.493,2.493,0,0,0,153.421,7.641Zm0-2.754a6.694,6.694,0,0,1,2.871.6A5.03,5.03,0,0,1,158.4,7.371a6.437,6.437,0,0,1,.973,2.637,17.028,17.028,0,0,1,.105,2.531h-8.742a3.174,3.174,0,0,0,1.207,2.7,2.843,2.843,0,0,0,1.664.48,2.4,2.4,0,0,0,1.676-.586,2.783,2.783,0,0,0,.621-.879h3.41a4.237,4.237,0,0,1-1.184,2.309,5.8,5.8,0,0,1-4.594,1.863,6.478,6.478,0,0,1-4.3-1.57q-1.863-1.57-1.863-5.109a7.1,7.1,0,0,1,1.682-5.086A5.75,5.75,0,0,1,153.421,4.887Zm10.91,9.035a2.23,2.23,0,0,0,.457,1.266,3.09,3.09,0,0,0,2.3.668,3.5,3.5,0,0,0,1.564-.293.983.983,0,0,0,.111-1.734,19.069,19.069,0,0,0-3.48-1.008,7.249,7.249,0,0,1-3.059-1.348,2.922,2.922,0,0,1-.891-2.3,3.984,3.984,0,0,1,1.389-3.041,5.577,5.577,0,0,1,3.908-1.271,7.17,7.17,0,0,1,3.9.955,4.091,4.091,0,0,1,1.729,3.3h-3.34a1.976,1.976,0,0,0-.363-1.02,2.286,2.286,0,0,0-1.875-.68,2.694,2.694,0,0,0-1.553.34.978.978,0,0,0-.463.8.872.872,0,0,0,.492.832,21.307,21.307,0,0,0,3.48.926,6.393,6.393,0,0,1,2.988,1.418,3.219,3.219,0,0,1,.984,2.4,3.882,3.882,0,0,1-1.412,3.1,8.472,8.472,0,0,1-8.812-.07,4.137,4.137,0,0,1-1.436-3.24Zm22.125-9a4.12,4.12,0,0,1,2.063.51,4.057,4.057,0,0,1,1.465,1.412V.75h3.387V18h-3.246V16.23a4.711,4.711,0,0,1-1.629,1.652,4.573,4.573,0,0,1-2.273.516,4.747,4.747,0,0,1-3.768-1.811,6.953,6.953,0,0,1-1.529-4.646A8,8,0,0,1,182.431,6.8,4.9,4.9,0,0,1,186.456,4.922Zm.727,10.664a2.466,2.466,0,0,0,2.156-1.055,4.66,4.66,0,0,0,.738-2.73,4.188,4.188,0,0,0-1.184-3.352,2.547,2.547,0,0,0-1.687-.609,2.346,2.346,0,0,0-2.15,1.107,5.131,5.131,0,0,0-.686,2.748,5.085,5.085,0,0,0,.7,2.83A2.359,2.359,0,0,0,187.183,15.586Zm14.262-7.945a2.268,2.268,0,0,0-1.8.727,3.627,3.627,0,0,0-.8,1.969h5.191a2.907,2.907,0,0,0-.8-2.01A2.493,2.493,0,0,0,201.444,7.641Zm0-2.754a6.694,6.694,0,0,1,2.871.6,5.03,5.03,0,0,1,2.109,1.887,6.437,6.437,0,0,1,.973,2.637,17.028,17.028,0,0,1,.105,2.531h-8.742a3.174,3.174,0,0,0,1.207,2.7,2.843,2.843,0,0,0,1.664.48,2.4,2.4,0,0,0,1.676-.586,2.783,2.783,0,0,0,.621-.879h3.41a4.237,4.237,0,0,1-1.184,2.309,5.8,5.8,0,0,1-4.594,1.863,6.478,6.478,0,0,1-4.3-1.57q-1.863-1.57-1.863-5.109a7.1,7.1,0,0,1,1.682-5.086A5.75,5.75,0,0,1,201.444,4.887ZM73.974,28.922q.094,0,.158.006t.287.018v3.422q-.316-.035-.562-.047t-.4-.012a2.77,2.77,0,0,0-2.707,1.313,5.106,5.106,0,0,0-.387,2.273V42H67V29.227h3.188v2.227a7.061,7.061,0,0,1,1.348-1.746A3.669,3.669,0,0,1,73.974,28.922Zm7.441,2.719a2.268,2.268,0,0,0-1.8.727,3.627,3.627,0,0,0-.8,1.969h5.191a2.907,2.907,0,0,0-.8-2.01A2.493,2.493,0,0,0,81.415,31.641Zm0-2.754a6.694,6.694,0,0,1,2.871.6A5.03,5.03,0,0,1,86.4,31.371a6.437,6.437,0,0,1,.973,2.637,17.028,17.028,0,0,1,.105,2.531H78.732a3.174,3.174,0,0,0,1.207,2.7,2.843,2.843,0,0,0,1.664.48,2.4,2.4,0,0,0,1.676-.586,2.783,2.783,0,0,0,.621-.879h3.41a4.237,4.237,0,0,1-1.184,2.309,5.8,5.8,0,0,1-4.594,1.863,6.478,6.478,0,0,1-4.3-1.57q-1.863-1.57-1.863-5.109a7.1,7.1,0,0,1,1.682-5.086A5.75,5.75,0,0,1,81.415,28.887Zm17.109,6.727A5.027,5.027,0,0,0,97.851,33a2.346,2.346,0,0,0-2.186-1.137,2.487,2.487,0,0,0-2.5,1.723,6.534,6.534,0,0,0-.352,2.32A3.7,3.7,0,0,0,94,39.035a2.7,2.7,0,0,0,1.664.527,2.411,2.411,0,0,0,2.127-1.078A5.028,5.028,0,0,0,98.525,35.613Zm-1.9-6.668a5,5,0,0,1,3.791,1.652,6.837,6.837,0,0,1,1.553,4.852,7.7,7.7,0,0,1-1.518,5.145,4.913,4.913,0,0,1-3.908,1.77,4.079,4.079,0,0,1-2.531-.762,4.911,4.911,0,0,1-1.078-1.23v6.656h-3.3v-17.8h3.2v1.887A5.362,5.362,0,0,1,93.978,29.8,4.22,4.22,0,0,1,96.626,28.945Zm14.7-.023q.094,0,.158.006t.287.018v3.422q-.316-.035-.562-.047t-.4-.012a2.77,2.77,0,0,0-2.707,1.313,5.106,5.106,0,0,0-.387,2.273V42h-3.363V29.227h3.188v2.227a7.061,7.061,0,0,1,1.348-1.746A3.669,3.669,0,0,1,111.321,28.922Zm8.133,10.723A2.647,2.647,0,0,0,121.7,38.6a4.852,4.852,0,0,0,.785-2.965,4.825,4.825,0,0,0-.785-2.959,2.966,2.966,0,0,0-4.506,0,4.8,4.8,0,0,0-.791,2.959A4.826,4.826,0,0,0,117.2,38.6,2.663,2.663,0,0,0,119.454,39.645Zm6.539-4.008a7.4,7.4,0,0,1-1.617,4.811,7.032,7.032,0,0,1-9.82,0,7.937,7.937,0,0,1,0-9.6,6.96,6.96,0,0,1,9.82,0A7.454,7.454,0,0,1,125.993,35.637Zm10.02-1.828a2.964,2.964,0,0,0-.48-1.289,2.014,2.014,0,0,0-1.746-.773,2.3,2.3,0,0,0-2.309,1.676,7.006,7.006,0,0,0-.328,2.367,6.442,6.442,0,0,0,.328,2.262,2.229,2.229,0,0,0,2.25,1.594,1.984,1.984,0,0,0,1.664-.633,3.15,3.15,0,0,0,.6-1.641h3.41a5.587,5.587,0,0,1-1.1,2.883,5.355,5.355,0,0,1-4.652,2.191,5.442,5.442,0,0,1-4.535-1.828,7.4,7.4,0,0,1-1.453-4.746,7.506,7.506,0,0,1,1.605-5.121,5.588,5.588,0,0,1,4.43-1.828A6.67,6.67,0,0,1,137.624,30a5.014,5.014,0,0,1,1.811,3.809Zm10.758-2.168a2.268,2.268,0,0,0-1.8.727,3.627,3.627,0,0,0-.8,1.969h5.191a2.907,2.907,0,0,0-.8-2.01A2.493,2.493,0,0,0,146.771,31.641Zm0-2.754a6.694,6.694,0,0,1,2.871.6,5.03,5.03,0,0,1,2.109,1.887,6.437,6.437,0,0,1,.973,2.637,17.028,17.028,0,0,1,.105,2.531h-8.742a3.174,3.174,0,0,0,1.207,2.7,2.843,2.843,0,0,0,1.664.48,2.4,2.4,0,0,0,1.676-.586,2.783,2.783,0,0,0,.621-.879h3.41a4.237,4.237,0,0,1-1.184,2.309,5.8,5.8,0,0,1-4.594,1.863,6.478,6.478,0,0,1-4.3-1.57q-1.863-1.57-1.863-5.109a7.1,7.1,0,0,1,1.682-5.086A5.75,5.75,0,0,1,146.771,28.887Zm10.91,9.035a2.23,2.23,0,0,0,.457,1.266,3.09,3.09,0,0,0,2.3.668A3.5,3.5,0,0,0,162,39.563a.983.983,0,0,0,.111-1.734,19.069,19.069,0,0,0-3.48-1.008,7.249,7.249,0,0,1-3.059-1.348,2.922,2.922,0,0,1-.891-2.3,3.984,3.984,0,0,1,1.389-3.041,5.577,5.577,0,0,1,3.908-1.271,7.17,7.17,0,0,1,3.9.955,4.091,4.091,0,0,1,1.729,3.3h-3.34a1.976,1.976,0,0,0-.363-1.02,2.286,2.286,0,0,0-1.875-.68,2.694,2.694,0,0,0-1.553.34.978.978,0,0,0-.463.8.872.872,0,0,0,.492.832,21.307,21.307,0,0,0,3.48.926,6.393,6.393,0,0,1,2.988,1.418,3.219,3.219,0,0,1,.984,2.4,3.882,3.882,0,0,1-1.412,3.1,8.472,8.472,0,0,1-8.812-.07,4.137,4.137,0,0,1-1.436-3.24Zm16.477,1.723a2.647,2.647,0,0,0,2.25-1.043,4.852,4.852,0,0,0,.785-2.965,4.825,4.825,0,0,0-.785-2.959,2.966,2.966,0,0,0-4.506,0,4.8,4.8,0,0,0-.791,2.959A4.826,4.826,0,0,0,171.9,38.6,2.663,2.663,0,0,0,174.157,39.645Zm6.539-4.008a7.4,7.4,0,0,1-1.617,4.811,7.032,7.032,0,0,1-9.82,0,7.937,7.937,0,0,1,0-9.6,6.96,6.96,0,0,1,9.82,0A7.454,7.454,0,0,1,180.7,35.637Z" transform="translate(590.261 3142.614)" fill="#fff"/>
  </g>
</svg>
