<svg xmlns="http://www.w3.org/2000/svg" width="481.055" height="39.273" viewBox="0 0 481.055 39.273">
  <g id="Grupo_39121" data-name="Grupo 39121" transform="translate(-980.492 -3533.104)">
    <g id="Grupo_37999" data-name="Grupo 37999" transform="translate(524 -204)">
      <path id="Trazado_86819" data-name="Trazado 86819" d="M33.211.523V7.617A4.173,4.173,0,0,0,33.68,9.7a2.463,2.463,0,0,0,2.344,1.25,2.753,2.753,0,0,0,2.688-1.352,4.3,4.3,0,0,0,.383-1.977V.523h1.578V6.969a7.457,7.457,0,0,1-.57,3.258Q39.055,12.3,36.148,12.3T32.2,10.227a7.457,7.457,0,0,1-.57-3.258V.523Zm9.68,3.109h1.336V4.82a3.747,3.747,0,0,1,1.258-1.055,3.354,3.354,0,0,1,1.477-.32,2.435,2.435,0,0,1,2.406,1.242,4.411,4.411,0,0,1,.344,1.945V12h-1.43V6.727a2.856,2.856,0,0,0-.227-1.234A1.374,1.374,0,0,0,46.7,4.711a2.768,2.768,0,0,0-.82.1,2.113,2.113,0,0,0-1.016.688,2.07,2.07,0,0,0-.457.855A5.758,5.758,0,0,0,44.3,7.617V12H42.891Zm8.9.039h1.43V12h-1.43Zm0-3.148h1.43V2.117h-1.43Zm4.445,7.391a4.148,4.148,0,0,0,.57,2.25,2,2,0,0,0,1.828.906,1.925,1.925,0,0,0,1.605-.84,3.966,3.966,0,0,0,.629-2.41,3.564,3.564,0,0,0-.648-2.348,2.023,2.023,0,0,0-1.6-.762,2.114,2.114,0,0,0-1.723.813A3.721,3.721,0,0,0,56.234,7.914Zm2.117-4.43a2.977,2.977,0,0,1,1.609.406,3.78,3.78,0,0,1,.852.82V.484h1.352V12H60.9V10.836a3.043,3.043,0,0,1-1.164,1.117A3.332,3.332,0,0,1,58.2,12.3a3.117,3.117,0,0,1-2.422-1.176A4.6,4.6,0,0,1,54.75,7.992a5.4,5.4,0,0,1,.934-3.168A3.057,3.057,0,0,1,58.352,3.484ZM65.32,9.773a1.158,1.158,0,0,0,.445.961,1.651,1.651,0,0,0,1.055.352,3.207,3.207,0,0,0,1.438-.344A1.935,1.935,0,0,0,69.43,8.875V7.742a2.406,2.406,0,0,1-.664.273,5.659,5.659,0,0,1-.8.156l-.852.109a3.257,3.257,0,0,0-1.148.32A1.248,1.248,0,0,0,65.32,9.773ZM68.727,6.93a.764.764,0,0,0,.648-.406,1.236,1.236,0,0,0,.094-.539,1.142,1.142,0,0,0-.512-1.043,2.745,2.745,0,0,0-1.465-.324,1.861,1.861,0,0,0-1.562.594,1.953,1.953,0,0,0-.336.977H64.281a2.416,2.416,0,0,1,1-2.152,4.122,4.122,0,0,1,2.238-.605,4.554,4.554,0,0,1,2.4.563,1.908,1.908,0,0,1,.914,1.75v4.82a.617.617,0,0,0,.09.352.433.433,0,0,0,.379.133q.094,0,.211-.012t.25-.035v1.039a3.916,3.916,0,0,1-.5.117,3.654,3.654,0,0,1-.469.023,1.157,1.157,0,0,1-1.055-.516,1.99,1.99,0,0,1-.242-.773,3.578,3.578,0,0,1-1.234.977,3.818,3.818,0,0,1-1.773.414,2.637,2.637,0,0,1-1.9-.707,2.349,2.349,0,0,1-.738-1.77A2.279,2.279,0,0,1,64.578,8a3.457,3.457,0,0,1,1.906-.789Zm5.3.984a4.147,4.147,0,0,0,.57,2.25,2,2,0,0,0,1.828.906,1.925,1.925,0,0,0,1.605-.84,3.966,3.966,0,0,0,.629-2.41,3.564,3.564,0,0,0-.648-2.348,2.023,2.023,0,0,0-1.6-.762,2.114,2.114,0,0,0-1.723.813A3.721,3.721,0,0,0,74.031,7.914Zm2.117-4.43a2.977,2.977,0,0,1,1.609.406,3.78,3.78,0,0,1,.852.82V.484h1.352V12H78.7V10.836a3.043,3.043,0,0,1-1.164,1.117,3.332,3.332,0,0,1-1.539.344,3.117,3.117,0,0,1-2.422-1.176,4.6,4.6,0,0,1-1.023-3.129,5.4,5.4,0,0,1,.934-3.168A3.057,3.057,0,0,1,76.148,3.484Zm9.375-.039a3.817,3.817,0,0,1,1.727.418,3.184,3.184,0,0,1,1.273,1.082,3.733,3.733,0,0,1,.563,1.477,9.66,9.66,0,0,1,.125,1.844H83.078a3.579,3.579,0,0,0,.6,2.043,2.014,2.014,0,0,0,1.742.77,2.252,2.252,0,0,0,1.758-.727,2.449,2.449,0,0,0,.531-.977h1.383A2.912,2.912,0,0,1,88.73,10.4a3.654,3.654,0,0,1-.691.926,3.277,3.277,0,0,1-1.586.844A4.818,4.818,0,0,1,85.3,12.3a3.524,3.524,0,0,1-2.648-1.137A4.423,4.423,0,0,1,81.57,7.977,4.809,4.809,0,0,1,82.664,4.7,3.608,3.608,0,0,1,85.523,3.445Zm2.242,3.7a3.643,3.643,0,0,0-.4-1.461,2.042,2.042,0,0,0-1.93-1.016,2.139,2.139,0,0,0-1.625.7,2.641,2.641,0,0,0-.7,1.777Zm4.008,2.227a2.045,2.045,0,0,0,.352,1.078,2.209,2.209,0,0,0,1.844.68,2.719,2.719,0,0,0,1.375-.34,1.129,1.129,0,0,0,.594-1.051.9.9,0,0,0-.477-.82,5.666,5.666,0,0,0-1.2-.4l-1.117-.281a5.45,5.45,0,0,1-1.578-.594,1.775,1.775,0,0,1-.906-1.578,2.411,2.411,0,0,1,.855-1.922,3.413,3.413,0,0,1,2.3-.734,3.194,3.194,0,0,1,2.727,1.109,2.407,2.407,0,0,1,.508,1.516H95.719a1.627,1.627,0,0,0-.336-.867,2.143,2.143,0,0,0-1.68-.555,2.008,2.008,0,0,0-1.207.3.955.955,0,0,0-.41.8.991.991,0,0,0,.539.875,3.239,3.239,0,0,0,.922.344l.93.227a7.188,7.188,0,0,1,2.031.711,1.882,1.882,0,0,1,.82,1.7,2.584,2.584,0,0,1-.848,1.93,3.608,3.608,0,0,1-2.582.813,3.464,3.464,0,0,1-2.645-.848,3.206,3.206,0,0,1-.832-2.1Zm12.5-1.461a4.147,4.147,0,0,0,.57,2.25,2,2,0,0,0,1.828.906,1.925,1.925,0,0,0,1.605-.84,3.966,3.966,0,0,0,.629-2.41,3.564,3.564,0,0,0-.648-2.348,2.023,2.023,0,0,0-1.6-.762,2.114,2.114,0,0,0-1.723.813A3.721,3.721,0,0,0,104.273,7.914Zm2.117-4.43A2.977,2.977,0,0,1,108,3.891a3.78,3.78,0,0,1,.852.82V.484H110.2V12h-1.266V10.836a3.043,3.043,0,0,1-1.164,1.117,3.332,3.332,0,0,1-1.539.344,3.117,3.117,0,0,1-2.422-1.176,4.6,4.6,0,0,1-1.023-3.129,5.4,5.4,0,0,1,.934-3.168A3.057,3.057,0,0,1,106.391,3.484Zm9.375-.039a3.817,3.817,0,0,1,1.727.418,3.184,3.184,0,0,1,1.273,1.082,3.733,3.733,0,0,1,.563,1.477,9.66,9.66,0,0,1,.125,1.844H113.32a3.579,3.579,0,0,0,.6,2.043,2.014,2.014,0,0,0,1.742.77,2.252,2.252,0,0,0,1.758-.727,2.449,2.449,0,0,0,.531-.977h1.383a2.912,2.912,0,0,1-.363,1.027,3.654,3.654,0,0,1-.691.926,3.277,3.277,0,0,1-1.586.844,4.818,4.818,0,0,1-1.148.125A3.524,3.524,0,0,1,112.9,11.16a4.423,4.423,0,0,1-1.086-3.184A4.809,4.809,0,0,1,112.906,4.7,3.608,3.608,0,0,1,115.766,3.445Zm2.242,3.7a3.643,3.643,0,0,0-.4-1.461,2.042,2.042,0,0,0-1.93-1.016,2.139,2.139,0,0,0-1.625.7,2.641,2.641,0,0,0-.7,1.777Zm3.859-3.516,2.234,6.813,2.336-6.812h1.539L124.82,12h-1.5l-3.086-8.367Zm8.719,0V9.188a2.342,2.342,0,0,0,.2,1.047,1.417,1.417,0,0,0,1.4.75,1.977,1.977,0,0,0,2-1.312,5.207,5.207,0,0,0,.289-1.93V3.633h1.406V12h-1.328l.016-1.234a2.837,2.837,0,0,1-.68.8,2.991,2.991,0,0,1-1.953.656,2.519,2.519,0,0,1-2.437-1.2,3.56,3.56,0,0,1-.352-1.711V3.633Zm10.977-.187a3.817,3.817,0,0,1,1.727.418,3.184,3.184,0,0,1,1.273,1.082,3.733,3.733,0,0,1,.563,1.477,9.661,9.661,0,0,1,.125,1.844h-6.133a3.579,3.579,0,0,0,.6,2.043,2.014,2.014,0,0,0,1.742.77,2.252,2.252,0,0,0,1.758-.727,2.449,2.449,0,0,0,.531-.977h1.383a2.912,2.912,0,0,1-.363,1.027,3.654,3.654,0,0,1-.691.926,3.277,3.277,0,0,1-1.586.844,4.818,4.818,0,0,1-1.148.125A3.524,3.524,0,0,1,138.7,11.16a4.423,4.423,0,0,1-1.086-3.184A4.809,4.809,0,0,1,138.7,4.7,3.608,3.608,0,0,1,141.563,3.445Zm2.242,3.7a3.643,3.643,0,0,0-.4-1.461,2.042,2.042,0,0,0-1.93-1.016,2.139,2.139,0,0,0-1.625.7,2.641,2.641,0,0,0-.7,1.777ZM147.016.523h1.406V12h-1.406Zm3.8.773h1.422V3.633h1.336V4.781h-1.336v5.461a.591.591,0,0,0,.3.586,1.262,1.262,0,0,0,.547.086q.1,0,.219,0t.273-.02V12a3.139,3.139,0,0,1-.5.1,4.791,4.791,0,0,1-.566.031,1.527,1.527,0,0,1-1.336-.5,2.239,2.239,0,0,1-.352-1.309V4.781H149.68V3.633h1.133Zm5.242,8.477a1.158,1.158,0,0,0,.445.961,1.651,1.651,0,0,0,1.055.352,3.207,3.207,0,0,0,1.438-.344,1.935,1.935,0,0,0,1.172-1.867V7.742a2.406,2.406,0,0,1-.664.273,5.658,5.658,0,0,1-.8.156l-.852.109a3.257,3.257,0,0,0-1.148.32A1.248,1.248,0,0,0,156.055,9.773Zm3.406-2.844a.764.764,0,0,0,.648-.406,1.236,1.236,0,0,0,.094-.539,1.142,1.142,0,0,0-.512-1.043,2.745,2.745,0,0,0-1.465-.324,1.861,1.861,0,0,0-1.562.594,1.953,1.953,0,0,0-.336.977h-1.312a2.416,2.416,0,0,1,1-2.152,4.122,4.122,0,0,1,2.238-.605,4.554,4.554,0,0,1,2.4.563,1.908,1.908,0,0,1,.914,1.75v4.82a.617.617,0,0,0,.09.352.433.433,0,0,0,.379.133q.094,0,.211-.012T162.5,11v1.039a3.917,3.917,0,0,1-.5.117,3.654,3.654,0,0,1-.469.023,1.157,1.157,0,0,1-1.055-.516,1.99,1.99,0,0,1-.242-.773,3.578,3.578,0,0,1-1.234.977,3.818,3.818,0,0,1-1.773.414,2.637,2.637,0,0,1-1.9-.707,2.349,2.349,0,0,1-.738-1.77,2.279,2.279,0,0,1,.727-1.8,3.457,3.457,0,0,1,1.906-.789Zm5.25,2.445a2.045,2.045,0,0,0,.352,1.078,2.209,2.209,0,0,0,1.844.68,2.719,2.719,0,0,0,1.375-.34,1.129,1.129,0,0,0,.594-1.051.9.9,0,0,0-.477-.82,5.666,5.666,0,0,0-1.2-.4l-1.117-.281a5.45,5.45,0,0,1-1.578-.594,1.775,1.775,0,0,1-.906-1.578,2.411,2.411,0,0,1,.855-1.922,3.413,3.413,0,0,1,2.3-.734,3.194,3.194,0,0,1,2.727,1.109,2.407,2.407,0,0,1,.508,1.516h-1.328a1.627,1.627,0,0,0-.336-.867,2.143,2.143,0,0,0-1.68-.555,2.008,2.008,0,0,0-1.207.3.955.955,0,0,0-.41.8.991.991,0,0,0,.539.875,3.239,3.239,0,0,0,.922.344l.93.227a7.188,7.188,0,0,1,2.031.711,1.882,1.882,0,0,1,.82,1.7,2.584,2.584,0,0,1-.848,1.93,3.608,3.608,0,0,1-2.582.813,3.464,3.464,0,0,1-2.645-.848,3.206,3.206,0,0,1-.832-2.1ZM180.023.336a27.281,27.281,0,0,0-1.594,3.508,12.824,12.824,0,0,0-.555,3.953,12.885,12.885,0,0,0,.633,4.141,25,25,0,0,0,1.539,3.328H179.1q-1.141-1.781-1.414-2.273a10.56,10.56,0,0,1-.594-1.336,10.98,10.98,0,0,1-.609-2.469,10.351,10.351,0,0,1-.086-1.3,10.953,10.953,0,0,1,.727-4.117A23.7,23.7,0,0,1,179.047.336Zm5.109,3.109a3.817,3.817,0,0,1,1.727.418,3.184,3.184,0,0,1,1.273,1.082,3.733,3.733,0,0,1,.563,1.477,9.661,9.661,0,0,1,.125,1.844h-6.133a3.579,3.579,0,0,0,.6,2.043,2.014,2.014,0,0,0,1.742.77,2.252,2.252,0,0,0,1.758-.727,2.449,2.449,0,0,0,.531-.977H188.7a2.912,2.912,0,0,1-.363,1.027,3.654,3.654,0,0,1-.691.926,3.277,3.277,0,0,1-1.586.844,4.818,4.818,0,0,1-1.148.125,3.524,3.524,0,0,1-2.648-1.137,4.423,4.423,0,0,1-1.086-3.184A4.809,4.809,0,0,1,182.273,4.7,3.608,3.608,0,0,1,185.133,3.445Zm2.242,3.7a3.643,3.643,0,0,0-.4-1.461,2.042,2.042,0,0,0-1.93-1.016,2.139,2.139,0,0,0-1.625.7,2.641,2.641,0,0,0-.7,1.777Zm3.172-3.516h1.336V4.82a3.747,3.747,0,0,1,1.258-1.055,3.354,3.354,0,0,1,1.477-.32,2.435,2.435,0,0,1,2.406,1.242,4.411,4.411,0,0,1,.344,1.945V12h-1.43V6.727a2.855,2.855,0,0,0-.227-1.234,1.374,1.374,0,0,0-1.359-.781,2.768,2.768,0,0,0-.82.1,2.113,2.113,0,0,0-1.016.688,2.07,2.07,0,0,0-.457.855,5.758,5.758,0,0,0-.105,1.262V12h-1.406Zm14.75,0V9.188a2.342,2.342,0,0,0,.2,1.047,1.417,1.417,0,0,0,1.4.75,1.977,1.977,0,0,0,2-1.312,5.207,5.207,0,0,0,.289-1.93V3.633h1.406V12h-1.328l.016-1.234a2.837,2.837,0,0,1-.68.8,2.991,2.991,0,0,1-1.953.656,2.519,2.519,0,0,1-2.437-1.2,3.56,3.56,0,0,1-.352-1.711V3.633Zm7.492,0h1.336V4.82a3.747,3.747,0,0,1,1.258-1.055,3.354,3.354,0,0,1,1.477-.32,2.435,2.435,0,0,1,2.406,1.242,4.411,4.411,0,0,1,.344,1.945V12h-1.43V6.727a2.855,2.855,0,0,0-.227-1.234,1.374,1.374,0,0,0-1.359-.781,2.768,2.768,0,0,0-.82.1,2.113,2.113,0,0,0-1.016.688,2.07,2.07,0,0,0-.457.855,5.758,5.758,0,0,0-.105,1.262V12h-1.406Zm16.875,7.422a2.006,2.006,0,0,0,1.637-.824,3.922,3.922,0,0,0,.652-2.465,4.6,4.6,0,0,0-.289-1.719,2.118,2.118,0,0,0-4,.078,5.79,5.79,0,0,0-.289,1.984,4.207,4.207,0,0,0,.289,1.648A1.994,1.994,0,0,0,229.664,11.055Zm-3.641-7.383h1.367V4.781a3.413,3.413,0,0,1,.922-.883,2.967,2.967,0,0,1,1.672-.469A3.144,3.144,0,0,1,232.4,4.52a4.465,4.465,0,0,1,.992,3.113,4.781,4.781,0,0,1-1.43,3.906,3.23,3.23,0,0,1-2.109.742,2.863,2.863,0,0,1-1.586-.414,3.654,3.654,0,0,1-.836-.8v4.273h-1.406Zm12.492-.227a3.817,3.817,0,0,1,1.727.418,3.184,3.184,0,0,1,1.273,1.082,3.733,3.733,0,0,1,.563,1.477,9.661,9.661,0,0,1,.125,1.844H236.07a3.579,3.579,0,0,0,.6,2.043,2.014,2.014,0,0,0,1.742.77,2.252,2.252,0,0,0,1.758-.727,2.449,2.449,0,0,0,.531-.977h1.383a2.912,2.912,0,0,1-.363,1.027,3.654,3.654,0,0,1-.691.926,3.277,3.277,0,0,1-1.586.844,4.818,4.818,0,0,1-1.148.125,3.524,3.524,0,0,1-2.648-1.137,4.423,4.423,0,0,1-1.086-3.184A4.809,4.809,0,0,1,235.656,4.7,3.608,3.608,0,0,1,238.516,3.445Zm2.242,3.7a3.643,3.643,0,0,0-.4-1.461,2.042,2.042,0,0,0-1.93-1.016,2.139,2.139,0,0,0-1.625.7,2.641,2.641,0,0,0-.7,1.777Zm3.211-3.516H245.3V5.078a3.193,3.193,0,0,1,.8-1.027,2.086,2.086,0,0,1,1.477-.605q.039,0,.133.008l.32.031V4.969a2.1,2.1,0,0,0-.23-.031q-.105-.008-.23-.008a2.007,2.007,0,0,0-1.633.684,2.386,2.386,0,0,0-.57,1.574V12h-1.406Zm5.734.039h1.43V12H249.7ZM252.2.266l-2.086,2.258h-1.078l1.43-2.258Zm4.828,10.828a1.939,1.939,0,0,0,1.918-1.059,5.274,5.274,0,0,0,.52-2.355,4.194,4.194,0,0,0-.375-1.906,2.11,2.11,0,0,0-2.047-1.156,2.018,2.018,0,0,0-1.875.984,4.563,4.563,0,0,0-.586,2.375,3.969,3.969,0,0,0,.586,2.227A2.064,2.064,0,0,0,257.023,11.094Zm.055-7.7a3.789,3.789,0,0,1,2.734,1.078,4.21,4.21,0,0,1,1.117,3.172,5.442,5.442,0,0,1-.984,3.344,3.561,3.561,0,0,1-3.055,1.32,3.449,3.449,0,0,1-2.742-1.168A4.613,4.613,0,0,1,253.133,8a4.991,4.991,0,0,1,1.07-3.359A3.592,3.592,0,0,1,257.078,3.391Zm6.414,4.523a4.147,4.147,0,0,0,.57,2.25,2,2,0,0,0,1.828.906,1.925,1.925,0,0,0,1.605-.84,3.966,3.966,0,0,0,.629-2.41,3.564,3.564,0,0,0-.648-2.348,2.023,2.023,0,0,0-1.6-.762,2.114,2.114,0,0,0-1.723.813A3.721,3.721,0,0,0,263.492,7.914Zm2.117-4.43a2.977,2.977,0,0,1,1.609.406,3.781,3.781,0,0,1,.852.82V.484h1.352V12h-1.266V10.836a3.043,3.043,0,0,1-1.164,1.117,3.332,3.332,0,0,1-1.539.344,3.117,3.117,0,0,1-2.422-1.176,4.6,4.6,0,0,1-1.023-3.129,5.4,5.4,0,0,1,.934-3.168A3.057,3.057,0,0,1,265.609,3.484Zm9.211,7.609a1.939,1.939,0,0,0,1.918-1.059,5.274,5.274,0,0,0,.52-2.355,4.194,4.194,0,0,0-.375-1.906,2.11,2.11,0,0,0-2.047-1.156,2.018,2.018,0,0,0-1.875.984,4.563,4.563,0,0,0-.586,2.375,3.969,3.969,0,0,0,.586,2.227A2.064,2.064,0,0,0,274.82,11.094Zm.055-7.7a3.789,3.789,0,0,1,2.734,1.078,4.21,4.21,0,0,1,1.117,3.172,5.442,5.442,0,0,1-.984,3.344,3.561,3.561,0,0,1-3.055,1.32,3.449,3.449,0,0,1-2.742-1.168A4.613,4.613,0,0,1,270.93,8,4.991,4.991,0,0,1,272,4.641,3.592,3.592,0,0,1,274.875,3.391Zm5.047,11.875a27.582,27.582,0,0,0,1.6-3.531A12.748,12.748,0,0,0,282.07,7.8a12.859,12.859,0,0,0-.633-4.133A25,25,0,0,0,279.9.336h.945q1.2,1.922,1.457,2.371a9.164,9.164,0,0,1,.551,1.238,10.009,10.009,0,0,1,.535,1.93,11.08,11.08,0,0,1,.16,1.836,10.909,10.909,0,0,1-.734,4.125,22.655,22.655,0,0,1-1.914,3.43ZM14.074,24.523v1.367H10.207V36H8.629V25.891H4.762V24.523Zm2.781,10.57a1.939,1.939,0,0,0,1.918-1.059,5.274,5.274,0,0,0,.52-2.355,4.194,4.194,0,0,0-.375-1.906,2.11,2.11,0,0,0-2.047-1.156A2.018,2.018,0,0,0,15,29.6a4.563,4.563,0,0,0-.586,2.375A3.969,3.969,0,0,0,15,34.2,2.064,2.064,0,0,0,16.855,35.094Zm.055-7.7a3.789,3.789,0,0,1,2.734,1.078,4.21,4.21,0,0,1,1.117,3.172,5.442,5.442,0,0,1-.984,3.344,3.561,3.561,0,0,1-3.055,1.32,3.449,3.449,0,0,1-2.742-1.168A4.613,4.613,0,0,1,12.965,32a4.991,4.991,0,0,1,1.07-3.359A3.592,3.592,0,0,1,16.91,27.391Zm5.8-2.094h1.422v2.336h1.336v1.148H24.137v5.461a.591.591,0,0,0,.3.586,1.262,1.262,0,0,0,.547.086q.1,0,.219,0t.273-.02V36a3.139,3.139,0,0,1-.5.1,4.791,4.791,0,0,1-.566.031,1.527,1.527,0,0,1-1.336-.5,2.239,2.239,0,0,1-.352-1.309V28.781H21.582V27.633h1.133Zm5.242,8.477a1.158,1.158,0,0,0,.445.961,1.651,1.651,0,0,0,1.055.352,3.207,3.207,0,0,0,1.438-.344,1.935,1.935,0,0,0,1.172-1.867V31.742a2.406,2.406,0,0,1-.664.273,5.658,5.658,0,0,1-.8.156l-.852.109a3.257,3.257,0,0,0-1.148.32A1.248,1.248,0,0,0,27.957,33.773Zm3.406-2.844a.764.764,0,0,0,.648-.406,1.236,1.236,0,0,0,.094-.539,1.142,1.142,0,0,0-.512-1.043,2.745,2.745,0,0,0-1.465-.324,1.861,1.861,0,0,0-1.562.594,1.953,1.953,0,0,0-.336.977H26.918a2.416,2.416,0,0,1,1-2.152,4.122,4.122,0,0,1,2.238-.605,4.554,4.554,0,0,1,2.4.563,1.908,1.908,0,0,1,.914,1.75v4.82a.617.617,0,0,0,.09.352.433.433,0,0,0,.379.133q.094,0,.211-.012T34.4,35v1.039a3.917,3.917,0,0,1-.5.117,3.654,3.654,0,0,1-.469.023,1.157,1.157,0,0,1-1.055-.516,1.99,1.99,0,0,1-.242-.773,3.578,3.578,0,0,1-1.234.977,3.818,3.818,0,0,1-1.773.414,2.637,2.637,0,0,1-1.9-.707,2.349,2.349,0,0,1-.738-1.77,2.279,2.279,0,0,1,.727-1.8,3.457,3.457,0,0,1,1.906-.789Zm4.453-6.406h1.406V36H35.816Zm3.813,13.109a.985.985,0,0,0,.758-.758,2.145,2.145,0,0,0,.117-.68q0-.055,0-.1a.538.538,0,0,0-.02-.1h-.852V34.3H41.3v1.578a3.418,3.418,0,0,1-.375,1.633,1.709,1.709,0,0,1-1.3.867Zm10-10v5.555a2.342,2.342,0,0,0,.2,1.047,1.417,1.417,0,0,0,1.4.75,1.977,1.977,0,0,0,2-1.312,5.207,5.207,0,0,0,.289-1.93V27.633h1.406V36H53.6l.016-1.234a2.837,2.837,0,0,1-.68.8,2.991,2.991,0,0,1-1.953.656,2.519,2.519,0,0,1-2.437-1.2,3.56,3.56,0,0,1-.352-1.711V27.633Zm7.492,0h1.336V28.82a3.747,3.747,0,0,1,1.258-1.055,3.354,3.354,0,0,1,1.477-.32A2.435,2.435,0,0,1,63.6,28.688a4.411,4.411,0,0,1,.344,1.945V36h-1.43V30.727a2.856,2.856,0,0,0-.227-1.234,1.374,1.374,0,0,0-1.359-.781,2.768,2.768,0,0,0-.82.1,2.113,2.113,0,0,0-1.016.688,2.07,2.07,0,0,0-.457.855,5.758,5.758,0,0,0-.105,1.262V36H57.121Zm8.9.039h1.43V36H66.02Zm0-3.148h1.43v1.594H66.02Zm4.445,7.391a4.147,4.147,0,0,0,.57,2.25,2,2,0,0,0,1.828.906,1.925,1.925,0,0,0,1.605-.84,3.966,3.966,0,0,0,.629-2.41,3.564,3.564,0,0,0-.648-2.348,2.023,2.023,0,0,0-1.6-.762,2.114,2.114,0,0,0-1.723.813A3.721,3.721,0,0,0,70.465,31.914Zm2.117-4.43a2.977,2.977,0,0,1,1.609.406,3.78,3.78,0,0,1,.852.82V24.484h1.352V36H75.129V34.836a3.043,3.043,0,0,1-1.164,1.117,3.332,3.332,0,0,1-1.539.344A3.117,3.117,0,0,1,70,35.121a4.6,4.6,0,0,1-1.023-3.129,5.4,5.4,0,0,1,.934-3.168A3.057,3.057,0,0,1,72.582,27.484Zm6.969,6.289a1.158,1.158,0,0,0,.445.961,1.651,1.651,0,0,0,1.055.352,3.207,3.207,0,0,0,1.438-.344,1.935,1.935,0,0,0,1.172-1.867V31.742a2.406,2.406,0,0,1-.664.273,5.659,5.659,0,0,1-.8.156l-.852.109a3.257,3.257,0,0,0-1.148.32A1.248,1.248,0,0,0,79.551,33.773Zm3.406-2.844a.764.764,0,0,0,.648-.406,1.236,1.236,0,0,0,.094-.539,1.142,1.142,0,0,0-.512-1.043,2.745,2.745,0,0,0-1.465-.324,1.861,1.861,0,0,0-1.562.594,1.953,1.953,0,0,0-.336.977H78.512a2.416,2.416,0,0,1,1-2.152,4.122,4.122,0,0,1,2.238-.605,4.554,4.554,0,0,1,2.4.563,1.908,1.908,0,0,1,.914,1.75v4.82a.617.617,0,0,0,.09.352.433.433,0,0,0,.379.133q.094,0,.211-.012T86,35v1.039a3.916,3.916,0,0,1-.5.117,3.654,3.654,0,0,1-.469.023,1.157,1.157,0,0,1-1.055-.516,1.99,1.99,0,0,1-.242-.773,3.578,3.578,0,0,1-1.234.977,3.818,3.818,0,0,1-1.773.414,2.637,2.637,0,0,1-1.9-.707,2.349,2.349,0,0,1-.738-1.77,2.279,2.279,0,0,1,.727-1.8,3.457,3.457,0,0,1,1.906-.789Zm5.3.984a4.147,4.147,0,0,0,.57,2.25,2,2,0,0,0,1.828.906,1.925,1.925,0,0,0,1.605-.84,3.966,3.966,0,0,0,.629-2.41,3.564,3.564,0,0,0-.648-2.348,2.023,2.023,0,0,0-1.6-.762,2.114,2.114,0,0,0-1.723.813A3.721,3.721,0,0,0,88.262,31.914Zm2.117-4.43a2.977,2.977,0,0,1,1.609.406,3.78,3.78,0,0,1,.852.82V24.484h1.352V36H92.926V34.836a3.043,3.043,0,0,1-1.164,1.117,3.332,3.332,0,0,1-1.539.344A3.117,3.117,0,0,1,87.8,35.121a4.6,4.6,0,0,1-1.023-3.129,5.4,5.4,0,0,1,.934-3.168A3.057,3.057,0,0,1,90.379,27.484Zm9.375-.039a3.817,3.817,0,0,1,1.727.418,3.184,3.184,0,0,1,1.273,1.082,3.733,3.733,0,0,1,.563,1.477,9.66,9.66,0,0,1,.125,1.844H97.309a3.579,3.579,0,0,0,.6,2.043,2.014,2.014,0,0,0,1.742.77,2.252,2.252,0,0,0,1.758-.727,2.449,2.449,0,0,0,.531-.977h1.383a2.912,2.912,0,0,1-.363,1.027,3.654,3.654,0,0,1-.691.926,3.277,3.277,0,0,1-1.586.844,4.818,4.818,0,0,1-1.148.125,3.524,3.524,0,0,1-2.648-1.137A4.423,4.423,0,0,1,95.8,31.977,4.809,4.809,0,0,1,96.895,28.7,3.608,3.608,0,0,1,99.754,27.445Zm2.242,3.7a3.643,3.643,0,0,0-.4-1.461,2.042,2.042,0,0,0-1.93-1.016,2.139,2.139,0,0,0-1.625.7,2.641,2.641,0,0,0-.7,1.777ZM106,33.375a2.045,2.045,0,0,0,.352,1.078,2.209,2.209,0,0,0,1.844.68,2.719,2.719,0,0,0,1.375-.34,1.129,1.129,0,0,0,.594-1.051.9.9,0,0,0-.477-.82,5.666,5.666,0,0,0-1.2-.4l-1.117-.281a5.45,5.45,0,0,1-1.578-.594,1.775,1.775,0,0,1-.906-1.578,2.411,2.411,0,0,1,.855-1.922,3.413,3.413,0,0,1,2.3-.734,3.194,3.194,0,0,1,2.727,1.109,2.407,2.407,0,0,1,.508,1.516h-1.328a1.627,1.627,0,0,0-.336-.867,2.143,2.143,0,0,0-1.68-.555,2.008,2.008,0,0,0-1.207.3.955.955,0,0,0-.41.8.991.991,0,0,0,.539.875,3.239,3.239,0,0,0,.922.344l.93.227a7.188,7.188,0,0,1,2.031.711,1.882,1.882,0,0,1,.82,1.7,2.584,2.584,0,0,1-.848,1.93,3.608,3.608,0,0,1-2.582.813,3.464,3.464,0,0,1-2.645-.848,3.206,3.206,0,0,1-.832-2.1Zm15.094-5.93a3.817,3.817,0,0,1,1.727.418,3.184,3.184,0,0,1,1.273,1.082,3.733,3.733,0,0,1,.563,1.477,9.66,9.66,0,0,1,.125,1.844h-6.133a3.579,3.579,0,0,0,.6,2.043,2.014,2.014,0,0,0,1.742.77,2.252,2.252,0,0,0,1.758-.727,2.449,2.449,0,0,0,.531-.977h1.383A2.912,2.912,0,0,1,124.3,34.4a3.654,3.654,0,0,1-.691.926,3.277,3.277,0,0,1-1.586.844,4.818,4.818,0,0,1-1.148.125,3.524,3.524,0,0,1-2.648-1.137,4.423,4.423,0,0,1-1.086-3.184,4.809,4.809,0,0,1,1.094-3.273A3.608,3.608,0,0,1,121.1,27.445Zm2.242,3.7a3.643,3.643,0,0,0-.4-1.461,2.042,2.042,0,0,0-1.93-1.016,2.139,2.139,0,0,0-1.625.7,2.641,2.641,0,0,0-.7,1.777Zm3.172-3.516h1.336V28.82a3.747,3.747,0,0,1,1.258-1.055,3.354,3.354,0,0,1,1.477-.32,2.435,2.435,0,0,1,2.406,1.242,4.411,4.411,0,0,1,.344,1.945V36H131.9V30.727a2.855,2.855,0,0,0-.227-1.234,1.374,1.374,0,0,0-1.359-.781,2.768,2.768,0,0,0-.82.1,2.113,2.113,0,0,0-1.016.688,2.07,2.07,0,0,0-.457.855,5.758,5.758,0,0,0-.105,1.262V36h-1.406Zm9.18-2.336h1.422v2.336h1.336v1.148h-1.336v5.461a.591.591,0,0,0,.3.586,1.262,1.262,0,0,0,.547.086q.1,0,.219,0t.273-.02V36a3.139,3.139,0,0,1-.5.1,4.791,4.791,0,0,1-.566.031,1.527,1.527,0,0,1-1.336-.5,2.239,2.239,0,0,1-.352-1.309V28.781h-1.133V27.633h1.133Zm4.2,2.336h1.336v1.445a3.193,3.193,0,0,1,.8-1.027,2.086,2.086,0,0,1,1.477-.605q.039,0,.133.008l.32.031v1.484a2.1,2.1,0,0,0-.23-.031q-.105-.008-.23-.008a2.007,2.007,0,0,0-1.633.684,2.386,2.386,0,0,0-.57,1.574V36h-1.406Zm8.773-.187a3.817,3.817,0,0,1,1.727.418,3.184,3.184,0,0,1,1.273,1.082,3.733,3.733,0,0,1,.563,1.477,9.661,9.661,0,0,1,.125,1.844h-6.133a3.579,3.579,0,0,0,.6,2.043,2.014,2.014,0,0,0,1.742.77,2.252,2.252,0,0,0,1.758-.727,2.449,2.449,0,0,0,.531-.977h1.383a2.912,2.912,0,0,1-.363,1.027,3.654,3.654,0,0,1-.691.926,3.277,3.277,0,0,1-1.586.844,4.818,4.818,0,0,1-1.148.125A3.524,3.524,0,0,1,145.8,35.16a4.423,4.423,0,0,1-1.086-3.184,4.809,4.809,0,0,1,1.094-3.273A3.608,3.608,0,0,1,148.668,27.445Zm2.242,3.7a3.643,3.643,0,0,0-.4-1.461,2.042,2.042,0,0,0-1.93-1.016,2.139,2.139,0,0,0-1.625.7,2.641,2.641,0,0,0-.7,1.777Zm6.125-3.664a3.05,3.05,0,0,1,1.719.484,3.861,3.861,0,0,1,.813.8V27.711h1.3V35.32a5.611,5.611,0,0,1-.469,2.516,3.366,3.366,0,0,1-3.3,1.7,4.054,4.054,0,0,1-2.273-.605,2.361,2.361,0,0,1-1.031-1.895h1.43a1.591,1.591,0,0,0,.406.867,2.572,2.572,0,0,0,3.617-.672,6.424,6.424,0,0,0,.273-2.4,2.759,2.759,0,0,1-1.016.953,3.642,3.642,0,0,1-3.949-.652,4.243,4.243,0,0,1-1.02-3.191,4.833,4.833,0,0,1,1.027-3.281A3.177,3.177,0,0,1,157.035,27.484Zm2.531,4.3a3.488,3.488,0,0,0-.641-2.3,2.052,2.052,0,0,0-1.633-.75,2.016,2.016,0,0,0-2.031,1.391,5.453,5.453,0,0,0-.289,1.945,3.453,3.453,0,0,0,.574,2.152,1.854,1.854,0,0,0,1.543.738,2.166,2.166,0,0,0,2.133-1.367A4.41,4.41,0,0,0,159.566,31.781Zm4.492,1.992a1.158,1.158,0,0,0,.445.961,1.651,1.651,0,0,0,1.055.352A3.207,3.207,0,0,0,167,34.742a1.935,1.935,0,0,0,1.172-1.867V31.742a2.406,2.406,0,0,1-.664.273,5.658,5.658,0,0,1-.8.156l-.852.109a3.257,3.257,0,0,0-1.148.32A1.248,1.248,0,0,0,164.059,33.773Zm3.406-2.844a.764.764,0,0,0,.648-.406,1.236,1.236,0,0,0,.094-.539,1.142,1.142,0,0,0-.512-1.043,2.745,2.745,0,0,0-1.465-.324,1.861,1.861,0,0,0-1.562.594,1.953,1.953,0,0,0-.336.977H163.02a2.416,2.416,0,0,1,1-2.152,4.122,4.122,0,0,1,2.238-.605,4.554,4.554,0,0,1,2.4.563,1.908,1.908,0,0,1,.914,1.75v4.82a.617.617,0,0,0,.09.352.433.433,0,0,0,.379.133q.094,0,.211-.012T170.5,35v1.039a3.917,3.917,0,0,1-.5.117,3.654,3.654,0,0,1-.469.023,1.157,1.157,0,0,1-1.055-.516,1.99,1.99,0,0,1-.242-.773,3.578,3.578,0,0,1-1.234.977,3.818,3.818,0,0,1-1.773.414,2.637,2.637,0,0,1-1.9-.707,2.349,2.349,0,0,1-.738-1.77,2.279,2.279,0,0,1,.727-1.8,3.457,3.457,0,0,1,1.906-.789Zm5.3.984a4.148,4.148,0,0,0,.57,2.25,2,2,0,0,0,1.828.906,1.925,1.925,0,0,0,1.605-.84,3.966,3.966,0,0,0,.629-2.41,3.564,3.564,0,0,0-.648-2.348,2.023,2.023,0,0,0-1.6-.762,2.114,2.114,0,0,0-1.723.813A3.721,3.721,0,0,0,172.77,31.914Zm2.117-4.43a2.977,2.977,0,0,1,1.609.406,3.78,3.78,0,0,1,.852.82V24.484H178.7V36h-1.266V34.836a3.042,3.042,0,0,1-1.164,1.117,3.332,3.332,0,0,1-1.539.344,3.117,3.117,0,0,1-2.422-1.176,4.6,4.6,0,0,1-1.023-3.129,5.4,5.4,0,0,1,.934-3.168A3.057,3.057,0,0,1,174.887,27.484Zm6.969,6.289a1.158,1.158,0,0,0,.445.961,1.651,1.651,0,0,0,1.055.352,3.207,3.207,0,0,0,1.438-.344,1.935,1.935,0,0,0,1.172-1.867V31.742a2.406,2.406,0,0,1-.664.273,5.658,5.658,0,0,1-.8.156l-.852.109a3.257,3.257,0,0,0-1.148.32A1.248,1.248,0,0,0,181.855,33.773Zm3.406-2.844a.764.764,0,0,0,.648-.406,1.236,1.236,0,0,0,.094-.539,1.142,1.142,0,0,0-.512-1.043,2.745,2.745,0,0,0-1.465-.324,1.861,1.861,0,0,0-1.562.594,1.953,1.953,0,0,0-.336.977h-1.312a2.416,2.416,0,0,1,1-2.152,4.122,4.122,0,0,1,2.238-.605,4.554,4.554,0,0,1,2.4.563,1.908,1.908,0,0,1,.914,1.75v4.82a.617.617,0,0,0,.09.352.433.433,0,0,0,.379.133q.094,0,.211-.012T188.3,35v1.039a3.917,3.917,0,0,1-.5.117,3.654,3.654,0,0,1-.469.023,1.157,1.157,0,0,1-1.055-.516,1.99,1.99,0,0,1-.242-.773,3.578,3.578,0,0,1-1.234.977,3.818,3.818,0,0,1-1.773.414,2.637,2.637,0,0,1-1.9-.707,2.349,2.349,0,0,1-.738-1.77,2.279,2.279,0,0,1,.727-1.8,3.457,3.457,0,0,1,1.906-.789Zm5.25,2.445a2.045,2.045,0,0,0,.352,1.078,2.209,2.209,0,0,0,1.844.68,2.719,2.719,0,0,0,1.375-.34,1.129,1.129,0,0,0,.594-1.051.9.9,0,0,0-.477-.82,5.666,5.666,0,0,0-1.2-.4l-1.117-.281a5.45,5.45,0,0,1-1.578-.594,1.775,1.775,0,0,1-.906-1.578,2.411,2.411,0,0,1,.855-1.922,3.413,3.413,0,0,1,2.3-.734,3.194,3.194,0,0,1,2.727,1.109,2.407,2.407,0,0,1,.508,1.516h-1.328a1.627,1.627,0,0,0-.336-.867,2.143,2.143,0,0,0-1.68-.555,2.008,2.008,0,0,0-1.207.3.955.955,0,0,0-.41.8.991.991,0,0,0,.539.875,3.239,3.239,0,0,0,.922.344l.93.227a7.188,7.188,0,0,1,2.031.711,1.882,1.882,0,0,1,.82,1.7,2.584,2.584,0,0,1-.848,1.93,3.608,3.608,0,0,1-2.582.813,3.464,3.464,0,0,1-2.645-.848,3.206,3.206,0,0,1-.832-2.1Zm15.313-9.039a27.281,27.281,0,0,0-1.594,3.508,12.824,12.824,0,0,0-.555,3.953,12.885,12.885,0,0,0,.633,4.141,25,25,0,0,0,1.539,3.328H204.9q-1.141-1.781-1.414-2.273a10.56,10.56,0,0,1-.594-1.336,10.98,10.98,0,0,1-.609-2.469,10.351,10.351,0,0,1-.086-1.3,10.953,10.953,0,0,1,.727-4.117,23.7,23.7,0,0,1,1.922-3.437Zm5.109,3.109a3.817,3.817,0,0,1,1.727.418,3.184,3.184,0,0,1,1.273,1.082,3.733,3.733,0,0,1,.563,1.477,9.661,9.661,0,0,1,.125,1.844h-6.133a3.579,3.579,0,0,0,.6,2.043,2.014,2.014,0,0,0,1.742.77,2.252,2.252,0,0,0,1.758-.727,2.449,2.449,0,0,0,.531-.977H214.5a2.912,2.912,0,0,1-.363,1.027,3.654,3.654,0,0,1-.691.926,3.277,3.277,0,0,1-1.586.844,4.818,4.818,0,0,1-1.148.125,3.524,3.524,0,0,1-2.648-1.137,4.423,4.423,0,0,1-1.086-3.184,4.809,4.809,0,0,1,1.094-3.273A3.608,3.608,0,0,1,210.934,27.445Zm2.242,3.7a3.643,3.643,0,0,0-.4-1.461,2.042,2.042,0,0,0-1.93-1.016,2.139,2.139,0,0,0-1.625.7,2.641,2.641,0,0,0-.7,1.777Zm3.172-3.516h1.336V28.82a3.747,3.747,0,0,1,1.258-1.055,3.354,3.354,0,0,1,1.477-.32,2.435,2.435,0,0,1,2.406,1.242,4.411,4.411,0,0,1,.344,1.945V36h-1.43V30.727a2.855,2.855,0,0,0-.227-1.234,1.374,1.374,0,0,0-1.359-.781,2.768,2.768,0,0,0-.82.1,2.113,2.113,0,0,0-1.016.688,2.07,2.07,0,0,0-.457.855,5.758,5.758,0,0,0-.105,1.262V36h-1.406Zm14.75,0v5.555a2.342,2.342,0,0,0,.2,1.047,1.417,1.417,0,0,0,1.4.75,1.977,1.977,0,0,0,2-1.312,5.207,5.207,0,0,0,.289-1.93V27.633h1.406V36h-1.328l.016-1.234a2.837,2.837,0,0,1-.68.8,2.991,2.991,0,0,1-1.953.656,2.519,2.519,0,0,1-2.437-1.2,3.56,3.56,0,0,1-.352-1.711V27.633Zm7.492,0h1.336V28.82a3.747,3.747,0,0,1,1.258-1.055,3.354,3.354,0,0,1,1.477-.32,2.435,2.435,0,0,1,2.406,1.242,4.411,4.411,0,0,1,.344,1.945V36h-1.43V30.727a2.855,2.855,0,0,0-.227-1.234,1.374,1.374,0,0,0-1.359-.781,2.768,2.768,0,0,0-.82.1,2.113,2.113,0,0,0-1.016.688,2.07,2.07,0,0,0-.457.855A5.758,5.758,0,0,0,240,31.617V36H238.59Zm16.875,7.422a2.006,2.006,0,0,0,1.637-.824,3.922,3.922,0,0,0,.652-2.465,4.6,4.6,0,0,0-.289-1.719,2.118,2.118,0,0,0-4,.078,5.79,5.79,0,0,0-.289,1.984,4.207,4.207,0,0,0,.289,1.648A1.994,1.994,0,0,0,255.465,35.055Zm-3.641-7.383h1.367v1.109a3.413,3.413,0,0,1,.922-.883,2.967,2.967,0,0,1,1.672-.469,3.144,3.144,0,0,1,2.414,1.09,4.465,4.465,0,0,1,.992,3.113,4.781,4.781,0,0,1-1.43,3.906,3.23,3.23,0,0,1-2.109.742,2.863,2.863,0,0,1-1.586-.414,3.654,3.654,0,0,1-.836-.8v4.273h-1.406Zm12.492-.227a3.817,3.817,0,0,1,1.727.418,3.184,3.184,0,0,1,1.273,1.082,3.733,3.733,0,0,1,.563,1.477A9.66,9.66,0,0,1,268,32.266h-6.133a3.579,3.579,0,0,0,.6,2.043,2.014,2.014,0,0,0,1.742.77,2.252,2.252,0,0,0,1.758-.727,2.449,2.449,0,0,0,.531-.977h1.383a2.913,2.913,0,0,1-.363,1.027,3.653,3.653,0,0,1-.691.926,3.277,3.277,0,0,1-1.586.844,4.818,4.818,0,0,1-1.148.125,3.524,3.524,0,0,1-2.648-1.137,4.423,4.423,0,0,1-1.086-3.184,4.809,4.809,0,0,1,1.094-3.273A3.608,3.608,0,0,1,264.316,27.445Zm2.242,3.7a3.643,3.643,0,0,0-.4-1.461,2.042,2.042,0,0,0-1.93-1.016,2.139,2.139,0,0,0-1.625.7,2.641,2.641,0,0,0-.7,1.777Zm3.211-3.516h1.336v1.445a3.193,3.193,0,0,1,.8-1.027,2.086,2.086,0,0,1,1.477-.605q.039,0,.133.008l.32.031v1.484a2.1,2.1,0,0,0-.23-.031q-.105-.008-.23-.008a2.007,2.007,0,0,0-1.633.684,2.386,2.386,0,0,0-.57,1.574V36H269.77Zm5.734.039h1.43V36H275.5ZM278,24.266l-2.086,2.258h-1.078l1.43-2.258Zm4.828,10.828a1.939,1.939,0,0,0,1.918-1.059,5.274,5.274,0,0,0,.52-2.355,4.194,4.194,0,0,0-.375-1.906,2.11,2.11,0,0,0-2.047-1.156,2.018,2.018,0,0,0-1.875.984,4.563,4.563,0,0,0-.586,2.375,3.969,3.969,0,0,0,.586,2.227A2.064,2.064,0,0,0,282.824,35.094Zm.055-7.7a3.789,3.789,0,0,1,2.734,1.078,4.21,4.21,0,0,1,1.117,3.172,5.442,5.442,0,0,1-.984,3.344,3.561,3.561,0,0,1-3.055,1.32,3.449,3.449,0,0,1-2.742-1.168A4.613,4.613,0,0,1,278.934,32,4.991,4.991,0,0,1,280,28.641,3.592,3.592,0,0,1,282.879,27.391Zm6.414,4.523a4.147,4.147,0,0,0,.57,2.25,2,2,0,0,0,1.828.906,1.925,1.925,0,0,0,1.605-.84,3.966,3.966,0,0,0,.629-2.41,3.564,3.564,0,0,0-.648-2.348,2.023,2.023,0,0,0-1.6-.762,2.114,2.114,0,0,0-1.723.813A3.721,3.721,0,0,0,289.293,31.914Zm2.117-4.43a2.977,2.977,0,0,1,1.609.406,3.781,3.781,0,0,1,.852.82V24.484h1.352V36h-1.266V34.836a3.043,3.043,0,0,1-1.164,1.117,3.332,3.332,0,0,1-1.539.344,3.117,3.117,0,0,1-2.422-1.176,4.6,4.6,0,0,1-1.023-3.129,5.4,5.4,0,0,1,.934-3.168A3.057,3.057,0,0,1,291.41,27.484Zm9.211,7.609a1.939,1.939,0,0,0,1.918-1.059,5.274,5.274,0,0,0,.52-2.355,4.194,4.194,0,0,0-.375-1.906,2.11,2.11,0,0,0-2.047-1.156,2.018,2.018,0,0,0-1.875.984,4.563,4.563,0,0,0-.586,2.375,3.969,3.969,0,0,0,.586,2.227A2.064,2.064,0,0,0,300.621,35.094Zm.055-7.7a3.789,3.789,0,0,1,2.734,1.078,4.21,4.21,0,0,1,1.117,3.172,5.442,5.442,0,0,1-.984,3.344,3.561,3.561,0,0,1-3.055,1.32,3.449,3.449,0,0,1-2.742-1.168A4.613,4.613,0,0,1,296.73,32a4.991,4.991,0,0,1,1.07-3.359A3.592,3.592,0,0,1,300.676,27.391Zm5.047,11.875a27.582,27.582,0,0,0,1.6-3.531,12.748,12.748,0,0,0,.547-3.937,12.859,12.859,0,0,0-.633-4.133,25,25,0,0,0-1.539-3.328h.945q1.2,1.922,1.457,2.371a9.164,9.164,0,0,1,.551,1.238,10.009,10.009,0,0,1,.535,1.93,11.08,11.08,0,0,1,.16,1.836,10.909,10.909,0,0,1-.734,4.125,22.655,22.655,0,0,1-1.914,3.43Z" transform="translate(566.07 3736.838)" fill="#00223d"/>
      <path id="Trazado_86820" data-name="Trazado 86820" d="M3.422,12H1.031V.484H3.422ZM10.2,3.281a3.287,3.287,0,0,1,2.16.691,2.811,2.811,0,0,1,.84,2.293V12H10.922V6.82a2.364,2.364,0,0,0-.18-1.031,1.264,1.264,0,0,0-1.25-.656,1.55,1.55,0,0,0-1.555.961,3.3,3.3,0,0,0-.219,1.3V12H5.5V3.5H7.648V4.742A3.78,3.78,0,0,1,8.461,3.8,2.824,2.824,0,0,1,10.2,3.281Zm8.2,0a2.747,2.747,0,0,1,1.375.34,2.7,2.7,0,0,1,.977.941V.5h2.258V12H20.844V10.82a3.141,3.141,0,0,1-1.086,1.1,3.049,3.049,0,0,1-1.516.344,3.165,3.165,0,0,1-2.512-1.207,4.635,4.635,0,0,1-1.02-3.1,5.331,5.331,0,0,1,1-3.43A3.266,3.266,0,0,1,18.4,3.281Zm.484,7.109a1.644,1.644,0,0,0,1.438-.7,3.106,3.106,0,0,0,.492-1.82,2.792,2.792,0,0,0-.789-2.234A1.7,1.7,0,0,0,18.9,5.227a1.564,1.564,0,0,0-1.434.738A3.42,3.42,0,0,0,17.008,7.8a3.39,3.39,0,0,0,.465,1.887A1.573,1.573,0,0,0,18.883,10.391ZM27.32,2.469H25.063V.414H27.32ZM25.063,3.484H27.32V12H25.063Zm9.5,3.055a1.976,1.976,0,0,0-.32-.859,1.343,1.343,0,0,0-1.164-.516,1.533,1.533,0,0,0-1.539,1.117,4.671,4.671,0,0,0-.219,1.578,4.3,4.3,0,0,0,.219,1.508,1.486,1.486,0,0,0,1.5,1.063,1.323,1.323,0,0,0,1.109-.422,2.1,2.1,0,0,0,.4-1.094H36.82a3.725,3.725,0,0,1-.734,1.922,3.57,3.57,0,0,1-3.1,1.461,3.628,3.628,0,0,1-3.023-1.219,4.932,4.932,0,0,1-.969-3.164A5,5,0,0,1,30.063,4.5a3.726,3.726,0,0,1,2.953-1.219A4.447,4.447,0,0,1,35.637,4a3.343,3.343,0,0,1,1.207,2.539Zm8.508,1.32a2.42,2.42,0,0,1-.426.215,3.561,3.561,0,0,1-.59.152l-.5.094a3.229,3.229,0,0,0-1.008.3,1.021,1.021,0,0,0-.516.945,1,1,0,0,0,.316.824,1.191,1.191,0,0,0,.77.254,2.268,2.268,0,0,0,1.324-.422,1.8,1.8,0,0,0,.629-1.539ZM41.719,6.82a3.475,3.475,0,0,0,.883-.2.669.669,0,0,0,.477-.633.751.751,0,0,0-.363-.723,2.269,2.269,0,0,0-1.066-.2,1.389,1.389,0,0,0-1.117.391,1.624,1.624,0,0,0-.312.781H38.07A3.268,3.268,0,0,1,38.7,4.406a3.636,3.636,0,0,1,3.031-1.125,5.385,5.385,0,0,1,2.484.555A2.13,2.13,0,0,1,45.3,5.93V9.836q0,.406.016.984a1.238,1.238,0,0,0,.133.594.8.8,0,0,0,.328.258V12H43.352a2.48,2.48,0,0,1-.141-.484q-.039-.227-.062-.516a4.575,4.575,0,0,1-1.062.852,3.2,3.2,0,0,1-1.625.414,2.794,2.794,0,0,1-1.91-.66A2.355,2.355,0,0,1,37.8,9.734a2.429,2.429,0,0,1,1.211-2.273,5.377,5.377,0,0,1,1.953-.547Zm8.7-3.539a2.747,2.747,0,0,1,1.375.34,2.7,2.7,0,0,1,.977.941V.5h2.258V12H52.859V10.82a3.141,3.141,0,0,1-1.086,1.1,3.049,3.049,0,0,1-1.516.344,3.165,3.165,0,0,1-2.512-1.207,4.635,4.635,0,0,1-1.02-3.1,5.331,5.331,0,0,1,1-3.43A3.266,3.266,0,0,1,50.414,3.281Zm.484,7.109a1.644,1.644,0,0,0,1.438-.7,3.106,3.106,0,0,0,.492-1.82,2.792,2.792,0,0,0-.789-2.234,1.7,1.7,0,0,0-1.125-.406,1.564,1.564,0,0,0-1.434.738A3.42,3.42,0,0,0,49.023,7.8a3.39,3.39,0,0,0,.465,1.887A1.573,1.573,0,0,0,50.9,10.391Zm9.969.039a1.765,1.765,0,0,0,1.5-.7,3.235,3.235,0,0,0,.523-1.977,3.217,3.217,0,0,0-.523-1.973,1.977,1.977,0,0,0-3,0,3.2,3.2,0,0,0-.527,1.973,3.217,3.217,0,0,0,.527,1.977A1.775,1.775,0,0,0,60.867,10.43Zm4.359-2.672a4.936,4.936,0,0,1-1.078,3.207,4.688,4.688,0,0,1-6.547,0,4.936,4.936,0,0,1-1.078-3.207,4.969,4.969,0,0,1,1.078-3.2,4.64,4.64,0,0,1,6.547,0A4.969,4.969,0,0,1,65.227,7.758Zm6.219-4.477q.062,0,.105,0l.191.012V5.578q-.211-.023-.375-.031T71.1,5.539a1.847,1.847,0,0,0-1.8.875,3.4,3.4,0,0,0-.258,1.516V12H66.8V3.484h2.125V4.969a4.707,4.707,0,0,1,.9-1.164A2.446,2.446,0,0,1,71.445,3.281Zm-67.266,24a2.747,2.747,0,0,1,1.375.34,2.7,2.7,0,0,1,.977.941V24.5H8.789V36H6.625V34.82a3.141,3.141,0,0,1-1.086,1.1,3.049,3.049,0,0,1-1.516.344,3.165,3.165,0,0,1-2.512-1.207,4.635,4.635,0,0,1-1.02-3.1,5.331,5.331,0,0,1,1-3.43A3.266,3.266,0,0,1,4.18,27.281Zm.484,7.109a1.644,1.644,0,0,0,1.438-.7,3.106,3.106,0,0,0,.492-1.82A2.792,2.792,0,0,0,5.8,29.633a1.7,1.7,0,0,0-1.125-.406,1.564,1.564,0,0,0-1.434.738,3.98,3.98,0,0,0,.008,3.719A1.573,1.573,0,0,0,4.664,34.391Zm9.508-5.3a1.512,1.512,0,0,0-1.2.484,2.418,2.418,0,0,0-.535,1.313H15.9a1.938,1.938,0,0,0-.535-1.34A1.662,1.662,0,0,0,14.172,29.094Zm0-1.836a4.463,4.463,0,0,1,1.914.4,3.353,3.353,0,0,1,1.406,1.258,4.292,4.292,0,0,1,.648,1.758,11.352,11.352,0,0,1,.07,1.688H12.383a2.116,2.116,0,0,0,.8,1.8,1.9,1.9,0,0,0,1.109.32,1.6,1.6,0,0,0,1.117-.391,1.855,1.855,0,0,0,.414-.586H18.1a2.824,2.824,0,0,1-.789,1.539,3.866,3.866,0,0,1-3.062,1.242,4.318,4.318,0,0,1-2.867-1.047,4.222,4.222,0,0,1-1.242-3.406,4.734,4.734,0,0,1,1.121-3.391A3.833,3.833,0,0,1,14.172,27.258Zm10.789.227h2.391L24.281,36H21.93l-3.055-8.516h2.5l1.773,6.281ZM32.43,34.43a1.765,1.765,0,0,0,1.5-.7,3.235,3.235,0,0,0,.523-1.977,3.217,3.217,0,0,0-.523-1.973,1.977,1.977,0,0,0-3,0,3.2,3.2,0,0,0-.527,1.973,3.217,3.217,0,0,0,.527,1.977A1.775,1.775,0,0,0,32.43,34.43Zm4.359-2.672a4.936,4.936,0,0,1-1.078,3.207A3.961,3.961,0,0,1,32.438,36.3a3.961,3.961,0,0,1-3.273-1.332,5.292,5.292,0,0,1,0-6.4,3.934,3.934,0,0,1,3.273-1.352,3.934,3.934,0,0,1,3.273,1.352A4.969,4.969,0,0,1,36.789,31.758ZM40.656,36H38.43V24.484h2.227Zm4.391-8.516v5.133a2.687,2.687,0,0,0,.172,1.094,1.19,1.19,0,0,0,1.2.648,1.563,1.563,0,0,0,1.563-.922,3.337,3.337,0,0,0,.219-1.32V27.484h2.258V36H48.289V34.8q-.031.039-.156.234a1.568,1.568,0,0,1-.3.344,3.1,3.1,0,0,1-1.012.641,3.448,3.448,0,0,1-1.145.172,2.551,2.551,0,0,1-2.547-1.359,5.2,5.2,0,0,1-.367-2.211V27.484Zm12.641,3.055a1.976,1.976,0,0,0-.32-.859,1.343,1.343,0,0,0-1.164-.516,1.533,1.533,0,0,0-1.539,1.117,4.671,4.671,0,0,0-.219,1.578,4.3,4.3,0,0,0,.219,1.508,1.486,1.486,0,0,0,1.5,1.063,1.323,1.323,0,0,0,1.109-.422,2.1,2.1,0,0,0,.4-1.094h2.273a3.725,3.725,0,0,1-.734,1.922,3.57,3.57,0,0,1-3.1,1.461,3.628,3.628,0,0,1-3.023-1.219,4.932,4.932,0,0,1-.969-3.164,5,5,0,0,1,1.07-3.414,3.726,3.726,0,0,1,2.953-1.219A4.447,4.447,0,0,1,58.762,28a3.343,3.343,0,0,1,1.207,2.539Zm6.1-4.07H61.531V24.414h2.258Zm-2.258,1.016h2.258V36H61.531Zm8.234,6.945a1.765,1.765,0,0,0,1.5-.7,3.235,3.235,0,0,0,.523-1.977,3.217,3.217,0,0,0-.523-1.973,1.977,1.977,0,0,0-3,0,3.2,3.2,0,0,0-.527,1.973,3.217,3.217,0,0,0,.527,1.977A1.775,1.775,0,0,0,69.766,34.43Zm4.359-2.672a4.936,4.936,0,0,1-1.078,3.207,4.688,4.688,0,0,1-6.547,0,5.292,5.292,0,0,1,0-6.4,4.64,4.64,0,0,1,6.547,0A4.969,4.969,0,0,1,74.125,31.758Zm6.313-4.477a3.287,3.287,0,0,1,2.16.691,2.811,2.811,0,0,1,.84,2.293V36H81.156V30.82a2.364,2.364,0,0,0-.18-1.031,1.264,1.264,0,0,0-1.25-.656,1.55,1.55,0,0,0-1.555.961,3.3,3.3,0,0,0-.219,1.3V36H75.734V27.5h2.148v1.242A3.78,3.78,0,0,1,78.7,27.8,2.824,2.824,0,0,1,80.438,27.281Zm8.414,1.813a1.512,1.512,0,0,0-1.2.484,2.418,2.418,0,0,0-.535,1.313h3.461a1.938,1.938,0,0,0-.535-1.34A1.662,1.662,0,0,0,88.852,29.094Zm0-1.836a4.463,4.463,0,0,1,1.914.4,3.353,3.353,0,0,1,1.406,1.258,4.292,4.292,0,0,1,.648,1.758,11.353,11.353,0,0,1,.07,1.688H87.063a2.116,2.116,0,0,0,.8,1.8,1.9,1.9,0,0,0,1.109.32,1.6,1.6,0,0,0,1.117-.391,1.855,1.855,0,0,0,.414-.586h2.273a2.824,2.824,0,0,1-.789,1.539,3.866,3.866,0,0,1-3.062,1.242,4.318,4.318,0,0,1-2.867-1.047,4.222,4.222,0,0,1-1.242-3.406,4.734,4.734,0,0,1,1.121-3.391A3.833,3.833,0,0,1,88.852,27.258Zm7.273,6.023a1.487,1.487,0,0,0,.3.844,2.06,2.06,0,0,0,1.531.445,2.334,2.334,0,0,0,1.043-.2.655.655,0,0,0,.074-1.156,12.713,12.713,0,0,0-2.32-.672,4.833,4.833,0,0,1-2.039-.9,1.948,1.948,0,0,1-.594-1.531,2.656,2.656,0,0,1,.926-2.027,3.718,3.718,0,0,1,2.605-.848,4.78,4.78,0,0,1,2.6.637,2.727,2.727,0,0,1,1.152,2.2H99.18a1.317,1.317,0,0,0-.242-.68,1.524,1.524,0,0,0-1.25-.453,1.8,1.8,0,0,0-1.035.227.652.652,0,0,0-.309.531.581.581,0,0,0,.328.555,14.2,14.2,0,0,0,2.32.617,4.262,4.262,0,0,1,1.992.945,2.146,2.146,0,0,1,.656,1.6,2.588,2.588,0,0,1-.941,2.066,5.648,5.648,0,0,1-5.875-.047,2.758,2.758,0,0,1-.957-2.16Z" transform="translate(456 3737)" fill="#00223d"/>
      <text id="_" data-name="=" transform="translate(541 3747)" fill="#00223d" font-size="18" font-family="Helvetica-Bold, Helvetica" font-weight="700"><tspan x="-5.256" y="14">=</tspan></text>
      <path id="Trazado_86821" data-name="Trazado 86821" d="M20.938,12l2.906-4.312L21.063,3.5h2.727l1.422,2.469L26.6,3.5H29.25l-2.8,4.148L29.359,12H26.586L25.117,9.445,23.641,12Zm14.25-7.812V2.672a9.869,9.869,0,0,0,1.477-.141,2.083,2.083,0,0,0,1.094-.594,1.955,1.955,0,0,0,.438-.812,1.865,1.865,0,0,0,.086-.453h1.852V12H37.852V4.188ZM45.75,6.445a10.67,10.67,0,0,0,.32,2.988,1.29,1.29,0,0,0,1.313,1.035,1.272,1.272,0,0,0,1.3-1.035,11.056,11.056,0,0,0,.309-2.988,10.933,10.933,0,0,0-.309-3.031,1.261,1.261,0,0,0-1.3-.984,1.279,1.279,0,0,0-1.312.984A10.552,10.552,0,0,0,45.75,6.445ZM47.383.594a3.2,3.2,0,0,1,3.035,1.523,8.815,8.815,0,0,1,.871,4.328,8.768,8.768,0,0,1-.871,4.32,3.205,3.205,0,0,1-3.035,1.516,3.205,3.205,0,0,1-3.035-1.516,8.768,8.768,0,0,1-.871-4.32,8.815,8.815,0,0,1,.871-4.328A3.2,3.2,0,0,1,47.383.594Zm7.266,5.852a10.67,10.67,0,0,0,.32,2.988,1.29,1.29,0,0,0,1.313,1.035,1.272,1.272,0,0,0,1.3-1.035,11.056,11.056,0,0,0,.309-2.988,10.933,10.933,0,0,0-.309-3.031,1.261,1.261,0,0,0-1.3-.984,1.279,1.279,0,0,0-1.312.984A10.552,10.552,0,0,0,54.648,6.445ZM56.281.594a3.2,3.2,0,0,1,3.035,1.523,8.815,8.815,0,0,1,.871,4.328,8.768,8.768,0,0,1-.871,4.32,3.205,3.205,0,0,1-3.035,1.516,3.205,3.205,0,0,1-3.035-1.516,8.768,8.768,0,0,1-.871-4.32,8.815,8.815,0,0,1,.871-4.328A3.2,3.2,0,0,1,56.281.594Zm7.766,4.281a1.24,1.24,0,0,0,1.242-1.242,1.242,1.242,0,1,0-2.484,0,1.24,1.24,0,0,0,1.242,1.242Zm2.906-1.242a2.806,2.806,0,0,1-.848,2.055,2.909,2.909,0,0,1-4.113,0,2.8,2.8,0,0,1-.852-2.055,2.8,2.8,0,0,1,.852-2.055,2.9,2.9,0,0,1,4.109,0A2.8,2.8,0,0,1,66.953,3.633Zm5.93,5.688a1.24,1.24,0,1,0-.363.879A1.2,1.2,0,0,0,72.883,9.32Zm1.664,0a2.906,2.906,0,1,1-4.961-2.059A2.908,2.908,0,0,1,74.547,9.32ZM70.4.672h1.188L65.273,12.3H64.063Z" transform="translate(863 3745)" fill="#00223d"/>
      <path id="Trazado_86052" data-name="Trazado 86052" d="M0,0H309.63" transform="translate(566.07 3758.5)" fill="none" stroke="#00223d" stroke-width="1"/>
    </g>
  </g>
</svg>
