<svg xmlns="http://www.w3.org/2000/svg" width="782" height="127.682" viewBox="0 0 782 127.682">
  <g id="Grupo_38049" data-name="Grupo 38049" transform="translate(-393.508 -3628)">
    <rect id="Rectángulo_31595" data-name="Rectángulo 31595" width="762" height="101" rx="15" transform="translate(393.508 3628)" fill="#8acc59" opacity="0.225"/>
    <g id="Grupo_33894" data-name="Grupo 33894" transform="translate(0 7)">
      <path id="Trazado_86859" data-name="Trazado 86859" d="M1.538,1.089h5.81a3.938,3.938,0,0,1,2.777.971A3.524,3.524,0,0,1,11.18,4.789a3.968,3.968,0,0,1-.94,2.632A3.563,3.563,0,0,1,7.348,8.542H3.287V14H1.538ZM9.413,4.8A1.943,1.943,0,0,0,8.358,2.864a3.808,3.808,0,0,0-1.591-.272H3.287V7.065h3.48a3.326,3.326,0,0,0,1.912-.5A1.985,1.985,0,0,0,9.413,4.8Zm4.966,6.7a1.3,1.3,0,0,0,.5,1.081,1.857,1.857,0,0,0,1.187.4,3.608,3.608,0,0,0,1.617-.387A2.176,2.176,0,0,0,19,10.484V9.21a2.707,2.707,0,0,1-.747.308,6.366,6.366,0,0,1-.9.176l-.958.123a3.664,3.664,0,0,0-1.292.36A1.4,1.4,0,0,0,14.379,11.5Zm3.832-3.2a.859.859,0,0,0,.729-.457,1.391,1.391,0,0,0,.105-.606,1.285,1.285,0,0,0-.576-1.173,3.089,3.089,0,0,0-1.648-.365,2.094,2.094,0,0,0-1.758.668,2.2,2.2,0,0,0-.378,1.1H13.21A2.718,2.718,0,0,1,14.339,5.04a4.637,4.637,0,0,1,2.518-.681,5.124,5.124,0,0,1,2.7.633A2.147,2.147,0,0,1,20.584,6.96v5.423a.694.694,0,0,0,.1.4.487.487,0,0,0,.426.149q.105,0,.237-.013t.281-.04v1.169a4.406,4.406,0,0,1-.562.132,4.111,4.111,0,0,1-.527.026,1.3,1.3,0,0,1-1.187-.58,2.239,2.239,0,0,1-.272-.87,4.025,4.025,0,0,1-1.389,1.1,4.3,4.3,0,0,1-2,.466,2.967,2.967,0,0,1-2.14-.8,2.642,2.642,0,0,1-.831-1.991,2.564,2.564,0,0,1,.817-2.03,3.889,3.889,0,0,1,2.145-.888Zm5.01-3.709h1.5V6.213a3.592,3.592,0,0,1,.905-1.156,2.347,2.347,0,0,1,1.661-.681q.044,0,.149.009t.36.035V6.09a2.363,2.363,0,0,0-.259-.035q-.119-.009-.259-.009a2.258,2.258,0,0,0-1.837.769A2.684,2.684,0,0,0,24.8,8.586V14H23.221ZM30.384,11.5a1.3,1.3,0,0,0,.5,1.081,1.857,1.857,0,0,0,1.187.4,3.608,3.608,0,0,0,1.617-.387,2.176,2.176,0,0,0,1.318-2.1V9.21a2.707,2.707,0,0,1-.747.308,6.366,6.366,0,0,1-.9.176l-.958.123a3.664,3.664,0,0,0-1.292.36A1.4,1.4,0,0,0,30.384,11.5Zm3.832-3.2a.859.859,0,0,0,.729-.457,1.391,1.391,0,0,0,.105-.606,1.285,1.285,0,0,0-.576-1.173,3.089,3.089,0,0,0-1.648-.365,2.094,2.094,0,0,0-1.758.668,2.2,2.2,0,0,0-.378,1.1H29.215A2.718,2.718,0,0,1,30.344,5.04a4.637,4.637,0,0,1,2.518-.681,5.124,5.124,0,0,1,2.7.633A2.147,2.147,0,0,1,36.589,6.96v5.423a.694.694,0,0,0,.1.4.487.487,0,0,0,.426.149q.105,0,.237-.013t.281-.04v1.169a4.406,4.406,0,0,1-.562.132,4.111,4.111,0,0,1-.527.026,1.3,1.3,0,0,1-1.187-.58,2.239,2.239,0,0,1-.272-.87,4.025,4.025,0,0,1-1.389,1.1,4.3,4.3,0,0,1-2,.466,2.967,2.967,0,0,1-2.14-.8,2.642,2.642,0,0,1-.831-1.991,2.564,2.564,0,0,1,.817-2.03,3.889,3.889,0,0,1,2.145-.888Zm13.939,4.641A2.257,2.257,0,0,0,50,12.009a4.413,4.413,0,0,0,.734-2.773A5.176,5.176,0,0,0,50.405,7.3a2.383,2.383,0,0,0-4.5.088,6.514,6.514,0,0,0-.325,2.232,4.732,4.732,0,0,0,.325,1.854A2.243,2.243,0,0,0,48.155,12.937Zm-4.1-8.306H45.6V5.879a3.84,3.84,0,0,1,1.037-.993,3.338,3.338,0,0,1,1.881-.527,3.537,3.537,0,0,1,2.716,1.226,5.023,5.023,0,0,1,1.116,3.5q0,3.076-1.608,4.395a3.634,3.634,0,0,1-2.373.835,3.221,3.221,0,0,1-1.784-.466,4.111,4.111,0,0,1-.94-.905v4.808H44.06Zm10.178-.044h1.5V6.213a3.592,3.592,0,0,1,.905-1.156,2.347,2.347,0,0,1,1.661-.681q.044,0,.149.009t.36.035V6.09a2.363,2.363,0,0,0-.259-.035q-.119-.009-.259-.009a2.258,2.258,0,0,0-1.837.769,2.684,2.684,0,0,0-.642,1.771V14H54.237Zm9.686,8.394a2.182,2.182,0,0,0,2.158-1.191,5.933,5.933,0,0,0,.584-2.65A4.718,4.718,0,0,0,66.243,7a2.373,2.373,0,0,0-2.3-1.3A2.271,2.271,0,0,0,61.831,6.8a5.133,5.133,0,0,0-.659,2.672,4.465,4.465,0,0,0,.659,2.5A2.322,2.322,0,0,0,63.923,12.98Zm.062-8.666a4.262,4.262,0,0,1,3.076,1.213A4.736,4.736,0,0,1,68.317,9.1a6.122,6.122,0,0,1-1.107,3.762,4.006,4.006,0,0,1-3.437,1.485,3.88,3.88,0,0,1-3.085-1.314A5.19,5.19,0,0,1,59.546,9.5a5.615,5.615,0,0,1,1.2-3.779A4.041,4.041,0,0,1,63.984,4.314Zm6.609-1.16a2.821,2.821,0,0,1,.343-1.441A2.423,2.423,0,0,1,73.072.9q.149,0,.308.009t.36.026V2.381q-.246-.018-.356-.022t-.207,0q-.721,0-.861.374a7.385,7.385,0,0,0-.141,1.9H73.74V5.879H72.158V14H70.594V5.879h-1.31V4.631h1.31Zm6.188,1.433v6.249a2.635,2.635,0,0,0,.229,1.178,1.6,1.6,0,0,0,1.573.844,2.224,2.224,0,0,0,2.25-1.477,5.858,5.858,0,0,0,.325-2.171V4.587H82.74V14H81.246l.018-1.389a3.191,3.191,0,0,1-.765.905,3.365,3.365,0,0,1-2.2.738A2.834,2.834,0,0,1,75.56,12.91a4,4,0,0,1-.4-1.925v-6.4Zm8.429,0h1.5V5.923a4.215,4.215,0,0,1,1.415-1.187,3.773,3.773,0,0,1,1.661-.36,2.739,2.739,0,0,1,2.707,1.4,4.962,4.962,0,0,1,.387,2.188V14H91.274V8.067a3.212,3.212,0,0,0-.255-1.389A1.545,1.545,0,0,0,89.49,5.8a3.114,3.114,0,0,0-.923.114,2.377,2.377,0,0,0-1.143.773,2.329,2.329,0,0,0-.514.962,6.478,6.478,0,0,0-.119,1.419V14H85.21ZM96.223,9.4a4.666,4.666,0,0,0,.642,2.531,2.248,2.248,0,0,0,2.057,1.02,2.166,2.166,0,0,0,1.806-.945,4.462,4.462,0,0,0,.708-2.711,4.009,4.009,0,0,0-.729-2.641A2.276,2.276,0,0,0,98.9,5.8a2.378,2.378,0,0,0-1.938.914A4.186,4.186,0,0,0,96.223,9.4ZM98.6,4.42a3.349,3.349,0,0,1,1.811.457,4.253,4.253,0,0,1,.958.923V1.045h1.521V14H101.47V12.69a3.423,3.423,0,0,1-1.31,1.257,3.748,3.748,0,0,1-1.731.387A3.506,3.506,0,0,1,95.7,13.011a5.172,5.172,0,0,1-1.151-3.52A6.076,6.076,0,0,1,95.6,5.927,3.439,3.439,0,0,1,98.6,4.42Zm6.627.211h1.608V14h-1.608Zm0-3.542h1.608V2.882h-1.608Zm3.3,11.663L114.108,6H108.94V4.587h7.295V5.879l-5.546,6.706H116.4V14h-7.875ZM119.443,11.5a1.3,1.3,0,0,0,.5,1.081,1.857,1.857,0,0,0,1.187.4,3.608,3.608,0,0,0,1.617-.387,2.176,2.176,0,0,0,1.318-2.1V9.21a2.707,2.707,0,0,1-.747.308,6.366,6.366,0,0,1-.9.176l-.958.123a3.664,3.664,0,0,0-1.292.36A1.4,1.4,0,0,0,119.443,11.5Zm3.832-3.2A.859.859,0,0,0,124,7.839a1.391,1.391,0,0,0,.105-.606,1.285,1.285,0,0,0-.576-1.173,3.089,3.089,0,0,0-1.648-.365,2.094,2.094,0,0,0-1.758.668,2.2,2.2,0,0,0-.378,1.1h-1.477A2.718,2.718,0,0,1,119.4,5.04a4.637,4.637,0,0,1,2.518-.681,5.124,5.124,0,0,1,2.7.633,2.147,2.147,0,0,1,1.028,1.969v5.423a.694.694,0,0,0,.1.4.487.487,0,0,0,.426.149q.105,0,.237-.013t.281-.04v1.169a4.406,4.406,0,0,1-.562.132,4.111,4.111,0,0,1-.527.026,1.3,1.3,0,0,1-1.187-.58,2.239,2.239,0,0,1-.272-.87,4.025,4.025,0,0,1-1.389,1.1,4.3,4.3,0,0,1-2,.466,2.967,2.967,0,0,1-2.14-.8,2.642,2.642,0,0,1-.831-1.991,2.564,2.564,0,0,1,.817-2.03,3.889,3.889,0,0,1,2.145-.888Zm5.01-3.709h1.5V6.213a3.592,3.592,0,0,1,.905-1.156,2.347,2.347,0,0,1,1.661-.681q.044,0,.149.009t.36.035V6.09a2.363,2.363,0,0,0-.259-.035q-.119-.009-.259-.009a2.258,2.258,0,0,0-1.837.769,2.684,2.684,0,0,0-.642,1.771V14h-1.582Zm14.871-.211a4.294,4.294,0,0,1,1.942.47,3.582,3.582,0,0,1,1.433,1.217,4.2,4.2,0,0,1,.633,1.661A10.868,10.868,0,0,1,147.3,9.8h-6.9a4.026,4.026,0,0,0,.677,2.3,2.266,2.266,0,0,0,1.96.866,2.534,2.534,0,0,0,1.978-.817,2.755,2.755,0,0,0,.6-1.1h1.556a3.276,3.276,0,0,1-.409,1.156,4.111,4.111,0,0,1-.778,1.042,3.687,3.687,0,0,1-1.784.949,5.42,5.42,0,0,1-1.292.141,3.964,3.964,0,0,1-2.979-1.279,4.976,4.976,0,0,1-1.222-3.582,5.41,5.41,0,0,1,1.23-3.683A4.059,4.059,0,0,1,143.156,4.376Zm2.522,4.166A4.1,4.1,0,0,0,145.23,6.9a2.3,2.3,0,0,0-2.171-1.143,2.406,2.406,0,0,0-1.828.787,2.972,2.972,0,0,0-.782,2Zm3.568-3.955h1.5V5.923a4.215,4.215,0,0,1,1.415-1.187,3.773,3.773,0,0,1,1.661-.36,2.739,2.739,0,0,1,2.707,1.4,4.962,4.962,0,0,1,.387,2.188V14h-1.608V8.067a3.212,3.212,0,0,0-.255-1.389,1.545,1.545,0,0,0-1.529-.879,3.114,3.114,0,0,0-.923.114,2.377,2.377,0,0,0-1.143.773,2.329,2.329,0,0,0-.514.962,6.478,6.478,0,0,0-.119,1.419V14h-1.582Zm18.932-.211a4.294,4.294,0,0,1,1.942.47,3.582,3.582,0,0,1,1.433,1.217,4.2,4.2,0,0,1,.633,1.661,10.868,10.868,0,0,1,.141,2.074h-6.9a4.026,4.026,0,0,0,.677,2.3,2.266,2.266,0,0,0,1.96.866,2.534,2.534,0,0,0,1.978-.817,2.755,2.755,0,0,0,.6-1.1H172.2a3.276,3.276,0,0,1-.409,1.156,4.111,4.111,0,0,1-.778,1.042,3.687,3.687,0,0,1-1.784.949,5.42,5.42,0,0,1-1.292.141,3.964,3.964,0,0,1-2.979-1.279,4.976,4.976,0,0,1-1.222-3.582,5.41,5.41,0,0,1,1.23-3.683A4.059,4.059,0,0,1,168.179,4.376ZM170.7,8.542a4.1,4.1,0,0,0-.448-1.644,2.3,2.3,0,0,0-2.171-1.143,2.406,2.406,0,0,0-1.828.787,2.972,2.972,0,0,0-.782,2Zm4.509,2.5a2.3,2.3,0,0,0,.4,1.213,2.485,2.485,0,0,0,2.074.765,3.059,3.059,0,0,0,1.547-.382,1.27,1.27,0,0,0,.668-1.182,1.011,1.011,0,0,0-.536-.923A6.374,6.374,0,0,0,178,10.089l-1.257-.316a6.131,6.131,0,0,1-1.775-.668,2,2,0,0,1-1.02-1.775,2.713,2.713,0,0,1,.962-2.162,3.839,3.839,0,0,1,2.588-.826,3.593,3.593,0,0,1,3.067,1.248,2.708,2.708,0,0,1,.571,1.705h-1.494a1.83,1.83,0,0,0-.378-.976,2.41,2.41,0,0,0-1.89-.624,2.259,2.259,0,0,0-1.358.343,1.074,1.074,0,0,0-.461.905,1.114,1.114,0,0,0,.606.984,3.644,3.644,0,0,0,1.037.387l1.046.255a8.087,8.087,0,0,1,2.285.8,2.118,2.118,0,0,1,.923,1.907,2.906,2.906,0,0,1-.954,2.171,4.059,4.059,0,0,1-2.9.914,3.9,3.9,0,0,1-2.975-.954,3.606,3.606,0,0,1-.936-2.36Zm8.376-9.088h1.6V4.587h1.5V5.879h-1.5v6.144a.665.665,0,0,0,.334.659,1.42,1.42,0,0,0,.615.1q.114,0,.246,0t.308-.022V14a3.532,3.532,0,0,1-.567.114,5.39,5.39,0,0,1-.637.035,1.717,1.717,0,0,1-1.5-.567,2.519,2.519,0,0,1-.4-1.472V5.879h-1.274V4.587h1.274Zm5.9,9.536a1.3,1.3,0,0,0,.5,1.081,1.857,1.857,0,0,0,1.187.4,3.608,3.608,0,0,0,1.617-.387,2.176,2.176,0,0,0,1.318-2.1V9.21a2.707,2.707,0,0,1-.747.308,6.366,6.366,0,0,1-.9.176l-.958.123a3.664,3.664,0,0,0-1.292.36A1.4,1.4,0,0,0,189.483,11.5Zm3.832-3.2a.859.859,0,0,0,.729-.457,1.391,1.391,0,0,0,.105-.606,1.285,1.285,0,0,0-.576-1.173,3.089,3.089,0,0,0-1.648-.365,2.094,2.094,0,0,0-1.758.668,2.2,2.2,0,0,0-.378,1.1h-1.477a2.718,2.718,0,0,1,1.129-2.421,4.637,4.637,0,0,1,2.518-.681,5.124,5.124,0,0,1,2.7.633,2.147,2.147,0,0,1,1.028,1.969v5.423a.694.694,0,0,0,.1.4.487.487,0,0,0,.426.149q.105,0,.237-.013t.281-.04v1.169a4.406,4.406,0,0,1-.562.132,4.111,4.111,0,0,1-.527.026,1.3,1.3,0,0,1-1.187-.58,2.239,2.239,0,0,1-.272-.87,4.025,4.025,0,0,1-1.389,1.1,4.3,4.3,0,0,1-2,.466,2.967,2.967,0,0,1-2.14-.8,2.642,2.642,0,0,1-.831-1.991,2.564,2.564,0,0,1,.817-2.03,3.889,3.889,0,0,1,2.145-.888Zm9.967-7.251h1.582V5.861a4.568,4.568,0,0,1,1.011-1,3.41,3.41,0,0,1,1.907-.5,2.821,2.821,0,0,1,2.777,1.433,4.885,4.885,0,0,1,.4,2.171V14h-1.626V8.067a3.318,3.318,0,0,0-.264-1.521,1.685,1.685,0,0,0-1.617-.773,2.694,2.694,0,0,0-1.784.677,3.254,3.254,0,0,0-.8,2.558V14h-1.582Zm13.931,3.331a4.294,4.294,0,0,1,1.942.47,3.582,3.582,0,0,1,1.433,1.217,4.2,4.2,0,0,1,.633,1.661,10.868,10.868,0,0,1,.141,2.074h-6.9a4.026,4.026,0,0,0,.677,2.3,2.266,2.266,0,0,0,1.96.866,2.534,2.534,0,0,0,1.978-.817,2.755,2.755,0,0,0,.6-1.1h1.556a3.276,3.276,0,0,1-.409,1.156,4.111,4.111,0,0,1-.778,1.042,3.687,3.687,0,0,1-1.784.949,5.42,5.42,0,0,1-1.292.141,3.964,3.964,0,0,1-2.979-1.279,4.976,4.976,0,0,1-1.222-3.582A5.41,5.41,0,0,1,214,5.791,4.059,4.059,0,0,1,217.213,4.376Zm2.522,4.166a4.1,4.1,0,0,0-.448-1.644,2.3,2.3,0,0,0-2.171-1.143,2.406,2.406,0,0,0-1.828.787,2.972,2.972,0,0,0-.782,2Zm3.612-3.955h1.5V6.213a3.592,3.592,0,0,1,.905-1.156,2.347,2.347,0,0,1,1.661-.681q.044,0,.149.009t.36.035V6.09a2.363,2.363,0,0,0-.259-.035q-.119-.009-.259-.009a2.258,2.258,0,0,0-1.837.769,2.684,2.684,0,0,0-.642,1.771V14h-1.582Zm5.994,0h1.5V6.213a3.592,3.592,0,0,1,.905-1.156,2.347,2.347,0,0,1,1.661-.681q.044,0,.149.009t.36.035V6.09a2.363,2.363,0,0,0-.259-.035q-.119-.009-.259-.009a2.258,2.258,0,0,0-1.837.769,2.684,2.684,0,0,0-.642,1.771V14h-1.582ZM236.5,11.5a1.3,1.3,0,0,0,.5,1.081,1.857,1.857,0,0,0,1.187.4,3.608,3.608,0,0,0,1.617-.387,2.176,2.176,0,0,0,1.318-2.1V9.21a2.707,2.707,0,0,1-.747.308,6.366,6.366,0,0,1-.9.176l-.958.123a3.664,3.664,0,0,0-1.292.36A1.4,1.4,0,0,0,236.5,11.5Zm3.832-3.2a.859.859,0,0,0,.729-.457,1.391,1.391,0,0,0,.105-.606,1.285,1.285,0,0,0-.576-1.173,3.089,3.089,0,0,0-1.648-.365,2.094,2.094,0,0,0-1.758.668,2.2,2.2,0,0,0-.378,1.1h-1.477a2.718,2.718,0,0,1,1.129-2.421,4.637,4.637,0,0,1,2.518-.681,5.124,5.124,0,0,1,2.7.633A2.147,2.147,0,0,1,242.71,6.96v5.423a.694.694,0,0,0,.1.4.487.487,0,0,0,.426.149q.105,0,.237-.013t.281-.04v1.169a4.406,4.406,0,0,1-.562.132,4.111,4.111,0,0,1-.527.026,1.3,1.3,0,0,1-1.187-.58,2.239,2.239,0,0,1-.272-.87,4.025,4.025,0,0,1-1.389,1.1,4.3,4.3,0,0,1-2,.466,2.967,2.967,0,0,1-2.14-.8,2.642,2.642,0,0,1-.831-1.991,2.564,2.564,0,0,1,.817-2.03,3.889,3.889,0,0,1,2.145-.888ZM245.3,4.587h1.564V5.923a5.258,5.258,0,0,1,1.02-1.011,3.066,3.066,0,0,1,1.775-.536,2.794,2.794,0,0,1,1.811.554,2.894,2.894,0,0,1,.7.932,3.419,3.419,0,0,1,1.239-1.121,3.457,3.457,0,0,1,1.6-.365A2.616,2.616,0,0,1,257.6,5.747a4.482,4.482,0,0,1,.369,1.986V14h-1.644V7.461a1.523,1.523,0,0,0-.47-1.292,1.861,1.861,0,0,0-1.147-.352,2.277,2.277,0,0,0-1.6.624,2.74,2.74,0,0,0-.672,2.083V14h-1.608V7.856a3.192,3.192,0,0,0-.229-1.4,1.394,1.394,0,0,0-1.345-.659,2.32,2.32,0,0,0-1.63.694,3.4,3.4,0,0,0-.734,2.514V14H245.3Zm14.994.044h1.608V14H260.3Zm0-3.542h1.608V2.882H260.3Zm7.919,3.287a4.294,4.294,0,0,1,1.942.47,3.582,3.582,0,0,1,1.433,1.217,4.2,4.2,0,0,1,.633,1.661,10.868,10.868,0,0,1,.141,2.074h-6.9a4.026,4.026,0,0,0,.677,2.3,2.266,2.266,0,0,0,1.96.866,2.534,2.534,0,0,0,1.978-.817,2.755,2.755,0,0,0,.6-1.1h1.556a3.276,3.276,0,0,1-.409,1.156,4.111,4.111,0,0,1-.778,1.042,3.687,3.687,0,0,1-1.784.949,5.42,5.42,0,0,1-1.292.141,3.964,3.964,0,0,1-2.979-1.279,4.976,4.976,0,0,1-1.222-3.582A5.41,5.41,0,0,1,265,5.791,4.059,4.059,0,0,1,268.216,4.376Zm2.522,4.166A4.1,4.1,0,0,0,270.29,6.9a2.3,2.3,0,0,0-2.171-1.143,2.406,2.406,0,0,0-1.828.787,2.972,2.972,0,0,0-.782,2Zm3.568-3.955h1.5V5.923a4.215,4.215,0,0,1,1.415-1.187,3.773,3.773,0,0,1,1.661-.36,2.739,2.739,0,0,1,2.707,1.4,4.962,4.962,0,0,1,.387,2.188V14h-1.608V8.067a3.212,3.212,0,0,0-.255-1.389,1.545,1.545,0,0,0-1.529-.879,3.114,3.114,0,0,0-.923.114,2.377,2.377,0,0,0-1.143.773,2.329,2.329,0,0,0-.514.962,6.478,6.478,0,0,0-.119,1.419V14h-1.582Zm10.327-2.628h1.6V4.587h1.5V5.879h-1.5v6.144a.665.665,0,0,0,.334.659,1.42,1.42,0,0,0,.615.1q.114,0,.246,0t.308-.022V14a3.532,3.532,0,0,1-.567.114,5.39,5.39,0,0,1-.637.035,1.717,1.717,0,0,1-1.5-.567,2.519,2.519,0,0,1-.4-1.472V5.879h-1.274V4.587h1.274Zm5.9,9.536a1.3,1.3,0,0,0,.5,1.081,1.857,1.857,0,0,0,1.187.4,3.608,3.608,0,0,0,1.617-.387,2.176,2.176,0,0,0,1.318-2.1V9.21a2.707,2.707,0,0,1-.747.308,6.366,6.366,0,0,1-.9.176l-.958.123a3.664,3.664,0,0,0-1.292.36A1.4,1.4,0,0,0,290.531,11.5Zm3.832-3.2a.859.859,0,0,0,.729-.457,1.391,1.391,0,0,0,.105-.606,1.285,1.285,0,0,0-.576-1.173,3.089,3.089,0,0,0-1.648-.365,2.094,2.094,0,0,0-1.758.668,2.2,2.2,0,0,0-.378,1.1h-1.477a2.718,2.718,0,0,1,1.129-2.421,4.637,4.637,0,0,1,2.518-.681,5.124,5.124,0,0,1,2.7.633,2.147,2.147,0,0,1,1.028,1.969v5.423a.694.694,0,0,0,.1.4.487.487,0,0,0,.426.149q.105,0,.237-.013t.281-.04v1.169a4.406,4.406,0,0,1-.562.132,4.111,4.111,0,0,1-.527.026,1.3,1.3,0,0,1-1.187-.58,2.239,2.239,0,0,1-.272-.87,4.025,4.025,0,0,1-1.389,1.1,4.3,4.3,0,0,1-2,.466,2.967,2.967,0,0,1-2.14-.8,2.642,2.642,0,0,1-.831-1.991A2.564,2.564,0,0,1,289.7,9.5a3.889,3.889,0,0,1,2.145-.888Zm13.6-3.981a4.1,4.1,0,0,1,2.588.773,3.705,3.705,0,0,1,1.2,2.663H310.21a2.839,2.839,0,0,0-.642-1.446,2.027,2.027,0,0,0-1.608-.576A2.222,2.222,0,0,0,305.8,7.206a5.865,5.865,0,0,0-.422,2.364,4.449,4.449,0,0,0,.6,2.382,2.317,2.317,0,0,0,3.441.365,3.311,3.311,0,0,0,.8-1.648h1.538a4.129,4.129,0,0,1-1.318,2.738,4.113,4.113,0,0,1-2.7.866,3.6,3.6,0,0,1-2.944-1.349,5.164,5.164,0,0,1-1.1-3.371,5.678,5.678,0,0,1,1.2-3.858A3.891,3.891,0,0,1,307.96,4.314Zm9.105,8.666a2.182,2.182,0,0,0,2.158-1.191,5.933,5.933,0,0,0,.584-2.65A4.718,4.718,0,0,0,319.386,7a2.373,2.373,0,0,0-2.3-1.3A2.271,2.271,0,0,0,314.974,6.8a5.133,5.133,0,0,0-.659,2.672,4.465,4.465,0,0,0,.659,2.5A2.322,2.322,0,0,0,317.065,12.98Zm.062-8.666A4.262,4.262,0,0,1,320.2,5.527,4.736,4.736,0,0,1,321.46,9.1a6.122,6.122,0,0,1-1.107,3.762,4.006,4.006,0,0,1-3.437,1.485,3.88,3.88,0,0,1-3.085-1.314A5.19,5.19,0,0,1,312.688,9.5a5.615,5.615,0,0,1,1.2-3.779A4.041,4.041,0,0,1,317.127,4.314Zm6.214.272h1.5V5.923a4.215,4.215,0,0,1,1.415-1.187,3.773,3.773,0,0,1,1.661-.36,2.739,2.739,0,0,1,2.707,1.4,4.962,4.962,0,0,1,.387,2.188V14h-1.608V8.067a3.212,3.212,0,0,0-.255-1.389,1.545,1.545,0,0,0-1.529-.879,3.114,3.114,0,0,0-.923.114,2.377,2.377,0,0,0-1.143.773,2.329,2.329,0,0,0-.514.962,6.478,6.478,0,0,0-.119,1.419V14h-1.582Zm10.951,6.46a2.3,2.3,0,0,0,.4,1.213,2.485,2.485,0,0,0,2.074.765,3.059,3.059,0,0,0,1.547-.382,1.27,1.27,0,0,0,.668-1.182,1.011,1.011,0,0,0-.536-.923,6.374,6.374,0,0,0-1.354-.448l-1.257-.316a6.131,6.131,0,0,1-1.775-.668,2,2,0,0,1-1.02-1.775A2.713,2.713,0,0,1,334,5.167a3.839,3.839,0,0,1,2.588-.826,3.593,3.593,0,0,1,3.067,1.248,2.708,2.708,0,0,1,.571,1.705H338.73a1.83,1.83,0,0,0-.378-.976,2.41,2.41,0,0,0-1.89-.624,2.259,2.259,0,0,0-1.358.343,1.074,1.074,0,0,0-.461.905,1.114,1.114,0,0,0,.606.984,3.644,3.644,0,0,0,1.037.387l1.046.255a8.087,8.087,0,0,1,2.285.8,2.118,2.118,0,0,1,.923,1.907,2.906,2.906,0,0,1-.954,2.171,4.059,4.059,0,0,1-2.9.914,3.9,3.9,0,0,1-2.975-.954,3.606,3.606,0,0,1-.936-2.36Zm9.642-6.46v6.249a2.635,2.635,0,0,0,.229,1.178,1.6,1.6,0,0,0,1.573.844,2.224,2.224,0,0,0,2.25-1.477,5.858,5.858,0,0,0,.325-2.171V4.587h1.582V14H348.4l.018-1.389a3.191,3.191,0,0,1-.765.905,3.365,3.365,0,0,1-2.2.738,2.834,2.834,0,0,1-2.742-1.345,4,4,0,0,1-.4-1.925v-6.4Zm8.473-3.5h1.582V14h-1.582Zm4.271.87h1.6V4.587h1.5V5.879h-1.5v6.144a.665.665,0,0,0,.334.659,1.42,1.42,0,0,0,.615.1q.114,0,.246,0t.308-.022V14a3.532,3.532,0,0,1-.567.114,5.39,5.39,0,0,1-.637.035,1.717,1.717,0,0,1-1.5-.567,2.519,2.519,0,0,1-.4-1.472V5.879H355.4V4.587h1.274Zm8.6,2.417a4.294,4.294,0,0,1,1.942.47,3.582,3.582,0,0,1,1.433,1.217,4.2,4.2,0,0,1,.633,1.661,10.868,10.868,0,0,1,.141,2.074h-6.9a4.026,4.026,0,0,0,.677,2.3,2.266,2.266,0,0,0,1.96.866,2.534,2.534,0,0,0,1.978-.817,2.755,2.755,0,0,0,.6-1.1H369.3a3.276,3.276,0,0,1-.409,1.156,4.111,4.111,0,0,1-.778,1.042,3.687,3.687,0,0,1-1.784.949,5.42,5.42,0,0,1-1.292.141,3.964,3.964,0,0,1-2.979-1.279,4.976,4.976,0,0,1-1.222-3.582,5.41,5.41,0,0,1,1.23-3.683A4.059,4.059,0,0,1,365.282,4.376ZM367.8,8.542a4.1,4.1,0,0,0-.448-1.644,2.3,2.3,0,0,0-2.171-1.143,2.406,2.406,0,0,0-1.828.787,2.972,2.972,0,0,0-.782,2Zm12.489-4.166a4.294,4.294,0,0,1,1.942.47,3.582,3.582,0,0,1,1.433,1.217,4.2,4.2,0,0,1,.633,1.661,10.868,10.868,0,0,1,.141,2.074h-6.9a4.026,4.026,0,0,0,.677,2.3,2.266,2.266,0,0,0,1.96.866,2.534,2.534,0,0,0,1.978-.817,2.755,2.755,0,0,0,.6-1.1h1.556A3.276,3.276,0,0,1,383.9,12.2a4.111,4.111,0,0,1-.778,1.042,3.687,3.687,0,0,1-1.784.949,5.42,5.42,0,0,1-1.292.141,3.964,3.964,0,0,1-2.979-1.279,4.976,4.976,0,0,1-1.222-3.582,5.41,5.41,0,0,1,1.23-3.683A4.059,4.059,0,0,1,380.294,4.376Zm2.522,4.166a4.1,4.1,0,0,0-.448-1.644A2.3,2.3,0,0,0,380.2,5.756a2.406,2.406,0,0,0-1.828.787,2.972,2.972,0,0,0-.782,2Zm3.612-7.453h1.582V14h-1.582Zm8.956,3.5h1.564V5.923a5.258,5.258,0,0,1,1.02-1.011,3.066,3.066,0,0,1,1.775-.536,2.794,2.794,0,0,1,1.811.554,2.894,2.894,0,0,1,.7.932A3.419,3.419,0,0,1,403.5,4.741a3.457,3.457,0,0,1,1.6-.365,2.616,2.616,0,0,1,2.584,1.371,4.482,4.482,0,0,1,.369,1.986V14h-1.644V7.461a1.523,1.523,0,0,0-.47-1.292,1.861,1.861,0,0,0-1.147-.352,2.277,2.277,0,0,0-1.6.624,2.74,2.74,0,0,0-.672,2.083V14H400.9V7.856a3.192,3.192,0,0,0-.229-1.4,1.394,1.394,0,0,0-1.345-.659,2.32,2.32,0,0,0-1.63.694,3.4,3.4,0,0,0-.734,2.514V14h-1.582ZM411.592,11.5a1.3,1.3,0,0,0,.5,1.081,1.857,1.857,0,0,0,1.187.4,3.608,3.608,0,0,0,1.617-.387,2.176,2.176,0,0,0,1.318-2.1V9.21a2.707,2.707,0,0,1-.747.308,6.366,6.366,0,0,1-.9.176l-.958.123a3.664,3.664,0,0,0-1.292.36A1.4,1.4,0,0,0,411.592,11.5Zm3.832-3.2a.859.859,0,0,0,.729-.457,1.391,1.391,0,0,0,.105-.606,1.285,1.285,0,0,0-.576-1.173,3.089,3.089,0,0,0-1.648-.365,2.094,2.094,0,0,0-1.758.668,2.2,2.2,0,0,0-.378,1.1h-1.477a2.718,2.718,0,0,1,1.129-2.421,4.637,4.637,0,0,1,2.518-.681,5.124,5.124,0,0,1,2.7.633A2.147,2.147,0,0,1,417.8,6.96v5.423a.694.694,0,0,0,.1.4.487.487,0,0,0,.426.149q.105,0,.237-.013t.281-.04v1.169a4.406,4.406,0,0,1-.562.132,4.111,4.111,0,0,1-.527.026,1.3,1.3,0,0,1-1.187-.58,2.239,2.239,0,0,1-.272-.87,4.025,4.025,0,0,1-1.389,1.1,4.3,4.3,0,0,1-2,.466,2.967,2.967,0,0,1-2.14-.8,2.642,2.642,0,0,1-.831-1.991,2.564,2.564,0,0,1,.817-2.03,3.889,3.889,0,0,1,2.145-.888Zm5.282-6.337h1.6V4.587h1.5V5.879h-1.5v6.144a.665.665,0,0,0,.334.659,1.42,1.42,0,0,0,.615.1q.114,0,.246,0t.308-.022V14a3.532,3.532,0,0,1-.567.114,5.39,5.39,0,0,1-.637.035,1.717,1.717,0,0,1-1.5-.567,2.519,2.519,0,0,1-.4-1.472V5.879h-1.274V4.587h1.274Zm8.6,2.417a4.294,4.294,0,0,1,1.942.47,3.582,3.582,0,0,1,1.433,1.217,4.2,4.2,0,0,1,.633,1.661,10.868,10.868,0,0,1,.141,2.074h-6.9a4.026,4.026,0,0,0,.677,2.3,2.266,2.266,0,0,0,1.96.866,2.534,2.534,0,0,0,1.978-.817,2.755,2.755,0,0,0,.6-1.1h1.556a3.276,3.276,0,0,1-.409,1.156,4.111,4.111,0,0,1-.778,1.042,3.687,3.687,0,0,1-1.784.949,5.42,5.42,0,0,1-1.292.141,3.964,3.964,0,0,1-2.979-1.279,4.976,4.976,0,0,1-1.222-3.582,5.41,5.41,0,0,1,1.23-3.683A4.059,4.059,0,0,1,429.311,4.376Zm2.522,4.166a4.1,4.1,0,0,0-.448-1.644,2.3,2.3,0,0,0-2.171-1.143,2.406,2.406,0,0,0-1.828.787,2.972,2.972,0,0,0-.782,2Zm3.612-3.955h1.5V6.213a3.592,3.592,0,0,1,.905-1.156,2.347,2.347,0,0,1,1.661-.681q.044,0,.149.009t.36.035V6.09a2.363,2.363,0,0,0-.259-.035q-.119-.009-.259-.009a2.258,2.258,0,0,0-1.837.769,2.684,2.684,0,0,0-.642,1.771V14h-1.582Zm5.95.044H443V14H441.4Zm0-3.542H443V2.882H441.4ZM446.607,11.5a1.3,1.3,0,0,0,.5,1.081,1.857,1.857,0,0,0,1.187.4,3.608,3.608,0,0,0,1.617-.387,2.176,2.176,0,0,0,1.318-2.1V9.21a2.707,2.707,0,0,1-.747.308,6.366,6.366,0,0,1-.9.176l-.958.123a3.664,3.664,0,0,0-1.292.36A1.4,1.4,0,0,0,446.607,11.5Zm3.832-3.2a.859.859,0,0,0,.729-.457,1.391,1.391,0,0,0,.105-.606,1.285,1.285,0,0,0-.576-1.173,3.089,3.089,0,0,0-1.648-.365,2.094,2.094,0,0,0-1.758.668,2.2,2.2,0,0,0-.378,1.1h-1.477a2.718,2.718,0,0,1,1.129-2.421,4.637,4.637,0,0,1,2.518-.681,5.124,5.124,0,0,1,2.7.633,2.147,2.147,0,0,1,1.028,1.969v5.423a.694.694,0,0,0,.1.4.487.487,0,0,0,.426.149q.105,0,.237-.013t.281-.04v1.169a4.406,4.406,0,0,1-.562.132,4.111,4.111,0,0,1-.527.026,1.3,1.3,0,0,1-1.187-.58,2.239,2.239,0,0,1-.272-.87,4.025,4.025,0,0,1-1.389,1.1,4.3,4.3,0,0,1-2,.466,2.967,2.967,0,0,1-2.14-.8,2.642,2.642,0,0,1-.831-1.991,2.564,2.564,0,0,1,.817-2.03,3.889,3.889,0,0,1,2.145-.888Zm5.01-7.207h1.582V14h-1.582Zm9,3.5h1.5V6.213a3.592,3.592,0,0,1,.905-1.156,2.347,2.347,0,0,1,1.661-.681q.044,0,.149.009t.36.035V6.09a2.363,2.363,0,0,0-.259-.035q-.119-.009-.259-.009a2.258,2.258,0,0,0-1.837.769,2.684,2.684,0,0,0-.642,1.771V14h-1.582Zm9.87-.211a4.294,4.294,0,0,1,1.942.47,3.582,3.582,0,0,1,1.433,1.217,4.2,4.2,0,0,1,.633,1.661,10.868,10.868,0,0,1,.141,2.074h-6.9a4.026,4.026,0,0,0,.677,2.3,2.266,2.266,0,0,0,1.96.866,2.534,2.534,0,0,0,1.978-.817,2.755,2.755,0,0,0,.6-1.1h1.556a3.276,3.276,0,0,1-.409,1.156,4.111,4.111,0,0,1-.778,1.042,3.687,3.687,0,0,1-1.784.949,5.42,5.42,0,0,1-1.292.141,3.964,3.964,0,0,1-2.979-1.279,4.976,4.976,0,0,1-1.222-3.582,5.41,5.41,0,0,1,1.23-3.683A4.059,4.059,0,0,1,474.319,4.376Zm2.522,4.166a4.1,4.1,0,0,0-.448-1.644,2.3,2.3,0,0,0-2.171-1.143,2.406,2.406,0,0,0-1.828.787,2.972,2.972,0,0,0-.782,2Zm3.612-7.453h1.582V14h-1.582ZM485.622,11.5a1.3,1.3,0,0,0,.5,1.081,1.857,1.857,0,0,0,1.187.4,3.608,3.608,0,0,0,1.617-.387,2.176,2.176,0,0,0,1.318-2.1V9.21a2.707,2.707,0,0,1-.747.308,6.366,6.366,0,0,1-.9.176l-.958.123a3.664,3.664,0,0,0-1.292.36A1.4,1.4,0,0,0,485.622,11.5Zm3.832-3.2a.859.859,0,0,0,.729-.457,1.391,1.391,0,0,0,.105-.606,1.285,1.285,0,0,0-.576-1.173,3.089,3.089,0,0,0-1.648-.365,2.094,2.094,0,0,0-1.758.668,2.2,2.2,0,0,0-.378,1.1h-1.477a2.718,2.718,0,0,1,1.129-2.421,4.637,4.637,0,0,1,2.518-.681,5.124,5.124,0,0,1,2.7.633,2.147,2.147,0,0,1,1.028,1.969v5.423a.694.694,0,0,0,.1.4.487.487,0,0,0,.426.149q.105,0,.237-.013t.281-.04v1.169a4.406,4.406,0,0,1-.562.132,4.111,4.111,0,0,1-.527.026,1.3,1.3,0,0,1-1.187-.58,2.239,2.239,0,0,1-.272-.87,4.025,4.025,0,0,1-1.389,1.1,4.3,4.3,0,0,1-2,.466,2.967,2.967,0,0,1-2.14-.8,2.642,2.642,0,0,1-.831-1.991,2.564,2.564,0,0,1,.817-2.03,3.889,3.889,0,0,1,2.145-.888Zm8.6-3.981a4.1,4.1,0,0,1,2.588.773,3.705,3.705,0,0,1,1.2,2.663H500.3a2.839,2.839,0,0,0-.642-1.446,2.027,2.027,0,0,0-1.608-.576,2.222,2.222,0,0,0-2.162,1.477,5.865,5.865,0,0,0-.422,2.364,4.449,4.449,0,0,0,.6,2.382,2.317,2.317,0,0,0,3.441.365,3.311,3.311,0,0,0,.8-1.648h1.538a4.129,4.129,0,0,1-1.318,2.738,4.113,4.113,0,0,1-2.7.866,3.6,3.6,0,0,1-2.944-1.349,5.164,5.164,0,0,1-1.1-3.371,5.678,5.678,0,0,1,1.2-3.858A3.891,3.891,0,0,1,498.05,4.314Zm5.37.316h1.608V14H503.42Zm0-3.542h1.608V2.882H503.42Zm7.734,11.892a2.182,2.182,0,0,0,2.158-1.191,5.933,5.933,0,0,0,.584-2.65A4.718,4.718,0,0,0,513.475,7a2.373,2.373,0,0,0-2.3-1.3A2.271,2.271,0,0,0,509.063,6.8a5.133,5.133,0,0,0-.659,2.672,4.465,4.465,0,0,0,.659,2.5A2.322,2.322,0,0,0,511.154,12.98Zm.062-8.666a4.262,4.262,0,0,1,3.076,1.213A4.736,4.736,0,0,1,515.549,9.1a6.122,6.122,0,0,1-1.107,3.762A4.006,4.006,0,0,1,511,14.343a3.88,3.88,0,0,1-3.085-1.314A5.19,5.19,0,0,1,506.777,9.5a5.615,5.615,0,0,1,1.2-3.779A4.041,4.041,0,0,1,511.216,4.314Zm6.214.272h1.5V5.923a4.215,4.215,0,0,1,1.415-1.187,3.773,3.773,0,0,1,1.661-.36,2.739,2.739,0,0,1,2.707,1.4,4.962,4.962,0,0,1,.387,2.188V14h-1.608V8.067a3.212,3.212,0,0,0-.255-1.389A1.545,1.545,0,0,0,521.71,5.8a3.114,3.114,0,0,0-.923.114,2.377,2.377,0,0,0-1.143.773,2.329,2.329,0,0,0-.514.962,6.478,6.478,0,0,0-.119,1.419V14H517.43ZM528.653,11.5a1.3,1.3,0,0,0,.5,1.081,1.857,1.857,0,0,0,1.187.4,3.608,3.608,0,0,0,1.617-.387,2.176,2.176,0,0,0,1.318-2.1V9.21a2.707,2.707,0,0,1-.747.308,6.366,6.366,0,0,1-.9.176l-.958.123a3.664,3.664,0,0,0-1.292.36A1.4,1.4,0,0,0,528.653,11.5Zm3.832-3.2a.859.859,0,0,0,.729-.457,1.391,1.391,0,0,0,.105-.606,1.285,1.285,0,0,0-.576-1.173,3.089,3.089,0,0,0-1.648-.365,2.094,2.094,0,0,0-1.758.668,2.2,2.2,0,0,0-.378,1.1h-1.477a2.718,2.718,0,0,1,1.129-2.421,4.637,4.637,0,0,1,2.518-.681,5.124,5.124,0,0,1,2.7.633,2.147,2.147,0,0,1,1.028,1.969v5.423a.694.694,0,0,0,.1.4.487.487,0,0,0,.426.149q.105,0,.237-.013t.281-.04v1.169a4.406,4.406,0,0,1-.562.132,4.111,4.111,0,0,1-.527.026,1.3,1.3,0,0,1-1.187-.58,2.239,2.239,0,0,1-.272-.87,4.025,4.025,0,0,1-1.389,1.1,4.3,4.3,0,0,1-2,.466,2.967,2.967,0,0,1-2.14-.8A2.642,2.642,0,0,1,527,11.53a2.564,2.564,0,0,1,.817-2.03,3.889,3.889,0,0,1,2.145-.888ZM538.453,9.4a4.666,4.666,0,0,0,.642,2.531,2.248,2.248,0,0,0,2.057,1.02,2.166,2.166,0,0,0,1.806-.945,4.462,4.462,0,0,0,.708-2.711,4.009,4.009,0,0,0-.729-2.641,2.276,2.276,0,0,0-1.8-.857,2.378,2.378,0,0,0-1.938.914A4.186,4.186,0,0,0,538.453,9.4Zm2.382-4.983a3.349,3.349,0,0,1,1.811.457,4.253,4.253,0,0,1,.958.923V1.045h1.521V14H543.7V12.69a3.423,3.423,0,0,1-1.31,1.257,3.748,3.748,0,0,1-1.731.387,3.506,3.506,0,0,1-2.725-1.323,5.172,5.172,0,0,1-1.151-3.52,6.076,6.076,0,0,1,1.05-3.564A3.439,3.439,0,0,1,540.835,4.42ZM551.2,12.98a2.182,2.182,0,0,0,2.158-1.191,5.933,5.933,0,0,0,.584-2.65A4.718,4.718,0,0,0,553.518,7a2.373,2.373,0,0,0-2.3-1.3A2.271,2.271,0,0,0,549.105,6.8a5.133,5.133,0,0,0-.659,2.672,4.465,4.465,0,0,0,.659,2.5A2.322,2.322,0,0,0,551.2,12.98Zm.062-8.666a4.262,4.262,0,0,1,3.076,1.213A4.736,4.736,0,0,1,555.592,9.1a6.122,6.122,0,0,1-1.107,3.762,4.006,4.006,0,0,1-3.437,1.485,3.88,3.88,0,0,1-3.085-1.314A5.19,5.19,0,0,1,546.82,9.5a5.615,5.615,0,0,1,1.2-3.779A4.041,4.041,0,0,1,551.259,4.314ZM563.687,11.5a1.3,1.3,0,0,0,.5,1.081,1.857,1.857,0,0,0,1.187.4,3.608,3.608,0,0,0,1.617-.387,2.176,2.176,0,0,0,1.318-2.1V9.21a2.707,2.707,0,0,1-.747.308,6.366,6.366,0,0,1-.9.176l-.958.123a3.664,3.664,0,0,0-1.292.36A1.4,1.4,0,0,0,563.687,11.5Zm3.832-3.2a.859.859,0,0,0,.729-.457,1.391,1.391,0,0,0,.105-.606,1.285,1.285,0,0,0-.576-1.173,3.089,3.089,0,0,0-1.648-.365,2.094,2.094,0,0,0-1.758.668,2.2,2.2,0,0,0-.378,1.1h-1.477a2.718,2.718,0,0,1,1.129-2.421,4.637,4.637,0,0,1,2.518-.681,5.124,5.124,0,0,1,2.7.633,2.147,2.147,0,0,1,1.028,1.969v5.423a.694.694,0,0,0,.1.4.487.487,0,0,0,.426.149q.105,0,.237-.013t.281-.04v1.169a4.406,4.406,0,0,1-.562.132,4.111,4.111,0,0,1-.527.026,1.3,1.3,0,0,1-1.187-.58,2.239,2.239,0,0,1-.272-.87,4.025,4.025,0,0,1-1.389,1.1,4.3,4.3,0,0,1-2,.466,2.967,2.967,0,0,1-2.14-.8,2.642,2.642,0,0,1-.831-1.991,2.564,2.564,0,0,1,.817-2.03A3.889,3.889,0,0,1,565,8.612Zm5.01-7.207h1.582V14h-1.582ZM1.16,25.045H2.742v4.816a4.568,4.568,0,0,1,1.011-1,3.41,3.41,0,0,1,1.907-.5,2.821,2.821,0,0,1,2.777,1.433,4.885,4.885,0,0,1,.4,2.171V38H7.207V32.067a3.318,3.318,0,0,0-.264-1.521,1.685,1.685,0,0,0-1.617-.773,2.694,2.694,0,0,0-1.784.677,3.254,3.254,0,0,0-.8,2.558V38H1.16Zm10.011,3.586h1.608V38H11.171Zm0-3.542h1.608v1.793H11.171Zm4.939,9.958a2.3,2.3,0,0,0,.4,1.213,2.485,2.485,0,0,0,2.074.765,3.059,3.059,0,0,0,1.547-.382,1.27,1.27,0,0,0,.668-1.182,1.011,1.011,0,0,0-.536-.923,6.374,6.374,0,0,0-1.354-.448l-1.257-.316a6.131,6.131,0,0,1-1.775-.668,2,2,0,0,1-1.02-1.775,2.713,2.713,0,0,1,.962-2.162,3.839,3.839,0,0,1,2.588-.826,3.593,3.593,0,0,1,3.067,1.248,2.708,2.708,0,0,1,.571,1.705H20.549a1.83,1.83,0,0,0-.378-.976,2.41,2.41,0,0,0-1.89-.624,2.259,2.259,0,0,0-1.358.343,1.074,1.074,0,0,0-.461.905,1.114,1.114,0,0,0,.606.984,3.644,3.644,0,0,0,1.037.387l1.046.255a8.087,8.087,0,0,1,2.285.8,2.118,2.118,0,0,1,.923,1.907,2.906,2.906,0,0,1-.954,2.171,4.059,4.059,0,0,1-2.9.914,3.9,3.9,0,0,1-2.975-.954,3.606,3.606,0,0,1-.936-2.36Zm8.376-9.088h1.6v2.628h1.5v1.292h-1.5v6.144a.665.665,0,0,0,.334.659,1.42,1.42,0,0,0,.615.1q.114,0,.246,0t.308-.022V38a3.532,3.532,0,0,1-.567.114,5.39,5.39,0,0,1-.637.035,1.717,1.717,0,0,1-1.5-.567,2.519,2.519,0,0,1-.4-1.472V29.879H23.212V28.587h1.274Zm8.42,11.021a2.182,2.182,0,0,0,2.158-1.191,5.933,5.933,0,0,0,.584-2.65A4.718,4.718,0,0,0,35.227,31a2.373,2.373,0,0,0-2.3-1.3A2.271,2.271,0,0,0,30.814,30.8a5.133,5.133,0,0,0-.659,2.672,4.465,4.465,0,0,0,.659,2.5A2.322,2.322,0,0,0,32.906,36.98Zm.062-8.666a4.262,4.262,0,0,1,3.076,1.213A4.736,4.736,0,0,1,37.3,33.1a6.122,6.122,0,0,1-1.107,3.762,4.006,4.006,0,0,1-3.437,1.485,3.88,3.88,0,0,1-3.085-1.314A5.19,5.19,0,0,1,28.529,33.5a5.615,5.615,0,0,1,1.2-3.779A4.041,4.041,0,0,1,32.968,28.314Zm9.536.105a3.431,3.431,0,0,1,1.934.545,4.343,4.343,0,0,1,.914.9V28.675h1.459v8.561a6.313,6.313,0,0,1-.527,2.83,3.786,3.786,0,0,1-3.718,1.916,4.56,4.56,0,0,1-2.558-.681,2.656,2.656,0,0,1-1.16-2.131h1.608a1.79,1.79,0,0,0,.457.976,2.33,2.33,0,0,0,1.688.527,2.322,2.322,0,0,0,2.382-1.283,7.227,7.227,0,0,0,.308-2.7,3.1,3.1,0,0,1-1.143,1.072,4.1,4.1,0,0,1-4.443-.734,4.774,4.774,0,0,1-1.147-3.59,5.437,5.437,0,0,1,1.156-3.691A3.574,3.574,0,0,1,42.5,28.42Zm2.848,4.834a3.924,3.924,0,0,0-.721-2.593,2.309,2.309,0,0,0-1.837-.844,2.268,2.268,0,0,0-2.285,1.564,6.134,6.134,0,0,0-.325,2.188,3.885,3.885,0,0,0,.646,2.421,2.085,2.085,0,0,0,1.736.831,2.437,2.437,0,0,0,2.4-1.538A4.961,4.961,0,0,0,45.352,33.254Zm3.885-4.667h1.5v1.626a3.592,3.592,0,0,1,.905-1.156,2.347,2.347,0,0,1,1.661-.681q.044,0,.149.009t.36.035v1.67a2.363,2.363,0,0,0-.259-.035q-.119-.009-.259-.009a2.258,2.258,0,0,0-1.837.769,2.684,2.684,0,0,0-.642,1.771V38H49.236ZM56.4,35.5a1.3,1.3,0,0,0,.5,1.081,1.857,1.857,0,0,0,1.187.4,3.608,3.608,0,0,0,1.617-.387,2.176,2.176,0,0,0,1.318-2.1V33.21a2.707,2.707,0,0,1-.747.308,6.366,6.366,0,0,1-.9.176l-.958.123a3.664,3.664,0,0,0-1.292.36A1.4,1.4,0,0,0,56.4,35.5Zm3.832-3.2a.859.859,0,0,0,.729-.457,1.391,1.391,0,0,0,.105-.606,1.285,1.285,0,0,0-.576-1.173,3.089,3.089,0,0,0-1.648-.365,2.094,2.094,0,0,0-1.758.668,2.2,2.2,0,0,0-.378,1.1H55.23A2.718,2.718,0,0,1,56.36,29.04a4.637,4.637,0,0,1,2.518-.681,5.124,5.124,0,0,1,2.7.633A2.147,2.147,0,0,1,62.6,30.96v5.423a.694.694,0,0,0,.1.4.487.487,0,0,0,.426.149q.105,0,.237-.013t.281-.04v1.169a4.406,4.406,0,0,1-.562.132,4.111,4.111,0,0,1-.527.026,1.3,1.3,0,0,1-1.187-.58,2.239,2.239,0,0,1-.272-.87,4.025,4.025,0,0,1-1.389,1.1,4.3,4.3,0,0,1-2,.466,2.967,2.967,0,0,1-2.14-.8,2.642,2.642,0,0,1-.831-1.991,2.564,2.564,0,0,1,.817-2.03,3.889,3.889,0,0,1,2.145-.888ZM65.2,28.587h1.564v1.336a5.258,5.258,0,0,1,1.02-1.011,3.066,3.066,0,0,1,1.775-.536,2.794,2.794,0,0,1,1.811.554,2.894,2.894,0,0,1,.7.932,3.419,3.419,0,0,1,1.239-1.121,3.457,3.457,0,0,1,1.6-.365,2.616,2.616,0,0,1,2.584,1.371,4.482,4.482,0,0,1,.369,1.986V38H76.219V31.461a1.523,1.523,0,0,0-.47-1.292,1.861,1.861,0,0,0-1.147-.352,2.277,2.277,0,0,0-1.6.624,2.74,2.74,0,0,0-.672,2.083V38H70.717V31.856a3.192,3.192,0,0,0-.229-1.4,1.394,1.394,0,0,0-1.345-.659,2.32,2.32,0,0,0-1.63.694,3.4,3.4,0,0,0-.734,2.514V38H65.2ZM81.4,35.5a1.3,1.3,0,0,0,.5,1.081,1.857,1.857,0,0,0,1.187.4,3.608,3.608,0,0,0,1.617-.387,2.176,2.176,0,0,0,1.318-2.1V33.21a2.707,2.707,0,0,1-.747.308,6.366,6.366,0,0,1-.9.176l-.958.123a3.664,3.664,0,0,0-1.292.36A1.4,1.4,0,0,0,81.4,35.5Zm3.832-3.2a.859.859,0,0,0,.729-.457,1.391,1.391,0,0,0,.105-.606,1.285,1.285,0,0,0-.576-1.173,3.089,3.089,0,0,0-1.648-.365,2.094,2.094,0,0,0-1.758.668,2.2,2.2,0,0,0-.378,1.1H80.235a2.718,2.718,0,0,1,1.129-2.421,4.637,4.637,0,0,1,2.518-.681,5.124,5.124,0,0,1,2.7.633,2.147,2.147,0,0,1,1.028,1.969v5.423a.694.694,0,0,0,.1.4.487.487,0,0,0,.426.149q.105,0,.237-.013t.281-.04v1.169a4.406,4.406,0,0,1-.562.132,4.111,4.111,0,0,1-.527.026,1.3,1.3,0,0,1-1.187-.58,2.239,2.239,0,0,1-.272-.87,4.025,4.025,0,0,1-1.389,1.1,4.3,4.3,0,0,1-2,.466,2.967,2.967,0,0,1-2.14-.8,2.642,2.642,0,0,1-.831-1.991,2.564,2.564,0,0,1,.817-2.03,3.889,3.889,0,0,1,2.145-.888Zm13.887-3.92a4.294,4.294,0,0,1,1.942.47,3.582,3.582,0,0,1,1.433,1.217,4.2,4.2,0,0,1,.633,1.661,10.868,10.868,0,0,1,.141,2.074h-6.9a4.026,4.026,0,0,0,.677,2.3,2.266,2.266,0,0,0,1.96.866,2.534,2.534,0,0,0,1.978-.817,2.755,2.755,0,0,0,.6-1.1h1.556a3.276,3.276,0,0,1-.409,1.156,4.111,4.111,0,0,1-.778,1.042,3.687,3.687,0,0,1-1.784.949,5.42,5.42,0,0,1-1.292.141A3.964,3.964,0,0,1,95.9,37.055a4.976,4.976,0,0,1-1.222-3.582,5.41,5.41,0,0,1,1.23-3.683A4.059,4.059,0,0,1,99.123,28.376Zm2.522,4.166A4.1,4.1,0,0,0,101.2,30.9a2.3,2.3,0,0,0-2.171-1.143,2.406,2.406,0,0,0-1.828.787,2.972,2.972,0,0,0-.782,2Zm3.568-3.955h1.5v1.336a4.215,4.215,0,0,1,1.415-1.187,3.773,3.773,0,0,1,1.661-.36,2.739,2.739,0,0,1,2.707,1.4,4.962,4.962,0,0,1,.387,2.188V38h-1.608V32.067a3.212,3.212,0,0,0-.255-1.389,1.545,1.545,0,0,0-1.529-.879,3.114,3.114,0,0,0-.923.114,2.377,2.377,0,0,0-1.143.773,2.329,2.329,0,0,0-.514.962,6.478,6.478,0,0,0-.119,1.419V38h-1.582Zm18.932-.211a4.294,4.294,0,0,1,1.942.47,3.582,3.582,0,0,1,1.433,1.217,4.2,4.2,0,0,1,.633,1.661,10.868,10.868,0,0,1,.141,2.074h-6.9a4.026,4.026,0,0,0,.677,2.3,2.266,2.266,0,0,0,1.96.866,2.534,2.534,0,0,0,1.978-.817,2.755,2.755,0,0,0,.6-1.1h1.556a3.276,3.276,0,0,1-.409,1.156,4.111,4.111,0,0,1-.778,1.042,3.687,3.687,0,0,1-1.784.949,5.42,5.42,0,0,1-1.292.141,3.964,3.964,0,0,1-2.979-1.279,4.976,4.976,0,0,1-1.222-3.582,5.41,5.41,0,0,1,1.23-3.683A4.059,4.059,0,0,1,124.146,28.376Zm2.522,4.166a4.1,4.1,0,0,0-.448-1.644,2.3,2.3,0,0,0-2.171-1.143,2.406,2.406,0,0,0-1.828.787,2.972,2.972,0,0,0-.782,2Zm3.612-7.453h1.582V38H130.28Zm8.956,3.5H140.8v1.336a5.258,5.258,0,0,1,1.02-1.011,3.066,3.066,0,0,1,1.775-.536,2.794,2.794,0,0,1,1.811.554,2.894,2.894,0,0,1,.7.932,3.419,3.419,0,0,1,1.239-1.121,3.457,3.457,0,0,1,1.6-.365,2.616,2.616,0,0,1,2.584,1.371,4.482,4.482,0,0,1,.369,1.986V38h-1.644V31.461a1.523,1.523,0,0,0-.47-1.292,1.861,1.861,0,0,0-1.147-.352,2.277,2.277,0,0,0-1.6.624,2.74,2.74,0,0,0-.672,2.083V38h-1.608V31.856a3.192,3.192,0,0,0-.229-1.4,1.394,1.394,0,0,0-1.345-.659,2.32,2.32,0,0,0-1.63.694,3.4,3.4,0,0,0-.734,2.514V38h-1.582ZM155.443,35.5a1.3,1.3,0,0,0,.5,1.081,1.857,1.857,0,0,0,1.187.4,3.608,3.608,0,0,0,1.617-.387,2.176,2.176,0,0,0,1.318-2.1V33.21a2.707,2.707,0,0,1-.747.308,6.366,6.366,0,0,1-.9.176l-.958.123a3.664,3.664,0,0,0-1.292.36A1.4,1.4,0,0,0,155.443,35.5Zm3.832-3.2a.859.859,0,0,0,.729-.457,1.391,1.391,0,0,0,.105-.606,1.285,1.285,0,0,0-.576-1.173,3.089,3.089,0,0,0-1.648-.365,2.094,2.094,0,0,0-1.758.668,2.2,2.2,0,0,0-.378,1.1h-1.477A2.718,2.718,0,0,1,155.4,29.04a4.637,4.637,0,0,1,2.518-.681,5.124,5.124,0,0,1,2.7.633,2.147,2.147,0,0,1,1.028,1.969v5.423a.694.694,0,0,0,.1.4.487.487,0,0,0,.426.149q.105,0,.237-.013t.281-.04v1.169a4.406,4.406,0,0,1-.562.132,4.111,4.111,0,0,1-.527.026,1.3,1.3,0,0,1-1.187-.58,2.239,2.239,0,0,1-.272-.87,4.025,4.025,0,0,1-1.389,1.1,4.3,4.3,0,0,1-2,.466,2.967,2.967,0,0,1-2.14-.8,2.642,2.642,0,0,1-.831-1.991,2.564,2.564,0,0,1,.817-2.03,3.889,3.889,0,0,1,2.145-.888Zm5.282-6.337h1.6v2.628h1.5v1.292h-1.5v6.144a.665.665,0,0,0,.334.659,1.42,1.42,0,0,0,.615.1q.114,0,.246,0t.308-.022V38a3.532,3.532,0,0,1-.567.114,5.39,5.39,0,0,1-.637.035,1.717,1.717,0,0,1-1.5-.567,2.519,2.519,0,0,1-.4-1.472V29.879h-1.274V28.587h1.274Zm8.6,2.417a4.294,4.294,0,0,1,1.942.47,3.582,3.582,0,0,1,1.433,1.217,4.2,4.2,0,0,1,.633,1.661,10.868,10.868,0,0,1,.141,2.074h-6.9a4.026,4.026,0,0,0,.677,2.3,2.266,2.266,0,0,0,1.96.866,2.534,2.534,0,0,0,1.978-.817,2.755,2.755,0,0,0,.6-1.1h1.556a3.276,3.276,0,0,1-.409,1.156,4.111,4.111,0,0,1-.778,1.042,3.687,3.687,0,0,1-1.784.949,5.42,5.42,0,0,1-1.292.141,3.964,3.964,0,0,1-2.979-1.279,4.976,4.976,0,0,1-1.222-3.582,5.41,5.41,0,0,1,1.23-3.683A4.059,4.059,0,0,1,173.162,28.376Zm2.522,4.166a4.1,4.1,0,0,0-.448-1.644,2.3,2.3,0,0,0-2.171-1.143,2.406,2.406,0,0,0-1.828.787,2.972,2.972,0,0,0-.782,2Zm3.612-3.955h1.5v1.626a3.592,3.592,0,0,1,.905-1.156,2.347,2.347,0,0,1,1.661-.681q.044,0,.149.009t.36.035v1.67a2.363,2.363,0,0,0-.259-.035q-.119-.009-.259-.009a2.258,2.258,0,0,0-1.837.769,2.684,2.684,0,0,0-.642,1.771V38H179.3Zm5.95.044h1.608V38h-1.608Zm0-3.542h1.608v1.793h-1.608ZM190.459,35.5a1.3,1.3,0,0,0,.5,1.081,1.857,1.857,0,0,0,1.187.4,3.608,3.608,0,0,0,1.617-.387,2.176,2.176,0,0,0,1.318-2.1V33.21a2.707,2.707,0,0,1-.747.308,6.366,6.366,0,0,1-.9.176l-.958.123a3.664,3.664,0,0,0-1.292.36A1.4,1.4,0,0,0,190.459,35.5Zm3.832-3.2a.859.859,0,0,0,.729-.457,1.391,1.391,0,0,0,.105-.606,1.285,1.285,0,0,0-.576-1.173,3.089,3.089,0,0,0-1.648-.365,2.094,2.094,0,0,0-1.758.668,2.2,2.2,0,0,0-.378,1.1H189.29a2.718,2.718,0,0,1,1.129-2.421,4.637,4.637,0,0,1,2.518-.681,5.124,5.124,0,0,1,2.7.633,2.147,2.147,0,0,1,1.028,1.969v5.423a.694.694,0,0,0,.1.4.487.487,0,0,0,.426.149q.105,0,.237-.013t.281-.04v1.169a4.406,4.406,0,0,1-.562.132,4.111,4.111,0,0,1-.527.026,1.3,1.3,0,0,1-1.187-.58,2.239,2.239,0,0,1-.272-.87,4.025,4.025,0,0,1-1.389,1.1,4.3,4.3,0,0,1-2,.466,2.967,2.967,0,0,1-2.14-.8,2.642,2.642,0,0,1-.831-1.991,2.564,2.564,0,0,1,.817-2.03,3.889,3.889,0,0,1,2.145-.888Zm5.01-7.207h1.582V38H199.3Zm12.586,3.226a4.1,4.1,0,0,1,2.588.773,3.705,3.705,0,0,1,1.2,2.663h-1.538a2.839,2.839,0,0,0-.642-1.446,2.027,2.027,0,0,0-1.608-.576,2.222,2.222,0,0,0-2.162,1.477,5.865,5.865,0,0,0-.422,2.364,4.449,4.449,0,0,0,.6,2.382,2.317,2.317,0,0,0,3.441.365,3.311,3.311,0,0,0,.8-1.648h1.538a3.72,3.72,0,0,1-4.017,3.6,3.6,3.6,0,0,1-2.944-1.349,5.164,5.164,0,0,1-1.1-3.371,5.678,5.678,0,0,1,1.2-3.858A3.891,3.891,0,0,1,211.887,28.314Zm9.105,8.666a2.182,2.182,0,0,0,2.158-1.191,5.933,5.933,0,0,0,.584-2.65A4.718,4.718,0,0,0,223.313,31a2.373,2.373,0,0,0-2.3-1.3A2.271,2.271,0,0,0,218.9,30.8a5.133,5.133,0,0,0-.659,2.672,4.465,4.465,0,0,0,.659,2.5A2.322,2.322,0,0,0,220.992,36.98Zm.062-8.666a4.262,4.262,0,0,1,3.076,1.213,4.736,4.736,0,0,1,1.257,3.568,6.122,6.122,0,0,1-1.107,3.762,4.006,4.006,0,0,1-3.437,1.485,3.88,3.88,0,0,1-3.085-1.314,5.19,5.19,0,0,1-1.143-3.529,5.615,5.615,0,0,1,1.2-3.779A4.041,4.041,0,0,1,221.054,28.314Zm6.214.272h1.564v1.336a5.258,5.258,0,0,1,1.02-1.011,3.066,3.066,0,0,1,1.775-.536,2.794,2.794,0,0,1,1.811.554,2.894,2.894,0,0,1,.7.932,3.419,3.419,0,0,1,1.239-1.121,3.457,3.457,0,0,1,1.6-.365,2.616,2.616,0,0,1,2.584,1.371,4.482,4.482,0,0,1,.369,1.986V38h-1.644V31.461a1.523,1.523,0,0,0-.47-1.292,1.861,1.861,0,0,0-1.147-.352,2.277,2.277,0,0,0-1.6.624,2.74,2.74,0,0,0-.672,2.083V38h-1.608V31.856a3.192,3.192,0,0,0-.229-1.4,1.394,1.394,0,0,0-1.345-.659,2.32,2.32,0,0,0-1.63.694,3.4,3.4,0,0,0-.734,2.514V38h-1.582Zm18.967,8.35a2.257,2.257,0,0,0,1.841-.927,4.413,4.413,0,0,0,.734-2.773,5.176,5.176,0,0,0-.325-1.934,2.383,2.383,0,0,0-4.5.088,6.514,6.514,0,0,0-.325,2.232,4.732,4.732,0,0,0,.325,1.854A2.243,2.243,0,0,0,246.234,36.937Zm-4.1-8.306h1.538v1.248a3.84,3.84,0,0,1,1.037-.993,3.338,3.338,0,0,1,1.881-.527,3.537,3.537,0,0,1,2.716,1.226,5.023,5.023,0,0,1,1.116,3.5q0,3.076-1.608,4.395a3.634,3.634,0,0,1-2.373.835,3.221,3.221,0,0,1-1.784-.466,4.111,4.111,0,0,1-.94-.905v4.808h-1.582Zm10.178-3.542H253.9V38h-1.582Zm7.875,3.287a4.294,4.294,0,0,1,1.942.47,3.582,3.582,0,0,1,1.433,1.217,4.2,4.2,0,0,1,.633,1.661,10.868,10.868,0,0,1,.141,2.074h-6.9a4.026,4.026,0,0,0,.677,2.3,2.266,2.266,0,0,0,1.96.866,2.534,2.534,0,0,0,1.978-.817,2.755,2.755,0,0,0,.6-1.1h1.556A3.276,3.276,0,0,1,263.8,36.2a4.111,4.111,0,0,1-.778,1.042,3.687,3.687,0,0,1-1.784.949,5.42,5.42,0,0,1-1.292.141,3.964,3.964,0,0,1-2.979-1.279,4.976,4.976,0,0,1-1.222-3.582,5.41,5.41,0,0,1,1.23-3.683A4.059,4.059,0,0,1,260.191,28.376Zm2.522,4.166a4.1,4.1,0,0,0-.448-1.644,2.3,2.3,0,0,0-2.171-1.143,2.406,2.406,0,0,0-1.828.787,2.972,2.972,0,0,0-.782,2Zm3.568-3.955h1.564v1.336a5.258,5.258,0,0,1,1.02-1.011,3.066,3.066,0,0,1,1.775-.536,2.794,2.794,0,0,1,1.811.554,2.894,2.894,0,0,1,.7.932,3.419,3.419,0,0,1,1.239-1.121,3.457,3.457,0,0,1,1.6-.365,2.616,2.616,0,0,1,2.584,1.371,4.482,4.482,0,0,1,.369,1.986V38H277.3V31.461a1.523,1.523,0,0,0-.47-1.292,1.861,1.861,0,0,0-1.147-.352,2.277,2.277,0,0,0-1.6.624,2.74,2.74,0,0,0-.672,2.083V38H271.8V31.856a3.192,3.192,0,0,0-.229-1.4,1.394,1.394,0,0,0-1.345-.659,2.32,2.32,0,0,0-1.63.694,3.4,3.4,0,0,0-.734,2.514V38h-1.582Zm18.914-.211a4.294,4.294,0,0,1,1.942.47,3.582,3.582,0,0,1,1.433,1.217,4.2,4.2,0,0,1,.633,1.661,10.868,10.868,0,0,1,.141,2.074h-6.9a4.026,4.026,0,0,0,.677,2.3,2.266,2.266,0,0,0,1.96.866,2.534,2.534,0,0,0,1.978-.817,2.755,2.755,0,0,0,.6-1.1h1.556A3.276,3.276,0,0,1,288.8,36.2a4.111,4.111,0,0,1-.778,1.042,3.687,3.687,0,0,1-1.784.949,5.42,5.42,0,0,1-1.292.141,3.964,3.964,0,0,1-2.979-1.279,4.976,4.976,0,0,1-1.222-3.582,5.41,5.41,0,0,1,1.23-3.683A4.059,4.059,0,0,1,285.2,28.376Zm2.522,4.166a4.1,4.1,0,0,0-.448-1.644,2.3,2.3,0,0,0-2.171-1.143,2.406,2.406,0,0,0-1.828.787,2.972,2.972,0,0,0-.782,2Zm3.568-3.955h1.5v1.336a4.215,4.215,0,0,1,1.415-1.187,3.773,3.773,0,0,1,1.661-.36,2.739,2.739,0,0,1,2.707,1.4,4.962,4.962,0,0,1,.387,2.188V38h-1.608V32.067a3.212,3.212,0,0,0-.255-1.389,1.545,1.545,0,0,0-1.529-.879,3.114,3.114,0,0,0-.923.114,2.377,2.377,0,0,0-1.143.773,2.329,2.329,0,0,0-.514.962,6.478,6.478,0,0,0-.119,1.419V38h-1.582Zm10.327-2.628h1.6v2.628h1.5v1.292h-1.5v6.144a.665.665,0,0,0,.334.659,1.42,1.42,0,0,0,.615.1q.114,0,.246,0t.308-.022V38a3.532,3.532,0,0,1-.567.114,5.39,5.39,0,0,1-.637.035,1.717,1.717,0,0,1-1.5-.567,2.519,2.519,0,0,1-.4-1.472V29.879H300.34V28.587h1.274Zm5.9,9.536a1.3,1.3,0,0,0,.5,1.081,1.857,1.857,0,0,0,1.187.4,3.608,3.608,0,0,0,1.617-.387,2.176,2.176,0,0,0,1.318-2.1V33.21a2.707,2.707,0,0,1-.747.308,6.366,6.366,0,0,1-.9.176l-.958.123a3.664,3.664,0,0,0-1.292.36A1.4,1.4,0,0,0,307.512,35.5Zm3.832-3.2a.859.859,0,0,0,.729-.457,1.391,1.391,0,0,0,.105-.606,1.285,1.285,0,0,0-.576-1.173,3.089,3.089,0,0,0-1.648-.365,2.094,2.094,0,0,0-1.758.668,2.2,2.2,0,0,0-.378,1.1h-1.477a2.718,2.718,0,0,1,1.129-2.421,4.637,4.637,0,0,1,2.518-.681,5.124,5.124,0,0,1,2.7.633,2.147,2.147,0,0,1,1.028,1.969v5.423a.694.694,0,0,0,.1.4.487.487,0,0,0,.426.149q.105,0,.237-.013t.281-.04v1.169a4.406,4.406,0,0,1-.562.132,4.111,4.111,0,0,1-.527.026,1.3,1.3,0,0,1-1.187-.58,2.239,2.239,0,0,1-.272-.87,4.025,4.025,0,0,1-1.389,1.1,4.3,4.3,0,0,1-2,.466,2.967,2.967,0,0,1-2.14-.8,2.642,2.642,0,0,1-.831-1.991,2.564,2.564,0,0,1,.817-2.03,3.889,3.889,0,0,1,2.145-.888Zm5.01-3.709h1.5v1.626a3.592,3.592,0,0,1,.905-1.156,2.347,2.347,0,0,1,1.661-.681q.044,0,.149.009t.36.035v1.67a2.363,2.363,0,0,0-.259-.035q-.119-.009-.259-.009a2.258,2.258,0,0,0-1.837.769,2.684,2.684,0,0,0-.642,1.771V38h-1.582Zm5.95.044h1.608V38H322.3Zm0-3.542h1.608v1.793H322.3Zm7.734,11.892A2.182,2.182,0,0,0,332.2,35.79a5.933,5.933,0,0,0,.584-2.65A4.718,4.718,0,0,0,332.358,31a2.373,2.373,0,0,0-2.3-1.3,2.271,2.271,0,0,0-2.109,1.107,5.133,5.133,0,0,0-.659,2.672,4.465,4.465,0,0,0,.659,2.5A2.322,2.322,0,0,0,330.038,36.98Zm.062-8.666a4.262,4.262,0,0,1,3.076,1.213,4.736,4.736,0,0,1,1.257,3.568,6.122,6.122,0,0,1-1.107,3.762,4.006,4.006,0,0,1-3.437,1.485,3.88,3.88,0,0,1-3.085-1.314,5.19,5.19,0,0,1-1.143-3.529,5.615,5.615,0,0,1,1.2-3.779A4.041,4.041,0,0,1,330.1,28.314Zm6.592,7.77h1.837V38h-1.837Z" transform="translate(424.5 3642.5)" fill="#00223d"/>
    </g>
    <g id="Grupo_33682" data-name="Grupo 33682" transform="translate(937.508 3694.527)">
      <g id="Grupo_28535" data-name="Grupo 28535">
        <path id="Trazado_71256" data-name="Trazado 71256" d="M655.688,96.982v.058H462.818V77.19H650.905c16.084,0,33.83-.731,49.913-9.424v19.85C692.163,94.3,671.464,96.605,655.688,96.982Z" transform="translate(-462.818 -67.766)" fill="#43433b" fill-rule="evenodd"/>
        <path id="Trazado_71257" data-name="Trazado 71257" d="M655.688,103.63v-.059H462.818v19.851H650.905c16.084,0,33.83.729,49.913,9.423V113C692.163,106.306,671.464,104.006,655.688,103.63Z" transform="translate(-462.818 -71.69)" fill="#43433b" fill-rule="evenodd"/>
      </g>
      <rect id="Rectángulo_29892" data-name="Rectángulo 29892" width="4.231" height="10.709" transform="translate(172.764 30.438)" fill="#d268cc"/>
      <rect id="Rectángulo_29893" data-name="Rectángulo 29893" width="4.231" height="10.709" transform="translate(164.3 30.438)" fill="#d268cc"/>
      <rect id="Rectángulo_29894" data-name="Rectángulo 29894" width="4.231" height="10.709" transform="translate(155.837 30.438)" fill="#d268cc"/>
      <rect id="Rectángulo_29895" data-name="Rectángulo 29895" width="4.231" height="10.709" transform="translate(147.375 30.438)" fill="#d268cc"/>
      <rect id="Rectángulo_29896" data-name="Rectángulo 29896" width="4.233" height="10.709" transform="translate(138.911 30.438)" fill="#d268cc"/>
      <rect id="Rectángulo_29897" data-name="Rectángulo 29897" width="4.231" height="10.709" transform="translate(130.449 30.438)" fill="#d268cc"/>
      <rect id="Rectángulo_29898" data-name="Rectángulo 29898" width="4.231" height="10.709" transform="translate(121.986 30.438)" fill="#d268cc"/>
      <rect id="Rectángulo_29899" data-name="Rectángulo 29899" width="4.231" height="10.709" transform="translate(113.524 30.438)" fill="#d268cc"/>
      <rect id="Rectángulo_29900" data-name="Rectángulo 29900" width="4.233" height="10.709" transform="translate(105.06 30.438)" fill="#d268cc"/>
      <rect id="Rectángulo_29901" data-name="Rectángulo 29901" width="4.231" height="10.709" transform="translate(96.597 30.438)" fill="#d268cc"/>
      <rect id="Rectángulo_29902" data-name="Rectángulo 29902" width="4.231" height="10.709" transform="translate(88.135 30.438)" fill="#d268cc"/>
      <rect id="Rectángulo_29903" data-name="Rectángulo 29903" width="4.231" height="10.709" transform="translate(79.673 30.438)" fill="#d268cc"/>
      <rect id="Rectángulo_29904" data-name="Rectángulo 29904" width="4.231" height="10.709" transform="translate(71.209 30.438)" fill="#d268cc"/>
      <rect id="Rectángulo_29905" data-name="Rectángulo 29905" width="4.231" height="10.709" transform="translate(62.746 30.438)" fill="#d268cc"/>
      <rect id="Rectángulo_29906" data-name="Rectángulo 29906" width="4.231" height="10.709" transform="translate(54.284 30.438)" fill="#d268cc"/>
      <rect id="Rectángulo_29907" data-name="Rectángulo 29907" width="4.233" height="10.709" transform="translate(45.82 30.438)" fill="#d268cc"/>
      <rect id="Rectángulo_29908" data-name="Rectángulo 29908" width="4.231" height="10.709" transform="translate(37.357 30.438)" fill="#d268cc"/>
      <rect id="Rectángulo_29909" data-name="Rectángulo 29909" width="4.231" height="10.709" transform="translate(28.895 30.438)" fill="#d268cc"/>
      <rect id="Rectángulo_29910" data-name="Rectángulo 29910" width="4.231" height="10.709" transform="translate(20.433 30.438)" fill="#d268cc"/>
      <rect id="Rectángulo_29911" data-name="Rectángulo 29911" width="4.231" height="10.709" transform="translate(11.969 30.438)" fill="#d268cc"/>
      <path id="Trazado_71258" data-name="Trazado 71258" d="M685.806,100.95h0a9.434,9.434,0,0,1-9.405,9.406h-.048a9.434,9.434,0,0,1-9.405-9.406h0a9.433,9.433,0,0,1,9.405-9.4h.048A9.433,9.433,0,0,1,685.806,100.95Z" transform="translate(-485.189 -70.372)" fill="#d268cc" fill-rule="evenodd"/>
      <rect id="Rectángulo_29912" data-name="Rectángulo 29912" width="4.233" height="10.71" transform="translate(168.531 19.728)" fill="#d268cc"/>
      <rect id="Rectángulo_29913" data-name="Rectángulo 29913" width="4.231" height="10.71" transform="translate(160.069 19.728)" fill="#d268cc"/>
      <rect id="Rectángulo_29914" data-name="Rectángulo 29914" width="4.231" height="10.71" transform="translate(151.606 19.728)" fill="#d268cc"/>
      <rect id="Rectángulo_29915" data-name="Rectángulo 29915" width="4.233" height="10.71" transform="translate(143.142 19.728)" fill="#d268cc"/>
      <rect id="Rectángulo_29916" data-name="Rectángulo 29916" width="4.231" height="10.71" transform="translate(134.68 19.728)" fill="#d268cc"/>
      <rect id="Rectángulo_29917" data-name="Rectángulo 29917" width="4.231" height="10.71" transform="translate(126.217 19.728)" fill="#d268cc"/>
      <rect id="Rectángulo_29918" data-name="Rectángulo 29918" width="4.231" height="10.71" transform="translate(117.755 19.728)" fill="#d268cc"/>
      <rect id="Rectángulo_29919" data-name="Rectángulo 29919" width="4.233" height="10.71" transform="translate(109.291 19.728)" fill="#d268cc"/>
      <rect id="Rectángulo_29920" data-name="Rectángulo 29920" width="4.231" height="10.71" transform="translate(100.829 19.728)" fill="#d268cc"/>
      <rect id="Rectángulo_29921" data-name="Rectángulo 29921" width="4.231" height="10.71" transform="translate(92.366 19.728)" fill="#d268cc"/>
      <rect id="Rectángulo_29922" data-name="Rectángulo 29922" width="4.231" height="10.71" transform="translate(83.904 19.728)" fill="#d268cc"/>
      <rect id="Rectángulo_29923" data-name="Rectángulo 29923" width="4.231" height="10.71" transform="translate(75.44 19.728)" fill="#d268cc"/>
      <rect id="Rectángulo_29924" data-name="Rectángulo 29924" width="4.231" height="10.71" transform="translate(66.977 19.728)" fill="#d268cc"/>
      <rect id="Rectángulo_29925" data-name="Rectángulo 29925" width="4.231" height="10.71" transform="translate(58.515 19.728)" fill="#d268cc"/>
      <rect id="Rectángulo_29926" data-name="Rectángulo 29926" width="4.233" height="10.71" transform="translate(50.051 19.728)" fill="#d268cc"/>
      <rect id="Rectángulo_29927" data-name="Rectángulo 29927" width="4.231" height="10.71" transform="translate(41.589 19.728)" fill="#d268cc"/>
      <rect id="Rectángulo_29928" data-name="Rectángulo 29928" width="4.231" height="10.71" transform="translate(33.126 19.728)" fill="#d268cc"/>
      <rect id="Rectángulo_29929" data-name="Rectángulo 29929" width="4.231" height="10.71" transform="translate(24.664 19.728)" fill="#d268cc"/>
      <rect id="Rectángulo_29930" data-name="Rectángulo 29930" width="4.231" height="10.71" transform="translate(16.2 19.728)" fill="#d268cc"/>
      <rect id="Rectángulo_29931" data-name="Rectángulo 29931" width="4.231" height="10.71" transform="translate(7.737 19.728)" fill="#d268cc"/>
    </g>
  </g>
</svg>
