<svg xmlns="http://www.w3.org/2000/svg" xmlns:xlink="http://www.w3.org/1999/xlink" width="734" height="237" viewBox="0 0 734 237">
  <defs>
    <clipPath id="clip-path">
      <rect id="Rectángulo_28232" data-name="Rectángulo 28232" width="13.151" height="13.15" fill="none"/>
    </clipPath>
  </defs>
  <g id="Grupo_39109" data-name="Grupo 39109" transform="translate(-593 -14128)">
    <rect id="Rectángulo_30017" data-name="Rectángulo 30017" width="141" height="42" transform="translate(593 14128)" fill="#d268cc"/>
    <g id="Rectángulo_30020" data-name="Rectángulo 30020" transform="translate(593 14175)" fill="#fff" stroke="#d268cc" stroke-width="1">
      <rect width="141" height="49" stroke="none"/>
      <rect x="0.5" y="0.5" width="140" height="48" fill="none"/>
    </g>
    <g id="Rectángulo_32026" data-name="Rectángulo 32026" transform="translate(593 14327)" fill="#fff" stroke="#d268cc" stroke-width="1">
      <rect width="141" height="38" stroke="none"/>
      <rect x="0.5" y="0.5" width="140" height="37" fill="none"/>
    </g>
    <g id="Rectángulo_32024" data-name="Rectángulo 32024" transform="translate(593 14289)" fill="#fff" stroke="#d268cc" stroke-width="1">
      <rect width="141" height="33" stroke="none"/>
      <rect x="0.5" y="0.5" width="140" height="32" fill="none"/>
    </g>
    <g id="Rectángulo_32022" data-name="Rectángulo 32022" transform="translate(593 14229)" fill="#fff" stroke="#d268cc" stroke-width="1">
      <rect width="141" height="54" stroke="none"/>
      <rect x="0.5" y="0.5" width="140" height="53" fill="none"/>
    </g>
    <rect id="Rectángulo_30018" data-name="Rectángulo 30018" width="588" height="42" transform="translate(739 14128)" fill="#d268cc"/>
    <g id="Rectángulo_30019" data-name="Rectángulo 30019" transform="translate(739 14175)" fill="#fff" stroke="#d268cc" stroke-width="1">
      <rect width="588" height="49" stroke="none"/>
      <rect x="0.5" y="0.5" width="587" height="48" fill="none"/>
    </g>
    <g id="Rectángulo_32025" data-name="Rectángulo 32025" transform="translate(739 14327)" fill="#fff" stroke="#d268cc" stroke-width="1">
      <rect width="588" height="38" stroke="none"/>
      <rect x="0.5" y="0.5" width="587" height="37" fill="none"/>
    </g>
    <g id="Rectángulo_32023" data-name="Rectángulo 32023" transform="translate(739 14289)" fill="#fff" stroke="#d268cc" stroke-width="1">
      <rect width="588" height="33" stroke="none"/>
      <rect x="0.5" y="0.5" width="587" height="32" fill="none"/>
    </g>
    <g id="Rectángulo_32021" data-name="Rectángulo 32021" transform="translate(739 14229)" fill="#fff" stroke="#d268cc" stroke-width="1">
      <rect width="588" height="54" stroke="none"/>
      <rect x="0.5" y="0.5" width="587" height="53" fill="none"/>
    </g>
    <path id="Trazado_86778" data-name="Trazado 86778" d="M66.137,10.406l-.367,1.813h2.016v1.609h-2.32L64.863,17H63.145l.609-3.172H62.238L61.645,17h-1.68l.578-3.172H58.684V12.219h2.164l.367-1.812H59.246V8.773H61.5l.6-3.18h1.711l-.6,3.18h1.547l.609-3.18h1.68l-.609,3.18h1.875v1.633Zm-3.594,1.813h1.531l.367-1.812H62.91Z" transform="translate(600 14140)" fill="#fff"/>
    <path id="Trazado_86779" data-name="Trazado 86779" d="M71.512,17H70.246V8.859q0-1.016.063-1.922-.164.164-.367.344T68.082,8.8l-.687-.891,3.023-2.336h1.094Z" transform="translate(593 14191)" fill="#00223d"/>
    <path id="Trazado_86782" data-name="Trazado 86782" d="M74.754,14.375h-1.7V17H71.816V14.375H66.262V13.242l5.422-7.727h1.375V13.2h1.7ZM71.816,13.2V9.4q0-1.117.078-2.523h-.062a11.739,11.739,0,0,1-.7,1.242L67.559,13.2Z" transform="translate(590 14336)" fill="#00223d"/>
    <path id="Trazado_86781" data-name="Trazado 86781" d="M73.785,8.266a2.6,2.6,0,0,1-.613,1.789,3.07,3.07,0,0,1-1.738.93v.063a3.269,3.269,0,0,1,2.039.875,2.575,2.575,0,0,1,.664,1.844A2.991,2.991,0,0,1,73,16.277a5.152,5.152,0,0,1-3.219.879,9.328,9.328,0,0,1-1.66-.137,5.682,5.682,0,0,1-1.465-.48V15.3a7.481,7.481,0,0,0,3.172.75q2.961,0,2.961-2.32,0-2.078-3.266-2.078H68.4V10.539h1.141a3.434,3.434,0,0,0,2.117-.59,1.935,1.935,0,0,0,.781-1.637A1.613,1.613,0,0,0,71.867,7a2.366,2.366,0,0,0-1.559-.477,4.809,4.809,0,0,0-1.414.2,6.328,6.328,0,0,0-1.516.75L66.723,6.6a5.471,5.471,0,0,1,1.621-.871,5.892,5.892,0,0,1,1.934-.316,3.951,3.951,0,0,1,2.586.762A2.565,2.565,0,0,1,73.785,8.266Z" transform="translate(593 14297)" fill="#00223d"/>
    <path id="Trazado_86780" data-name="Trazado 86780" d="M74.215,17H66.707V15.883l3.008-3.023a22.149,22.149,0,0,0,1.813-1.984,5.065,5.065,0,0,0,.656-1.156A3.312,3.312,0,0,0,72.4,8.508a1.92,1.92,0,0,0-.555-1.449,2.125,2.125,0,0,0-1.539-.535,3.87,3.87,0,0,0-1.348.234,5.372,5.372,0,0,0-1.418.852l-.687-.883a5.265,5.265,0,0,1,3.438-1.312,3.632,3.632,0,0,1,2.523.824,2.835,2.835,0,0,1,.914,2.215,4.277,4.277,0,0,1-.609,2.148,13.64,13.64,0,0,1-2.281,2.688l-2.5,2.445V15.8h5.875Z" transform="translate(593 14245)" fill="#00223d"/>
    <path id="Trazado_86777" data-name="Trazado 86777" d="M95.344,11.18a5.625,5.625,0,0,1-1.605,4.32A6.547,6.547,0,0,1,89.1,17H85.867V5.578h3.586A6.039,6.039,0,0,1,93.8,7.055,5.431,5.431,0,0,1,95.344,11.18Zm-2.516.063q0-3.68-3.25-3.68H88.289V15h1.039Q92.828,15,92.828,11.242ZM101.141,9.8a1.511,1.511,0,0,0-1.187.48,2.224,2.224,0,0,0-.492,1.363H102.8a1.986,1.986,0,0,0-.461-1.363A1.561,1.561,0,0,0,101.141,9.8Zm.336,7.359a4.508,4.508,0,0,1-3.3-1.164,4.408,4.408,0,0,1-1.187-3.3A4.848,4.848,0,0,1,98.09,9.3a3.909,3.909,0,0,1,3.035-1.2,3.847,3.847,0,0,1,2.883,1.055,3.99,3.99,0,0,1,1.031,2.914v1.156H99.406a2.294,2.294,0,0,0,.6,1.586,2.117,2.117,0,0,0,1.578.57,6.551,6.551,0,0,0,1.492-.164,7.466,7.466,0,0,0,1.469-.523v1.844a5.6,5.6,0,0,1-1.336.465A8.423,8.423,0,0,1,101.477,17.156Zm11.594-2.75a2.4,2.4,0,0,1-.934,2.047,4.613,4.613,0,0,1-2.793.7,8.772,8.772,0,0,1-1.625-.129,6.147,6.147,0,0,1-1.258-.379V14.68a8.307,8.307,0,0,0,1.5.523,6.058,6.058,0,0,0,1.465.211q1.3,0,1.3-.75a.626.626,0,0,0-.172-.457,2.492,2.492,0,0,0-.594-.4q-.422-.223-1.125-.52a7.067,7.067,0,0,1-1.48-.781,2.2,2.2,0,0,1-.687-.824,2.721,2.721,0,0,1-.215-1.145,2.075,2.075,0,0,1,.9-1.8,4.4,4.4,0,0,1,2.559-.637,7.262,7.262,0,0,1,3.07.688l-.719,1.719q-.656-.281-1.227-.461a3.852,3.852,0,0,0-1.164-.18q-1.055,0-1.055.57a.67.67,0,0,0,.34.555,9.242,9.242,0,0,0,1.488.7,6.914,6.914,0,0,1,1.5.773,2.287,2.287,0,0,1,.7.828A2.545,2.545,0,0,1,113.07,14.406Zm5.406,2.75q-4.078,0-4.078-4.477a4.775,4.775,0,0,1,1.109-3.4,4.162,4.162,0,0,1,3.18-1.176,6.062,6.062,0,0,1,2.719.594l-.7,1.844q-.562-.227-1.047-.371a3.373,3.373,0,0,0-.969-.145q-1.859,0-1.859,2.641,0,2.562,1.859,2.563a4.239,4.239,0,0,0,1.273-.184,4.6,4.6,0,0,0,1.172-.574v2.039a3.84,3.84,0,0,1-1.168.508A6.568,6.568,0,0,1,118.477,17.156ZM128.031,8.1a3.843,3.843,0,0,1,.8.07l-.18,2.234a2.73,2.73,0,0,0-.7-.078,2.527,2.527,0,0,0-1.777.586,2.118,2.118,0,0,0-.637,1.641V17h-2.383V8.266h1.8l.352,1.469h.117a3.283,3.283,0,0,1,1.1-1.184A2.707,2.707,0,0,1,128.031,8.1Zm2.289-2.094q0-1.164,1.3-1.164t1.3,1.164a1.135,1.135,0,0,1-.324.863,1.363,1.363,0,0,1-.973.309Q130.32,7.18,130.32,6.008ZM132.8,17h-2.383V8.266H132.8Zm7.3.156a2.9,2.9,0,0,1-2.414-1.117h-.125q.125,1.094.125,1.266v3.539H135.3V8.266h1.938l.336,1.133h.109a2.757,2.757,0,0,1,2.477-1.3,2.834,2.834,0,0,1,2.422,1.2,5.528,5.528,0,0,1,.875,3.32,6.556,6.556,0,0,1-.41,2.43,3.408,3.408,0,0,1-1.168,1.57A2.993,2.993,0,0,1,140.1,17.156Zm-.7-7.148a1.5,1.5,0,0,0-1.289.543,3.118,3.118,0,0,0-.422,1.793V12.6a3.68,3.68,0,0,0,.418,2.016,1.492,1.492,0,0,0,1.324.609q1.6,0,1.6-2.641a3.771,3.771,0,0,0-.395-1.934A1.347,1.347,0,0,0,139.4,10.008Zm9.578,7.148q-4.078,0-4.078-4.477a4.775,4.775,0,0,1,1.109-3.4,4.162,4.162,0,0,1,3.18-1.176,6.062,6.062,0,0,1,2.719.594l-.7,1.844q-.562-.227-1.047-.371a3.373,3.373,0,0,0-.969-.145q-1.859,0-1.859,2.641,0,2.562,1.859,2.563a4.239,4.239,0,0,0,1.273-.184,4.6,4.6,0,0,0,1.172-.574v2.039a3.84,3.84,0,0,1-1.168.508A6.568,6.568,0,0,1,148.977,17.156Zm4.578-11.148q0-1.164,1.3-1.164t1.3,1.164a1.135,1.135,0,0,1-.324.863,1.363,1.363,0,0,1-.973.309Q153.555,7.18,153.555,6.008ZM156.039,17h-2.383V8.266h2.383Zm4.4-4.383a3.666,3.666,0,0,0,.426,1.961,1.523,1.523,0,0,0,1.387.664,1.5,1.5,0,0,0,1.371-.66,3.719,3.719,0,0,0,.418-1.965,3.608,3.608,0,0,0-.422-1.945,1.794,1.794,0,0,0-2.758,0A3.6,3.6,0,0,0,160.438,12.617Zm6.039,0a4.694,4.694,0,0,1-1.125,3.336,4.079,4.079,0,0,1-3.133,1.2A4.382,4.382,0,0,1,160,16.605a3.665,3.665,0,0,1-1.477-1.582,5.316,5.316,0,0,1-.516-2.406,4.668,4.668,0,0,1,1.117-3.328A4.1,4.1,0,0,1,162.266,8.1a4.407,4.407,0,0,1,2.219.547,3.65,3.65,0,0,1,1.477,1.57A5.267,5.267,0,0,1,166.477,12.617ZM160.938,7.3V7.094a22,22,0,0,0,1.836-2.352h2.672v.164q-.406.406-1.387,1.207T162.523,7.3Zm15.57,9.7h-2.383V11.9a2.45,2.45,0,0,0-.336-1.418,1.222,1.222,0,0,0-1.07-.473,1.609,1.609,0,0,0-1.445.668,4.143,4.143,0,0,0-.445,2.215V17h-2.383V8.266h1.82l.32,1.117h.133a2.518,2.518,0,0,1,1.1-.957,3.738,3.738,0,0,1,1.59-.324,3.055,3.055,0,0,1,2.313.824,3.308,3.308,0,0,1,.789,2.379Zm9.375.156a2.837,2.837,0,0,1-2.418-1.2,5.5,5.5,0,0,1-.879-3.312A5.5,5.5,0,0,1,183.48,9.3a2.905,2.905,0,0,1,2.465-1.2,2.849,2.849,0,0,1,2.516,1.281h.078a9.741,9.741,0,0,1-.18-1.742v-2.8h2.391V17h-1.828l-.461-1.133h-.1A2.727,2.727,0,0,1,185.883,17.156Zm.836-1.9a1.615,1.615,0,0,0,1.34-.531,3.09,3.09,0,0,0,.465-1.8v-.258a3.571,3.571,0,0,0-.434-2.016,1.61,1.61,0,0,0-1.41-.609,1.4,1.4,0,0,0-1.238.676A3.605,3.605,0,0,0,185,12.68a3.417,3.417,0,0,0,.445,1.934A1.455,1.455,0,0,0,186.719,15.258ZM196.859,9.8a1.511,1.511,0,0,0-1.187.48,2.224,2.224,0,0,0-.492,1.363h3.344a1.986,1.986,0,0,0-.461-1.363A1.561,1.561,0,0,0,196.859,9.8Zm.336,7.359a4.508,4.508,0,0,1-3.3-1.164,4.408,4.408,0,0,1-1.187-3.3,4.848,4.848,0,0,1,1.1-3.395,3.908,3.908,0,0,1,3.035-1.2,3.847,3.847,0,0,1,2.883,1.055,3.99,3.99,0,0,1,1.031,2.914v1.156h-5.633a2.294,2.294,0,0,0,.6,1.586,2.117,2.117,0,0,0,1.578.57,6.551,6.551,0,0,0,1.492-.164,7.467,7.467,0,0,0,1.469-.523v1.844A5.6,5.6,0,0,1,198.93,17,8.423,8.423,0,0,1,197.2,17.156ZM209.234,17h-2.383V4.844h2.383Zm8.047,0-.461-1.187h-.062a3.519,3.519,0,0,1-1.238,1.051,4,4,0,0,1-1.66.293,2.684,2.684,0,0,1-1.98-.719,2.76,2.76,0,0,1-.723-2.047,2.3,2.3,0,0,1,.973-2.051,5.636,5.636,0,0,1,2.934-.73l1.516-.047V11.18a1.188,1.188,0,0,0-1.359-1.328,6.2,6.2,0,0,0-2.461.633l-.789-1.609a7.1,7.1,0,0,1,3.344-.789,4.165,4.165,0,0,1,2.7.766,2.83,2.83,0,0,1,.938,2.328V17Zm-.7-4.047-.922.031a2.952,2.952,0,0,0-1.547.375,1.178,1.178,0,0,0-.508,1.047q0,1.008,1.156,1.008a1.831,1.831,0,0,0,1.324-.477,1.674,1.674,0,0,0,.5-1.266Zm13.8-2.9H228.32V17h-2.383V10.055h-1.312V8.906l1.313-.641V7.625a2.862,2.862,0,0,1,.734-2.18,3.365,3.365,0,0,1,2.352-.687,6.12,6.12,0,0,1,2.2.367l-.609,1.75a4.441,4.441,0,0,0-1.328-.227.86.86,0,0,0-.734.3,1.244,1.244,0,0,0-.227.77v.547h2.063ZM237.3,17l-.461-1.187h-.062a3.519,3.519,0,0,1-1.238,1.051,4,4,0,0,1-1.66.293,2.684,2.684,0,0,1-1.98-.719,2.76,2.76,0,0,1-.723-2.047,2.3,2.3,0,0,1,.973-2.051,5.636,5.636,0,0,1,2.934-.73l1.516-.047V11.18a1.188,1.188,0,0,0-1.359-1.328,6.2,6.2,0,0,0-2.461.633l-.789-1.609a7.1,7.1,0,0,1,3.344-.789,4.165,4.165,0,0,1,2.7.766,2.83,2.83,0,0,1,.938,2.328V17Zm-.7-4.047-.922.031a2.952,2.952,0,0,0-1.547.375,1.178,1.178,0,0,0-.508,1.047q0,1.008,1.156,1.008a1.831,1.831,0,0,0,1.324-.477,1.674,1.674,0,0,0,.5-1.266Zm10.914,1.453a2.4,2.4,0,0,1-.934,2.047,4.613,4.613,0,0,1-2.793.7,8.772,8.772,0,0,1-1.625-.129,6.146,6.146,0,0,1-1.258-.379V14.68a8.306,8.306,0,0,0,1.5.523,6.058,6.058,0,0,0,1.465.211q1.3,0,1.3-.75a.626.626,0,0,0-.172-.457,2.492,2.492,0,0,0-.594-.4q-.422-.223-1.125-.52a7.067,7.067,0,0,1-1.48-.781,2.2,2.2,0,0,1-.687-.824,2.721,2.721,0,0,1-.215-1.145,2.075,2.075,0,0,1,.9-1.8,4.4,4.4,0,0,1,2.559-.637,7.262,7.262,0,0,1,3.07.688l-.719,1.719q-.656-.281-1.227-.461a3.852,3.852,0,0,0-1.164-.18q-1.055,0-1.055.57a.67.67,0,0,0,.34.555,9.242,9.242,0,0,0,1.488.7,6.914,6.914,0,0,1,1.5.773,2.288,2.288,0,0,1,.7.828A2.545,2.545,0,0,1,247.508,14.406ZM252.984,9.8a1.511,1.511,0,0,0-1.187.48,2.224,2.224,0,0,0-.492,1.363h3.344a1.986,1.986,0,0,0-.461-1.363A1.561,1.561,0,0,0,252.984,9.8Zm.336,7.359a4.508,4.508,0,0,1-3.3-1.164,4.408,4.408,0,0,1-1.187-3.3,4.848,4.848,0,0,1,1.1-3.395,3.908,3.908,0,0,1,3.035-1.2,3.847,3.847,0,0,1,2.883,1.055,3.99,3.99,0,0,1,1.031,2.914v1.156H251.25a2.294,2.294,0,0,0,.6,1.586,2.117,2.117,0,0,0,1.578.57,6.551,6.551,0,0,0,1.492-.164,7.467,7.467,0,0,0,1.469-.523v1.844a5.6,5.6,0,0,1-1.336.465A8.423,8.423,0,0,1,253.32,17.156Z" transform="translate(849 14140)" fill="#fff"/>
    <path id="Trazado_86776" data-name="Trazado 86776" d="M2.717,11.547V16H1.472V5.292H4.409a4.621,4.621,0,0,1,2.911.754,2.735,2.735,0,0,1,.941,2.271,2.844,2.844,0,0,1-2.153,2.871L9.016,16H7.544L4.951,11.547Zm0-1.069H4.424a2.947,2.947,0,0,0,1.934-.524,1.949,1.949,0,0,0,.615-1.571,1.788,1.788,0,0,0-.626-1.531,3.393,3.393,0,0,0-2.01-.469H2.717Zm11.235,5.669a3.688,3.688,0,0,1-2.809-1.084,4.2,4.2,0,0,1-1.029-3.01,4.654,4.654,0,0,1,.956-3.083,3.175,3.175,0,0,1,2.567-1.143,3.027,3.027,0,0,1,2.388.992,3.8,3.8,0,0,1,.879,2.618v.769h-5.53a3.182,3.182,0,0,0,.714,2.146A2.47,2.47,0,0,0,14,15.084a6.466,6.466,0,0,0,2.563-.542v1.084a6.434,6.434,0,0,1-1.219.4A6.853,6.853,0,0,1,13.953,16.146Zm-.33-7.3a1.985,1.985,0,0,0-1.542.63,2.9,2.9,0,0,0-.677,1.743h4.2a2.673,2.673,0,0,0-.513-1.761A1.8,1.8,0,0,0,13.623,8.844Zm8.562,7.3a3.426,3.426,0,0,1-2.7-1.073,4.412,4.412,0,0,1-.956-3.036,4.55,4.55,0,0,1,.97-3.113,3.494,3.494,0,0,1,2.765-1.1,5.487,5.487,0,0,1,1.157.125,3.812,3.812,0,0,1,.908.293l-.374,1.033a5.717,5.717,0,0,0-.879-.267,3.924,3.924,0,0,0-.842-.106q-2.446,0-2.446,3.12a3.715,3.715,0,0,0,.6,2.271,2.077,2.077,0,0,0,1.769.791,5.408,5.408,0,0,0,2.058-.432v1.077A4.386,4.386,0,0,1,22.185,16.146Zm10.862-4.167a4.428,4.428,0,0,1-.989,3.065,3.482,3.482,0,0,1-2.732,1.1,3.618,3.618,0,0,1-1.912-.505,3.335,3.335,0,0,1-1.289-1.45,5.054,5.054,0,0,1-.454-2.212,4.421,4.421,0,0,1,.981-3.058,3.471,3.471,0,0,1,2.725-1.095,3.4,3.4,0,0,1,2.677,1.121A4.409,4.409,0,0,1,33.047,11.979Zm-6.116,0a3.81,3.81,0,0,0,.615,2.344,2.442,2.442,0,0,0,3.622,0,3.791,3.791,0,0,0,.619-2.347,3.73,3.73,0,0,0-.619-2.325,2.175,2.175,0,0,0-1.827-.795,2.14,2.14,0,0,0-1.8.784A3.772,3.772,0,0,0,26.931,11.979ZM36.394,16H35.178V4.6h1.216Zm5.969.146a3.688,3.688,0,0,1-2.809-1.084,4.2,4.2,0,0,1-1.029-3.01,4.654,4.654,0,0,1,.956-3.083,3.175,3.175,0,0,1,2.567-1.143,3.027,3.027,0,0,1,2.388.992,3.8,3.8,0,0,1,.879,2.618v.769h-5.53a3.182,3.182,0,0,0,.714,2.146,2.47,2.47,0,0,0,1.908.732,6.466,6.466,0,0,0,2.563-.542v1.084a6.434,6.434,0,0,1-1.219.4A6.853,6.853,0,0,1,42.363,16.146Zm-.33-7.3a1.985,1.985,0,0,0-1.542.63,2.9,2.9,0,0,0-.677,1.743h4.2A2.673,2.673,0,0,0,43.5,9.456,1.8,1.8,0,0,0,42.034,8.844Zm8.562,7.3a3.426,3.426,0,0,1-2.7-1.073,4.412,4.412,0,0,1-.956-3.036,4.55,4.55,0,0,1,.97-3.113,3.494,3.494,0,0,1,2.765-1.1,5.487,5.487,0,0,1,1.157.125,3.812,3.812,0,0,1,.908.293l-.374,1.033a5.717,5.717,0,0,0-.879-.267,3.924,3.924,0,0,0-.842-.106q-2.446,0-2.446,3.12a3.715,3.715,0,0,0,.6,2.271,2.077,2.077,0,0,0,1.769.791,5.408,5.408,0,0,0,2.058-.432v1.077A4.386,4.386,0,0,1,50.6,16.146Zm6.526-1a3.972,3.972,0,0,0,.623-.048,4.03,4.03,0,0,0,.476-.1v.93a2.223,2.223,0,0,1-.582.157,4.373,4.373,0,0,1-.692.062q-2.329,0-2.329-2.454V8.917h-1.15V8.332l1.15-.505.513-1.714h.7v1.86h2.329v.945H55.833v4.724a1.625,1.625,0,0,0,.344,1.113A1.2,1.2,0,0,0,57.122,15.143ZM64.761,16l-.242-1.143H64.46a3.378,3.378,0,0,1-1.2,1.022,3.65,3.65,0,0,1-1.49.267,2.681,2.681,0,0,1-1.871-.615,2.244,2.244,0,0,1-.677-1.75q0-2.432,3.889-2.549l1.362-.044v-.5a2.035,2.035,0,0,0-.406-1.4,1.672,1.672,0,0,0-1.3-.45,5.3,5.3,0,0,0-2.271.615l-.374-.93a5.713,5.713,0,0,1,1.3-.505,5.631,5.631,0,0,1,1.417-.183,3.058,3.058,0,0,1,2.128.637,2.66,2.66,0,0,1,.692,2.043V16Zm-2.747-.857a2.468,2.468,0,0,0,1.783-.623,2.3,2.3,0,0,0,.648-1.743v-.725L63.23,12.1a4.422,4.422,0,0,0-2.091.45A1.358,1.358,0,0,0,60.5,13.8a1.253,1.253,0,0,0,.4,1A1.657,1.657,0,0,0,62.014,15.143Zm9.814-7.317a4.757,4.757,0,0,1,.959.088L72.62,9.042a4.142,4.142,0,0,0-.879-.11,2.139,2.139,0,0,0-1.666.791,2.884,2.884,0,0,0-.692,1.97V16H68.167V7.973h1l.139,1.487h.059a3.529,3.529,0,0,1,1.077-1.208A2.424,2.424,0,0,1,71.829,7.826Zm11.821,7.1h-.066a2.857,2.857,0,0,1-2.52,1.223,2.981,2.981,0,0,1-2.45-1.077,4.739,4.739,0,0,1-.875-3.062,4.819,4.819,0,0,1,.879-3.083,2.958,2.958,0,0,1,2.446-1.1,2.919,2.919,0,0,1,2.5,1.187h.1l-.051-.579-.029-.564V4.6H84.8V16h-.989Zm-2.432.205a2.214,2.214,0,0,0,1.805-.677,3.423,3.423,0,0,0,.56-2.186v-.256a4.028,4.028,0,0,0-.568-2.435A2.156,2.156,0,0,0,81.2,8.844a1.861,1.861,0,0,0-1.637.831A4.134,4.134,0,0,0,79,12.023a3.963,3.963,0,0,0,.564,2.322A1.91,1.91,0,0,0,81.218,15.128Zm11.1.872-.242-1.143h-.059a3.378,3.378,0,0,1-1.2,1.022,3.65,3.65,0,0,1-1.49.267,2.681,2.681,0,0,1-1.871-.615,2.244,2.244,0,0,1-.677-1.75q0-2.432,3.889-2.549l1.362-.044v-.5a2.035,2.035,0,0,0-.406-1.4,1.672,1.672,0,0,0-1.3-.45,5.3,5.3,0,0,0-2.271.615l-.374-.93a5.713,5.713,0,0,1,1.3-.505A5.631,5.631,0,0,1,90.4,7.841a3.058,3.058,0,0,1,2.128.637,2.66,2.66,0,0,1,.692,2.043V16Zm-2.747-.857a2.468,2.468,0,0,0,1.783-.623A2.3,2.3,0,0,0,92,12.777v-.725l-1.216.051a4.422,4.422,0,0,0-2.091.45,1.358,1.358,0,0,0-.641,1.241,1.253,1.253,0,0,0,.4,1A1.657,1.657,0,0,0,89.568,15.143Zm8.745,0a3.972,3.972,0,0,0,.623-.048,4.03,4.03,0,0,0,.476-.1v.93a2.223,2.223,0,0,1-.582.157,4.373,4.373,0,0,1-.692.062q-2.329,0-2.329-2.454V8.917h-1.15V8.332l1.15-.505.513-1.714h.7v1.86h2.329v.945H97.024v4.724a1.625,1.625,0,0,0,.344,1.113A1.2,1.2,0,0,0,98.313,15.143Zm9.631-3.164a4.428,4.428,0,0,1-.989,3.065,3.482,3.482,0,0,1-2.732,1.1,3.618,3.618,0,0,1-1.912-.505,3.335,3.335,0,0,1-1.289-1.45,5.054,5.054,0,0,1-.454-2.212,4.421,4.421,0,0,1,.981-3.058,3.471,3.471,0,0,1,2.725-1.095,3.4,3.4,0,0,1,2.677,1.121A4.409,4.409,0,0,1,107.944,11.979Zm-6.116,0a3.81,3.81,0,0,0,.615,2.344,2.442,2.442,0,0,0,3.622,0,3.791,3.791,0,0,0,.619-2.347,3.73,3.73,0,0,0-.619-2.325,2.175,2.175,0,0,0-1.827-.795,2.14,2.14,0,0,0-1.8.784A3.772,3.772,0,0,0,101.829,11.979Zm13.425,1.831a2.011,2.011,0,0,1-.835,1.729,3.925,3.925,0,0,1-2.344.608,5.1,5.1,0,0,1-2.49-.505V14.513a6.022,6.022,0,0,0,1.241.461,5.184,5.184,0,0,0,1.278.168,2.9,2.9,0,0,0,1.465-.3,1.046,1.046,0,0,0,.106-1.729,6.394,6.394,0,0,0-1.586-.787,8.6,8.6,0,0,1-1.593-.729,2.176,2.176,0,0,1-.7-.707,1.843,1.843,0,0,1-.231-.945,1.8,1.8,0,0,1,.8-1.549,3.72,3.72,0,0,1,2.19-.568,6.408,6.408,0,0,1,2.534.527l-.432.989a5.817,5.817,0,0,0-2.19-.5,2.52,2.52,0,0,0-1.3.271.838.838,0,0,0-.439.747.91.91,0,0,0,.165.549,1.626,1.626,0,0,0,.531.432,11.867,11.867,0,0,0,1.406.593,5.254,5.254,0,0,1,1.93,1.047A1.847,1.847,0,0,1,115.254,13.81Zm11.338,1.113h-.066a2.857,2.857,0,0,1-2.52,1.223,2.981,2.981,0,0,1-2.45-1.077,4.739,4.739,0,0,1-.875-3.062,4.819,4.819,0,0,1,.879-3.083,2.958,2.958,0,0,1,2.446-1.1,2.919,2.919,0,0,1,2.5,1.187h.1l-.051-.579-.029-.564V4.6h1.216V16h-.989Zm-2.432.205a2.214,2.214,0,0,0,1.805-.677,3.423,3.423,0,0,0,.56-2.186v-.256a4.028,4.028,0,0,0-.568-2.435,2.156,2.156,0,0,0-1.813-.729,1.861,1.861,0,0,0-1.637.831,4.134,4.134,0,0,0-.568,2.347,3.963,3.963,0,0,0,.564,2.322A1.91,1.91,0,0,0,124.16,15.128Zm9.551,1.018a3.688,3.688,0,0,1-2.809-1.084,4.2,4.2,0,0,1-1.029-3.01,4.654,4.654,0,0,1,.956-3.083A3.175,3.175,0,0,1,133.4,7.826a3.027,3.027,0,0,1,2.388.992,3.8,3.8,0,0,1,.879,2.618v.769h-5.53a3.182,3.182,0,0,0,.714,2.146,2.47,2.47,0,0,0,1.908.732,6.466,6.466,0,0,0,2.563-.542v1.084a6.434,6.434,0,0,1-1.219.4A6.853,6.853,0,0,1,133.711,16.146Zm-.33-7.3a1.985,1.985,0,0,0-1.542.63,2.9,2.9,0,0,0-.677,1.743h4.2a2.673,2.673,0,0,0-.513-1.761A1.8,1.8,0,0,0,133.381,8.844ZM139.951,16h-1.216V4.6h1.216Zm9.683.146a3.426,3.426,0,0,1-2.7-1.073,4.412,4.412,0,0,1-.956-3.036,4.55,4.55,0,0,1,.97-3.113,3.494,3.494,0,0,1,2.765-1.1,5.487,5.487,0,0,1,1.157.125,3.812,3.812,0,0,1,.908.293l-.374,1.033a5.717,5.717,0,0,0-.879-.267,3.924,3.924,0,0,0-.842-.106q-2.446,0-2.446,3.12a3.715,3.715,0,0,0,.6,2.271,2.077,2.077,0,0,0,1.769.791,5.408,5.408,0,0,0,2.058-.432v1.077A4.386,4.386,0,0,1,149.634,16.146ZM160.5,11.979a4.428,4.428,0,0,1-.989,3.065,3.482,3.482,0,0,1-2.732,1.1,3.618,3.618,0,0,1-1.912-.505,3.335,3.335,0,0,1-1.289-1.45,5.054,5.054,0,0,1-.454-2.212,4.421,4.421,0,0,1,.981-3.058,3.471,3.471,0,0,1,2.725-1.095A3.4,3.4,0,0,1,159.5,8.947,4.409,4.409,0,0,1,160.5,11.979Zm-6.116,0A3.81,3.81,0,0,0,155,14.323a2.442,2.442,0,0,0,3.622,0,3.791,3.791,0,0,0,.619-2.347,3.73,3.73,0,0,0-.619-2.325,2.175,2.175,0,0,0-1.827-.795,2.14,2.14,0,0,0-1.8.784A3.772,3.772,0,0,0,154.38,11.979ZM172.859,16V10.778a2.168,2.168,0,0,0-.41-1.439,1.586,1.586,0,0,0-1.274-.48,2.058,2.058,0,0,0-1.677.652,3.1,3.1,0,0,0-.542,2.007V16h-1.216V10.778a2.168,2.168,0,0,0-.41-1.439,1.6,1.6,0,0,0-1.282-.48,1.985,1.985,0,0,0-1.674.685,3.706,3.706,0,0,0-.531,2.245V16h-1.216V7.973h.989l.2,1.1h.059a2.39,2.39,0,0,1,.97-.916,2.965,2.965,0,0,1,1.4-.33,2.385,2.385,0,0,1,2.461,1.362h.059a2.56,2.56,0,0,1,1.04-1,3.227,3.227,0,0,1,1.553-.366,2.718,2.718,0,0,1,2.04.7,3.129,3.129,0,0,1,.677,2.238V16Zm7.456.146a3.474,3.474,0,0,1-1.432-.289,2.693,2.693,0,0,1-1.088-.89h-.088A10.767,10.767,0,0,1,177.8,16.3v3.3H176.58V7.973h.989l.168,1.1h.059a2.824,2.824,0,0,1,1.091-.952,3.317,3.317,0,0,1,1.428-.293,2.967,2.967,0,0,1,2.465,1.091,4.8,4.8,0,0,1,.868,3.062,4.776,4.776,0,0,1-.883,3.073A2.972,2.972,0,0,1,180.315,16.146Zm-.176-7.288a2.155,2.155,0,0,0-1.78.681,3.505,3.505,0,0,0-.564,2.168v.271a4.017,4.017,0,0,0,.564,2.421,2.145,2.145,0,0,0,1.809.729,1.881,1.881,0,0,0,1.63-.842,3.994,3.994,0,0,0,.59-2.322,3.844,3.844,0,0,0-.59-2.3A1.939,1.939,0,0,0,180.139,8.859Zm12.561,3.12a4.428,4.428,0,0,1-.989,3.065,3.482,3.482,0,0,1-2.732,1.1,3.618,3.618,0,0,1-1.912-.505,3.335,3.335,0,0,1-1.289-1.45,5.054,5.054,0,0,1-.454-2.212,4.421,4.421,0,0,1,.981-3.058,3.471,3.471,0,0,1,2.725-1.095,3.4,3.4,0,0,1,2.677,1.121A4.409,4.409,0,0,1,192.7,11.979Zm-6.116,0a3.81,3.81,0,0,0,.615,2.344,2.442,2.442,0,0,0,3.622,0,3.791,3.791,0,0,0,.619-2.347,3.73,3.73,0,0,0-.619-2.325,2.175,2.175,0,0,0-1.827-.795,2.14,2.14,0,0,0-1.8.784A3.772,3.772,0,0,0,186.584,11.979Zm11.909-4.153a4.757,4.757,0,0,1,.959.088l-.168,1.128a4.142,4.142,0,0,0-.879-.11,2.139,2.139,0,0,0-1.666.791,2.884,2.884,0,0,0-.692,1.97V16h-1.216V7.973h1l.139,1.487h.059a3.529,3.529,0,0,1,1.077-1.208A2.424,2.424,0,0,1,198.494,7.826Zm5.054,7.317a3.972,3.972,0,0,0,.623-.048,4.03,4.03,0,0,0,.476-.1v.93a2.223,2.223,0,0,1-.582.157,4.373,4.373,0,0,1-.692.062q-2.329,0-2.329-2.454V8.917h-1.15V8.332l1.15-.505.513-1.714h.7v1.86h2.329v.945h-2.329v4.724a1.625,1.625,0,0,0,.344,1.113A1.2,1.2,0,0,0,203.547,15.143Zm7.639.857-.242-1.143h-.059a3.378,3.378,0,0,1-1.2,1.022,3.65,3.65,0,0,1-1.49.267,2.681,2.681,0,0,1-1.871-.615,2.244,2.244,0,0,1-.677-1.75q0-2.432,3.889-2.549l1.362-.044v-.5a2.035,2.035,0,0,0-.406-1.4,1.672,1.672,0,0,0-1.3-.45,5.3,5.3,0,0,0-2.271.615l-.374-.93a5.713,5.713,0,0,1,1.3-.505,5.631,5.631,0,0,1,1.417-.183,3.058,3.058,0,0,1,2.128.637,2.66,2.66,0,0,1,.692,2.043V16Zm-2.747-.857a2.468,2.468,0,0,0,1.783-.623,2.3,2.3,0,0,0,.648-1.743v-.725l-1.216.051a4.422,4.422,0,0,0-2.091.45,1.358,1.358,0,0,0-.641,1.241,1.253,1.253,0,0,0,.4,1A1.657,1.657,0,0,0,208.44,15.143ZM224.824,16V10.778a2.168,2.168,0,0,0-.41-1.439,1.586,1.586,0,0,0-1.274-.48,2.058,2.058,0,0,0-1.677.652,3.1,3.1,0,0,0-.542,2.007V16H219.7V10.778a2.168,2.168,0,0,0-.41-1.439,1.6,1.6,0,0,0-1.282-.48,1.985,1.985,0,0,0-1.674.685,3.706,3.706,0,0,0-.531,2.245V16h-1.216V7.973h.989l.2,1.1h.059a2.39,2.39,0,0,1,.97-.916,2.965,2.965,0,0,1,1.4-.33,2.385,2.385,0,0,1,2.461,1.362h.059a2.56,2.56,0,0,1,1.04-1,3.227,3.227,0,0,1,1.553-.366,2.718,2.718,0,0,1,2.04.7,3.129,3.129,0,0,1,.677,2.238V16Zm4.937,0h-1.216V7.973h1.216ZM228.442,5.8a.808.808,0,0,1,.205-.612.759.759,0,0,1,1.018,0,.793.793,0,0,1,.212.608.805.805,0,0,1-.212.612.744.744,0,0,1-1.018,0A.823.823,0,0,1,228.442,5.8Zm7.288,10.349a3.688,3.688,0,0,1-2.809-1.084,4.2,4.2,0,0,1-1.029-3.01,4.654,4.654,0,0,1,.956-3.083,3.175,3.175,0,0,1,2.567-1.143,3.027,3.027,0,0,1,2.388.992,3.8,3.8,0,0,1,.879,2.618v.769h-5.53a3.182,3.182,0,0,0,.714,2.146,2.47,2.47,0,0,0,1.908.732,6.466,6.466,0,0,0,2.563-.542v1.084a6.434,6.434,0,0,1-1.219.4A6.853,6.853,0,0,1,235.73,16.146Zm-.33-7.3a1.985,1.985,0,0,0-1.542.63,2.9,2.9,0,0,0-.677,1.743h4.2a2.673,2.673,0,0,0-.513-1.761A1.8,1.8,0,0,0,235.4,8.844ZM246.248,16V10.807a2.1,2.1,0,0,0-.447-1.465,1.82,1.82,0,0,0-1.4-.483,2.307,2.307,0,0,0-1.846.681,3.439,3.439,0,0,0-.586,2.249V16h-1.216V7.973h.989l.2,1.1H242a2.483,2.483,0,0,1,1.047-.919,3.4,3.4,0,0,1,1.5-.326,3.049,3.049,0,0,1,2.183.7,2.977,2.977,0,0,1,.732,2.238V16Zm6.306-.857a3.972,3.972,0,0,0,.623-.048,4.03,4.03,0,0,0,.476-.1v.93a2.223,2.223,0,0,1-.582.157,4.373,4.373,0,0,1-.692.062q-2.329,0-2.329-2.454V8.917H248.9V8.332l1.15-.505.513-1.714h.7v1.86h2.329v.945h-2.329v4.724a1.625,1.625,0,0,0,.344,1.113A1.2,1.2,0,0,0,252.554,15.143Zm9.631-3.164a4.428,4.428,0,0,1-.989,3.065,3.482,3.482,0,0,1-2.732,1.1,3.618,3.618,0,0,1-1.912-.505,3.335,3.335,0,0,1-1.289-1.45,5.054,5.054,0,0,1-.454-2.212,4.421,4.421,0,0,1,.981-3.058,3.471,3.471,0,0,1,2.725-1.095,3.4,3.4,0,0,1,2.677,1.121A4.409,4.409,0,0,1,262.185,11.979Zm-6.116,0a3.81,3.81,0,0,0,.615,2.344,2.442,2.442,0,0,0,3.622,0,3.791,3.791,0,0,0,.619-2.347,3.73,3.73,0,0,0-.619-2.325,2.175,2.175,0,0,0-1.827-.795,2.14,2.14,0,0,0-1.8.784A3.772,3.772,0,0,0,256.069,11.979Zm17.607,2.944h-.066a2.857,2.857,0,0,1-2.52,1.223,2.981,2.981,0,0,1-2.45-1.077,4.739,4.739,0,0,1-.875-3.062,4.819,4.819,0,0,1,.879-3.083,2.958,2.958,0,0,1,2.446-1.1,2.919,2.919,0,0,1,2.5,1.187h.1l-.051-.579-.029-.564V4.6h1.216V16h-.989Zm-2.432.205a2.214,2.214,0,0,0,1.805-.677,3.423,3.423,0,0,0,.56-2.186v-.256a4.028,4.028,0,0,0-.568-2.435,2.156,2.156,0,0,0-1.813-.729,1.861,1.861,0,0,0-1.637.831,4.134,4.134,0,0,0-.568,2.347,3.963,3.963,0,0,0,.564,2.322A1.91,1.91,0,0,0,271.245,15.128Zm9.551,1.018a3.688,3.688,0,0,1-2.809-1.084,4.2,4.2,0,0,1-1.029-3.01,4.654,4.654,0,0,1,.956-3.083,3.175,3.175,0,0,1,2.567-1.143,3.027,3.027,0,0,1,2.388.992,3.8,3.8,0,0,1,.879,2.618v.769h-5.53a3.182,3.182,0,0,0,.714,2.146,2.47,2.47,0,0,0,1.908.732,6.466,6.466,0,0,0,2.563-.542v1.084a6.434,6.434,0,0,1-1.219.4A6.853,6.853,0,0,1,280.8,16.146Zm-.33-7.3a1.985,1.985,0,0,0-1.542.63,2.9,2.9,0,0,0-.677,1.743h4.2a2.673,2.673,0,0,0-.513-1.761A1.8,1.8,0,0,0,280.466,8.844ZM290.933,16h-1.216V4.6h1.216Zm7.515,0-.242-1.143h-.059a3.378,3.378,0,0,1-1.2,1.022,3.65,3.65,0,0,1-1.49.267,2.681,2.681,0,0,1-1.871-.615,2.244,2.244,0,0,1-.677-1.75q0-2.432,3.889-2.549l1.362-.044v-.5a2.035,2.035,0,0,0-.406-1.4,1.672,1.672,0,0,0-1.3-.45,5.3,5.3,0,0,0-2.271.615l-.374-.93a5.713,5.713,0,0,1,1.3-.505,5.631,5.631,0,0,1,1.417-.183,3.058,3.058,0,0,1,2.128.637,2.66,2.66,0,0,1,.692,2.043V16Zm-2.747-.857a2.468,2.468,0,0,0,1.783-.623,2.3,2.3,0,0,0,.648-1.743v-.725l-1.216.051a4.422,4.422,0,0,0-2.091.45,1.358,1.358,0,0,0-.641,1.241,1.253,1.253,0,0,0,.4,1A1.657,1.657,0,0,0,295.7,15.143Zm11.331-1.333a2.011,2.011,0,0,1-.835,1.729,3.925,3.925,0,0,1-2.344.608,5.1,5.1,0,0,1-2.49-.505V14.513a6.022,6.022,0,0,0,1.241.461,5.184,5.184,0,0,0,1.278.168,2.9,2.9,0,0,0,1.465-.3,1.046,1.046,0,0,0,.106-1.729,6.394,6.394,0,0,0-1.586-.787,8.6,8.6,0,0,1-1.593-.729,2.176,2.176,0,0,1-.7-.707,1.843,1.843,0,0,1-.231-.945,1.8,1.8,0,0,1,.8-1.549,3.72,3.72,0,0,1,2.19-.568,6.408,6.408,0,0,1,2.534.527l-.432.989a5.817,5.817,0,0,0-2.19-.5,2.52,2.52,0,0,0-1.3.271.838.838,0,0,0-.439.747.91.91,0,0,0,.165.549,1.626,1.626,0,0,0,.531.432,11.867,11.867,0,0,0,1.406.593,5.254,5.254,0,0,1,1.93,1.047A1.847,1.847,0,0,1,307.031,13.81Zm11.338,1.113H318.3a2.857,2.857,0,0,1-2.52,1.223,2.981,2.981,0,0,1-2.45-1.077,4.739,4.739,0,0,1-.875-3.062,4.819,4.819,0,0,1,.879-3.083,2.958,2.958,0,0,1,2.446-1.1,2.919,2.919,0,0,1,2.5,1.187h.1l-.051-.579L318.3,7.87V4.6h1.216V16h-.989Zm-2.432.205a2.214,2.214,0,0,0,1.805-.677,3.423,3.423,0,0,0,.56-2.186v-.256a4.028,4.028,0,0,0-.568-2.435,2.156,2.156,0,0,0-1.813-.729,1.861,1.861,0,0,0-1.637.831,4.134,4.134,0,0,0-.568,2.347,3.963,3.963,0,0,0,.564,2.322A1.91,1.91,0,0,0,315.938,15.128Zm13.088-3.149a4.428,4.428,0,0,1-.989,3.065,3.482,3.482,0,0,1-2.732,1.1,3.618,3.618,0,0,1-1.912-.505,3.335,3.335,0,0,1-1.289-1.45,5.054,5.054,0,0,1-.454-2.212,4.421,4.421,0,0,1,.981-3.058,3.471,3.471,0,0,1,2.725-1.095,3.4,3.4,0,0,1,2.677,1.121A4.409,4.409,0,0,1,329.026,11.979Zm-6.116,0a3.81,3.81,0,0,0,.615,2.344,2.442,2.442,0,0,0,3.622,0,3.791,3.791,0,0,0,.619-2.347,3.73,3.73,0,0,0-.619-2.325,2.175,2.175,0,0,0-1.827-.795,2.14,2.14,0,0,0-1.8.784A3.772,3.772,0,0,0,322.91,11.979Zm13.425,1.831a2.011,2.011,0,0,1-.835,1.729,3.925,3.925,0,0,1-2.344.608,5.1,5.1,0,0,1-2.49-.505V14.513a6.022,6.022,0,0,0,1.241.461,5.184,5.184,0,0,0,1.278.168,2.9,2.9,0,0,0,1.465-.3,1.046,1.046,0,0,0,.106-1.729,6.394,6.394,0,0,0-1.586-.787,8.6,8.6,0,0,1-1.593-.729,2.176,2.176,0,0,1-.7-.707,1.843,1.843,0,0,1-.231-.945,1.8,1.8,0,0,1,.8-1.549,3.72,3.72,0,0,1,2.19-.568,6.408,6.408,0,0,1,2.534.527l-.432.989a5.817,5.817,0,0,0-2.19-.5,2.52,2.52,0,0,0-1.3.271.838.838,0,0,0-.439.747.91.91,0,0,0,.165.549,1.626,1.626,0,0,0,.531.432,11.867,11.867,0,0,0,1.406.593,5.254,5.254,0,0,1,1.93,1.047A1.847,1.847,0,0,1,336.335,13.81Zm9.082,2.336a3.426,3.426,0,0,1-2.7-1.073,4.412,4.412,0,0,1-.956-3.036,4.55,4.55,0,0,1,.97-3.113,3.494,3.494,0,0,1,2.765-1.1,5.487,5.487,0,0,1,1.157.125,3.812,3.812,0,0,1,.908.293l-.374,1.033a5.717,5.717,0,0,0-.879-.267,3.924,3.924,0,0,0-.842-.106q-2.446,0-2.446,3.12a3.715,3.715,0,0,0,.6,2.271,2.077,2.077,0,0,0,1.769.791,5.408,5.408,0,0,0,2.058-.432v1.077A4.386,4.386,0,0,1,345.417,16.146Zm8.87-.146-.242-1.143h-.059a3.378,3.378,0,0,1-1.2,1.022,3.65,3.65,0,0,1-1.49.267,2.681,2.681,0,0,1-1.871-.615,2.244,2.244,0,0,1-.677-1.75q0-2.432,3.889-2.549L354,11.188v-.5a2.035,2.035,0,0,0-.406-1.4,1.672,1.672,0,0,0-1.3-.45,5.3,5.3,0,0,0-2.271.615l-.374-.93a5.713,5.713,0,0,1,1.3-.505,5.631,5.631,0,0,1,1.417-.183,3.058,3.058,0,0,1,2.128.637,2.66,2.66,0,0,1,.692,2.043V16Zm-2.747-.857a2.468,2.468,0,0,0,1.783-.623,2.3,2.3,0,0,0,.648-1.743v-.725l-1.216.051a4.422,4.422,0,0,0-2.091.45,1.358,1.358,0,0,0-.641,1.241,1.253,1.253,0,0,0,.4,1A1.657,1.657,0,0,0,351.541,15.143Zm9.814-7.317a4.757,4.757,0,0,1,.959.088l-.168,1.128a4.142,4.142,0,0,0-.879-.11,2.139,2.139,0,0,0-1.666.791,2.884,2.884,0,0,0-.692,1.97V16h-1.216V7.973h1l.139,1.487h.059a3.529,3.529,0,0,1,1.077-1.208A2.424,2.424,0,0,1,361.355,7.826Zm7.4,8.174-.242-1.143h-.059a3.378,3.378,0,0,1-1.2,1.022,3.65,3.65,0,0,1-1.49.267,2.681,2.681,0,0,1-1.871-.615,2.244,2.244,0,0,1-.677-1.75q0-2.432,3.889-2.549l1.362-.044v-.5a2.035,2.035,0,0,0-.406-1.4,1.672,1.672,0,0,0-1.3-.45,5.3,5.3,0,0,0-2.271.615l-.374-.93a5.713,5.713,0,0,1,1.3-.505,5.631,5.631,0,0,1,1.417-.183,3.058,3.058,0,0,1,2.128.637,2.66,2.66,0,0,1,.692,2.043V16Zm-2.747-.857a2.468,2.468,0,0,0,1.783-.623,2.3,2.3,0,0,0,.648-1.743v-.725l-1.216.051a4.422,4.422,0,0,0-2.091.45,1.358,1.358,0,0,0-.641,1.241,1.253,1.253,0,0,0,.4,1A1.657,1.657,0,0,0,366.006,15.143Zm9.36,1a3.426,3.426,0,0,1-2.7-1.073,4.412,4.412,0,0,1-.956-3.036,4.55,4.55,0,0,1,.97-3.113,3.494,3.494,0,0,1,2.765-1.1,5.487,5.487,0,0,1,1.157.125,3.812,3.812,0,0,1,.908.293l-.374,1.033a5.717,5.717,0,0,0-.879-.267,3.924,3.924,0,0,0-.842-.106q-2.446,0-2.446,3.12a3.715,3.715,0,0,0,.6,2.271,2.077,2.077,0,0,0,1.769.791,5.408,5.408,0,0,0,2.058-.432v1.077A4.386,4.386,0,0,1,375.366,16.146Zm6.526-1a3.972,3.972,0,0,0,.623-.048,4.03,4.03,0,0,0,.476-.1v.93a2.223,2.223,0,0,1-.582.157,4.373,4.373,0,0,1-.692.062q-2.329,0-2.329-2.454V8.917h-1.15V8.332l1.15-.505.513-1.714h.7v1.86h2.329v.945H380.6v4.724a1.625,1.625,0,0,0,.344,1.113A1.2,1.2,0,0,0,381.892,15.143Zm6.094,1a3.688,3.688,0,0,1-2.809-1.084,4.2,4.2,0,0,1-1.029-3.01,4.654,4.654,0,0,1,.956-3.083,3.175,3.175,0,0,1,2.567-1.143,3.027,3.027,0,0,1,2.388.992,3.8,3.8,0,0,1,.879,2.618v.769h-5.53a3.182,3.182,0,0,0,.714,2.146,2.47,2.47,0,0,0,1.908.732,6.466,6.466,0,0,0,2.563-.542v1.084a6.434,6.434,0,0,1-1.219.4A6.853,6.853,0,0,1,387.986,16.146Zm-.33-7.3a1.985,1.985,0,0,0-1.542.63,2.9,2.9,0,0,0-.677,1.743h4.2a2.673,2.673,0,0,0-.513-1.761A1.8,1.8,0,0,0,387.656,8.844Zm9.016-1.018a4.757,4.757,0,0,1,.959.088l-.168,1.128a4.142,4.142,0,0,0-.879-.11,2.139,2.139,0,0,0-1.666.791,2.884,2.884,0,0,0-.692,1.97V16H393.01V7.973h1l.139,1.487h.059a3.529,3.529,0,0,1,1.077-1.208A2.424,2.424,0,0,1,396.672,7.826ZM400.349,16h-1.216V7.973h1.216Zm-1.267-9.272q.352-.454.758-1.1a12.573,12.573,0,0,0,.641-1.121h1.479v.154A10.827,10.827,0,0,1,401,5.834,10.893,10.893,0,0,1,399.9,6.911h-.813Zm9.023,7.083a2.011,2.011,0,0,1-.835,1.729,3.925,3.925,0,0,1-2.344.608,5.1,5.1,0,0,1-2.49-.505V14.513a6.022,6.022,0,0,0,1.241.461,5.184,5.184,0,0,0,1.278.168,2.9,2.9,0,0,0,1.465-.3,1.046,1.046,0,0,0,.106-1.729,6.394,6.394,0,0,0-1.586-.787,8.6,8.6,0,0,1-1.593-.729,2.176,2.176,0,0,1-.7-.707,1.843,1.843,0,0,1-.231-.945,1.8,1.8,0,0,1,.8-1.549,3.72,3.72,0,0,1,2.19-.568,6.408,6.408,0,0,1,2.534.527l-.432.989a5.817,5.817,0,0,0-2.19-.5,2.52,2.52,0,0,0-1.3.271.838.838,0,0,0-.439.747.91.91,0,0,0,.165.549,1.626,1.626,0,0,0,.531.432,11.867,11.867,0,0,0,1.406.593,5.254,5.254,0,0,1,1.93,1.047A1.847,1.847,0,0,1,408.105,13.81Zm4.57,1.333a3.972,3.972,0,0,0,.623-.048,4.03,4.03,0,0,0,.476-.1v.93a2.223,2.223,0,0,1-.582.157,4.373,4.373,0,0,1-.692.062q-2.329,0-2.329-2.454V8.917h-1.15V8.332l1.15-.505.513-1.714h.7v1.86h2.329v.945h-2.329v4.724a1.625,1.625,0,0,0,.344,1.113A1.2,1.2,0,0,0,412.676,15.143Zm3.918.857h-1.216V7.973h1.216ZM415.276,5.8a.808.808,0,0,1,.205-.612.759.759,0,0,1,1.018,0,.793.793,0,0,1,.212.608.805.805,0,0,1-.212.612.744.744,0,0,1-1.018,0A.823.823,0,0,1,415.276,5.8Zm7.1,10.349a3.426,3.426,0,0,1-2.7-1.073,4.412,4.412,0,0,1-.956-3.036,4.55,4.55,0,0,1,.97-3.113,3.494,3.494,0,0,1,2.765-1.1,5.487,5.487,0,0,1,1.157.125,3.812,3.812,0,0,1,.908.293l-.374,1.033a5.717,5.717,0,0,0-.879-.267,3.924,3.924,0,0,0-.842-.106q-2.446,0-2.446,3.12a3.715,3.715,0,0,0,.6,2.271,2.077,2.077,0,0,0,1.769.791,5.408,5.408,0,0,0,2.058-.432v1.077A4.386,4.386,0,0,1,422.38,16.146ZM431.25,16l-.242-1.143h-.059a3.378,3.378,0,0,1-1.2,1.022,3.65,3.65,0,0,1-1.49.267,2.681,2.681,0,0,1-1.871-.615,2.244,2.244,0,0,1-.677-1.75q0-2.432,3.889-2.549l1.362-.044v-.5a2.035,2.035,0,0,0-.406-1.4,1.672,1.672,0,0,0-1.3-.45,5.3,5.3,0,0,0-2.271.615l-.374-.93a5.713,5.713,0,0,1,1.3-.505,5.631,5.631,0,0,1,1.417-.183,3.058,3.058,0,0,1,2.128.637,2.66,2.66,0,0,1,.692,2.043V16Zm-2.747-.857a2.468,2.468,0,0,0,1.783-.623,2.3,2.3,0,0,0,.648-1.743v-.725l-1.216.051a4.422,4.422,0,0,0-2.091.45,1.358,1.358,0,0,0-.641,1.241,1.253,1.253,0,0,0,.4,1A1.657,1.657,0,0,0,428.5,15.143Zm11.331-1.333A2.011,2.011,0,0,1,439,15.539a3.925,3.925,0,0,1-2.344.608,5.1,5.1,0,0,1-2.49-.505V14.513a6.022,6.022,0,0,0,1.241.461,5.184,5.184,0,0,0,1.278.168,2.9,2.9,0,0,0,1.465-.3,1.046,1.046,0,0,0,.106-1.729,6.394,6.394,0,0,0-1.586-.787,8.6,8.6,0,0,1-1.593-.729,2.176,2.176,0,0,1-.7-.707,1.843,1.843,0,0,1-.231-.945,1.8,1.8,0,0,1,.8-1.549,3.72,3.72,0,0,1,2.19-.568,6.408,6.408,0,0,1,2.534.527l-.432.989a5.817,5.817,0,0,0-2.19-.5,2.52,2.52,0,0,0-1.3.271.838.838,0,0,0-.439.747.91.91,0,0,0,.165.549,1.626,1.626,0,0,0,.531.432,11.867,11.867,0,0,0,1.406.593,5.254,5.254,0,0,1,1.93,1.047A1.847,1.847,0,0,1,439.834,13.81Zm9.265,2.336a3.688,3.688,0,0,1-2.809-1.084,4.2,4.2,0,0,1-1.029-3.01,4.654,4.654,0,0,1,.956-3.083,3.175,3.175,0,0,1,2.567-1.143,3.027,3.027,0,0,1,2.388.992,3.8,3.8,0,0,1,.879,2.618v.769h-5.53a3.182,3.182,0,0,0,.714,2.146,2.47,2.47,0,0,0,1.908.732,6.466,6.466,0,0,0,2.563-.542v1.084a6.434,6.434,0,0,1-1.219.4A6.853,6.853,0,0,1,449.1,16.146Zm-.33-7.3a1.985,1.985,0,0,0-1.542.63,2.9,2.9,0,0,0-.677,1.743h4.2a2.673,2.673,0,0,0-.513-1.761A1.8,1.8,0,0,0,448.77,8.844ZM459.617,16V10.807a2.1,2.1,0,0,0-.447-1.465,1.82,1.82,0,0,0-1.4-.483,2.307,2.307,0,0,0-1.846.681,3.439,3.439,0,0,0-.586,2.249V16h-1.216V7.973h.989l.2,1.1h.059a2.483,2.483,0,0,1,1.047-.919,3.4,3.4,0,0,1,1.5-.326,3.049,3.049,0,0,1,2.183.7,2.977,2.977,0,0,1,.732,2.238V16Zm8.826,0h-1.216V4.6h1.216Zm7.515,0-.242-1.143h-.059a3.378,3.378,0,0,1-1.2,1.022,3.65,3.65,0,0,1-1.49.267,2.681,2.681,0,0,1-1.871-.615,2.244,2.244,0,0,1-.677-1.75q0-2.432,3.889-2.549l1.362-.044v-.5a2.035,2.035,0,0,0-.406-1.4,1.672,1.672,0,0,0-1.3-.45,5.3,5.3,0,0,0-2.271.615l-.374-.93a5.713,5.713,0,0,1,1.3-.505,5.631,5.631,0,0,1,1.417-.183,3.058,3.058,0,0,1,2.128.637,2.66,2.66,0,0,1,.692,2.043V16Zm-2.747-.857a2.468,2.468,0,0,0,1.783-.623,2.3,2.3,0,0,0,.648-1.743v-.725l-1.216.051a4.422,4.422,0,0,0-2.091.45,1.358,1.358,0,0,0-.641,1.241,1.253,1.253,0,0,0,.4,1A1.657,1.657,0,0,0,473.21,15.143ZM488.752,16V10.807a2.1,2.1,0,0,0-.447-1.465,1.82,1.82,0,0,0-1.4-.483,2.292,2.292,0,0,0-1.849.688,3.487,3.487,0,0,0-.582,2.256V16h-1.216V4.6h1.216v3.45a7.517,7.517,0,0,1-.059,1.033h.073a2.48,2.48,0,0,1,1.022-.912,3.322,3.322,0,0,1,1.512-.333,3.1,3.1,0,0,1,2.208.7,2.946,2.946,0,0,1,.736,2.223V16Zm10.642-4.021a4.428,4.428,0,0,1-.989,3.065,3.482,3.482,0,0,1-2.732,1.1,3.618,3.618,0,0,1-1.912-.505,3.335,3.335,0,0,1-1.289-1.45,5.054,5.054,0,0,1-.454-2.212A4.421,4.421,0,0,1,493,8.921a3.471,3.471,0,0,1,2.725-1.095A3.4,3.4,0,0,1,498.4,8.947,4.409,4.409,0,0,1,499.395,11.979Zm-6.116,0a3.81,3.81,0,0,0,.615,2.344,2.442,2.442,0,0,0,3.622,0,3.791,3.791,0,0,0,.619-2.347,3.73,3.73,0,0,0-.619-2.325,2.175,2.175,0,0,0-1.827-.795,2.14,2.14,0,0,0-1.8.784A3.772,3.772,0,0,0,493.279,11.979Zm7.273,7.625a2.926,2.926,0,0,1-1.128-.183v-.989a3.566,3.566,0,0,0,1,.146,1.047,1.047,0,0,0,.839-.311,1.428,1.428,0,0,0,.267-.948V7.973h1.216V17.23Q502.742,19.6,500.552,19.6ZM501.423,5.8a.808.808,0,0,1,.205-.612.759.759,0,0,1,1.018,0,.793.793,0,0,1,.212.608.805.805,0,0,1-.212.612.744.744,0,0,1-1.018,0A.823.823,0,0,1,501.423,5.8ZM510.256,16l-.242-1.143h-.059a3.378,3.378,0,0,1-1.2,1.022,3.65,3.65,0,0,1-1.49.267,2.681,2.681,0,0,1-1.871-.615,2.244,2.244,0,0,1-.677-1.75q0-2.432,3.889-2.549l1.362-.044v-.5a2.035,2.035,0,0,0-.406-1.4,1.672,1.672,0,0,0-1.3-.45,5.3,5.3,0,0,0-2.271.615l-.374-.93a5.713,5.713,0,0,1,1.3-.505,5.631,5.631,0,0,1,1.417-.183,3.058,3.058,0,0,1,2.128.637,2.66,2.66,0,0,1,.692,2.043V16Zm-2.747-.857a2.468,2.468,0,0,0,1.783-.623,2.3,2.3,0,0,0,.648-1.743v-.725l-1.216.051a4.422,4.422,0,0,0-2.091.45,1.358,1.358,0,0,0-.641,1.241,1.253,1.253,0,0,0,.4,1A1.657,1.657,0,0,0,507.51,15.143Zm15.513-.22h-.066a2.857,2.857,0,0,1-2.52,1.223,2.981,2.981,0,0,1-2.45-1.077,4.739,4.739,0,0,1-.875-3.062,4.819,4.819,0,0,1,.879-3.083,2.958,2.958,0,0,1,2.446-1.1,2.919,2.919,0,0,1,2.5,1.187h.1l-.051-.579-.029-.564V4.6h1.216V16h-.989Zm-2.432.205a2.214,2.214,0,0,0,1.805-.677,3.423,3.423,0,0,0,.56-2.186v-.256a4.028,4.028,0,0,0-.568-2.435,2.156,2.156,0,0,0-1.813-.729,1.861,1.861,0,0,0-1.637.831,4.134,4.134,0,0,0-.568,2.347,3.963,3.963,0,0,0,.564,2.322A1.91,1.91,0,0,0,520.591,15.128Zm9.551,1.018a3.688,3.688,0,0,1-2.809-1.084,4.2,4.2,0,0,1-1.029-3.01,4.654,4.654,0,0,1,.956-3.083,3.175,3.175,0,0,1,2.567-1.143,3.027,3.027,0,0,1,2.388.992,3.8,3.8,0,0,1,.879,2.618v.769h-5.53a3.182,3.182,0,0,0,.714,2.146,2.47,2.47,0,0,0,1.908.732,6.466,6.466,0,0,0,2.563-.542v1.084a6.434,6.434,0,0,1-1.219.4A6.853,6.853,0,0,1,530.142,16.146Zm-.33-7.3a1.985,1.985,0,0,0-1.542.63,2.9,2.9,0,0,0-.677,1.743h4.2a2.673,2.673,0,0,0-.513-1.761A1.8,1.8,0,0,0,529.812,8.844ZM4.5,36.146a3.426,3.426,0,0,1-2.7-1.073,4.412,4.412,0,0,1-.956-3.036,4.55,4.55,0,0,1,.97-3.113,3.494,3.494,0,0,1,2.765-1.1,5.487,5.487,0,0,1,1.157.125,3.812,3.812,0,0,1,.908.293L6.27,29.276a5.717,5.717,0,0,0-.879-.267,3.924,3.924,0,0,0-.842-.106Q2.1,28.9,2.1,32.023a3.715,3.715,0,0,0,.6,2.271,2.077,2.077,0,0,0,1.769.791,5.408,5.408,0,0,0,2.058-.432v1.077A4.386,4.386,0,0,1,4.5,36.146ZM13.367,36l-.242-1.143h-.059a3.378,3.378,0,0,1-1.2,1.022,3.65,3.65,0,0,1-1.49.267,2.681,2.681,0,0,1-1.871-.615,2.244,2.244,0,0,1-.677-1.75q0-2.432,3.889-2.549l1.362-.044v-.5a2.035,2.035,0,0,0-.406-1.4,1.672,1.672,0,0,0-1.3-.45,5.3,5.3,0,0,0-2.271.615l-.374-.93a5.713,5.713,0,0,1,1.3-.505,5.631,5.631,0,0,1,1.417-.183,3.058,3.058,0,0,1,2.128.637,2.66,2.66,0,0,1,.692,2.043V36Zm-2.747-.857a2.468,2.468,0,0,0,1.783-.623,2.3,2.3,0,0,0,.648-1.743v-.725l-1.216.051a4.422,4.422,0,0,0-2.091.45A1.358,1.358,0,0,0,9.1,33.8a1.253,1.253,0,0,0,.4,1A1.657,1.657,0,0,0,10.62,35.143Zm-.286-8.416q.352-.454.758-1.1a12.573,12.573,0,0,0,.641-1.121h1.479v.154a10.827,10.827,0,0,1-.959,1.172,10.893,10.893,0,0,1-1.106,1.077h-.813ZM17.988,36H16.772V24.6h1.216Zm5.786.146a3.426,3.426,0,0,1-2.7-1.073,4.412,4.412,0,0,1-.956-3.036,4.55,4.55,0,0,1,.97-3.113,3.494,3.494,0,0,1,2.765-1.1,5.487,5.487,0,0,1,1.157.125,3.812,3.812,0,0,1,.908.293l-.374,1.033a5.717,5.717,0,0,0-.879-.267,3.924,3.924,0,0,0-.842-.106q-2.446,0-2.446,3.12a3.715,3.715,0,0,0,.6,2.271,2.077,2.077,0,0,0,1.769.791,5.408,5.408,0,0,0,2.058-.432v1.077A4.386,4.386,0,0,1,23.774,36.146Zm5.076-8.174V33.18a2.1,2.1,0,0,0,.447,1.465,1.82,1.82,0,0,0,1.4.483,2.282,2.282,0,0,0,1.842-.688,3.473,3.473,0,0,0,.582-2.249V27.973h1.216V36h-1l-.176-1.077h-.066a2.423,2.423,0,0,1-1.036.908,3.483,3.483,0,0,1-1.512.315,3.069,3.069,0,0,1-2.194-.7,2.962,2.962,0,0,1-.729-2.227V27.973ZM38.13,36H36.914V24.6H38.13Zm9.507-4.021a4.428,4.428,0,0,1-.989,3.065,3.482,3.482,0,0,1-2.732,1.1A3.618,3.618,0,0,1,42,35.641a3.335,3.335,0,0,1-1.289-1.45,5.054,5.054,0,0,1-.454-2.212,4.421,4.421,0,0,1,.981-3.058,3.471,3.471,0,0,1,2.725-1.095,3.4,3.4,0,0,1,2.677,1.121A4.409,4.409,0,0,1,47.637,31.979Zm-6.116,0a3.81,3.81,0,0,0,.615,2.344,2.442,2.442,0,0,0,3.622,0,3.791,3.791,0,0,0,.619-2.347,3.73,3.73,0,0,0-.619-2.325,2.175,2.175,0,0,0-1.827-.795,2.14,2.14,0,0,0-1.8.784A3.772,3.772,0,0,0,41.521,31.979Zm8.071,3.245a1.091,1.091,0,0,1,.223-.743.81.81,0,0,1,.641-.253.867.867,0,0,1,.663.253,1.046,1.046,0,0,1,.238.743,1.027,1.027,0,0,1-.242.732.961.961,0,0,1-1.278.026A1,1,0,0,1,49.592,35.224Z" transform="translate(778 14181)" fill="#00223d"/>
    <path id="Trazado_86773" data-name="Trazado 86773" d="M8.2,16,6.87,12.594H2.578L1.26,16H0L4.233,5.248H5.281L9.492,16ZM6.482,11.474,5.237,8.156Q5,7.526,4.739,6.61a13.877,13.877,0,0,1-.461,1.545l-1.26,3.318ZM16.274,16V10.807a2.1,2.1,0,0,0-.447-1.465,1.82,1.82,0,0,0-1.4-.483,2.307,2.307,0,0,0-1.846.681A3.439,3.439,0,0,0,12,11.789V16H10.781V7.973h.989l.2,1.1h.059a2.483,2.483,0,0,1,1.047-.919,3.4,3.4,0,0,1,1.5-.326,3.049,3.049,0,0,1,2.183.7,2.977,2.977,0,0,1,.732,2.238V16Zm8.65,0-.242-1.143h-.059a3.378,3.378,0,0,1-1.2,1.022,3.65,3.65,0,0,1-1.49.267,2.681,2.681,0,0,1-1.871-.615,2.244,2.244,0,0,1-.677-1.75q0-2.432,3.889-2.549l1.362-.044v-.5a2.035,2.035,0,0,0-.406-1.4,1.672,1.672,0,0,0-1.3-.45,5.3,5.3,0,0,0-2.271.615l-.374-.93a5.713,5.713,0,0,1,1.3-.505,5.631,5.631,0,0,1,1.417-.183,3.058,3.058,0,0,1,2.128.637,2.66,2.66,0,0,1,.692,2.043V16Zm-2.747-.857a2.468,2.468,0,0,0,1.783-.623,2.3,2.3,0,0,0,.648-1.743v-.725l-1.216.051a4.422,4.422,0,0,0-2.091.45,1.358,1.358,0,0,0-.641,1.241,1.253,1.253,0,0,0,.4,1A1.657,1.657,0,0,0,22.178,15.143Zm-.286-8.416q.352-.454.758-1.1a12.573,12.573,0,0,0,.641-1.121h1.479v.154a10.827,10.827,0,0,1-.959,1.172,10.893,10.893,0,0,1-1.106,1.077h-.813ZM29.546,16H28.33V4.6h1.216Zm3.794,0H32.124V7.973H33.34ZM32.021,5.8a.808.808,0,0,1,.205-.612.759.759,0,0,1,1.018,0,.793.793,0,0,1,.212.608.805.805,0,0,1-.212.612.744.744,0,0,1-1.018,0A.823.823,0,0,1,32.021,5.8ZM41.1,13.81a2.011,2.011,0,0,1-.835,1.729,3.925,3.925,0,0,1-2.344.608,5.1,5.1,0,0,1-2.49-.505V14.513a6.022,6.022,0,0,0,1.241.461,5.184,5.184,0,0,0,1.278.168,2.9,2.9,0,0,0,1.465-.3,1.046,1.046,0,0,0,.106-1.729,6.394,6.394,0,0,0-1.586-.787,8.6,8.6,0,0,1-1.593-.729,2.176,2.176,0,0,1-.7-.707,1.843,1.843,0,0,1-.231-.945,1.8,1.8,0,0,1,.8-1.549,3.72,3.72,0,0,1,2.19-.568,6.408,6.408,0,0,1,2.534.527l-.432.989a5.817,5.817,0,0,0-2.19-.5,2.52,2.52,0,0,0-1.3.271.838.838,0,0,0-.439.747.91.91,0,0,0,.165.549,1.626,1.626,0,0,0,.531.432,11.867,11.867,0,0,0,1.406.593,5.254,5.254,0,0,1,1.93,1.047A1.847,1.847,0,0,1,41.1,13.81ZM44.29,16H43.074V7.973H44.29ZM42.971,5.8a.808.808,0,0,1,.205-.612.759.759,0,0,1,1.018,0,.793.793,0,0,1,.212.608.805.805,0,0,1-.212.612.744.744,0,0,1-1.018,0A.823.823,0,0,1,42.971,5.8Zm9.075,8.013a2.011,2.011,0,0,1-.835,1.729,3.925,3.925,0,0,1-2.344.608,5.1,5.1,0,0,1-2.49-.505V14.513a6.022,6.022,0,0,0,1.241.461,5.184,5.184,0,0,0,1.278.168,2.9,2.9,0,0,0,1.465-.3,1.046,1.046,0,0,0,.106-1.729,6.394,6.394,0,0,0-1.586-.787,8.6,8.6,0,0,1-1.593-.729,2.176,2.176,0,0,1-.7-.707,1.843,1.843,0,0,1-.231-.945,1.8,1.8,0,0,1,.8-1.549,3.72,3.72,0,0,1,2.19-.568,6.408,6.408,0,0,1,2.534.527l-.432.989a5.817,5.817,0,0,0-2.19-.5,2.52,2.52,0,0,0-1.3.271.838.838,0,0,0-.439.747.91.91,0,0,0,.165.549,1.626,1.626,0,0,0,.531.432,11.867,11.867,0,0,0,1.406.593,5.254,5.254,0,0,1,1.93,1.047A1.847,1.847,0,0,1,52.046,13.81Zm11.338,1.113h-.066a2.857,2.857,0,0,1-2.52,1.223,2.981,2.981,0,0,1-2.45-1.077,4.739,4.739,0,0,1-.875-3.062,4.819,4.819,0,0,1,.879-3.083,2.958,2.958,0,0,1,2.446-1.1,2.919,2.919,0,0,1,2.5,1.187h.1l-.051-.579-.029-.564V4.6h1.216V16h-.989Zm-2.432.205a2.214,2.214,0,0,0,1.805-.677,3.423,3.423,0,0,0,.56-2.186v-.256a4.028,4.028,0,0,0-.568-2.435,2.156,2.156,0,0,0-1.813-.729,1.861,1.861,0,0,0-1.637.831,4.134,4.134,0,0,0-.568,2.347,3.963,3.963,0,0,0,.564,2.322A1.91,1.91,0,0,0,60.952,15.128ZM70.5,16.146a3.688,3.688,0,0,1-2.809-1.084,4.2,4.2,0,0,1-1.029-3.01,4.654,4.654,0,0,1,.956-3.083,3.175,3.175,0,0,1,2.567-1.143,3.027,3.027,0,0,1,2.388.992,3.8,3.8,0,0,1,.879,2.618v.769h-5.53a3.182,3.182,0,0,0,.714,2.146,2.47,2.47,0,0,0,1.908.732,6.466,6.466,0,0,0,2.563-.542v1.084a6.434,6.434,0,0,1-1.219.4A6.853,6.853,0,0,1,70.5,16.146Zm-.33-7.3a1.985,1.985,0,0,0-1.542.63,2.9,2.9,0,0,0-.677,1.743h4.2a2.673,2.673,0,0,0-.513-1.761A1.8,1.8,0,0,0,70.173,8.844Zm14.714,6.079h-.066a2.857,2.857,0,0,1-2.52,1.223,2.981,2.981,0,0,1-2.45-1.077,4.739,4.739,0,0,1-.875-3.062,4.819,4.819,0,0,1,.879-3.083,2.958,2.958,0,0,1,2.446-1.1,2.919,2.919,0,0,1,2.5,1.187h.1l-.051-.579-.029-.564V4.6h1.216V16h-.989Zm-2.432.205a2.214,2.214,0,0,0,1.805-.677,3.423,3.423,0,0,0,.56-2.186v-.256a4.028,4.028,0,0,0-.568-2.435,2.156,2.156,0,0,0-1.813-.729,1.861,1.861,0,0,0-1.637.831,4.134,4.134,0,0,0-.568,2.347,3.963,3.963,0,0,0,.564,2.322A1.91,1.91,0,0,0,82.456,15.128Zm11.1.872-.242-1.143h-.059a3.378,3.378,0,0,1-1.2,1.022,3.65,3.65,0,0,1-1.49.267,2.681,2.681,0,0,1-1.871-.615,2.244,2.244,0,0,1-.677-1.75q0-2.432,3.889-2.549l1.362-.044v-.5a2.035,2.035,0,0,0-.406-1.4,1.672,1.672,0,0,0-1.3-.45,5.3,5.3,0,0,0-2.271.615l-.374-.93a5.713,5.713,0,0,1,1.3-.505,5.631,5.631,0,0,1,1.417-.183,3.058,3.058,0,0,1,2.128.637,2.66,2.66,0,0,1,.692,2.043V16Zm-2.747-.857a2.468,2.468,0,0,0,1.783-.623,2.3,2.3,0,0,0,.648-1.743v-.725l-1.216.051a4.422,4.422,0,0,0-2.091.45A1.358,1.358,0,0,0,89.29,13.8a1.253,1.253,0,0,0,.4,1A1.657,1.657,0,0,0,90.806,15.143Zm8.745,0a3.972,3.972,0,0,0,.623-.048,4.03,4.03,0,0,0,.476-.1v.93a2.223,2.223,0,0,1-.582.157,4.373,4.373,0,0,1-.692.062q-2.329,0-2.329-2.454V8.917H95.9V8.332l1.15-.505.513-1.714h.7v1.86h2.329v.945H98.262v4.724a1.625,1.625,0,0,0,.344,1.113A1.2,1.2,0,0,0,99.551,15.143Zm9.631-3.164a4.428,4.428,0,0,1-.989,3.065,3.482,3.482,0,0,1-2.732,1.1,3.618,3.618,0,0,1-1.912-.505,3.335,3.335,0,0,1-1.289-1.45,5.054,5.054,0,0,1-.454-2.212,4.421,4.421,0,0,1,.981-3.058,3.471,3.471,0,0,1,2.725-1.095,3.4,3.4,0,0,1,2.677,1.121A4.409,4.409,0,0,1,109.182,11.979Zm-6.116,0a3.81,3.81,0,0,0,.615,2.344,2.442,2.442,0,0,0,3.622,0,3.791,3.791,0,0,0,.619-2.347,3.73,3.73,0,0,0-.619-2.325,2.175,2.175,0,0,0-1.827-.795,2.14,2.14,0,0,0-1.8.784A3.772,3.772,0,0,0,103.066,11.979Zm13.425,1.831a2.011,2.011,0,0,1-.835,1.729,3.925,3.925,0,0,1-2.344.608,5.1,5.1,0,0,1-2.49-.505V14.513a6.022,6.022,0,0,0,1.241.461,5.184,5.184,0,0,0,1.278.168,2.9,2.9,0,0,0,1.465-.3,1.046,1.046,0,0,0,.106-1.729,6.394,6.394,0,0,0-1.586-.787,8.6,8.6,0,0,1-1.593-.729,2.176,2.176,0,0,1-.7-.707,1.843,1.843,0,0,1-.231-.945,1.8,1.8,0,0,1,.8-1.549,3.72,3.72,0,0,1,2.19-.568,6.408,6.408,0,0,1,2.534.527l-.432.989a5.817,5.817,0,0,0-2.19-.5,2.52,2.52,0,0,0-1.3.271.838.838,0,0,0-.439.747.91.91,0,0,0,.165.549,1.626,1.626,0,0,0,.531.432,11.867,11.867,0,0,0,1.406.593,5.254,5.254,0,0,1,1.93,1.047A1.847,1.847,0,0,1,116.492,13.81Zm1.8,1.414a1.091,1.091,0,0,1,.223-.743.81.81,0,0,1,.641-.253.867.867,0,0,1,.663.253,1.046,1.046,0,0,1,.238.743,1.027,1.027,0,0,1-.242.732.961.961,0,0,1-1.278.026A1,1,0,0,1,118.293,15.224Z" transform="translate(778 14335)" fill="#00223d"/>
    <path id="Trazado_86774" data-name="Trazado 86774" d="M6.182,10.39h3.64V15.6a11.7,11.7,0,0,1-1.729.41,13.159,13.159,0,0,1-2.036.139A4.935,4.935,0,0,1,2.271,14.7,5.7,5.7,0,0,1,.916,10.646a6.125,6.125,0,0,1,.67-2.926A4.532,4.532,0,0,1,3.516,5.8a6.252,6.252,0,0,1,2.952-.663,8.066,8.066,0,0,1,3.193.63l-.483,1.1a7.134,7.134,0,0,0-2.791-.615A4,4,0,0,0,3.333,7.416a4.52,4.52,0,0,0-1.1,3.23,4.619,4.619,0,0,0,1.058,3.289A4.076,4.076,0,0,0,6.4,15.055,9.238,9.238,0,0,0,8.577,14.8V11.5h-2.4Zm9.69-2.563a4.757,4.757,0,0,1,.959.088l-.168,1.128a4.142,4.142,0,0,0-.879-.11,2.139,2.139,0,0,0-1.666.791,2.884,2.884,0,0,0-.692,1.97V16H12.209V7.973h1l.139,1.487h.059a3.529,3.529,0,0,1,1.077-1.208A2.424,2.424,0,0,1,15.872,7.826ZM23.269,16l-.242-1.143h-.059a3.378,3.378,0,0,1-1.2,1.022,3.65,3.65,0,0,1-1.49.267,2.681,2.681,0,0,1-1.871-.615,2.244,2.244,0,0,1-.677-1.75q0-2.432,3.889-2.549l1.362-.044v-.5a2.035,2.035,0,0,0-.406-1.4,1.672,1.672,0,0,0-1.3-.45,5.3,5.3,0,0,0-2.271.615l-.374-.93a5.713,5.713,0,0,1,1.3-.505,5.631,5.631,0,0,1,1.417-.183,3.058,3.058,0,0,1,2.128.637,2.66,2.66,0,0,1,.692,2.043V16Zm-2.747-.857a2.468,2.468,0,0,0,1.783-.623,2.3,2.3,0,0,0,.648-1.743v-.725l-1.216.051a4.422,4.422,0,0,0-2.091.45,1.358,1.358,0,0,0-.641,1.241,1.253,1.253,0,0,0,.4,1A1.657,1.657,0,0,0,20.522,15.143Zm9.771-6.226H28.25V16H27.034V8.917H25.6V8.368l1.436-.439V7.482q0-2.959,2.585-2.959a5.32,5.32,0,0,1,1.494.256l-.315.974a4.022,4.022,0,0,0-1.2-.227,1.17,1.17,0,0,0-1.018.458,2.555,2.555,0,0,0-.33,1.469v.52h2.043ZM32.974,16H31.758V7.973h1.216ZM31.655,5.8a.808.808,0,0,1,.205-.612.759.759,0,0,1,1.018,0,.793.793,0,0,1,.212.608.805.805,0,0,1-.212.612.744.744,0,0,1-1.018,0A.823.823,0,0,1,31.655,5.8Zm7.1,10.349a3.426,3.426,0,0,1-2.7-1.073,4.412,4.412,0,0,1-.956-3.036,4.55,4.55,0,0,1,.97-3.113,3.494,3.494,0,0,1,2.765-1.1A5.487,5.487,0,0,1,40,7.951a3.812,3.812,0,0,1,.908.293l-.374,1.033a5.717,5.717,0,0,0-.879-.267,3.924,3.924,0,0,0-.842-.106q-2.446,0-2.446,3.12a3.715,3.715,0,0,0,.6,2.271,2.077,2.077,0,0,0,1.769.791,5.408,5.408,0,0,0,2.058-.432v1.077A4.386,4.386,0,0,1,38.76,16.146ZM47.629,16l-.242-1.143h-.059a3.378,3.378,0,0,1-1.2,1.022,3.65,3.65,0,0,1-1.49.267,2.681,2.681,0,0,1-1.871-.615,2.244,2.244,0,0,1-.677-1.75q0-2.432,3.889-2.549l1.362-.044v-.5a2.035,2.035,0,0,0-.406-1.4,1.672,1.672,0,0,0-1.3-.45,5.3,5.3,0,0,0-2.271.615l-.374-.93a5.713,5.713,0,0,1,1.3-.505,5.631,5.631,0,0,1,1.417-.183,3.058,3.058,0,0,1,2.128.637,2.66,2.66,0,0,1,.692,2.043V16Zm-2.747-.857a2.468,2.468,0,0,0,1.783-.623,2.3,2.3,0,0,0,.648-1.743v-.725L46.1,12.1a4.422,4.422,0,0,0-2.091.45,1.358,1.358,0,0,0-.641,1.241,1.253,1.253,0,0,0,.4,1A1.657,1.657,0,0,0,44.883,15.143ZM54.7,7.826a4.757,4.757,0,0,1,.959.088l-.168,1.128a4.142,4.142,0,0,0-.879-.11,2.139,2.139,0,0,0-1.666.791,2.884,2.884,0,0,0-.692,1.97V16H51.035V7.973h1l.139,1.487h.059a3.529,3.529,0,0,1,1.077-1.208A2.424,2.424,0,0,1,54.7,7.826Zm10.093,8.32a3.474,3.474,0,0,1-1.432-.289,2.693,2.693,0,0,1-1.088-.89h-.088a10.767,10.767,0,0,1,.088,1.333v3.3H61.055V7.973h.989l.168,1.1h.059a2.824,2.824,0,0,1,1.091-.952,3.317,3.317,0,0,1,1.428-.293,2.967,2.967,0,0,1,2.465,1.091,4.8,4.8,0,0,1,.868,3.062,4.776,4.776,0,0,1-.883,3.073A2.972,2.972,0,0,1,64.79,16.146Zm-.176-7.288a2.155,2.155,0,0,0-1.78.681,3.505,3.505,0,0,0-.564,2.168v.271a4.017,4.017,0,0,0,.564,2.421,2.145,2.145,0,0,0,1.809.729,1.881,1.881,0,0,0,1.63-.842,3.994,3.994,0,0,0,.59-2.322,3.844,3.844,0,0,0-.59-2.3A1.939,1.939,0,0,0,64.614,8.859ZM75.183,16l-.242-1.143h-.059a3.378,3.378,0,0,1-1.2,1.022,3.65,3.65,0,0,1-1.49.267,2.681,2.681,0,0,1-1.871-.615,2.244,2.244,0,0,1-.677-1.75q0-2.432,3.889-2.549l1.362-.044v-.5a2.035,2.035,0,0,0-.406-1.4,1.672,1.672,0,0,0-1.3-.45,5.3,5.3,0,0,0-2.271.615l-.374-.93a5.713,5.713,0,0,1,1.3-.505,5.631,5.631,0,0,1,1.417-.183,3.058,3.058,0,0,1,2.128.637,2.66,2.66,0,0,1,.692,2.043V16Zm-2.747-.857a2.468,2.468,0,0,0,1.783-.623,2.3,2.3,0,0,0,.648-1.743v-.725l-1.216.051a4.422,4.422,0,0,0-2.091.45A1.358,1.358,0,0,0,70.92,13.8a1.253,1.253,0,0,0,.4,1A1.657,1.657,0,0,0,72.437,15.143Zm9.814-7.317a4.757,4.757,0,0,1,.959.088l-.168,1.128a4.142,4.142,0,0,0-.879-.11,2.139,2.139,0,0,0-1.666.791,2.884,2.884,0,0,0-.692,1.97V16H78.589V7.973h1l.139,1.487h.059a3.529,3.529,0,0,1,1.077-1.208A2.424,2.424,0,0,1,82.251,7.826Zm5.852,8.32a3.688,3.688,0,0,1-2.809-1.084,4.2,4.2,0,0,1-1.029-3.01,4.654,4.654,0,0,1,.956-3.083,3.175,3.175,0,0,1,2.567-1.143,3.027,3.027,0,0,1,2.388.992,3.8,3.8,0,0,1,.879,2.618v.769h-5.53a3.182,3.182,0,0,0,.714,2.146,2.47,2.47,0,0,0,1.908.732,6.466,6.466,0,0,0,2.563-.542v1.084a6.434,6.434,0,0,1-1.219.4A6.853,6.853,0,0,1,88.1,16.146Zm-.33-7.3a1.985,1.985,0,0,0-1.542.63,2.9,2.9,0,0,0-.677,1.743h4.2a2.673,2.673,0,0,0-.513-1.761A1.8,1.8,0,0,0,87.773,8.844ZM92.153,19.6a2.926,2.926,0,0,1-1.128-.183v-.989a3.566,3.566,0,0,0,1,.146,1.047,1.047,0,0,0,.839-.311,1.428,1.428,0,0,0,.267-.948V7.973h1.216V17.23Q94.343,19.6,92.153,19.6ZM93.025,5.8a.808.808,0,0,1,.205-.612.759.759,0,0,1,1.018,0,.793.793,0,0,1,.212.608.805.805,0,0,1-.212.612.744.744,0,0,1-1.018,0A.823.823,0,0,1,93.025,5.8ZM101.858,16l-.242-1.143h-.059a3.378,3.378,0,0,1-1.2,1.022,3.65,3.65,0,0,1-1.49.267A2.681,2.681,0,0,1,97,15.531a2.244,2.244,0,0,1-.677-1.75q0-2.432,3.889-2.549l1.362-.044v-.5a2.035,2.035,0,0,0-.406-1.4,1.672,1.672,0,0,0-1.3-.45,5.3,5.3,0,0,0-2.271.615l-.374-.93a5.713,5.713,0,0,1,1.3-.505,5.631,5.631,0,0,1,1.417-.183,3.058,3.058,0,0,1,2.128.637,2.66,2.66,0,0,1,.692,2.043V16Zm-2.747-.857a2.468,2.468,0,0,0,1.783-.623,2.3,2.3,0,0,0,.648-1.743v-.725l-1.216.051a4.422,4.422,0,0,0-2.091.45A1.358,1.358,0,0,0,97.6,13.8a1.253,1.253,0,0,0,.4,1A1.657,1.657,0,0,0,99.111,15.143Zm11.331-1.333a2.011,2.011,0,0,1-.835,1.729,3.925,3.925,0,0,1-2.344.608,5.1,5.1,0,0,1-2.49-.505V14.513a6.022,6.022,0,0,0,1.241.461,5.184,5.184,0,0,0,1.278.168,2.9,2.9,0,0,0,1.465-.3,1.046,1.046,0,0,0,.106-1.729,6.394,6.394,0,0,0-1.586-.787,8.6,8.6,0,0,1-1.593-.729,2.176,2.176,0,0,1-.7-.707,1.843,1.843,0,0,1-.231-.945,1.8,1.8,0,0,1,.8-1.549,3.72,3.72,0,0,1,2.19-.568,6.408,6.408,0,0,1,2.534.527l-.432.989a5.817,5.817,0,0,0-2.19-.5,2.52,2.52,0,0,0-1.3.271.838.838,0,0,0-.439.747.91.91,0,0,0,.165.549,1.626,1.626,0,0,0,.531.432,11.867,11.867,0,0,0,1.406.593,5.254,5.254,0,0,1,1.93,1.047A1.847,1.847,0,0,1,110.442,13.81Zm11.338,1.113h-.066a2.857,2.857,0,0,1-2.52,1.223,2.981,2.981,0,0,1-2.45-1.077,4.739,4.739,0,0,1-.875-3.062,4.819,4.819,0,0,1,.879-3.083,2.958,2.958,0,0,1,2.446-1.1,2.919,2.919,0,0,1,2.5,1.187h.1l-.051-.579-.029-.564V4.6h1.216V16h-.989Zm-2.432.205a2.214,2.214,0,0,0,1.805-.677,3.423,3.423,0,0,0,.56-2.186v-.256a4.028,4.028,0,0,0-.568-2.435,2.156,2.156,0,0,0-1.813-.729,1.861,1.861,0,0,0-1.637.831,4.134,4.134,0,0,0-.568,2.347,3.963,3.963,0,0,0,.564,2.322A1.91,1.91,0,0,0,119.348,15.128Zm9.551,1.018a3.688,3.688,0,0,1-2.809-1.084,4.2,4.2,0,0,1-1.029-3.01,4.654,4.654,0,0,1,.956-3.083,3.175,3.175,0,0,1,2.567-1.143,3.027,3.027,0,0,1,2.388.992,3.8,3.8,0,0,1,.879,2.618v.769h-5.53a3.182,3.182,0,0,0,.714,2.146,2.47,2.47,0,0,0,1.908.732,6.466,6.466,0,0,0,2.563-.542v1.084a6.434,6.434,0,0,1-1.219.4A6.853,6.853,0,0,1,128.9,16.146Zm-.33-7.3a1.985,1.985,0,0,0-1.542.63,2.9,2.9,0,0,0-.677,1.743h4.2a2.673,2.673,0,0,0-.513-1.761A1.8,1.8,0,0,0,128.569,8.844Zm14.714,6.079h-.066a2.857,2.857,0,0,1-2.52,1.223,2.981,2.981,0,0,1-2.45-1.077,4.739,4.739,0,0,1-.875-3.062,4.819,4.819,0,0,1,.879-3.083,2.958,2.958,0,0,1,2.446-1.1,2.919,2.919,0,0,1,2.5,1.187h.1l-.051-.579-.029-.564V4.6h1.216V16h-.989Zm-2.432.205a2.214,2.214,0,0,0,1.805-.677,3.423,3.423,0,0,0,.56-2.186v-.256a4.028,4.028,0,0,0-.568-2.435,2.156,2.156,0,0,0-1.813-.729,1.861,1.861,0,0,0-1.637.831,4.134,4.134,0,0,0-.568,2.347,3.963,3.963,0,0,0,.564,2.322A1.91,1.91,0,0,0,140.852,15.128Zm11.1.872-.242-1.143h-.059a3.378,3.378,0,0,1-1.2,1.022,3.65,3.65,0,0,1-1.49.267,2.681,2.681,0,0,1-1.871-.615,2.244,2.244,0,0,1-.677-1.75q0-2.432,3.889-2.549l1.362-.044v-.5a2.035,2.035,0,0,0-.406-1.4,1.672,1.672,0,0,0-1.3-.45,5.3,5.3,0,0,0-2.271.615l-.374-.93a5.713,5.713,0,0,1,1.3-.505,5.631,5.631,0,0,1,1.417-.183,3.058,3.058,0,0,1,2.128.637,2.66,2.66,0,0,1,.692,2.043V16Zm-2.747-.857a2.468,2.468,0,0,0,1.783-.623,2.3,2.3,0,0,0,.648-1.743v-.725l-1.216.051a4.422,4.422,0,0,0-2.091.45,1.358,1.358,0,0,0-.641,1.241,1.253,1.253,0,0,0,.4,1A1.657,1.657,0,0,0,149.2,15.143Zm8.745,0a3.972,3.972,0,0,0,.623-.048,4.03,4.03,0,0,0,.476-.1v.93a2.223,2.223,0,0,1-.582.157,4.373,4.373,0,0,1-.692.062q-2.329,0-2.329-2.454V8.917h-1.15V8.332l1.15-.505.513-1.714h.7v1.86h2.329v.945h-2.329v4.724A1.625,1.625,0,0,0,157,14.755,1.2,1.2,0,0,0,157.947,15.143Zm9.631-3.164a4.428,4.428,0,0,1-.989,3.065,3.482,3.482,0,0,1-2.732,1.1,3.618,3.618,0,0,1-1.912-.505,3.335,3.335,0,0,1-1.289-1.45,5.054,5.054,0,0,1-.454-2.212,4.421,4.421,0,0,1,.981-3.058,3.471,3.471,0,0,1,2.725-1.095,3.4,3.4,0,0,1,2.677,1.121A4.409,4.409,0,0,1,167.578,11.979Zm-6.116,0a3.81,3.81,0,0,0,.615,2.344,2.442,2.442,0,0,0,3.622,0,3.791,3.791,0,0,0,.619-2.347,3.73,3.73,0,0,0-.619-2.325,2.175,2.175,0,0,0-1.827-.795,2.14,2.14,0,0,0-1.8.784A3.772,3.772,0,0,0,161.462,11.979Zm13.425,1.831a2.011,2.011,0,0,1-.835,1.729,3.925,3.925,0,0,1-2.344.608,5.1,5.1,0,0,1-2.49-.505V14.513a6.022,6.022,0,0,0,1.241.461,5.184,5.184,0,0,0,1.278.168,2.9,2.9,0,0,0,1.465-.3,1.046,1.046,0,0,0,.106-1.729,6.394,6.394,0,0,0-1.586-.787,8.6,8.6,0,0,1-1.593-.729,2.176,2.176,0,0,1-.7-.707,1.843,1.843,0,0,1-.231-.945,1.8,1.8,0,0,1,.8-1.549,3.72,3.72,0,0,1,2.19-.568,6.408,6.408,0,0,1,2.534.527l-.432.989a5.817,5.817,0,0,0-2.19-.5,2.52,2.52,0,0,0-1.3.271.838.838,0,0,0-.439.747.91.91,0,0,0,.165.549,1.626,1.626,0,0,0,.531.432,11.867,11.867,0,0,0,1.406.593,5.254,5.254,0,0,1,1.93,1.047A1.847,1.847,0,0,1,174.888,13.81Zm1.8,1.414a1.091,1.091,0,0,1,.223-.743.81.81,0,0,1,.641-.253.867.867,0,0,1,.663.253,1.046,1.046,0,0,1,.238.743,1.027,1.027,0,0,1-.242.732.961.961,0,0,1-1.278.026A1,1,0,0,1,176.689,15.224Z" transform="translate(778 14295)" fill="#00223d"/>
    <path id="Trazado_86775" data-name="Trazado 86775" d="M4.768,16H3.523V6.4H.132V5.292H8.159V6.4H4.768ZM13.25,7.826a4.757,4.757,0,0,1,.959.088l-.168,1.128a4.142,4.142,0,0,0-.879-.11,2.139,2.139,0,0,0-1.666.791,2.884,2.884,0,0,0-.692,1.97V16H9.587V7.973h1l.139,1.487h.059a3.529,3.529,0,0,1,1.077-1.208A2.424,2.424,0,0,1,13.25,7.826ZM20.647,16l-.242-1.143h-.059a3.378,3.378,0,0,1-1.2,1.022,3.65,3.65,0,0,1-1.49.267,2.681,2.681,0,0,1-1.871-.615,2.244,2.244,0,0,1-.677-1.75q0-2.432,3.889-2.549l1.362-.044v-.5a2.035,2.035,0,0,0-.406-1.4,1.672,1.672,0,0,0-1.3-.45,5.3,5.3,0,0,0-2.271.615l-.374-.93a5.713,5.713,0,0,1,1.3-.505,5.631,5.631,0,0,1,1.417-.183,3.058,3.058,0,0,1,2.128.637,2.66,2.66,0,0,1,.692,2.043V16ZM17.9,15.143a2.468,2.468,0,0,0,1.783-.623,2.3,2.3,0,0,0,.648-1.743v-.725l-1.216.051a4.422,4.422,0,0,0-2.091.45,1.358,1.358,0,0,0-.641,1.241,1.253,1.253,0,0,0,.4,1A1.657,1.657,0,0,0,17.9,15.143ZM29.187,16H23.364v-.828l4.38-6.255H23.635V7.973h5.442v.945l-4.321,6.138h4.431Zm6.819,0-.242-1.143h-.059a3.378,3.378,0,0,1-1.2,1.022,3.65,3.65,0,0,1-1.49.267,2.681,2.681,0,0,1-1.871-.615,2.244,2.244,0,0,1-.677-1.75q0-2.432,3.889-2.549l1.362-.044v-.5a2.035,2.035,0,0,0-.406-1.4,1.672,1.672,0,0,0-1.3-.45,5.3,5.3,0,0,0-2.271.615l-.374-.93a5.713,5.713,0,0,1,1.3-.505,5.631,5.631,0,0,1,1.417-.183,3.058,3.058,0,0,1,2.128.637,2.66,2.66,0,0,1,.692,2.043V16Zm-2.747-.857a2.468,2.468,0,0,0,1.783-.623,2.3,2.3,0,0,0,.648-1.743v-.725l-1.216.051a4.422,4.422,0,0,0-2.091.45,1.358,1.358,0,0,0-.641,1.241,1.253,1.253,0,0,0,.4,1A1.657,1.657,0,0,0,33.259,15.143Zm9.814-7.317a4.757,4.757,0,0,1,.959.088l-.168,1.128a4.142,4.142,0,0,0-.879-.11,2.139,2.139,0,0,0-1.666.791,2.884,2.884,0,0,0-.692,1.97V16H39.412V7.973h1l.139,1.487h.059a3.529,3.529,0,0,1,1.077-1.208A2.424,2.424,0,0,1,43.074,7.826Zm9.749,8.32a3.688,3.688,0,0,1-2.809-1.084,4.2,4.2,0,0,1-1.029-3.01,4.654,4.654,0,0,1,.956-3.083,3.175,3.175,0,0,1,2.567-1.143,3.027,3.027,0,0,1,2.388.992,3.8,3.8,0,0,1,.879,2.618v.769h-5.53a3.182,3.182,0,0,0,.714,2.146,2.47,2.47,0,0,0,1.908.732,6.466,6.466,0,0,0,2.563-.542v1.084a6.434,6.434,0,0,1-1.219.4A6.853,6.853,0,0,1,52.822,16.146Zm-.33-7.3a1.985,1.985,0,0,0-1.542.63,2.9,2.9,0,0,0-.677,1.743h4.2a2.673,2.673,0,0,0-.513-1.761A1.8,1.8,0,0,0,52.493,8.844ZM56.873,19.6a2.926,2.926,0,0,1-1.128-.183v-.989a3.566,3.566,0,0,0,1,.146,1.047,1.047,0,0,0,.839-.311,1.428,1.428,0,0,0,.267-.948V7.973h1.216V17.23Q59.063,19.6,56.873,19.6ZM57.744,5.8a.808.808,0,0,1,.205-.612.759.759,0,0,1,1.018,0,.793.793,0,0,1,.212.608.805.805,0,0,1-.212.612.744.744,0,0,1-1.018,0A.823.823,0,0,1,57.744,5.8Zm7.288,10.349a3.688,3.688,0,0,1-2.809-1.084,4.2,4.2,0,0,1-1.029-3.01,4.654,4.654,0,0,1,.956-3.083,3.175,3.175,0,0,1,2.567-1.143,3.027,3.027,0,0,1,2.388.992,3.8,3.8,0,0,1,.879,2.618v.769h-5.53a3.182,3.182,0,0,0,.714,2.146,2.47,2.47,0,0,0,1.908.732,6.466,6.466,0,0,0,2.563-.542v1.084a6.434,6.434,0,0,1-1.219.4A6.853,6.853,0,0,1,65.032,16.146Zm-.33-7.3a1.985,1.985,0,0,0-1.542.63,2.9,2.9,0,0,0-.677,1.743h4.2a2.673,2.673,0,0,0-.513-1.761A1.8,1.8,0,0,0,64.7,8.844ZM81.262,16H79.849L76.97,11.291,74.041,16H72.722l3.56-5.6L72.964,5.292h1.377L77,9.533,79.68,5.292h1.326L77.688,10.36Zm3.97-8.027h1.3l1.758,4.578a17.412,17.412,0,0,1,.718,2.263h.059q.1-.374.4-1.278t1.989-5.563h1.3l-3.45,9.141a4.56,4.56,0,0,1-1.2,1.923,2.547,2.547,0,0,1-1.681.568,4.891,4.891,0,0,1-1.1-.125V18.5a4.238,4.238,0,0,0,.9.088,1.857,1.857,0,0,0,1.787-1.406l.447-1.143Zm16.121,8.174a3.688,3.688,0,0,1-2.809-1.084,4.2,4.2,0,0,1-1.029-3.01,4.654,4.654,0,0,1,.956-3.083,3.175,3.175,0,0,1,2.567-1.143,3.027,3.027,0,0,1,2.388.992,3.8,3.8,0,0,1,.879,2.618v.769h-5.53a3.182,3.182,0,0,0,.714,2.146,2.47,2.47,0,0,0,1.908.732,6.466,6.466,0,0,0,2.563-.542v1.084a6.434,6.434,0,0,1-1.219.4A6.853,6.853,0,0,1,101.353,16.146Zm-.33-7.3a1.985,1.985,0,0,0-1.542.63,2.9,2.9,0,0,0-.677,1.743H103a2.673,2.673,0,0,0-.513-1.761A1.8,1.8,0,0,0,101.023,8.844ZM105.4,19.6a2.926,2.926,0,0,1-1.128-.183v-.989a3.566,3.566,0,0,0,1,.146,1.047,1.047,0,0,0,.839-.311,1.428,1.428,0,0,0,.267-.948V7.973h1.216V17.23Q107.593,19.6,105.4,19.6ZM106.274,5.8a.808.808,0,0,1,.205-.612.759.759,0,0,1,1.018,0,.793.793,0,0,1,.212.608.805.805,0,0,1-.212.612.744.744,0,0,1-1.018,0A.823.823,0,0,1,106.274,5.8Zm7.288,10.349a3.688,3.688,0,0,1-2.809-1.084,4.2,4.2,0,0,1-1.029-3.01,4.654,4.654,0,0,1,.956-3.083,3.175,3.175,0,0,1,2.567-1.143,3.027,3.027,0,0,1,2.388.992,3.8,3.8,0,0,1,.879,2.618v.769h-5.53a3.182,3.182,0,0,0,.714,2.146,2.47,2.47,0,0,0,1.908.732,6.466,6.466,0,0,0,2.563-.542v1.084a6.434,6.434,0,0,1-1.219.4A6.853,6.853,0,0,1,113.562,16.146Zm-.33-7.3a1.985,1.985,0,0,0-1.542.63,2.9,2.9,0,0,0-.677,1.743h4.2a2.673,2.673,0,0,0-.513-1.761A1.8,1.8,0,0,0,113.232,8.844Zm12.158,1.8,2.856-5.354h1.348l-3.574,6.555V16h-1.26V11.906l-3.567-6.614h1.362Zm6.768,3.611.11.168q-.19.732-.549,1.7t-.747,1.805h-.916q.2-.762.436-1.882t.333-1.794Zm8.892.886a3.972,3.972,0,0,0,.623-.048,4.03,4.03,0,0,0,.476-.1v.93a2.223,2.223,0,0,1-.582.157,4.373,4.373,0,0,1-.692.062q-2.329,0-2.329-2.454V8.917H137.4V8.332l1.15-.505.513-1.714h.7v1.86h2.329v.945h-2.329v4.724a1.625,1.625,0,0,0,.344,1.113A1.2,1.2,0,0,0,141.05,15.143Zm6.094,1a3.688,3.688,0,0,1-2.809-1.084,4.2,4.2,0,0,1-1.029-3.01,4.654,4.654,0,0,1,.956-3.083,3.175,3.175,0,0,1,2.567-1.143,3.027,3.027,0,0,1,2.388.992,3.8,3.8,0,0,1,.879,2.618v.769h-5.53a3.182,3.182,0,0,0,.714,2.146,2.47,2.47,0,0,0,1.908.732,6.466,6.466,0,0,0,2.563-.542v1.084a6.434,6.434,0,0,1-1.219.4A6.853,6.853,0,0,1,147.144,16.146Zm-.33-7.3a1.985,1.985,0,0,0-1.542.63,2.9,2.9,0,0,0-.677,1.743h4.2a2.673,2.673,0,0,0-.513-1.761A1.8,1.8,0,0,0,146.814,8.844ZM157.661,16V10.807a2.1,2.1,0,0,0-.447-1.465,1.82,1.82,0,0,0-1.4-.483,2.307,2.307,0,0,0-1.846.681,3.439,3.439,0,0,0-.586,2.249V16h-1.216V7.973h.989l.2,1.1h.059a2.483,2.483,0,0,1,1.047-.919,3.4,3.4,0,0,1,1.5-.326,3.049,3.049,0,0,1,2.183.7,2.977,2.977,0,0,1,.732,2.238V16Zm4.929,0h-1.216V7.973h1.216ZM161.272,5.8a.808.808,0,0,1,.205-.612.759.759,0,0,1,1.018,0,.793.793,0,0,1,.212.608.805.805,0,0,1-.212.612.744.744,0,0,1-1.018,0A.823.823,0,0,1,161.272,5.8Zm7.288,10.349a3.688,3.688,0,0,1-2.809-1.084,4.2,4.2,0,0,1-1.029-3.01,4.654,4.654,0,0,1,.956-3.083,3.175,3.175,0,0,1,2.567-1.143,3.027,3.027,0,0,1,2.388.992,3.8,3.8,0,0,1,.879,2.618v.769h-5.53a3.182,3.182,0,0,0,.714,2.146,2.47,2.47,0,0,0,1.908.732,6.466,6.466,0,0,0,2.563-.542v1.084a6.434,6.434,0,0,1-1.219.4A6.853,6.853,0,0,1,168.56,16.146Zm-.33-7.3a1.985,1.985,0,0,0-1.542.63,2.9,2.9,0,0,0-.677,1.743h4.2a2.673,2.673,0,0,0-.513-1.761A1.8,1.8,0,0,0,168.23,8.844ZM179.077,16V10.807a2.1,2.1,0,0,0-.447-1.465,1.82,1.82,0,0,0-1.4-.483,2.307,2.307,0,0,0-1.846.681,3.439,3.439,0,0,0-.586,2.249V16h-1.216V7.973h.989l.2,1.1h.059a2.483,2.483,0,0,1,1.047-.919,3.4,3.4,0,0,1,1.5-.326,3.049,3.049,0,0,1,2.183.7,2.977,2.977,0,0,1,.732,2.238V16Zm9.177-1.077h-.066a2.857,2.857,0,0,1-2.52,1.223,2.981,2.981,0,0,1-2.45-1.077,4.739,4.739,0,0,1-.875-3.062,4.819,4.819,0,0,1,.879-3.083,2.958,2.958,0,0,1,2.446-1.1,2.919,2.919,0,0,1,2.5,1.187h.1l-.051-.579-.029-.564V4.6H189.4V16h-.989Zm-2.432.205a2.214,2.214,0,0,0,1.805-.677,3.423,3.423,0,0,0,.56-2.186v-.256a4.028,4.028,0,0,0-.568-2.435,2.156,2.156,0,0,0-1.813-.729,1.861,1.861,0,0,0-1.637.831,4.134,4.134,0,0,0-.568,2.347,3.963,3.963,0,0,0,.564,2.322A1.91,1.91,0,0,0,185.823,15.128Zm13.088-3.149a4.428,4.428,0,0,1-.989,3.065,3.482,3.482,0,0,1-2.732,1.1,3.618,3.618,0,0,1-1.912-.505,3.335,3.335,0,0,1-1.289-1.45,5.054,5.054,0,0,1-.454-2.212,4.421,4.421,0,0,1,.981-3.058,3.471,3.471,0,0,1,2.725-1.095,3.4,3.4,0,0,1,2.677,1.121A4.409,4.409,0,0,1,198.911,11.979Zm-6.116,0a3.81,3.81,0,0,0,.615,2.344,2.442,2.442,0,0,0,3.622,0,3.791,3.791,0,0,0,.619-2.347,3.73,3.73,0,0,0-.619-2.325,2.175,2.175,0,0,0-1.827-.795,2.14,2.14,0,0,0-1.8.784A3.772,3.772,0,0,0,192.8,11.979Zm15.535,4.167a3.688,3.688,0,0,1-2.809-1.084,4.2,4.2,0,0,1-1.029-3.01,4.654,4.654,0,0,1,.956-3.083,3.175,3.175,0,0,1,2.567-1.143,3.027,3.027,0,0,1,2.388.992,3.8,3.8,0,0,1,.879,2.618v.769h-5.53a3.182,3.182,0,0,0,.714,2.146,2.47,2.47,0,0,0,1.908.732,6.466,6.466,0,0,0,2.563-.542v1.084a6.434,6.434,0,0,1-1.219.4A6.853,6.853,0,0,1,208.33,16.146Zm-.33-7.3a1.985,1.985,0,0,0-1.542.63,2.9,2.9,0,0,0-.677,1.743h4.2a2.673,2.673,0,0,0-.513-1.761A1.8,1.8,0,0,0,208,8.844ZM218.848,16V10.807a2.1,2.1,0,0,0-.447-1.465,1.82,1.82,0,0,0-1.4-.483,2.307,2.307,0,0,0-1.846.681,3.439,3.439,0,0,0-.586,2.249V16h-1.216V7.973h.989l.2,1.1h.059a2.483,2.483,0,0,1,1.047-.919,3.4,3.4,0,0,1,1.5-.326,3.049,3.049,0,0,1,2.183.7,2.977,2.977,0,0,1,.732,2.238V16Zm10.818.146a3.426,3.426,0,0,1-2.7-1.073,4.412,4.412,0,0,1-.956-3.036,4.55,4.55,0,0,1,.97-3.113,3.494,3.494,0,0,1,2.765-1.1,5.487,5.487,0,0,1,1.157.125,3.812,3.812,0,0,1,.908.293l-.374,1.033a5.717,5.717,0,0,0-.879-.267,3.924,3.924,0,0,0-.842-.106q-2.446,0-2.446,3.12a3.715,3.715,0,0,0,.6,2.271,2.077,2.077,0,0,0,1.769.791,5.408,5.408,0,0,0,2.058-.432v1.077A4.386,4.386,0,0,1,229.666,16.146Zm5.076-8.174V13.18a2.1,2.1,0,0,0,.447,1.465,1.82,1.82,0,0,0,1.4.483,2.282,2.282,0,0,0,1.842-.688,3.473,3.473,0,0,0,.582-2.249V7.973h1.216V16h-1l-.176-1.077h-.066a2.423,2.423,0,0,1-1.036.908,3.483,3.483,0,0,1-1.512.315,3.069,3.069,0,0,1-2.194-.7,2.962,2.962,0,0,1-.729-2.227V7.973ZM246.2,16.146a3.688,3.688,0,0,1-2.809-1.084,4.2,4.2,0,0,1-1.029-3.01,4.654,4.654,0,0,1,.956-3.083,3.175,3.175,0,0,1,2.567-1.143,3.027,3.027,0,0,1,2.388.992,3.8,3.8,0,0,1,.879,2.618v.769h-5.53a3.182,3.182,0,0,0,.714,2.146,2.47,2.47,0,0,0,1.908.732,6.466,6.466,0,0,0,2.563-.542v1.084a6.434,6.434,0,0,1-1.219.4A6.853,6.853,0,0,1,246.2,16.146Zm-.33-7.3a1.985,1.985,0,0,0-1.542.63,2.9,2.9,0,0,0-.677,1.743h4.2a2.673,2.673,0,0,0-.513-1.761A1.8,1.8,0,0,0,245.867,8.844ZM256.714,16V10.807a2.1,2.1,0,0,0-.447-1.465,1.82,1.82,0,0,0-1.4-.483,2.307,2.307,0,0,0-1.846.681,3.439,3.439,0,0,0-.586,2.249V16h-1.216V7.973h.989l.2,1.1h.059a2.483,2.483,0,0,1,1.047-.919,3.4,3.4,0,0,1,1.5-.326,3.049,3.049,0,0,1,2.183.7,2.977,2.977,0,0,1,.732,2.238V16Zm6.306-.857a3.972,3.972,0,0,0,.623-.048,4.03,4.03,0,0,0,.476-.1v.93a2.223,2.223,0,0,1-.582.157,4.373,4.373,0,0,1-.692.062q-2.329,0-2.329-2.454V8.917h-1.15V8.332l1.15-.505.513-1.714h.7v1.86h2.329v.945h-2.329v4.724a1.625,1.625,0,0,0,.344,1.113A1.2,1.2,0,0,0,263.02,15.143Zm7.639.857-.242-1.143h-.059a3.378,3.378,0,0,1-1.2,1.022,3.65,3.65,0,0,1-1.49.267,2.681,2.681,0,0,1-1.871-.615,2.244,2.244,0,0,1-.677-1.75q0-2.432,3.889-2.549l1.362-.044v-.5a2.035,2.035,0,0,0-.406-1.4,1.672,1.672,0,0,0-1.3-.45,5.3,5.3,0,0,0-2.271.615l-.374-.93a5.713,5.713,0,0,1,1.3-.505,5.631,5.631,0,0,1,1.417-.183,3.058,3.058,0,0,1,2.128.637,2.66,2.66,0,0,1,.692,2.043V16Zm-2.747-.857a2.468,2.468,0,0,0,1.783-.623,2.3,2.3,0,0,0,.648-1.743v-.725l-1.216.051a4.422,4.422,0,0,0-2.091.45A1.358,1.358,0,0,0,266.4,13.8a1.253,1.253,0,0,0,.4,1A1.657,1.657,0,0,0,267.913,15.143ZM279.177,16h-1.216V4.6h1.216Zm7.515,0-.242-1.143h-.059a3.378,3.378,0,0,1-1.2,1.022,3.65,3.65,0,0,1-1.49.267,2.681,2.681,0,0,1-1.871-.615,2.244,2.244,0,0,1-.677-1.75q0-2.432,3.889-2.549l1.362-.044v-.5a2.035,2.035,0,0,0-.406-1.4,1.672,1.672,0,0,0-1.3-.45,5.3,5.3,0,0,0-2.271.615l-.374-.93a5.713,5.713,0,0,1,1.3-.505,5.631,5.631,0,0,1,1.417-.183,3.058,3.058,0,0,1,2.128.637,2.66,2.66,0,0,1,.692,2.043V16Zm-2.747-.857a2.468,2.468,0,0,0,1.783-.623,2.3,2.3,0,0,0,.648-1.743v-.725l-1.216.051a4.422,4.422,0,0,0-2.091.45,1.358,1.358,0,0,0-.641,1.241,1.253,1.253,0,0,0,.4,1A1.657,1.657,0,0,0,283.945,15.143Zm13.44,1a3.688,3.688,0,0,1-2.809-1.084,4.2,4.2,0,0,1-1.029-3.01,4.654,4.654,0,0,1,.956-3.083,3.175,3.175,0,0,1,2.567-1.143,3.027,3.027,0,0,1,2.388.992,3.8,3.8,0,0,1,.879,2.618v.769h-5.53a3.182,3.182,0,0,0,.714,2.146,2.47,2.47,0,0,0,1.908.732,6.466,6.466,0,0,0,2.563-.542v1.084a6.434,6.434,0,0,1-1.219.4A6.853,6.853,0,0,1,297.385,16.146Zm-.33-7.3a1.985,1.985,0,0,0-1.542.63,2.9,2.9,0,0,0-.677,1.743h4.2a2.673,2.673,0,0,0-.513-1.761A1.8,1.8,0,0,0,297.056,8.844Zm10.532,4.966a2.011,2.011,0,0,1-.835,1.729,3.925,3.925,0,0,1-2.344.608,5.1,5.1,0,0,1-2.49-.505V14.513a6.022,6.022,0,0,0,1.241.461,5.184,5.184,0,0,0,1.278.168,2.9,2.9,0,0,0,1.465-.3,1.046,1.046,0,0,0,.106-1.729,6.394,6.394,0,0,0-1.586-.787,8.6,8.6,0,0,1-1.593-.729,2.176,2.176,0,0,1-.7-.707,1.843,1.843,0,0,1-.231-.945,1.8,1.8,0,0,1,.8-1.549,3.72,3.72,0,0,1,2.19-.568,6.408,6.408,0,0,1,2.534.527l-.432.989a5.817,5.817,0,0,0-2.19-.5,2.52,2.52,0,0,0-1.3.271.838.838,0,0,0-.439.747.91.91,0,0,0,.165.549,1.626,1.626,0,0,0,.531.432,11.867,11.867,0,0,0,1.406.593,5.254,5.254,0,0,1,1.93,1.047A1.847,1.847,0,0,1,307.588,13.81Zm5.186,2.336a3.426,3.426,0,0,1-2.7-1.073,4.412,4.412,0,0,1-.956-3.036,4.55,4.55,0,0,1,.97-3.113,3.494,3.494,0,0,1,2.765-1.1,5.487,5.487,0,0,1,1.157.125,3.812,3.812,0,0,1,.908.293l-.374,1.033a5.717,5.717,0,0,0-.879-.267,3.924,3.924,0,0,0-.842-.106q-2.446,0-2.446,3.12a3.715,3.715,0,0,0,.6,2.271,2.077,2.077,0,0,0,1.769.791,5.408,5.408,0,0,0,2.058-.432v1.077A4.386,4.386,0,0,1,312.773,16.146Zm8.87-.146-.242-1.143h-.059a3.378,3.378,0,0,1-1.2,1.022,3.65,3.65,0,0,1-1.49.267,2.681,2.681,0,0,1-1.871-.615,2.244,2.244,0,0,1-.677-1.75q0-2.432,3.889-2.549l1.362-.044v-.5a2.035,2.035,0,0,0-.406-1.4,1.672,1.672,0,0,0-1.3-.45,5.3,5.3,0,0,0-2.271.615l-.374-.93a5.713,5.713,0,0,1,1.3-.505,5.631,5.631,0,0,1,1.417-.183,3.058,3.058,0,0,1,2.128.637,2.66,2.66,0,0,1,.692,2.043V16Zm-2.747-.857a2.468,2.468,0,0,0,1.783-.623,2.3,2.3,0,0,0,.648-1.743v-.725l-1.216.051a4.422,4.422,0,0,0-2.091.45,1.358,1.358,0,0,0-.641,1.241,1.253,1.253,0,0,0,.4,1A1.657,1.657,0,0,0,318.9,15.143Zm7.368.857h-1.216V4.6h1.216Zm7.515,0-.242-1.143h-.059a3.378,3.378,0,0,1-1.2,1.022,3.65,3.65,0,0,1-1.49.267,2.681,2.681,0,0,1-1.871-.615,2.244,2.244,0,0,1-.677-1.75q0-2.432,3.889-2.549l1.362-.044v-.5a2.035,2.035,0,0,0-.406-1.4,1.672,1.672,0,0,0-1.3-.45,5.3,5.3,0,0,0-2.271.615l-.374-.93a5.713,5.713,0,0,1,1.3-.505,5.631,5.631,0,0,1,1.417-.183,3.058,3.058,0,0,1,2.128.637,2.66,2.66,0,0,1,.692,2.043V16Zm-2.747-.857a2.468,2.468,0,0,0,1.783-.623,2.3,2.3,0,0,0,.648-1.743v-.725l-1.216.051a4.422,4.422,0,0,0-2.091.45,1.358,1.358,0,0,0-.641,1.241,1.253,1.253,0,0,0,.4,1A1.657,1.657,0,0,0,331.033,15.143Zm13.784,1a3.474,3.474,0,0,1-1.432-.289,2.693,2.693,0,0,1-1.088-.89h-.088A10.767,10.767,0,0,1,342.3,16.3v3.3h-1.216V7.973h.989l.168,1.1h.059a2.824,2.824,0,0,1,1.091-.952,3.317,3.317,0,0,1,1.428-.293,2.967,2.967,0,0,1,2.465,1.091,4.8,4.8,0,0,1,.868,3.062,4.776,4.776,0,0,1-.883,3.073A2.972,2.972,0,0,1,344.817,16.146Zm-.176-7.288a2.155,2.155,0,0,0-1.78.681,3.505,3.505,0,0,0-.564,2.168v.271a4.017,4.017,0,0,0,.564,2.421,2.145,2.145,0,0,0,1.809.729,1.881,1.881,0,0,0,1.63-.842,3.994,3.994,0,0,0,.59-2.322,3.844,3.844,0,0,0-.59-2.3A1.939,1.939,0,0,0,344.641,8.859ZM355.21,16l-.242-1.143h-.059a3.378,3.378,0,0,1-1.2,1.022,3.65,3.65,0,0,1-1.49.267,2.681,2.681,0,0,1-1.871-.615,2.244,2.244,0,0,1-.677-1.75q0-2.432,3.889-2.549l1.362-.044v-.5a2.035,2.035,0,0,0-.406-1.4,1.672,1.672,0,0,0-1.3-.45,5.3,5.3,0,0,0-2.271.615l-.374-.93a5.713,5.713,0,0,1,1.3-.505,5.631,5.631,0,0,1,1.417-.183,3.058,3.058,0,0,1,2.128.637,2.66,2.66,0,0,1,.692,2.043V16Zm-2.747-.857a2.468,2.468,0,0,0,1.783-.623,2.3,2.3,0,0,0,.648-1.743v-.725l-1.216.051a4.422,4.422,0,0,0-2.091.45,1.358,1.358,0,0,0-.641,1.241,1.253,1.253,0,0,0,.4,1A1.657,1.657,0,0,0,352.463,15.143Zm9.814-7.317a4.757,4.757,0,0,1,.959.088l-.168,1.128a4.142,4.142,0,0,0-.879-.11,2.139,2.139,0,0,0-1.666.791,2.884,2.884,0,0,0-.692,1.97V16h-1.216V7.973h1l.139,1.487h.059a3.529,3.529,0,0,1,1.077-1.208A2.424,2.424,0,0,1,362.278,7.826Zm7.4,8.174-.242-1.143h-.059a3.378,3.378,0,0,1-1.2,1.022,3.65,3.65,0,0,1-1.49.267,2.681,2.681,0,0,1-1.871-.615,2.244,2.244,0,0,1-.677-1.75q0-2.432,3.889-2.549l1.362-.044v-.5a2.035,2.035,0,0,0-.406-1.4,1.672,1.672,0,0,0-1.3-.45,5.3,5.3,0,0,0-2.271.615l-.374-.93a5.713,5.713,0,0,1,1.3-.505,5.631,5.631,0,0,1,1.417-.183,3.058,3.058,0,0,1,2.128.637,2.66,2.66,0,0,1,.692,2.043V16Zm-2.747-.857a2.468,2.468,0,0,0,1.783-.623,2.3,2.3,0,0,0,.648-1.743v-.725l-1.216.051a4.422,4.422,0,0,0-2.091.45,1.358,1.358,0,0,0-.641,1.241,1.253,1.253,0,0,0,.4,1A1.657,1.657,0,0,0,366.929,15.143Zm13.784,1a3.474,3.474,0,0,1-1.432-.289,2.693,2.693,0,0,1-1.088-.89h-.088a10.767,10.767,0,0,1,.088,1.333v3.3h-1.216V7.973h.989l.168,1.1h.059a2.824,2.824,0,0,1,1.091-.952,3.317,3.317,0,0,1,1.428-.293,2.967,2.967,0,0,1,2.465,1.091,4.8,4.8,0,0,1,.868,3.062,4.776,4.776,0,0,1-.883,3.073A2.972,2.972,0,0,1,380.713,16.146Zm-.176-7.288a2.155,2.155,0,0,0-1.78.681,3.505,3.505,0,0,0-.564,2.168v.271a4.017,4.017,0,0,0,.564,2.421,2.145,2.145,0,0,0,1.809.729,1.881,1.881,0,0,0,1.63-.842,3.994,3.994,0,0,0,.59-2.322,3.844,3.844,0,0,0-.59-2.3A1.939,1.939,0,0,0,380.537,8.859Zm12.561,3.12a4.428,4.428,0,0,1-.989,3.065,3.482,3.482,0,0,1-2.732,1.1,3.618,3.618,0,0,1-1.912-.505,3.335,3.335,0,0,1-1.289-1.45,5.054,5.054,0,0,1-.454-2.212,4.421,4.421,0,0,1,.981-3.058,3.471,3.471,0,0,1,2.725-1.095,3.4,3.4,0,0,1,2.677,1.121A4.409,4.409,0,0,1,393.1,11.979Zm-6.116,0a3.81,3.81,0,0,0,.615,2.344,2.442,2.442,0,0,0,3.622,0,3.791,3.791,0,0,0,.619-2.347,3.73,3.73,0,0,0-.619-2.325,2.175,2.175,0,0,0-1.827-.795,2.14,2.14,0,0,0-1.8.784A3.772,3.772,0,0,0,386.982,11.979Zm13.711,2.944h-.066a2.857,2.857,0,0,1-2.52,1.223,2.981,2.981,0,0,1-2.45-1.077,4.739,4.739,0,0,1-.875-3.062,4.819,4.819,0,0,1,.879-3.083,2.958,2.958,0,0,1,2.446-1.1,2.919,2.919,0,0,1,2.5,1.187h.1l-.051-.579-.029-.564V4.6h1.216V16h-.989Zm-2.432.205a2.214,2.214,0,0,0,1.805-.677,3.423,3.423,0,0,0,.56-2.186v-.256a4.028,4.028,0,0,0-.568-2.435,2.156,2.156,0,0,0-1.813-.729,1.861,1.861,0,0,0-1.637.831,4.134,4.134,0,0,0-.568,2.347,3.963,3.963,0,0,0,.564,2.322A1.91,1.91,0,0,0,398.262,15.128Zm9.551,1.018A3.688,3.688,0,0,1,405,15.063a4.2,4.2,0,0,1-1.029-3.01,4.654,4.654,0,0,1,.956-3.083A3.175,3.175,0,0,1,407.5,7.826a3.027,3.027,0,0,1,2.388.992,3.8,3.8,0,0,1,.879,2.618v.769h-5.53a3.182,3.182,0,0,0,.714,2.146,2.47,2.47,0,0,0,1.908.732,6.466,6.466,0,0,0,2.563-.542v1.084a6.434,6.434,0,0,1-1.219.4A6.853,6.853,0,0,1,407.813,16.146Zm-.33-7.3a1.985,1.985,0,0,0-1.542.63,2.9,2.9,0,0,0-.677,1.743h4.2a2.673,2.673,0,0,0-.513-1.761A1.8,1.8,0,0,0,407.483,8.844ZM416.5,7.826a4.757,4.757,0,0,1,.959.088l-.168,1.128a4.142,4.142,0,0,0-.879-.11,2.139,2.139,0,0,0-1.666.791,2.884,2.884,0,0,0-.692,1.97V16h-1.216V7.973h1l.139,1.487h.059a3.529,3.529,0,0,1,1.077-1.208A2.424,2.424,0,0,1,416.5,7.826Zm10.02,0a4.757,4.757,0,0,1,.959.088l-.168,1.128a4.142,4.142,0,0,0-.879-.11,2.139,2.139,0,0,0-1.666.791,2.884,2.884,0,0,0-.692,1.97V16h-1.216V7.973h1L424,9.459h.059a3.529,3.529,0,0,1,1.077-1.208A2.424,2.424,0,0,1,426.519,7.826Zm5.852,8.32a3.688,3.688,0,0,1-2.809-1.084,4.2,4.2,0,0,1-1.029-3.01,4.654,4.654,0,0,1,.956-3.083,3.175,3.175,0,0,1,2.567-1.143,3.027,3.027,0,0,1,2.388.992,3.8,3.8,0,0,1,.879,2.618v.769h-5.53a3.182,3.182,0,0,0,.714,2.146,2.47,2.47,0,0,0,1.908.732,6.466,6.466,0,0,0,2.563-.542v1.084a6.434,6.434,0,0,1-1.219.4A6.853,6.853,0,0,1,432.371,16.146Zm-.33-7.3a1.985,1.985,0,0,0-1.542.63,2.9,2.9,0,0,0-.677,1.743h4.2a2.673,2.673,0,0,0-.513-1.761A1.8,1.8,0,0,0,432.041,8.844Zm9.089,7.3a3.474,3.474,0,0,1-1.432-.289,2.693,2.693,0,0,1-1.088-.89h-.088a10.767,10.767,0,0,1,.088,1.333v3.3H437.4V7.973h.989l.168,1.1h.059a2.824,2.824,0,0,1,1.091-.952,3.317,3.317,0,0,1,1.428-.293,2.967,2.967,0,0,1,2.465,1.091,4.8,4.8,0,0,1,.868,3.062,4.776,4.776,0,0,1-.883,3.073A2.972,2.972,0,0,1,441.13,16.146Zm-.176-7.288a2.155,2.155,0,0,0-1.78.681,3.505,3.505,0,0,0-.564,2.168v.271a4.017,4.017,0,0,0,.564,2.421,2.145,2.145,0,0,0,1.809.729,1.881,1.881,0,0,0,1.63-.842,3.994,3.994,0,0,0,.59-2.322,3.844,3.844,0,0,0-.59-2.3A1.939,1.939,0,0,0,440.955,8.859Zm9.294-1.033a4.757,4.757,0,0,1,.959.088l-.168,1.128a4.142,4.142,0,0,0-.879-.11,2.139,2.139,0,0,0-1.666.791,2.884,2.884,0,0,0-.692,1.97V16h-1.216V7.973h1l.139,1.487h.059a3.529,3.529,0,0,1,1.077-1.208A2.424,2.424,0,0,1,450.249,7.826Zm5.852,8.32a3.688,3.688,0,0,1-2.809-1.084,4.2,4.2,0,0,1-1.029-3.01,4.654,4.654,0,0,1,.956-3.083,3.175,3.175,0,0,1,2.567-1.143,3.027,3.027,0,0,1,2.388.992,3.8,3.8,0,0,1,.879,2.618v.769h-5.53a3.182,3.182,0,0,0,.714,2.146,2.47,2.47,0,0,0,1.908.732,6.466,6.466,0,0,0,2.563-.542v1.084a6.434,6.434,0,0,1-1.219.4A6.853,6.853,0,0,1,456.1,16.146Zm-.33-7.3a1.985,1.985,0,0,0-1.542.63,2.9,2.9,0,0,0-.677,1.743h4.2a2.673,2.673,0,0,0-.513-1.761A1.8,1.8,0,0,0,455.771,8.844ZM466.3,13.81a2.011,2.011,0,0,1-.835,1.729,3.925,3.925,0,0,1-2.344.608,5.1,5.1,0,0,1-2.49-.505V14.513a6.022,6.022,0,0,0,1.241.461,5.184,5.184,0,0,0,1.278.168,2.9,2.9,0,0,0,1.465-.3,1.046,1.046,0,0,0,.106-1.729,6.394,6.394,0,0,0-1.586-.787,8.6,8.6,0,0,1-1.593-.729,2.176,2.176,0,0,1-.7-.707,1.843,1.843,0,0,1-.231-.945,1.8,1.8,0,0,1,.8-1.549,3.72,3.72,0,0,1,2.19-.568,6.408,6.408,0,0,1,2.534.527l-.432.989a5.817,5.817,0,0,0-2.19-.5,2.52,2.52,0,0,0-1.3.271.838.838,0,0,0-.439.747.91.91,0,0,0,.165.549,1.626,1.626,0,0,0,.531.432,11.867,11.867,0,0,0,1.406.593,5.254,5.254,0,0,1,1.93,1.047A1.847,1.847,0,0,1,466.3,13.81Zm5.369,2.336a3.688,3.688,0,0,1-2.809-1.084,4.2,4.2,0,0,1-1.029-3.01,4.654,4.654,0,0,1,.956-3.083,3.175,3.175,0,0,1,2.567-1.143,3.027,3.027,0,0,1,2.388.992,3.8,3.8,0,0,1,.879,2.618v.769h-5.53a3.182,3.182,0,0,0,.714,2.146,2.47,2.47,0,0,0,1.908.732,6.466,6.466,0,0,0,2.563-.542v1.084a6.434,6.434,0,0,1-1.219.4A6.853,6.853,0,0,1,471.672,16.146Zm-.33-7.3a1.985,1.985,0,0,0-1.542.63,2.9,2.9,0,0,0-.677,1.743h4.2a2.673,2.673,0,0,0-.513-1.761A1.8,1.8,0,0,0,471.343,8.844ZM482.19,16V10.807a2.1,2.1,0,0,0-.447-1.465,1.82,1.82,0,0,0-1.4-.483,2.307,2.307,0,0,0-1.846.681,3.439,3.439,0,0,0-.586,2.249V16H476.7V7.973h.989l.2,1.1h.059a2.483,2.483,0,0,1,1.047-.919,3.4,3.4,0,0,1,1.5-.326,3.049,3.049,0,0,1,2.183.7,2.977,2.977,0,0,1,.732,2.238V16Zm6.306-.857a3.972,3.972,0,0,0,.623-.048,4.03,4.03,0,0,0,.476-.1v.93a2.223,2.223,0,0,1-.582.157,4.373,4.373,0,0,1-.692.062q-2.329,0-2.329-2.454V8.917h-1.15V8.332l1.15-.505.513-1.714h.7v1.86h2.329v.945h-2.329v4.724a1.625,1.625,0,0,0,.344,1.113A1.2,1.2,0,0,0,488.5,15.143Zm7.639.857-.242-1.143h-.059a3.378,3.378,0,0,1-1.2,1.022,3.65,3.65,0,0,1-1.49.267,2.681,2.681,0,0,1-1.871-.615,2.244,2.244,0,0,1-.677-1.75q0-2.432,3.889-2.549l1.362-.044v-.5a2.035,2.035,0,0,0-.406-1.4,1.672,1.672,0,0,0-1.3-.45,5.3,5.3,0,0,0-2.271.615l-.374-.93a5.713,5.713,0,0,1,1.3-.505,5.631,5.631,0,0,1,1.417-.183,3.058,3.058,0,0,1,2.128.637,2.66,2.66,0,0,1,.692,2.043V16Zm-2.747-.857a2.468,2.468,0,0,0,1.783-.623,2.3,2.3,0,0,0,.648-1.743v-.725L494.6,12.1a4.422,4.422,0,0,0-2.091.45,1.358,1.358,0,0,0-.641,1.241,1.253,1.253,0,0,0,.4,1A1.657,1.657,0,0,0,493.389,15.143ZM503.2,7.826a4.757,4.757,0,0,1,.959.088l-.168,1.128a4.142,4.142,0,0,0-.879-.11,2.139,2.139,0,0,0-1.666.791,2.884,2.884,0,0,0-.692,1.97V16h-1.216V7.973h1l.139,1.487h.059a3.529,3.529,0,0,1,1.077-1.208A2.424,2.424,0,0,1,503.2,7.826ZM510.776,16h-1.216V4.6h1.216Zm9.507-4.021a4.428,4.428,0,0,1-.989,3.065,3.482,3.482,0,0,1-2.732,1.1,3.618,3.618,0,0,1-1.912-.505,3.335,3.335,0,0,1-1.289-1.45,5.054,5.054,0,0,1-.454-2.212,4.421,4.421,0,0,1,.981-3.058,3.471,3.471,0,0,1,2.725-1.095,3.4,3.4,0,0,1,2.677,1.121A4.409,4.409,0,0,1,520.283,11.979Zm-6.116,0a3.81,3.81,0,0,0,.615,2.344,2.442,2.442,0,0,0,3.622,0,3.791,3.791,0,0,0,.619-2.347,3.73,3.73,0,0,0-.619-2.325,2.175,2.175,0,0,0-1.827-.795,2.14,2.14,0,0,0-1.8.784A3.772,3.772,0,0,0,514.167,11.979Zm13.425,1.831a2.011,2.011,0,0,1-.835,1.729,3.925,3.925,0,0,1-2.344.608,5.1,5.1,0,0,1-2.49-.505V14.513a6.022,6.022,0,0,0,1.241.461,5.184,5.184,0,0,0,1.278.168,2.9,2.9,0,0,0,1.465-.3,1.046,1.046,0,0,0,.106-1.729,6.394,6.394,0,0,0-1.586-.787,8.6,8.6,0,0,1-1.593-.729,2.176,2.176,0,0,1-.7-.707,1.843,1.843,0,0,1-.231-.945,1.8,1.8,0,0,1,.8-1.549,3.72,3.72,0,0,1,2.19-.568,6.408,6.408,0,0,1,2.534.527l-.432.989a5.817,5.817,0,0,0-2.19-.5,2.52,2.52,0,0,0-1.3.271.838.838,0,0,0-.439.747.91.91,0,0,0,.165.549,1.626,1.626,0,0,0,.531.432,11.867,11.867,0,0,0,1.406.593,5.254,5.254,0,0,1,1.93,1.047A1.847,1.847,0,0,1,527.593,13.81ZM6.753,34.923H6.687a2.857,2.857,0,0,1-2.52,1.223,2.981,2.981,0,0,1-2.45-1.077,4.739,4.739,0,0,1-.875-3.062,4.819,4.819,0,0,1,.879-3.083,2.958,2.958,0,0,1,2.446-1.1,2.919,2.919,0,0,1,2.5,1.187h.1l-.051-.579-.029-.564V24.6H7.9V36H6.914Zm-2.432.205a2.214,2.214,0,0,0,1.805-.677,3.423,3.423,0,0,0,.56-2.186v-.256a4.028,4.028,0,0,0-.568-2.435,2.156,2.156,0,0,0-1.813-.729,1.861,1.861,0,0,0-1.637.831A4.134,4.134,0,0,0,2.1,32.023a3.963,3.963,0,0,0,.564,2.322A1.91,1.91,0,0,0,4.321,35.128Zm11.1.872-.242-1.143h-.059a3.378,3.378,0,0,1-1.2,1.022,3.65,3.65,0,0,1-1.49.267,2.681,2.681,0,0,1-1.871-.615,2.244,2.244,0,0,1-.677-1.75q0-2.432,3.889-2.549l1.362-.044v-.5a2.035,2.035,0,0,0-.406-1.4,1.672,1.672,0,0,0-1.3-.45,5.3,5.3,0,0,0-2.271.615l-.374-.93a5.713,5.713,0,0,1,1.3-.505,5.631,5.631,0,0,1,1.417-.183,3.058,3.058,0,0,1,2.128.637,2.66,2.66,0,0,1,.692,2.043V36Zm-2.747-.857a2.468,2.468,0,0,0,1.783-.623,2.3,2.3,0,0,0,.648-1.743v-.725l-1.216.051a4.422,4.422,0,0,0-2.091.45,1.358,1.358,0,0,0-.641,1.241,1.253,1.253,0,0,0,.4,1A1.657,1.657,0,0,0,12.671,35.143Zm8.745,0a3.972,3.972,0,0,0,.623-.048,4.03,4.03,0,0,0,.476-.1v.93a2.223,2.223,0,0,1-.582.157,4.373,4.373,0,0,1-.692.062q-2.329,0-2.329-2.454V28.917h-1.15v-.586l1.15-.505.513-1.714h.7v1.86h2.329v.945H20.127v4.724a1.625,1.625,0,0,0,.344,1.113A1.2,1.2,0,0,0,21.416,35.143Zm9.631-3.164a4.428,4.428,0,0,1-.989,3.065,3.482,3.482,0,0,1-2.732,1.1,3.618,3.618,0,0,1-1.912-.505,3.335,3.335,0,0,1-1.289-1.45,5.054,5.054,0,0,1-.454-2.212,4.421,4.421,0,0,1,.981-3.058,3.471,3.471,0,0,1,2.725-1.095,3.4,3.4,0,0,1,2.677,1.121A4.409,4.409,0,0,1,31.047,31.979Zm-6.116,0a3.81,3.81,0,0,0,.615,2.344,2.442,2.442,0,0,0,3.622,0,3.791,3.791,0,0,0,.619-2.347,3.73,3.73,0,0,0-.619-2.325,2.175,2.175,0,0,0-1.827-.795,2.14,2.14,0,0,0-1.8.784A3.772,3.772,0,0,0,24.932,31.979ZM38.357,33.81a2.011,2.011,0,0,1-.835,1.729,3.925,3.925,0,0,1-2.344.608,5.1,5.1,0,0,1-2.49-.505V34.513a6.022,6.022,0,0,0,1.241.461,5.184,5.184,0,0,0,1.278.168,2.9,2.9,0,0,0,1.465-.3,1.046,1.046,0,0,0,.106-1.729,6.394,6.394,0,0,0-1.586-.787,8.6,8.6,0,0,1-1.593-.729,2.176,2.176,0,0,1-.7-.707,1.843,1.843,0,0,1-.231-.945,1.8,1.8,0,0,1,.8-1.549,3.72,3.72,0,0,1,2.19-.568,6.408,6.408,0,0,1,2.534.527l-.432.989a5.817,5.817,0,0,0-2.19-.5,2.52,2.52,0,0,0-1.3.271.838.838,0,0,0-.439.747.91.91,0,0,0,.165.549,1.626,1.626,0,0,0,.531.432,11.867,11.867,0,0,0,1.406.593,5.254,5.254,0,0,1,1.93,1.047A1.847,1.847,0,0,1,38.357,33.81Zm1.8,1.414a1.091,1.091,0,0,1,.223-.743.81.81,0,0,1,.641-.253.867.867,0,0,1,.663.253,1.046,1.046,0,0,1,.238.743,1.027,1.027,0,0,1-.242.732.961.961,0,0,1-1.278.026A1,1,0,0,1,40.159,35.224Z" transform="translate(778 14235)" fill="#00223d"/>
    <g id="Grupo_32981" data-name="Grupo 32981" transform="translate(757 14185)">
      <g id="Grupo_26253" data-name="Grupo 26253" transform="translate(0 0)" clip-path="url(#clip-path)">
        <path id="Trazado_67547" data-name="Trazado 67547" d="M13.151,6.575A6.575,6.575,0,1,1,6.575,0a6.575,6.575,0,0,1,6.576,6.575" transform="translate(0 0)" fill="#bcbf50"/>
        <path id="Trazado_67548" data-name="Trazado 67548" d="M14.883,11.842l-1.844,1.844A1.155,1.155,0,1,1,11.4,12.053l1.845-1.845a.55.55,0,0,0,0-.777l-1.6-1.6a1.156,1.156,0,0,1,1.634-1.634l1.6,1.6a2.864,2.864,0,0,1,0,4.046" transform="translate(-6.189 -3.275)" fill="#fcfcfc"/>
      </g>
    </g>
    <g id="Grupo_38135" data-name="Grupo 38135" transform="translate(757 14339)">
      <g id="Grupo_26253-2" data-name="Grupo 26253" transform="translate(0 0)" clip-path="url(#clip-path)">
        <path id="Trazado_67547-2" data-name="Trazado 67547" d="M13.151,6.575A6.575,6.575,0,1,1,6.575,0a6.575,6.575,0,0,1,6.576,6.575" transform="translate(0 0)" fill="#bcbf50"/>
        <path id="Trazado_67548-2" data-name="Trazado 67548" d="M14.883,11.842l-1.844,1.844A1.155,1.155,0,1,1,11.4,12.053l1.845-1.845a.55.55,0,0,0,0-.777l-1.6-1.6a1.156,1.156,0,0,1,1.634-1.634l1.6,1.6a2.864,2.864,0,0,1,0,4.046" transform="translate(-6.189 -3.275)" fill="#fcfcfc"/>
      </g>
    </g>
    <g id="Grupo_38134" data-name="Grupo 38134" transform="translate(757 14299)">
      <g id="Grupo_26253-3" data-name="Grupo 26253" transform="translate(0 0)" clip-path="url(#clip-path)">
        <path id="Trazado_67547-3" data-name="Trazado 67547" d="M13.151,6.575A6.575,6.575,0,1,1,6.575,0a6.575,6.575,0,0,1,6.576,6.575" transform="translate(0 0)" fill="#bcbf50"/>
        <path id="Trazado_67548-3" data-name="Trazado 67548" d="M14.883,11.842l-1.844,1.844A1.155,1.155,0,1,1,11.4,12.053l1.845-1.845a.55.55,0,0,0,0-.777l-1.6-1.6a1.156,1.156,0,0,1,1.634-1.634l1.6,1.6a2.864,2.864,0,0,1,0,4.046" transform="translate(-6.189 -3.275)" fill="#fcfcfc"/>
      </g>
    </g>
    <g id="Grupo_38133" data-name="Grupo 38133" transform="translate(757 14239)">
      <g id="Grupo_26253-4" data-name="Grupo 26253" transform="translate(0 0)" clip-path="url(#clip-path)">
        <path id="Trazado_67547-4" data-name="Trazado 67547" d="M13.151,6.575A6.575,6.575,0,1,1,6.575,0a6.575,6.575,0,0,1,6.576,6.575" transform="translate(0 0)" fill="#bcbf50"/>
        <path id="Trazado_67548-4" data-name="Trazado 67548" d="M14.883,11.842l-1.844,1.844A1.155,1.155,0,1,1,11.4,12.053l1.845-1.845a.55.55,0,0,0,0-.777l-1.6-1.6a1.156,1.156,0,0,1,1.634-1.634l1.6,1.6a2.864,2.864,0,0,1,0,4.046" transform="translate(-6.189 -3.275)" fill="#fcfcfc"/>
      </g>
    </g>
  </g>
</svg>
