<svg xmlns="http://www.w3.org/2000/svg" width="351" height="332.775" viewBox="0 0 351 332.775">
  <g id="Grupo_38979" data-name="Grupo 38979" transform="translate(-452 -2823)">
    <circle id="Elipse_983" data-name="Elipse 983" cx="160" cy="160" r="160" transform="translate(452 2823)" fill="#ffc74a"/>
    <g id="Grupo_38975" data-name="Grupo 38975" transform="translate(11)">
      <path id="Polígono_21" data-name="Polígono 21" d="M23,0,46,40H0Z" transform="translate(792 2935) rotate(90)" fill="#dfa013"/>
      <path id="Polígono_20" data-name="Polígono 20" d="M23,0,46,40H0Z" transform="translate(708.081 2947.179) rotate(-30)" fill="#ffc74a"/>
    </g>
    <g id="Grupo_38976" data-name="Grupo 38976" transform="translate(-31)">
      <path id="Polígono_21-2" data-name="Polígono 21" d="M23,0,46,40H0Z" transform="translate(792 2935) rotate(90)" fill="#dfa013"/>
      <path id="Polígono_20-2" data-name="Polígono 20" d="M23,0,46,40H0Z" transform="translate(708.081 2947.179) rotate(-30)" fill="#ffc74a"/>
    </g>
    <g id="Grupo_38977" data-name="Grupo 38977" transform="translate(-78)">
      <path id="Polígono_21-3" data-name="Polígono 21" d="M23,0,46,40H0Z" transform="translate(792 2935) rotate(90)" fill="#dfa013"/>
      <path id="Polígono_20-3" data-name="Polígono 20" d="M23,0,46,40H0Z" transform="translate(708.081 2947.179) rotate(-30)" fill="#ffc74a"/>
    </g>
    <g id="Grupo_39024" data-name="Grupo 39024" transform="translate(351.767 2646.167)">
      <path id="Trazado_86559" data-name="Trazado 86559" d="M334.951,420.469a11.576,11.576,0,0,0-7.208-10.708,11.522,11.522,0,0,0,.838-20.991,11.512,11.512,0,0,0,5.793-9.972c0-3.8,1.039-6.567-1.8-8.677a11.489,11.489,0,0,0-3.578-20.3c3.859-1.88,6.5-8.134,6.5-12.709a11.553,11.553,0,0,0-7.634-10.846,11.468,11.468,0,0,0-1.437-18.7,11.522,11.522,0,0,0-4.324-18.9,11.472,11.472,0,0,0-5.092-18.663,11.472,11.472,0,0,0,2.863-7.546c0-5.624-6.877-8.55-12.194-9.592a11.39,11.39,0,0,0,.651-3.694A11.567,11.567,0,0,0,296.758,237.6a11.781,11.781,0,0,0-1.842.18,11.52,11.52,0,0,0-11.472-10.6,11.234,11.234,0,0,0-3.349.553,11.435,11.435,0,0,0-17.29-3.081,11.5,11.5,0,0,0-18.441.838c-2.391-3.328-4.965-3.715-7.8-3.715-4.222,0-8.479,2.507-9.511,6.634-1.2-1.884-4.56-3.159-5.384-3.331-7.014-1.451-12.187,2.923-12.874,8.655-2.173-1.275-6.148-3.592-11.582-.338-5.564,3.328-5.462,9.913-4.624,9.983-.613-.053-3.623-.042-4.243,0-6.486.461-9.8,9.67-9.346,16.163a12.377,12.377,0,0,0,.391,2.247c-6.025.9-8.127,6.465-7.687,12.638a11.745,11.745,0,0,0,.933,3.7,11.8,11.8,0,0,0-8.666,12.194,11.682,11.682,0,0,0,3.461,7.455,11.667,11.667,0,0,0-3.831,19.311,11.718,11.718,0,0,0-3.021,19.494,11.666,11.666,0,0,0-.116,19.089,11.717,11.717,0,0,0,.4,21.624,11.7,11.7,0,0,0-2.18,20.857,11.694,11.694,0,0,0,2.5,19.445,11.732,11.732,0,0,0,2.359,21.244,11.759,11.759,0,0,0-.8,20.674,11.689,11.689,0,0,0,4.56,19.892v3.567a11.527,11.527,0,0,0,0,11.846v5.888H321.228v-2.821a11.4,11.4,0,0,0,2.3-14.856,11.5,11.5,0,0,0,4.064-16.533,11.489,11.489,0,0,0,1.877-18.086,11.481,11.481,0,0,0,.5-18.455A11.545,11.545,0,0,0,334.951,420.469Z" transform="translate(0 0)" fill="#b43b20"/>
      <path id="Trazado_86560" data-name="Trazado 86560" d="M284.269,375.727a7.812,7.812,0,0,0-4.863-7.229,7.774,7.774,0,0,0,.563-14.163,7.753,7.753,0,0,0,.743-12.983,7.756,7.756,0,0,0-2.419-13.7,7.764,7.764,0,0,0-.75-14.321,7.741,7.741,0,0,0-.954-12.624,7.786,7.786,0,0,0-2.926-12.758,7.73,7.73,0,0,0-3.437-12.6,7.755,7.755,0,0,0-4.374-12.751,7.9,7.9,0,0,0,.454-2.5,7.815,7.815,0,0,0-7.814-7.81,7.99,7.99,0,0,0-1.247.123,7.66,7.66,0,0,0-10.008-6.782,7.714,7.714,0,0,0-11.663-2.078,7.772,7.772,0,0,0-12.455.567,7.7,7.7,0,0,0-11.677,1.972,7.735,7.735,0,0,0-9.377,6.7,7.883,7.883,0,0,0-12.867,6,8.177,8.177,0,0,0-1.25-.039,7.953,7.953,0,0,0-7.367,8.493,7.438,7.438,0,0,0,.261,1.518,7.924,7.924,0,0,0-6.754,8.388,7.775,7.775,0,0,0,.634,2.5,7.9,7.9,0,0,0-3.528,13.258,7.869,7.869,0,0,0-2.581,13.032,7.909,7.909,0,0,0-2.035,13.163A7.88,7.88,0,0,0,166.5,332a7.906,7.906,0,0,0,.268,14.592,7.9,7.9,0,0,0-1.465,14.078,7.875,7.875,0,0,0,1.69,13.12,7.914,7.914,0,0,0,1.585,14.342,7.931,7.931,0,0,0-.546,13.952,7.9,7.9,0,0,0,3.081,13.43v2.408a7.826,7.826,0,0,0-1.07,4.578,7.747,7.747,0,0,0,1.07,3.412v3.979H275v-1.912a7.691,7.691,0,0,0,1.556-10.018A7.77,7.77,0,0,0,279.3,406.8a7.768,7.768,0,0,0,1.257-12.208,7.746,7.746,0,0,0,.345-12.455A7.784,7.784,0,0,0,284.269,375.727Z" transform="translate(21.148 51.122)" fill="#6b2613"/>
      <g id="Grupo_38980" data-name="Grupo 38980" transform="translate(175.163 451.241)">
        <path id="Trazado_86561" data-name="Trazado 86561" d="M185.8,344.346c.173-1.317.338-2.627.511-3.905,3.081-23.406,5.145-39.016,5.145-39.016V301.4a13.659,13.659,0,0,0-27.09-3.532l-.063.475s-.116.975-.366,2.8-.609,4.511-.961,7.937c-.377,3.419-.838,7.574-1.363,12.342-.585,4.764-1.011,10.159-1.539,16.047-.187,2.211-.4,4.521-.613,6.87Z" transform="translate(-159.461 -285.979)" fill="#fbb98f"/>
      </g>
      <g id="Grupo_38981" data-name="Grupo 38981" transform="translate(229.847 408.324)">
        <path id="Trazado_86562" data-name="Trazado 86562" d="M207.8,309.1H174.99l5.172-35.31h22.875Z" transform="translate(-174.99 -273.791)" fill="#fbb98f"/>
        <path id="Trazado_86563" data-name="Trazado 86563" d="M184.771,287.781c6.12-.87,14.469-1.8,17.543-6.965l-1.148-7.025H178.292l-2.56,17.448A22.366,22.366,0,0,1,184.771,287.781Z" transform="translate(-173.12 -273.791)" fill="#bababa" style="mix-blend-mode: multiply;isolation: isolate"/>
      </g>
      <path id="Trazado_86564" data-name="Trazado 86564" d="M170.463,357.2H279.747l5.338-22.463c9.127-26.315-2.972-36.425-2.972-36.425l-41.781-17.427H209.884L168.1,298.309s-12.1,10.11-2.979,36.425Z" transform="translate(21.406 152.412)" fill="#fbb98f"/>
      <path id="Trazado_86565" data-name="Trazado 86565" d="M277.181,356.137l5.243-22.047c-11.212-8.409-12.244-26.692-3.123-36.939l-37.27-15.85-19.614,2.215-19.9-1.771L166.157,296.99c9.416,10.349,8.261,29.122-3.43,37.414l5.169,21.734Z" transform="translate(23.937 153.471)" fill="#fff"/>
      <g id="Grupo_39019" data-name="Grupo 39019" transform="translate(175.15 225.221)">
        <g id="Grupo_38988" data-name="Grupo 38988" transform="translate(0 104.073)">
          <g id="Grupo_38984" data-name="Grupo 38984" transform="translate(123.301)">
            <path id="Trazado_86566" data-name="Trazado 86566" d="M194.7,265.913c-1.176,8.754,2.352,16.434,7.863,17.163s10.9-5.757,12.061-14.511-2.366-16.434-7.86-17.159S195.868,257.166,194.7,265.913Z" transform="translate(-194.473 -251.348)" fill="#fbb98f"/>
            <g id="Grupo_38982" data-name="Grupo 38982" transform="translate(6.843 3.268)" style="mix-blend-mode: multiply;isolation: isolate">
              <path id="Trazado_86567" data-name="Trazado 86567" d="M196.546,260.967s.056-.486.222-1.285a13.178,13.178,0,0,1,1.1-3.162c.606-1.173,1.616-2.539,3.007-2.638a3.792,3.792,0,0,1,1.063.1c.056.032.426.144.539.211.109.1.254.127.4.26a4.59,4.59,0,0,1,1.437,1.873,10.057,10.057,0,0,1,.806,2.458,9.787,9.787,0,0,1,.19,2.5c-.116.887-.1,1.778-.246,2.539-.13.782-.261,1.518-.377,2.194-.173.687-.3,1.324-.419,1.891s-.289,1.046-.387,1.444c-.232.8-.342,1.275-.342,1.275s.246-.408.658-1.141c.187-.377.468-.81.694-1.359.243-.532.511-1.144.792-1.821.247-.687.468-1.465.7-2.282a21.154,21.154,0,0,0,.5-2.546,9.062,9.062,0,0,0-.063-2.99,11.362,11.362,0,0,0-.894-2.937,6.4,6.4,0,0,0-2.056-2.521,4.86,4.86,0,0,0-.81-.44,6.1,6.1,0,0,0-.764-.229,5.187,5.187,0,0,0-1.652-.028,4.075,4.075,0,0,0-2.564,1.585,7.006,7.006,0,0,0-1.151,2.215,11.276,11.276,0,0,0-.507,3.518A7.981,7.981,0,0,0,196.546,260.967Z" transform="translate(-196.416 -252.276)" fill="#bababa"/>
            </g>
            <path id="Trazado_86568" data-name="Trazado 86568" d="M197.233,255.609s-.563-.916,3.014-1.208c0,0,4.042.528,1.972,4.912a11.742,11.742,0,0,0-1.011,2.944c-.261,1.458.511,3.423-.37,4.736-1.137,1.69-4.363.8-4.673-1.106-.232-1.458,1.454-4,2.236-5.046C198.4,260.842,200.768,257.62,197.233,255.609Z" transform="translate(-190.26 -243.649)" fill="#bababa" style="mix-blend-mode: multiply;isolation: isolate"/>
            <g id="Grupo_38983" data-name="Grupo 38983" transform="translate(4.969 22.045)" style="mix-blend-mode: multiply;isolation: isolate">
              <path id="Trazado_86569" data-name="Trazado 86569" d="M196.814,257.608a1.3,1.3,0,0,0-.261.25,2.584,2.584,0,0,0-.475.817,2.3,2.3,0,0,0-.144.627,1.822,1.822,0,0,0-.018.718,7.611,7.611,0,0,0,.137.782,4.121,4.121,0,0,0,.342.715,2.846,2.846,0,0,0,.44.655c.18.187.387.342.56.493a2.605,2.605,0,0,0,1.148.613,4.058,4.058,0,0,0,1.236.218,7.013,7.013,0,0,0-.623-1.046,3.261,3.261,0,0,0-.338-.4c-.1-.158-.165-.335-.275-.486s-.2-.31-.331-.451a1.778,1.778,0,0,1-.253-.475,4.87,4.87,0,0,1-.511-.951,2.278,2.278,0,0,1-.18-.472c-.039-.162-.137-.32-.169-.472C196.92,258.147,196.814,257.608,196.814,257.608Z" transform="translate(-195.884 -257.608)" fill="#bababa"/>
            </g>
          </g>
          <g id="Grupo_38987" data-name="Grupo 38987">
            <path id="Trazado_86570" data-name="Trazado 86570" d="M179.6,265.913c1.169,8.754-2.359,16.434-7.863,17.163s-10.891-5.757-12.061-14.511,2.356-16.434,7.86-17.159S178.44,257.166,179.6,265.913Z" transform="translate(-159.457 -251.348)" fill="#fbb98f"/>
            <g id="Grupo_38985" data-name="Grupo 38985" transform="translate(2.975 3.268)" style="mix-blend-mode: multiply;isolation: isolate">
              <path id="Trazado_86571" data-name="Trazado 86571" d="M170.725,260.967s-.056-.486-.222-1.285a12.939,12.939,0,0,0-1.106-3.162c-.606-1.173-1.623-2.539-2.993-2.638a3.771,3.771,0,0,0-1.067.1c-.06.032-.426.144-.549.211-.109.1-.24.127-.4.26a4.667,4.667,0,0,0-1.43,1.873,10.369,10.369,0,0,0-.806,2.458,9.619,9.619,0,0,0-.187,2.5c.106.887.1,1.778.236,2.539.13.782.275,1.518.384,2.194.173.687.31,1.324.419,1.891s.3,1.046.394,1.444c.225.8.334,1.275.334,1.275s-.254-.408-.658-1.141c-.18-.377-.468-.81-.694-1.359-.243-.532-.511-1.144-.792-1.821-.254-.687-.475-1.465-.7-2.282a19.275,19.275,0,0,1-.5-2.546,9.668,9.668,0,0,1,.056-2.99,11.382,11.382,0,0,1,.9-2.937,6.457,6.457,0,0,1,2.056-2.521,4.591,4.591,0,0,1,.81-.44,6.545,6.545,0,0,1,.757-.229,5.2,5.2,0,0,1,1.652-.028,4.092,4.092,0,0,1,2.571,1.585,7.219,7.219,0,0,1,1.148,2.215,11.2,11.2,0,0,1,.511,3.518A7.107,7.107,0,0,1,170.725,260.967Z" transform="translate(-160.302 -252.276)" fill="#bababa"/>
            </g>
            <path id="Trazado_86572" data-name="Trazado 86572" d="M167.255,255.609s.57-.916-3.014-1.208c0,0-4.042.528-1.972,4.912a11.74,11.74,0,0,1,1.011,2.944c.261,1.458-.511,3.423.37,4.736,1.134,1.69,4.356.8,4.666-1.106.239-1.458-1.447-4-2.229-5.046C166.086,260.842,163.719,257.62,167.255,255.609Z" transform="translate(-153.857 -243.649)" fill="#bababa" style="mix-blend-mode: multiply;isolation: isolate"/>
            <g id="Grupo_38986" data-name="Grupo 38986" transform="translate(11.507 22.045)" style="mix-blend-mode: multiply;isolation: isolate">
              <path id="Trazado_86573" data-name="Trazado 86573" d="M165.686,257.608a1.5,1.5,0,0,1,.264.25,2.729,2.729,0,0,1,.472.817,2.594,2.594,0,0,1,.144.627,1.545,1.545,0,0,1,.014.718,7.542,7.542,0,0,1-.13.782,4.428,4.428,0,0,1-.345.715,2.962,2.962,0,0,1-.44.655c-.176.187-.391.342-.563.493a2.547,2.547,0,0,1-1.141.613,4.088,4.088,0,0,1-1.236.218,7.014,7.014,0,0,1,.623-1.046,3.2,3.2,0,0,1,.331-.4,3.83,3.83,0,0,1,.289-.486c.1-.151.2-.31.317-.451a1.808,1.808,0,0,0,.261-.475,4.024,4.024,0,0,0,.5-.951,1.87,1.87,0,0,0,.2-.472c.035-.162.141-.32.166-.472C165.584,258.147,165.686,257.608,165.686,257.608Z" transform="translate(-162.725 -257.608)" fill="#bababa"/>
            </g>
          </g>
        </g>
        <path id="Trazado_86574" data-name="Trazado 86574" d="M251.914,233.9a80.587,80.587,0,0,0-60.352,0s-48.88,23.448-18.719,121.018c4.31,13.959,17.427,24.674,29.78,32.481,12.737,8.046,25.537,8.025,38.224,0,12.346-7.807,25.477-18.522,29.787-32.481C300.793,257.345,251.914,233.9,251.914,233.9Z" transform="translate(-150.49 -206.059)" fill="#fbb98f"/>
        <g id="Grupo_38990" data-name="Grupo 38990" transform="translate(12.524 21.974)" style="mix-blend-mode: multiply;isolation: isolate">
          <g id="Grupo_38989" data-name="Grupo 38989">
            <path id="Trazado_86575" data-name="Trazado 86575" d="M209.87,233.9a82.652,82.652,0,0,0-30.181-5.863A55.121,55.121,0,0,1,203.8,233.9s39.073,23.448,14.973,121.018c-3.451,13.959-13.948,24.674-23.811,32.481q-7.59,6.016-15.254,6.029,9.566-.011,19.093-6.029c12.346-7.807,25.477-18.522,29.787-32.481C258.75,257.345,209.87,233.9,209.87,233.9Z" transform="translate(-120.971 -228.033)" fill="#e8e8e8"/>
            <path id="Trazado_86576" data-name="Trazado 86576" d="M206.467,387.394c-9.877-7.807-20.367-18.522-23.811-32.481-24.1-97.569,14.973-121.018,14.973-121.018a54.761,54.761,0,0,1,24.044-5.863h-.007a82.159,82.159,0,0,0-30.1,5.863s-48.88,23.448-18.719,121.018c4.31,13.959,17.427,24.674,29.78,32.481q9.55,6.032,19.11,6.029Q214.089,393.412,206.467,387.394Z" transform="translate(-163.014 -228.033)" fill="#e8e8e8"/>
          </g>
        </g>
        <g id="Grupo_38991" data-name="Grupo 38991" transform="translate(61.897 131.919)">
          <path id="Trazado_86577" data-name="Trazado 86577" d="M177.042,259.433s4.947-.092,9.9-.176c.447.084.88-.063,1.342.032a9.62,9.62,0,0,1,1.416.032c.968-.032,2.042.049,3.078.021,1.074.092,2.039.007,2.821.074.764.035,1.3.113,1.3.113a6.492,6.492,0,0,1-.208,1.268,8.309,8.309,0,0,1-1.264,2.933,9.756,9.756,0,0,1-3.289,3.046,13.137,13.137,0,0,1-2.454.968,11.434,11.434,0,0,1-2.754.345,11.119,11.119,0,0,1-5.19-1.338,9.745,9.745,0,0,1-3.307-3.042,8.539,8.539,0,0,1-1.261-2.968A4.669,4.669,0,0,1,177.042,259.433Z" transform="translate(-177.035 -259.256)" fill="#bc8b6c"/>
        </g>
        <g id="Grupo_39010" data-name="Grupo 39010" transform="translate(29.698 82.308)">
          <g id="Grupo_39000" data-name="Grupo 39000">
            <g id="Grupo_38999" data-name="Grupo 38999">
              <g id="Grupo_38998" data-name="Grupo 38998" transform="translate(2.824 16.905)">
                <path id="Trazado_86578" data-name="Trazado 86578" d="M170.572,256.695a6.172,6.172,0,1,0,5.979-6.352A6.178,6.178,0,0,0,170.572,256.695Z" transform="translate(-163.963 -249.031)" fill="#311d11"/>
                <path id="Trazado_86579" data-name="Trazado 86579" d="M171.7,253.8a2.234,2.234,0,1,0,2.162-2.3A2.247,2.247,0,0,0,171.7,253.8Z" transform="translate(-161.124 -246.11)" fill="#180d00"/>
                <g id="Grupo_38993" data-name="Grupo 38993" transform="translate(0.592)">
                  <g id="Grupo_38992" data-name="Grupo 38992">
                    <path id="Trazado_86580" data-name="Trazado 86580" d="M192.081,256.744a4.244,4.244,0,0,1-1.532-.246l-1.461-.553c-.908-.472-1.792-1.007-2.666-1.571l-.056-.049a10.556,10.556,0,0,0-2.909-1.483,5.957,5.957,0,0,0-3.039-.2,7.1,7.1,0,0,0-2.842,1.25,17.424,17.424,0,0,0-2.539,2.314l.042-.06a5.241,5.241,0,0,1-1.342,1.261,4.765,4.765,0,0,1-1.609.736,4.6,4.6,0,0,1-3.268-.359,4.944,4.944,0,0,0,2.849-.669,5.573,5.573,0,0,0,1.046-.873,5.171,5.171,0,0,0,.729-1.053l.007-.007.035-.056,1.127-1.655A18.3,18.3,0,0,1,176.1,252a8.547,8.547,0,0,1,3.859-1.912,7.761,7.761,0,0,1,4.324.479,9.641,9.641,0,0,1,3.433,2.412l-.056-.046c.708.637,1.377,1.349,2.071,2.053l1.109.954A7.128,7.128,0,0,0,192.081,256.744Z" transform="translate(-168.861 -249.968)" fill="#1b0f04"/>
                  </g>
                </g>
                <g id="Grupo_38995" data-name="Grupo 38995" transform="translate(0 4.501)">
                  <g id="Grupo_38994" data-name="Grupo 38994">
                    <path id="Trazado_86581" data-name="Trazado 86581" d="M175.229,252.655a13.552,13.552,0,0,1-3.687.486,3.449,3.449,0,0,1-2.4-.852,2.161,2.161,0,0,1-.447-1.042,2.054,2.054,0,0,0,.585.894,3.05,3.05,0,0,0,2.229.352,12.637,12.637,0,0,0,3.268-1.053Z" transform="translate(-168.693 -251.246)" fill="#1b0f04"/>
                  </g>
                </g>
                <g id="Grupo_38997" data-name="Grupo 38997" transform="translate(1.204 2.42)">
                  <g id="Grupo_38996" data-name="Grupo 38996">
                    <path id="Trazado_86582" data-name="Trazado 86582" d="M175.233,253.131a13.217,13.217,0,0,1-3.715-.13,3.407,3.407,0,0,1-2.218-1.243,2.167,2.167,0,0,1-.264-1.1,2.107,2.107,0,0,0,.426.982,3.009,3.009,0,0,0,2.134.718,12.509,12.509,0,0,0,3.391-.5Z" transform="translate(-169.035 -250.655)" fill="#1b0f04"/>
                  </g>
                </g>
                <path id="Trazado_86583" data-name="Trazado 86583" d="M171.026,252.851a1.541,1.541,0,1,0,1.486-1.6A1.548,1.548,0,0,0,171.026,252.851Z" transform="translate(-162.814 -246.722)" fill="#fff"/>
                <path id="Trazado_86584" data-name="Trazado 86584" d="M171.7,252.718a.775.775,0,1,0,.75-.806A.777.777,0,0,0,171.7,252.718Z" transform="translate(-161.104 -245.068)" fill="#fff"/>
              </g>
              <path id="Trazado_86585" data-name="Trazado 86585" d="M167.891,257.242s7.007-10.222,25.53-4.687c0,0,4.895,1.49,6.972,3.092,0,0,2.553-.32,1.761-6.87C202.154,248.777,171.109,236.494,167.891,257.242Z" transform="translate(-167.891 -245.167)" fill="#b43b20"/>
            </g>
          </g>
          <g id="Grupo_39009" data-name="Grupo 39009" transform="translate(49.861)">
            <g id="Grupo_39008" data-name="Grupo 39008">
              <g id="Grupo_39007" data-name="Grupo 39007" transform="translate(7.787 16.903)">
                <path id="Trazado_86586" data-name="Trazado 86586" d="M197.98,256.695a6.172,6.172,0,1,1-5.972-6.352A6.174,6.174,0,0,1,197.98,256.695Z" transform="translate(-180.792 -249.03)" fill="#311d11"/>
                <path id="Trazado_86587" data-name="Trazado 86587" d="M191.211,253.8a2.23,2.23,0,1,1-2.162-2.3A2.245,2.245,0,0,1,191.211,253.8Z" transform="translate(-177.985 -246.108)" fill="#180d00"/>
                <g id="Grupo_39002" data-name="Grupo 39002">
                  <g id="Grupo_39001" data-name="Grupo 39001">
                    <path id="Trazado_86588" data-name="Trazado 86588" d="M184.262,256.745a2.722,2.722,0,0,0,.655-.394,3.949,3.949,0,0,0,.588-.416l1.106-.954c.69-.7,1.359-1.412,2.067-2.053l-.056.049a9.615,9.615,0,0,1,3.426-2.412,7.755,7.755,0,0,1,4.331-.479A8.492,8.492,0,0,1,200.231,252a18.257,18.257,0,0,1,1.444,1.465l1.123,1.655.039.056.007.007a5.035,5.035,0,0,0,.729,1.053,5.466,5.466,0,0,0,1.046.873,4.941,4.941,0,0,0,2.842.669,4.564,4.564,0,0,1-3.261.356,4.7,4.7,0,0,1-1.609-.732,5.288,5.288,0,0,1-1.338-1.261l.042.063a17.459,17.459,0,0,0-2.542-2.317,7.2,7.2,0,0,0-2.842-1.25,5.892,5.892,0,0,0-3.032.2,10.458,10.458,0,0,0-2.909,1.483l-.056.053c-.873.56-1.754,1.092-2.666,1.563l-1.461.556A4.207,4.207,0,0,1,184.262,256.745Z" transform="translate(-184.262 -249.967)" fill="#1b0f04"/>
                  </g>
                </g>
                <g id="Grupo_39004" data-name="Grupo 39004" transform="translate(17.262 4.502)">
                  <g id="Grupo_39003" data-name="Grupo 39003">
                    <path id="Trazado_86589" data-name="Trazado 86589" d="M189.618,251.44a12.632,12.632,0,0,0,3.271,1.053,3.043,3.043,0,0,0,2.229-.352,1.993,1.993,0,0,0,.592-.894,2.088,2.088,0,0,1-.451,1.039,3.428,3.428,0,0,1-2.4.856,13.418,13.418,0,0,1-3.694-.486Z" transform="translate(-189.164 -251.246)" fill="#1b0f04"/>
                  </g>
                </g>
                <g id="Grupo_39006" data-name="Grupo 39006" transform="translate(16.395 2.422)">
                  <g id="Grupo_39005" data-name="Grupo 39005">
                    <path id="Trazado_86590" data-name="Trazado 86590" d="M189.165,251.86a12.509,12.509,0,0,0,3.391.5,3.041,3.041,0,0,0,2.137-.718,2.093,2.093,0,0,0,.43-.982,2.152,2.152,0,0,1-.268,1.1A3.439,3.439,0,0,1,192.633,253a13.217,13.217,0,0,1-3.715.13Z" transform="translate(-188.918 -250.655)" fill="#1b0f04"/>
                  </g>
                </g>
                <path id="Trazado_86591" data-name="Trazado 86591" d="M190.9,252.851a1.541,1.541,0,1,1-1.489-1.6A1.544,1.544,0,0,1,190.9,252.851Z" transform="translate(-175.307 -246.721)" fill="#fff"/>
                <path id="Trazado_86592" data-name="Trazado 86592" d="M189.113,252.718a.764.764,0,0,1-.792.747.777.777,0,0,1-.75-.8.787.787,0,0,1,.806-.754A.763.763,0,0,1,189.113,252.718Z" transform="translate(-175.922 -245.066)" fill="#fff"/>
              </g>
              <path id="Trazado_86593" data-name="Trazado 86593" d="M216.466,257.242s-7.022-10.222-25.537-4.687c0,0-4.895,1.49-6.972,3.092,0,0-2.546-.32-1.754-6.87C182.2,248.777,213.247,236.494,216.466,257.242Z" transform="translate(-182.051 -245.167)" fill="#b43b20"/>
            </g>
          </g>
        </g>
        <g id="Grupo_39011" data-name="Grupo 39011" transform="translate(22.68 111.794)">
          <path id="Trazado_86594" data-name="Trazado 86594" d="M215.15,261.342c-.447-5-7.574-8.444-15.938-7.7s-14.765,5.409-14.311,10.405,7.585,8.448,15.927,7.7C209.191,271,215.6,266.346,215.15,261.342Z" transform="translate(-118.042 -253.54)" fill="#ee7e73" opacity="0.2"/>
          <path id="Trazado_86595" data-name="Trazado 86595" d="M181.857,253.641c-8.349-.743-15.5,2.7-15.937,7.7s5.965,9.655,14.314,10.406,15.494-2.7,15.934-7.7S190.213,254.384,181.857,253.641Z" transform="translate(-165.898 -253.54)" fill="#ee7e73" opacity="0.2"/>
        </g>
        <path id="Trazado_86596" data-name="Trazado 86596" d="M202.665,262.289a3.572,3.572,0,1,1-3.571-3.571A3.569,3.569,0,0,1,202.665,262.289Z" transform="translate(-68.531 -128.692)" fill="#fff"/>
        <path id="Trazado_86597" data-name="Trazado 86597" d="M169.311,262.289a3.572,3.572,0,1,1-3.574-3.571A3.579,3.579,0,0,1,169.311,262.289Z" transform="translate(-152.628 -128.692)" fill="#fff"/>
        <g id="Grupo_39014" data-name="Grupo 39014" transform="translate(53.425 147.984)">
          <path id="Trazado_86598" data-name="Trazado 86598" d="M174.629,264.651c3.81,8.039,10.62,13.409,18.41,13.409s14.6-5.37,18.406-13.409Z" transform="translate(-174.629 -261.717)" fill="#fff"/>
          <g id="Grupo_39012" data-name="Grupo 39012" transform="translate(0 2.934)">
            <path id="Trazado_86599" data-name="Trazado 86599" d="M174.629,264.651a22.059,22.059,0,0,1,1.775,1.388,18.507,18.507,0,0,0,1.916,1.525c.747.514,1.447,1.1,2.377,1.641a22.292,22.292,0,0,0,2.8,1.669,27.047,27.047,0,0,0,3.053,1.426,21.495,21.495,0,0,0,6.493,1.222c-.775.035-.2.011-.373.018l.018,0,.035,0,.07,0,.141-.011.282-.021.556-.039,1.123-.074a7.947,7.947,0,0,0,1.574-.264,19.881,19.881,0,0,0,3.057-.831,26.73,26.73,0,0,0,3.049-1.426,21.609,21.609,0,0,0,2.792-1.669,27.885,27.885,0,0,0,2.416-1.69,22.807,22.807,0,0,0,1.891-1.479c1.053-.873,1.775-1.373,1.775-1.373a16.553,16.553,0,0,1-.2,2.257,10.018,10.018,0,0,1-.592,2.549,14.888,14.888,0,0,1-1.306,3.183,16.655,16.655,0,0,1-2.359,3.444,19.456,19.456,0,0,1-3.56,3.25,21.084,21.084,0,0,1-2.285,1.3,10.171,10.171,0,0,1-2.694,1.063,14.739,14.739,0,0,1-2.785.651l-1.116.116-.56.06-.278.025-.141.018-.532.028a20.2,20.2,0,0,1-5.567-.944,18.118,18.118,0,0,1-4.814-2.331,19.2,19.2,0,0,1-3.557-3.254,15.9,15.9,0,0,1-2.356-3.44,15.381,15.381,0,0,1-1.349-3.233,8.972,8.972,0,0,1-.567-2.5A21.84,21.84,0,0,1,174.629,264.651Z" transform="translate(-174.629 -264.651)" fill="#cb4e45"/>
          </g>
          <g id="Grupo_39013" data-name="Grupo 39013">
            <path id="Trazado_86600" data-name="Trazado 86600" d="M211.445,266.752a32.43,32.43,0,0,1-5.754,1.68,62.3,62.3,0,0,1-12.656,1.254,61.373,61.373,0,0,1-12.652-1.247,32.032,32.032,0,0,1-5.754-1.687,32.237,32.237,0,0,1,5.754-1.683,61.352,61.352,0,0,1,12.652-1.25,62.294,62.294,0,0,1,12.656,1.257A32.634,32.634,0,0,1,211.445,266.752Z" transform="translate(-174.629 -263.818)" fill="#cb4e45"/>
          </g>
        </g>
        <path id="Trazado_86601" data-name="Trazado 86601" d="M170.982,340.934s0-15.92-8.839-14.744c-7.955-66.036,22.382-73.638,22.382-73.638-1.574-11.789,14.54-22.012,14.54-22.012,41.9-19.892,69.106.363,69.106.363,45.136,30.09,26.621,95.287,26.621,95.287-12.159-2.116-13.025,14.744-13.025,14.744-1.19-53.073-17.695-63.687-17.695-63.687-38.72-21.445-75.385,0-75.385,0a37.531,37.531,0,0,0-8.173,27.727S171.869,309.7,170.982,340.934Z" transform="translate(-156.038 -221.793)" fill="#b43b20"/>
        <g id="Grupo_39015" data-name="Grupo 39015" transform="translate(33.527 39.547)">
          <path id="Trazado_86602" data-name="Trazado 86602" d="M173.229,249.2l-4.25-16.172,8.336,14.494Z" transform="translate(-168.979 -233.023)" fill="#fbb98f"/>
        </g>
        <g id="Grupo_39016" data-name="Grupo 39016" transform="translate(85.865 108.933)">
          <path id="Trazado_86603" data-name="Trazado 86603" d="M185.937,255.018a.7.7,0,0,0,0,1.408A.7.7,0,0,0,185.937,255.018Z" transform="translate(-180.29 -246.954)" fill="#b43b20"/>
          <path id="Trazado_86604" data-name="Trazado 86604" d="M187.558,254.432a.744.744,0,0,0,0,1.486A.744.744,0,0,0,187.558,254.432Z" transform="translate(-176.27 -248.432)" fill="#b43b20"/>
          <path id="Trazado_86605" data-name="Trazado 86605" d="M190.868,253.883a.65.65,0,0,0,0,1.3A.65.65,0,0,0,190.868,253.883Z" transform="translate(-167.71 -249.816)" fill="#b43b20"/>
          <path id="Trazado_86606" data-name="Trazado 86606" d="M188.684,255.807a1.429,1.429,0,0,1-.144-.035c-.947-.246-.947,1.394,0,1.151a1.415,1.415,0,0,0,.144-.039A.561.561,0,0,0,188.684,255.807Z" transform="translate(-173.787 -245.117)" fill="#b43b20"/>
          <path id="Trazado_86607" data-name="Trazado 86607" d="M189.362,254.475l-.085-.007-.018.014c-.063,0-.12.007-.18.007a.594.594,0,0,0,0,1.187c.06,0,.116.007.18.007l.018.014.085,0a.61.61,0,0,0,0-1.218Z" transform="translate(-172.064 -248.341)" fill="#b43b20"/>
          <path id="Trazado_86608" data-name="Trazado 86608" d="M186.9,256.671a.671.671,0,0,0,0,1.342A.671.671,0,0,0,186.9,256.671Z" transform="translate(-177.777 -242.786)" fill="#b43b20"/>
          <path id="Trazado_86609" data-name="Trazado 86609" d="M190.025,258.575c-.384-.359-.57-.687-1.134-.451a.685.685,0,0,0-.324.782,2.409,2.409,0,0,0,.44.694C189.6,260.311,190.725,259.216,190.025,258.575Z" transform="translate(-172.004 -239.324)" fill="#b43b20"/>
          <path id="Trazado_86610" data-name="Trazado 86610" d="M191.584,255.929a.678.678,0,0,0,0,1.356A.678.678,0,0,0,191.584,255.929Z" transform="translate(-165.972 -244.657)" fill="#b43b20"/>
          <path id="Trazado_86611" data-name="Trazado 86611" d="M184.866,256.153a.47.47,0,0,0,0,.94A.47.47,0,0,0,184.866,256.153Z" transform="translate(-182.403 -244.092)" fill="#b43b20"/>
          <path id="Trazado_86612" data-name="Trazado 86612" d="M185.729,258.729a.5.5,0,1,0,.975,0A.488.488,0,0,0,185.729,258.729Z" transform="translate(-179.117 -238.809)" fill="#b43b20"/>
          <path id="Trazado_86613" data-name="Trazado 86613" d="M187.807,257.274a.573.573,0,0,0,0,1.144A.573.573,0,0,0,187.807,257.274Z" transform="translate(-175.221 -241.266)" fill="#b43b20"/>
          <path id="Trazado_86614" data-name="Trazado 86614" d="M191.384,257.914a.634.634,0,0,0,0,1.268A.634.634,0,0,0,191.384,257.914Z" transform="translate(-166.356 -239.652)" fill="#b43b20"/>
          <path id="Trazado_86615" data-name="Trazado 86615" d="M190.054,256.413a.707.707,0,0,0-.412.243.361.361,0,0,0,0,.521.707.707,0,0,0,.412.243C190.892,257.684,190.892,256.145,190.054,256.413Z" transform="translate(-169.495 -243.517)" fill="#b43b20"/>
          <path id="Trazado_86616" data-name="Trazado 86616" d="M185.129,254.6c-.077-.1-.151-.187-.232-.282a.461.461,0,0,0-.641,0,2.277,2.277,0,0,0-.246.282C183.135,255.795,186.009,255.795,185.129,254.6Z" transform="translate(-183.842 -249.051)" fill="#b43b20"/>
          <path id="Trazado_86617" data-name="Trazado 86617" d="M192.369,252.728a.377.377,0,0,0,0,.754A.377.377,0,0,0,192.369,252.728Z" transform="translate(-163.281 -252.728)" fill="#b43b20"/>
          <path id="Trazado_86618" data-name="Trazado 86618" d="M192.638,254.291a.661.661,0,0,0,0,1.32A.661.661,0,0,0,192.638,254.291Z" transform="translate(-163.268 -248.787)" fill="#b43b20"/>
        </g>
        <g id="Grupo_39017" data-name="Grupo 39017" transform="translate(29.219 108.933)">
          <path id="Trazado_86619" data-name="Trazado 86619" d="M175.162,255.018a.7.7,0,0,1,0,1.408A.7.7,0,0,1,175.162,255.018Z" transform="translate(-150.798 -246.954)" fill="#b43b20"/>
          <path id="Trazado_86620" data-name="Trazado 86620" d="M173.585,254.432a.743.743,0,0,1,0,1.486A.743.743,0,0,1,173.585,254.432Z" transform="translate(-154.862 -248.432)" fill="#b43b20"/>
          <path id="Trazado_86621" data-name="Trazado 86621" d="M170.147,253.883a.65.65,0,0,1,0,1.3A.65.65,0,0,1,170.147,253.883Z" transform="translate(-163.295 -249.816)" fill="#b43b20"/>
          <path id="Trazado_86622" data-name="Trazado 86622" d="M172.333,255.807a.792.792,0,0,0,.13-.035c.961-.246.961,1.394,0,1.151l-.13-.039A.563.563,0,0,1,172.333,255.807Z" transform="translate(-157.219 -245.117)" fill="#b43b20"/>
          <path id="Trazado_86623" data-name="Trazado 86623" d="M171.772,254.475l.084-.007c.021,0,.021.014.032.014.056,0,.113.007.173.007a.594.594,0,0,1,0,1.187c-.06,0-.116.007-.173.007-.011,0-.011.014-.032.014l-.084,0a.61.61,0,0,1,0-1.218Z" transform="translate(-159.067 -248.341)" fill="#b43b20"/>
          <path id="Trazado_86624" data-name="Trazado 86624" d="M174.154,256.671a.671.671,0,0,1,0,1.342A.671.671,0,0,1,174.154,256.671Z" transform="translate(-153.259 -242.786)" fill="#b43b20"/>
          <path id="Trazado_86625" data-name="Trazado 86625" d="M171.317,258.575c.391-.359.577-.687,1.134-.451a.664.664,0,0,1,.317.782,2.52,2.52,0,0,1-.426.694C171.75,260.311,170.623,259.216,171.317,258.575Z" transform="translate(-159.326 -239.324)" fill="#b43b20"/>
          <path id="Trazado_86626" data-name="Trazado 86626" d="M169.479,255.929a.678.678,0,0,1,0,1.356A.678.678,0,0,1,169.479,255.929Z" transform="translate(-165.074 -244.657)" fill="#b43b20"/>
          <path id="Trazado_86627" data-name="Trazado 86627" d="M175.9,256.153a.47.47,0,0,1,0,.94A.47.47,0,0,1,175.9,256.153Z" transform="translate(-148.356 -244.092)" fill="#b43b20"/>
          <path id="Trazado_86628" data-name="Trazado 86628" d="M175.109,258.729a.5.5,0,1,1-.975,0A.488.488,0,0,1,175.109,258.729Z" transform="translate(-151.703 -238.809)" fill="#b43b20"/>
          <path id="Trazado_86629" data-name="Trazado 86629" d="M173.1,257.274a.573.573,0,0,1,0,1.144A.573.573,0,0,1,173.1,257.274Z" transform="translate(-155.675 -241.266)" fill="#b43b20"/>
          <path id="Trazado_86630" data-name="Trazado 86630" d="M169.609,257.914a.635.635,0,0,1,0,1.268A.635.635,0,0,1,169.609,257.914Z" transform="translate(-164.626 -239.652)" fill="#b43b20"/>
          <path id="Trazado_86631" data-name="Trazado 86631" d="M170.891,256.413a.775.775,0,0,1,.416.243.381.381,0,0,1,0,.521.775.775,0,0,1-.416.243C170.053,257.684,170.053,256.145,170.891,256.413Z" transform="translate(-161.433 -243.517)" fill="#b43b20"/>
          <path id="Trazado_86632" data-name="Trazado 86632" d="M176.029,254.6a3.729,3.729,0,0,1,.246-.282.47.47,0,0,1,.648,0c.085.1.151.18.232.282C178.044,255.795,175.156,255.795,176.029,254.6Z" transform="translate(-147.313 -249.051)" fill="#b43b20"/>
          <path id="Trazado_86633" data-name="Trazado 86633" d="M168.287,252.728a.377.377,0,0,1,0,.754A.377.377,0,0,1,168.287,252.728Z" transform="translate(-167.354 -252.728)" fill="#b43b20"/>
          <path id="Trazado_86634" data-name="Trazado 86634" d="M168.389,254.291a.66.66,0,0,1,0,1.32A.66.66,0,0,1,168.389,254.291Z" transform="translate(-167.755 -248.787)" fill="#b43b20"/>
        </g>
        <g id="Grupo_39018" data-name="Grupo 39018" transform="translate(15.908 90.729)">
          <path id="Trazado_86635" data-name="Trazado 86635" d="M267.654,251.424s-3.219-5.638-28.639-3.3c0,0-12.522,1.2-16.994,6.018a6.324,6.324,0,0,1-3.493,1.641c-2.641-.567-3.493-1.641-3.493-1.641-4.479-4.814-17-6.018-17-6.018-25.424-2.342-28.635,3.3-28.635,3.3l-4.631.94-.789,9.261,4.62-1.768,1.556,10.24c2.419,13.842,17.811,13,17.811,13,23.075,1.021,25.53-18.424,25.53-18.424a4.83,4.83,0,0,1,2.085-2.046,10.046,10.046,0,0,1,2.669-.609c.088.011.18,0,.268,0s.2.011.289,0a10.036,10.036,0,0,1,2.676.616,4.806,4.806,0,0,1,2.071,2.039S226,284.123,249.089,283.1c0,0,15.388.838,17.793-13l1.564-10.24,5.088,1.553-.771-8.867Zm-57.979,18.24s-6.127,14.645-28.3,9.913c0,0-7.338-.842-9.265-12.1,0,0-5.081-15.335,10.571-16.832,0,0,24.382-.254,27.65,4.486C210.33,255.135,213.988,257.815,209.675,269.664Zm55.257-2.183c-1.926,11.254-9.265,12.1-9.265,12.1-22.174,4.733-28.3-9.913-28.3-9.913-4.307-11.849-.648-14.529-.648-14.529,3.254-4.74,27.65-4.486,27.65-4.486C270.013,252.146,264.932,267.481,264.932,267.481Z" transform="translate(-163.975 -247.558)" fill="#fff"/>
          <path id="Trazado_86636" data-name="Trazado 86636" d="M204.414,267.453s-6.127,14.645-28.3,9.913c0,0-7.338-.842-9.265-12.1,0,0-5.081-15.335,10.571-16.832,0,0,24.382-.254,27.65,4.486C205.069,252.924,208.728,255.6,204.414,267.453Z" transform="translate(-158.715 -245.347)" fill="#201f1e" opacity="0.2"/>
          <path id="Trazado_86637" data-name="Trazado 86637" d="M221.045,265.27c-1.926,11.254-9.265,12.1-9.265,12.1-22.174,4.733-28.3-9.913-28.3-9.913-4.307-11.849-.648-14.529-.648-14.529,3.254-4.74,27.65-4.486,27.65-4.486C226.126,249.934,221.045,265.27,221.045,265.27Z" transform="translate(-120.088 -245.347)" fill="#201f1e" opacity="0.2"/>
        </g>
      </g>
      <path id="Trazado_86638" data-name="Trazado 86638" d="M188.258,345.809l4.039-39.414c1.285-7.43-4.683-19.515-12.12-20.8s-14.064,3.9-17.434,10.9l-3.321,49.316Z" transform="translate(15.604 163.8)" fill="#0d191c"/>
      <g id="Grupo_39020" data-name="Grupo 39020" transform="translate(186.664 434.773)">
        <path id="Trazado_86639" data-name="Trazado 86639" d="M201.585,356.137V281.3l-35.428,14.849c9.416,10.356,8.261,29.125-3.43,37.418l5.37,22.568Z" transform="translate(-162.727 -281.302)" fill="#0d191c"/>
        <path id="Trazado_86640" data-name="Trazado 86640" d="M218.208,355.88,223.642,333c-11.212-8.409-12.244-26.692-3.123-36.939L186.041,281.4V355.88Z" transform="translate(-103.945 -281.045)" fill="#0d191c"/>
      </g>
      <g id="Grupo_39022" data-name="Grupo 39022" transform="translate(285.706 448.951)">
        <g id="Grupo_39021" data-name="Grupo 39021" transform="translate(1.876 1.97)">
          <path id="Trazado_86641" data-name="Trazado 86641" d="M200.164,344.575h25.942L218.563,297.5l-.028-.162c-.028-.159-.056-.317-.092-.475a13.661,13.661,0,1,0-26.787,5.381Z" transform="translate(-191.386 -285.888)" fill="#fbb98f"/>
        </g>
        <path id="Trazado_86642" data-name="Trazado 86642" d="M199.039,345.985H228.28L221.963,298.9c-6.342-9.465-12.856-14.74-20.269-13.349s-11.983,10.2-10.592,17.617Z" transform="translate(-190.853 -285.328)" fill="#0d191c"/>
      </g>
      <g id="Grupo_39023" data-name="Grupo 39023" transform="translate(213.733 425.329)">
        <path id="Trazado_86643" data-name="Trazado 86643" d="M202.959,290.041,188.027,278.62l-17.613,12.239,17.5,22.266Z" transform="translate(-170.414 -278.62)" fill="#dfdfdf"/>
        <path id="Trazado_86644" data-name="Trazado 86644" d="M179.641,290.041l14.924-11.421,17.614,12.239-17.5,22.266Z" transform="translate(-147.151 -278.62)" fill="#dfdfdf"/>
      </g>
    </g>
  </g>
</svg>
