<svg xmlns="http://www.w3.org/2000/svg" width="276" height="138" viewBox="0 0 276 138">
  <g id="Grupo_39119" data-name="Grupo 39119" transform="translate(-1086 -3103)">
    <g id="Rectángulo_31685" data-name="Rectángulo 31685" transform="translate(1086 3103)" fill="#15579f" stroke="#15579f" stroke-width="3">
      <rect width="276" height="138" rx="15" stroke="none"/>
      <rect x="1.5" y="1.5" width="273" height="135" rx="13.5" fill="none"/>
    </g>
    <path id="Trazado_86815" data-name="Trazado 86815" d="M15.937,18H12.351V.727h3.586ZM26.109,4.922a4.931,4.931,0,0,1,3.24,1.037A4.217,4.217,0,0,1,30.609,9.4V18H27.187V10.23a3.545,3.545,0,0,0-.27-1.547A1.9,1.9,0,0,0,25.042,7.7,2.325,2.325,0,0,0,22.71,9.141a4.951,4.951,0,0,0-.328,1.945V18H19.054V5.25h3.223V7.113A5.67,5.67,0,0,1,23.5,5.7,4.235,4.235,0,0,1,26.109,4.922Zm12.293,0a4.12,4.12,0,0,1,2.063.51,4.057,4.057,0,0,1,1.465,1.412V.75h3.387V18H42.069V16.23a4.711,4.711,0,0,1-1.629,1.652,4.573,4.573,0,0,1-2.273.516A4.747,4.747,0,0,1,34.4,16.588a6.953,6.953,0,0,1-1.529-4.646A8,8,0,0,1,34.376,6.8,4.9,4.9,0,0,1,38.4,4.922Zm.727,10.664a2.466,2.466,0,0,0,2.156-1.055,4.66,4.66,0,0,0,.738-2.73,4.188,4.188,0,0,0-1.184-3.352,2.547,2.547,0,0,0-1.687-.609A2.346,2.346,0,0,0,37,8.947a5.131,5.131,0,0,0-.686,2.748,5.085,5.085,0,0,0,.7,2.83A2.359,2.359,0,0,0,39.128,15.586ZM51.784,3.7H48.4V.621h3.387ZM48.4,5.227h3.387V18H48.4Zm14.25,4.582a2.964,2.964,0,0,0-.48-1.289,2.014,2.014,0,0,0-1.746-.773,2.3,2.3,0,0,0-2.309,1.676,7.006,7.006,0,0,0-.328,2.367,6.442,6.442,0,0,0,.328,2.262,2.229,2.229,0,0,0,2.25,1.594,1.984,1.984,0,0,0,1.664-.633,3.15,3.15,0,0,0,.6-1.641h3.41a5.587,5.587,0,0,1-1.1,2.883,5.355,5.355,0,0,1-4.652,2.191,5.442,5.442,0,0,1-4.535-1.828,7.4,7.4,0,0,1-1.453-4.746A7.506,7.506,0,0,1,55.9,6.75a5.588,5.588,0,0,1,4.43-1.828A6.67,6.67,0,0,1,64.259,6a5.014,5.014,0,0,1,1.811,3.809Zm12.762,1.98a3.629,3.629,0,0,1-.639.322,5.341,5.341,0,0,1-.885.229l-.75.141a4.843,4.843,0,0,0-1.512.457,1.532,1.532,0,0,0-.773,1.418,1.493,1.493,0,0,0,.475,1.236,1.786,1.786,0,0,0,1.154.381,3.4,3.4,0,0,0,1.986-.633,2.7,2.7,0,0,0,.943-2.309ZM73.382,10.23a5.213,5.213,0,0,0,1.324-.293,1,1,0,0,0,.715-.949A1.126,1.126,0,0,0,74.876,7.9a3.4,3.4,0,0,0-1.6-.3,2.084,2.084,0,0,0-1.676.586,2.435,2.435,0,0,0-.469,1.172H67.909a4.9,4.9,0,0,1,.938-2.754q1.324-1.687,4.547-1.687a8.078,8.078,0,0,1,3.727.832,3.194,3.194,0,0,1,1.629,3.141v5.859q0,.609.023,1.477a1.857,1.857,0,0,0,.2.891,1.2,1.2,0,0,0,.492.387V18H75.831a3.72,3.72,0,0,1-.211-.727q-.059-.34-.094-.773a6.862,6.862,0,0,1-1.594,1.277A4.794,4.794,0,0,1,71.5,18.4a4.191,4.191,0,0,1-2.865-.99A3.532,3.532,0,0,1,67.5,14.6a3.643,3.643,0,0,1,1.816-3.41,8.065,8.065,0,0,1,2.93-.82ZM86.425,4.922a4.12,4.12,0,0,1,2.063.51,4.057,4.057,0,0,1,1.465,1.412V.75h3.387V18H90.093V16.23a4.711,4.711,0,0,1-1.629,1.652,4.573,4.573,0,0,1-2.273.516,4.747,4.747,0,0,1-3.768-1.811,6.953,6.953,0,0,1-1.529-4.646A8,8,0,0,1,82.4,6.8,4.9,4.9,0,0,1,86.425,4.922Zm.727,10.664a2.466,2.466,0,0,0,2.156-1.055,4.66,4.66,0,0,0,.738-2.73,4.188,4.188,0,0,0-1.184-3.352,2.547,2.547,0,0,0-1.687-.609,2.346,2.346,0,0,0-2.15,1.107,5.131,5.131,0,0,0-.686,2.748,5.085,5.085,0,0,0,.7,2.83A2.359,2.359,0,0,0,87.152,15.586Zm14.953.059a2.647,2.647,0,0,0,2.25-1.043,4.852,4.852,0,0,0,.785-2.965,4.825,4.825,0,0,0-.785-2.959,2.966,2.966,0,0,0-4.506,0,4.8,4.8,0,0,0-.791,2.959,4.826,4.826,0,0,0,.791,2.965A2.663,2.663,0,0,0,102.1,15.645Zm6.539-4.008a7.4,7.4,0,0,1-1.617,4.811,7.032,7.032,0,0,1-9.82,0,7.4,7.4,0,0,1-1.617-4.811,7.454,7.454,0,0,1,1.617-4.793,6.96,6.96,0,0,1,9.82,0A7.454,7.454,0,0,1,108.644,11.637Zm9.328-6.715q.094,0,.158.006t.287.018V8.367q-.316-.035-.562-.047t-.4-.012a2.77,2.77,0,0,0-2.707,1.313,5.106,5.106,0,0,0-.387,2.273V18H111V5.227h3.188V7.453a7.061,7.061,0,0,1,1.348-1.746A3.669,3.669,0,0,1,117.972,4.922Zm16.113,6.867a3.629,3.629,0,0,1-.639.322,5.341,5.341,0,0,1-.885.229l-.75.141a4.843,4.843,0,0,0-1.512.457,1.532,1.532,0,0,0-.773,1.418A1.493,1.493,0,0,0,130,15.592a1.786,1.786,0,0,0,1.154.381,3.4,3.4,0,0,0,1.986-.633,2.7,2.7,0,0,0,.943-2.309Zm-2.027-1.559a5.213,5.213,0,0,0,1.324-.293,1,1,0,0,0,.715-.949,1.126,1.126,0,0,0-.545-1.084,3.4,3.4,0,0,0-1.6-.3,2.084,2.084,0,0,0-1.676.586,2.435,2.435,0,0,0-.469,1.172h-3.223a4.9,4.9,0,0,1,.938-2.754q1.324-1.687,4.547-1.687a8.078,8.078,0,0,1,3.727.832,3.194,3.194,0,0,1,1.629,3.141v5.859q0,.609.023,1.477a1.857,1.857,0,0,0,.2.891,1.2,1.2,0,0,0,.492.387V18h-3.633a3.72,3.72,0,0,1-.211-.727q-.059-.34-.094-.773a6.862,6.862,0,0,1-1.594,1.277,4.794,4.794,0,0,1-2.437.621,4.191,4.191,0,0,1-2.865-.99,3.532,3.532,0,0,1-1.131-2.807,3.643,3.643,0,0,1,1.816-3.41,8.065,8.065,0,0,1,2.93-.82Zm15.961-.422a2.964,2.964,0,0,0-.48-1.289,2.014,2.014,0,0,0-1.746-.773,2.3,2.3,0,0,0-2.309,1.676,7.006,7.006,0,0,0-.328,2.367,6.442,6.442,0,0,0,.328,2.262,2.229,2.229,0,0,0,2.25,1.594,1.984,1.984,0,0,0,1.664-.633,3.15,3.15,0,0,0,.6-1.641h3.41a5.587,5.587,0,0,1-1.1,2.883,5.355,5.355,0,0,1-4.652,2.191,5.442,5.442,0,0,1-4.535-1.828,7.4,7.4,0,0,1-1.453-4.746,7.506,7.506,0,0,1,1.605-5.121,5.588,5.588,0,0,1,4.43-1.828A6.67,6.67,0,0,1,149.63,6a5.014,5.014,0,0,1,1.811,3.809Zm10.758-2.168a2.268,2.268,0,0,0-1.8.727,3.627,3.627,0,0,0-.8,1.969h5.191a2.907,2.907,0,0,0-.8-2.01A2.493,2.493,0,0,0,158.777,7.641Zm0-2.754a6.694,6.694,0,0,1,2.871.6,5.03,5.03,0,0,1,2.109,1.887,6.437,6.437,0,0,1,.973,2.637,17.028,17.028,0,0,1,.105,2.531h-8.742a3.174,3.174,0,0,0,1.207,2.7,2.843,2.843,0,0,0,1.664.48,2.4,2.4,0,0,0,1.676-.586,2.783,2.783,0,0,0,.621-.879h3.41a4.237,4.237,0,0,1-1.184,2.309,5.8,5.8,0,0,1-4.594,1.863,6.478,6.478,0,0,1-4.3-1.57q-1.863-1.57-1.863-5.109a7.1,7.1,0,0,1,1.682-5.086A5.75,5.75,0,0,1,158.777,4.887Zm17.109,6.727A5.027,5.027,0,0,0,175.212,9a2.346,2.346,0,0,0-2.186-1.137,2.487,2.487,0,0,0-2.5,1.723,6.534,6.534,0,0,0-.352,2.32,3.7,3.7,0,0,0,1.184,3.129,2.7,2.7,0,0,0,1.664.527,2.411,2.411,0,0,0,2.127-1.078A5.028,5.028,0,0,0,175.886,11.613Zm-1.9-6.668A5,5,0,0,1,177.778,6.6a6.837,6.837,0,0,1,1.553,4.852,7.7,7.7,0,0,1-1.518,5.145,4.913,4.913,0,0,1-3.908,1.77,4.079,4.079,0,0,1-2.531-.762,4.911,4.911,0,0,1-1.078-1.23v6.656h-3.3V5.227h3.2V7.113A5.362,5.362,0,0,1,171.339,5.8,4.22,4.22,0,0,1,173.987,4.945Zm6.445,2.777V5.344h1.781V1.781h3.3V5.344h2.074V7.723h-2.074v6.75a1.52,1.52,0,0,0,.2.979,2.194,2.194,0,0,0,1.219.193q.152,0,.322-.006t.334-.018v2.5l-1.582.059q-2.367.082-3.234-.82a2.442,2.442,0,0,1-.562-1.77V7.723Zm16.348,4.066a3.629,3.629,0,0,1-.639.322,5.341,5.341,0,0,1-.885.229l-.75.141a4.843,4.843,0,0,0-1.512.457,1.532,1.532,0,0,0-.773,1.418,1.493,1.493,0,0,0,.475,1.236,1.786,1.786,0,0,0,1.154.381,3.4,3.4,0,0,0,1.986-.633,2.7,2.7,0,0,0,.943-2.309Zm-2.027-1.559a5.213,5.213,0,0,0,1.324-.293,1,1,0,0,0,.715-.949,1.126,1.126,0,0,0-.545-1.084,3.4,3.4,0,0,0-1.6-.3,2.084,2.084,0,0,0-1.676.586,2.435,2.435,0,0,0-.469,1.172H189.28a4.9,4.9,0,0,1,.938-2.754q1.324-1.687,4.547-1.687a8.078,8.078,0,0,1,3.727.832,3.194,3.194,0,0,1,1.629,3.141v5.859q0,.609.023,1.477a1.857,1.857,0,0,0,.2.891,1.2,1.2,0,0,0,.492.387V18H197.2a3.72,3.72,0,0,1-.211-.727q-.059-.34-.094-.773a6.862,6.862,0,0,1-1.594,1.277,4.794,4.794,0,0,1-2.437.621,4.191,4.191,0,0,1-2.865-.99A3.532,3.532,0,0,1,188.87,14.6a3.643,3.643,0,0,1,1.816-3.41,8.065,8.065,0,0,1,2.93-.82Zm15.234-5.285a4.731,4.731,0,0,1,3.943,1.816,7.374,7.374,0,0,1,1.424,4.688,8.242,8.242,0,0,1-1.406,4.934,5.087,5.087,0,0,1-6.469,1.324,5.079,5.079,0,0,1-1.242-1.312V18h-3.27V.75H206.3V6.891a4.873,4.873,0,0,1,1.395-1.359A4.142,4.142,0,0,1,209.987,4.945Zm-.855,10.641a2.293,2.293,0,0,0,2-1.043,4.762,4.762,0,0,0,.715-2.742,6.182,6.182,0,0,0-.352-2.25,2.449,2.449,0,0,0-2.461-1.687,2.485,2.485,0,0,0-2.5,1.652,6.2,6.2,0,0,0-.352,2.273,4.762,4.762,0,0,0,.727,2.719A2.488,2.488,0,0,0,209.132,15.586ZM221.155,18h-3.34V.727h3.34Zm8.3-10.359a2.268,2.268,0,0,0-1.8.727,3.627,3.627,0,0,0-.8,1.969h5.191a2.907,2.907,0,0,0-.8-2.01A2.493,2.493,0,0,0,229.452,7.641Zm0-2.754a6.694,6.694,0,0,1,2.871.6,5.03,5.03,0,0,1,2.109,1.887,6.437,6.437,0,0,1,.973,2.637,17.028,17.028,0,0,1,.105,2.531h-8.742a3.174,3.174,0,0,0,1.207,2.7,2.843,2.843,0,0,0,1.664.48,2.4,2.4,0,0,0,1.676-.586,2.783,2.783,0,0,0,.621-.879h3.41a4.237,4.237,0,0,1-1.184,2.309,5.8,5.8,0,0,1-4.594,1.863,6.478,6.478,0,0,1-4.3-1.57q-1.863-1.57-1.863-5.109a7.1,7.1,0,0,1,1.682-5.086A5.75,5.75,0,0,1,229.452,4.887ZM53.085,28.922a4.12,4.12,0,0,1,2.063.51,4.057,4.057,0,0,1,1.465,1.412V24.75H60V42H56.753V40.23a4.711,4.711,0,0,1-1.629,1.652,4.573,4.573,0,0,1-2.273.516,4.747,4.747,0,0,1-3.768-1.811,6.953,6.953,0,0,1-1.529-4.646A8,8,0,0,1,49.06,30.8,4.9,4.9,0,0,1,53.085,28.922Zm.727,10.664a2.466,2.466,0,0,0,2.156-1.055,4.66,4.66,0,0,0,.738-2.73,4.188,4.188,0,0,0-1.184-3.352,2.547,2.547,0,0,0-1.687-.609,2.346,2.346,0,0,0-2.15,1.107A5.131,5.131,0,0,0,51,35.7a5.085,5.085,0,0,0,.7,2.83A2.359,2.359,0,0,0,53.812,39.586Zm14.262-7.945a2.268,2.268,0,0,0-1.8.727,3.627,3.627,0,0,0-.8,1.969h5.191a2.907,2.907,0,0,0-.8-2.01A2.493,2.493,0,0,0,68.073,31.641Zm0-2.754a6.694,6.694,0,0,1,2.871.6,5.03,5.03,0,0,1,2.109,1.887,6.437,6.437,0,0,1,.973,2.637,17.028,17.028,0,0,1,.105,2.531H65.39a3.174,3.174,0,0,0,1.207,2.7,2.843,2.843,0,0,0,1.664.48,2.4,2.4,0,0,0,1.676-.586,2.783,2.783,0,0,0,.621-.879h3.41a4.237,4.237,0,0,1-1.184,2.309,5.8,5.8,0,0,1-4.594,1.863,6.478,6.478,0,0,1-4.3-1.57q-1.863-1.57-1.863-5.109a7.1,7.1,0,0,1,1.682-5.086A5.75,5.75,0,0,1,68.073,28.887Zm16.184.34h3.586L83.237,42H79.71L75.128,29.227h3.75l2.66,9.422Zm11.2,10.418A2.647,2.647,0,0,0,97.71,38.6a4.852,4.852,0,0,0,.785-2.965,4.825,4.825,0,0,0-.785-2.959,2.966,2.966,0,0,0-4.506,0,4.8,4.8,0,0,0-.791,2.959A4.826,4.826,0,0,0,93.2,38.6,2.663,2.663,0,0,0,95.46,39.645ZM102,35.637a7.4,7.4,0,0,1-1.617,4.811,7.032,7.032,0,0,1-9.82,0,7.937,7.937,0,0,1,0-9.6,6.96,6.96,0,0,1,9.82,0A7.454,7.454,0,0,1,102,35.637ZM107.8,42h-3.34V24.727h3.34Zm6.586-12.773v7.7a4.03,4.03,0,0,0,.258,1.641,1.784,1.784,0,0,0,1.793.973,2.344,2.344,0,0,0,2.344-1.383,5.006,5.006,0,0,0,.328-1.98V29.227H122.5V42h-3.246V40.2q-.047.059-.234.352a2.353,2.353,0,0,1-.445.516,4.651,4.651,0,0,1-1.518.961,5.172,5.172,0,0,1-1.717.258q-2.836,0-3.82-2.039a7.8,7.8,0,0,1-.551-3.316v-7.7Zm18.961,4.582a2.964,2.964,0,0,0-.48-1.289,2.014,2.014,0,0,0-1.746-.773,2.3,2.3,0,0,0-2.309,1.676,7.006,7.006,0,0,0-.328,2.367,6.442,6.442,0,0,0,.328,2.262,2.229,2.229,0,0,0,2.25,1.594,1.984,1.984,0,0,0,1.664-.633,3.15,3.15,0,0,0,.6-1.641h3.41a5.587,5.587,0,0,1-1.1,2.883,5.355,5.355,0,0,1-4.652,2.191,5.442,5.442,0,0,1-4.535-1.828,7.4,7.4,0,0,1-1.453-4.746A7.506,7.506,0,0,1,126.6,30.75a5.588,5.588,0,0,1,4.43-1.828A6.67,6.67,0,0,1,134.958,30a5.014,5.014,0,0,1,1.811,3.809ZM142.5,27.7h-3.387V24.621H142.5Zm-3.387,1.523H142.5V42h-3.387Zm12.352,10.418a2.647,2.647,0,0,0,2.25-1.043,4.852,4.852,0,0,0,.785-2.965,4.825,4.825,0,0,0-.785-2.959,2.966,2.966,0,0,0-4.506,0,4.8,4.8,0,0,0-.791,2.959,4.826,4.826,0,0,0,.791,2.965A2.663,2.663,0,0,0,151.464,39.645ZM158,35.637a7.4,7.4,0,0,1-1.617,4.811,7.032,7.032,0,0,1-9.82,0,7.937,7.937,0,0,1,0-9.6,6.96,6.96,0,0,1,9.82,0A7.454,7.454,0,0,1,158,35.637Zm9.469-6.715a4.931,4.931,0,0,1,3.24,1.037,4.217,4.217,0,0,1,1.26,3.439V42H168.55V34.23a3.545,3.545,0,0,0-.27-1.547,1.9,1.9,0,0,0-1.875-.984,2.325,2.325,0,0,0-2.332,1.441,4.951,4.951,0,0,0-.328,1.945V42h-3.328V29.25h3.223v1.863a5.67,5.67,0,0,1,1.219-1.418A4.235,4.235,0,0,1,167.472,28.922Zm12.621,2.719a2.268,2.268,0,0,0-1.8.727,3.627,3.627,0,0,0-.8,1.969h5.191a2.907,2.907,0,0,0-.8-2.01A2.493,2.493,0,0,0,180.093,31.641Zm0-2.754a6.694,6.694,0,0,1,2.871.6,5.03,5.03,0,0,1,2.109,1.887,6.437,6.437,0,0,1,.973,2.637,17.028,17.028,0,0,1,.105,2.531h-8.742a3.174,3.174,0,0,0,1.207,2.7,2.843,2.843,0,0,0,1.664.48,2.4,2.4,0,0,0,1.676-.586,2.783,2.783,0,0,0,.621-.879h3.41a4.237,4.237,0,0,1-1.184,2.309,5.8,5.8,0,0,1-4.594,1.863,6.478,6.478,0,0,1-4.3-1.57q-1.863-1.57-1.863-5.109a7.1,7.1,0,0,1,1.682-5.086A5.75,5.75,0,0,1,180.093,28.887ZM191,37.922a2.23,2.23,0,0,0,.457,1.266,3.09,3.09,0,0,0,2.3.668,3.5,3.5,0,0,0,1.564-.293.983.983,0,0,0,.111-1.734,19.069,19.069,0,0,0-3.48-1.008,7.249,7.249,0,0,1-3.059-1.348,2.922,2.922,0,0,1-.891-2.3,3.984,3.984,0,0,1,1.389-3.041,5.577,5.577,0,0,1,3.908-1.271,7.17,7.17,0,0,1,3.9.955,4.091,4.091,0,0,1,1.729,3.3h-3.34a1.976,1.976,0,0,0-.363-1.02,2.286,2.286,0,0,0-1.875-.68,2.694,2.694,0,0,0-1.553.34.978.978,0,0,0-.463.8.872.872,0,0,0,.492.832,21.307,21.307,0,0,0,3.48.926,6.393,6.393,0,0,1,2.988,1.418,3.219,3.219,0,0,1,.984,2.4,3.882,3.882,0,0,1-1.412,3.1,8.472,8.472,0,0,1-8.812-.07,4.137,4.137,0,0,1-1.436-3.24Z" transform="translate(1104.261 3142.614)" fill="#fff"/>
  </g>
</svg>
