<svg xmlns="http://www.w3.org/2000/svg" width="351" height="320" viewBox="0 0 351 320">
  <g id="Grupo_38978" data-name="Grupo 38978" transform="translate(-452 -2823)">
    <circle id="Elipse_983" data-name="Elipse 983" cx="160" cy="160" r="160" transform="translate(452 2823)" fill="#ffc74a"/>
    <g id="Grupo_38975" data-name="Grupo 38975" transform="translate(11)">
      <path id="Polígono_21" data-name="Polígono 21" d="M23,0,46,40H0Z" transform="translate(792 2935) rotate(90)" fill="#dfa013"/>
      <path id="Polígono_20" data-name="Polígono 20" d="M23,0,46,40H0Z" transform="translate(708.081 2947.179) rotate(-30)" fill="#ffc74a"/>
    </g>
    <g id="Grupo_38976" data-name="Grupo 38976" transform="translate(-31)">
      <path id="Polígono_21-2" data-name="Polígono 21" d="M23,0,46,40H0Z" transform="translate(792 2935) rotate(90)" fill="#dfa013"/>
      <path id="Polígono_20-2" data-name="Polígono 20" d="M23,0,46,40H0Z" transform="translate(708.081 2947.179) rotate(-30)" fill="#ffc74a"/>
    </g>
    <g id="Grupo_38977" data-name="Grupo 38977" transform="translate(-78)">
      <path id="Polígono_21-3" data-name="Polígono 21" d="M23,0,46,40H0Z" transform="translate(792 2935) rotate(90)" fill="#dfa013"/>
      <path id="Polígono_20-3" data-name="Polígono 20" d="M23,0,46,40H0Z" transform="translate(708.081 2947.179) rotate(-30)" fill="#ffc74a"/>
    </g>
    <g id="Grupo_38974" data-name="Grupo 38974" transform="translate(146.67 2829.034)">
      <g id="Grupo_38946" data-name="Grupo 38946" transform="translate(439.45 191.033)">
        <rect id="Rectángulo_32214" data-name="Rectángulo 32214" width="29.453" height="28.861" transform="translate(0.001)" fill="#feba77"/>
        <path id="Trazado_86512" data-name="Trazado 86512" d="M381.954,95.449c8.078-7.049,20.111-5.165,26.861-14.235v-6.62H379.359V98.636A13.229,13.229,0,0,1,381.954,95.449Z" transform="translate(-379.359 -74.593)" fill="#bababa" style="mix-blend-mode: multiply;isolation: isolate"/>
      </g>
      <g id="Grupo_38953" data-name="Grupo 38953" transform="translate(392.648 120.128)">
        <g id="Grupo_38949" data-name="Grupo 38949" transform="translate(104.839)">
          <path id="Trazado_86513" data-name="Trazado 86513" d="M395.638,67.986c-1.043,7.825,2.108,14.7,7.027,15.351s9.76-5.151,10.788-12.983c1.05-7.821-2.093-14.7-7.031-15.354C401.511,54.339,396.681,60.158,395.638,67.986Z" transform="translate(-395.439 -54.949)" fill="#feba77"/>
          <g id="Grupo_38947" data-name="Grupo 38947" transform="translate(6.122 2.925)" style="mix-blend-mode: multiply;isolation: isolate">
            <path id="Trazado_86514" data-name="Trazado 86514" d="M397.254,63.54s.043-.433.184-1.155a12.24,12.24,0,0,1,.993-2.83c.545-1.054,1.451-2.267,2.685-2.357a3.162,3.162,0,0,1,.946.09,4.385,4.385,0,0,1,.487.188c.112.087.224.123.357.238A4.03,4.03,0,0,1,404.2,59.39a8.833,8.833,0,0,1,.711,2.194,8.636,8.636,0,0,1,.177,2.234c-.1.787-.09,1.6-.228,2.27-.112.7-.224,1.361-.328,1.963-.162.614-.278,1.18-.375,1.689s-.26.935-.354,1.289c-.2.718-.3,1.151-.3,1.151s.22-.372.588-1.029c.159-.339.422-.725.624-1.213s.458-1.029.707-1.624c.217-.617.408-1.314.624-2.046a18.748,18.748,0,0,0,.44-2.281,8.5,8.5,0,0,0-.05-2.671,10.129,10.129,0,0,0-.805-2.631,5.771,5.771,0,0,0-1.841-2.252,4.161,4.161,0,0,0-.726-.393,6.075,6.075,0,0,0-.682-.206,4.437,4.437,0,0,0-1.465-.025,3.663,3.663,0,0,0-2.306,1.418,6.374,6.374,0,0,0-1.021,1.982,9.545,9.545,0,0,0-.458,3.147A5.757,5.757,0,0,0,397.254,63.54Z" transform="translate(-397.135 -55.759)" fill="#bababa"/>
          </g>
          <path id="Trazado_86515" data-name="Trazado 86515" d="M397.875,58.7s-.509-.827,2.685-1.086c0,0,3.624.476,1.761,4.393a11.663,11.663,0,0,0-.9,2.635c-.231,1.31.451,3.064-.328,4.234-1.018,1.512-3.894.729-4.176-.985-.2-1.3,1.307-3.57,2-4.519C398.911,63.371,401.034,60.494,397.875,58.7Z" transform="translate(-391.634 -47.995)" fill="#bababa" style="mix-blend-mode: multiply;isolation: isolate"/>
          <g id="Grupo_38948" data-name="Grupo 38948" transform="translate(4.444 19.729)" style="mix-blend-mode: multiply;isolation: isolate">
            <path id="Trazado_86516" data-name="Trazado 86516" d="M397.5,60.415a1.708,1.708,0,0,0-.238.22,2.322,2.322,0,0,0-.422.729,2.008,2.008,0,0,0-.126.563,1.58,1.58,0,0,0-.015.639c.036.224.061.462.119.7a5.23,5.23,0,0,0,.3.642,2.418,2.418,0,0,0,.408.585,3.882,3.882,0,0,0,.5.444,2.123,2.123,0,0,0,1.014.541,3.518,3.518,0,0,0,1.108.2,6.1,6.1,0,0,0-.56-.935,2.737,2.737,0,0,0-.3-.357,3.828,3.828,0,0,0-.26-.433,3.248,3.248,0,0,0-.289-.408,2.651,2.651,0,0,1-.238-.422,4.97,4.97,0,0,1-.437-.848,3,3,0,0,1-.177-.422c-.029-.141-.112-.289-.141-.426C397.594,60.9,397.5,60.415,397.5,60.415Z" transform="translate(-396.67 -60.415)" fill="#bababa"/>
          </g>
        </g>
        <g id="Grupo_38952" data-name="Grupo 38952">
          <path id="Trazado_86517" data-name="Trazado 86517" d="M384.406,67.986c1.043,7.825-2.108,14.7-7.031,15.351s-9.749-5.151-10.785-12.983,2.1-14.7,7.035-15.354S383.37,60.158,384.406,67.986Z" transform="translate(-366.392 -54.949)" fill="#feba77"/>
          <g id="Grupo_38950" data-name="Grupo 38950" transform="translate(2.656 2.925)" style="mix-blend-mode: multiply;isolation: isolate">
            <path id="Trazado_86518" data-name="Trazado 86518" d="M376.444,63.54a10.885,10.885,0,0,0-.184-1.155,11.575,11.575,0,0,0-.993-2.83c-.538-1.054-1.447-2.267-2.678-2.357a3.183,3.183,0,0,0-.946.09,4.669,4.669,0,0,0-.487.188c-.112.087-.224.123-.364.238a4.075,4.075,0,0,0-1.285,1.675,8.268,8.268,0,0,0-.711,2.194,7.885,7.885,0,0,0-.17,2.234c.083.787.076,1.6.213,2.27.112.7.231,1.361.328,1.963.155.614.282,1.18.383,1.689s.26.935.346,1.289c.2.718.307,1.151.307,1.151s-.231-.372-.592-1.029c-.162-.339-.415-.725-.624-1.213s-.458-1.029-.7-1.624c-.231-.617-.43-1.314-.635-2.046a19.455,19.455,0,0,1-.444-2.281,8.5,8.5,0,0,1,.058-2.671,10.134,10.134,0,0,1,.8-2.631,5.731,5.731,0,0,1,1.837-2.252,3.837,3.837,0,0,1,.729-.393,6.409,6.409,0,0,1,.675-.206,4.519,4.519,0,0,1,1.48-.025,3.646,3.646,0,0,1,2.3,1.418,6.56,6.56,0,0,1,1.029,1.982,10.116,10.116,0,0,1,.451,3.147A5.994,5.994,0,0,1,376.444,63.54Z" transform="translate(-367.128 -55.759)" fill="#bababa"/>
          </g>
          <path id="Trazado_86519" data-name="Trazado 86519" d="M373.3,58.7s.516-.827-2.678-1.086c0,0-3.617.476-1.769,4.393a10.979,10.979,0,0,1,.9,2.635c.238,1.31-.451,3.064.328,4.234,1.018,1.512,3.9.729,4.176-.985.217-1.3-1.292-3.57-2-4.519C372.268,63.371,370.146,60.494,373.3,58.7Z" transform="translate(-361.333 -47.995)" fill="#bababa" style="mix-blend-mode: multiply;isolation: isolate"/>
          <g id="Grupo_38951" data-name="Grupo 38951" transform="translate(10.286 19.729)" style="mix-blend-mode: multiply;isolation: isolate">
            <path id="Trazado_86520" data-name="Trazado 86520" d="M371.895,60.415a1.1,1.1,0,0,1,.238.22,2.073,2.073,0,0,1,.422.729,1.787,1.787,0,0,1,.133.563,1.721,1.721,0,0,1,.014.639c-.043.224-.061.462-.119.7a4.782,4.782,0,0,1-.31.642,2.593,2.593,0,0,1-.394.585c-.155.173-.354.3-.5.444a2.246,2.246,0,0,1-1.021.541,3.546,3.546,0,0,1-1.115.2,6.382,6.382,0,0,1,.57-.935,2.2,2.2,0,0,1,.289-.357c.094-.141.155-.3.256-.433a4.177,4.177,0,0,1,.289-.408c.126-.119.148-.282.238-.422a4.11,4.11,0,0,0,.437-.848,1.917,1.917,0,0,0,.177-.422c.029-.141.119-.289.148-.426C371.8,60.9,371.895,60.415,371.895,60.415Z" transform="translate(-369.242 -60.415)" fill="#bababa"/>
          </g>
        </g>
      </g>
      <path id="Trazado_86521" data-name="Trazado 86521" d="M421.858,34.029v-.022c-.047.007-.119.007-.173.014s-.115-.007-.17-.014v.022c-11.774.657-63.142,8.016-50.856,87.166l3.017,33.13s2.62,7.432,11.849,14.445c0,0,15.874,13.351,29.2,19.274,0,0,2.913.837,6.829,2.27v.123a1.285,1.285,0,0,0,.162-.069c.065.029.116.047.17.069v-.123c3.92-1.433,6.832-2.274,6.832-2.274,13.322-5.927,29.2-19.281,29.2-19.281,9.211-7.024,9.655-14.455,9.655-14.455l5.176-33.13C485,42.016,433.624,34.675,421.858,34.029Z" transform="translate(32.473 10.534)" fill="#feba77"/>
      <g id="Grupo_38954" data-name="Grupo 38954" transform="translate(401.248 44.541)" style="mix-blend-mode: multiply;isolation: isolate">
        <path id="Trazado_86522" data-name="Trazado 86522" d="M421.583,190.425v-.112c-3.22-1.433-5.6-2.27-5.6-2.27-10.922-5.923-23.934-19.274-23.934-19.274a35.461,35.461,0,0,1-9.724-14.448l-2.472-33.127c-10.074-79.149,32.04-86.512,41.691-87.166v-.018l-.022,0-.007.022c-11.774.657-63.142,8.016-50.856,87.166l3.017,33.13s2.62,7.432,11.849,14.445c0,0,15.874,13.351,29.2,19.274,0,0,2.913.837,6.829,2.27v.123Z" transform="translate(-368.775 -34.007)" fill="#e8e8e8"/>
        <path id="Trazado_86523" data-name="Trazado 86523" d="M383.5,34.029v-.022l-.025,0v.018c9.648.65,51.762,7.995,41.724,87.144l-4.245,33.13s-.365,7.435-7.923,14.455c0,0-13.012,13.355-23.926,19.281,0,0-2.389.841-5.6,2.274v.112l.022.011v-.123c3.92-1.433,6.832-2.274,6.832-2.274,13.322-5.927,29.2-19.281,29.2-19.281,9.211-7.024,9.655-14.455,9.655-14.455l5.176-33.13C446.646,42.016,395.267,34.675,383.5,34.029Z" transform="translate(-330.418 -34.007)" fill="#e8e8e8"/>
      </g>
      <path id="Trazado_86524" data-name="Trazado 86524" d="M374.336,181.072H487.824l8.424-59.32c3.848-16.119-8.677-23.923-8.677-23.923l-43.016-17.1H417.6l-43.016,17.1s-12.528,7.8-8.67,23.923Z" transform="translate(23.094 132.456)" fill="#feba77"/>
      <path id="Trazado_86525" data-name="Trazado 86525" d="M368.257,180.766h125.5l2.487-59.319c3.848-16.119-8.677-23.923-8.677-23.923L445.782,80.892,430.872,87l-14.459-6.147L374.588,97.524s-12.528,7.8-8.67,23.923Z" transform="translate(23.094 132.761)" fill="#fff"/>
      <path id="Trazado_86526" data-name="Trazado 86526" d="M356.33,168.646h36.953c1.974-11.268,11.055-65.9,4.436-83.152l-26,11.03c-8.68,5.3-7.713,19.754-7.713,19.754Z" transform="translate(0 144.882)" fill="#9cd8f8"/>
      <path id="Trazado_86527" data-name="Trazado 86527" d="M447.36,168.878,433.4,112.042s-.971-12.842-10.933-17.664l-21.9-8.973c-6.612,17.253,2.516,72.151,4.5,83.473Z" transform="translate(109.238 144.649)" fill="#9cd8f8"/>
      <g id="Grupo_38955" data-name="Grupo 38955" transform="translate(397.829 29.97)">
        <path id="Trazado_86528" data-name="Trazado 86528" d="M470.879,54c16.257,22.7,8.912,66.455,8.912,66.455l-3.66,10.323-1.325,9.254H472.24s5.006-30.459-4.739-39.389c0,0-.772-25.857-12.214-27.716,0,0-20.425-3.2-31.365-1.924-7.338-.09-18-.419-30.318,3.411-10.767,3.072-12.647,26.229-12.647,26.229-9.749,8.93-4.746,39.389-4.746,39.389h-2.552l-1.332-9.254-3.678-9.359s-5-44.716,9.684-66.3c0,0,11.373-29.936,63.488-24.479,0,0-7.442,2.48-8.439,7.941,0,0,11.42-14.889,38.717-1.491,0,0-12.416-.494-14.889,4.472,0,0,17.368-5.461,26.8,5.457C484.013,47.014,468.165,46.09,470.879,54Z" transform="translate(-367.828 -29.97)" fill="#aa632d"/>
        <path id="Trazado_86529" data-name="Trazado 86529" d="M383.455,41.338Z" transform="translate(-327.361 -0.306)" fill="#341e13"/>
      </g>
      <path id="Trazado_86530" data-name="Trazado 86530" d="M365.973,179.621h46.593V81.288L374.588,96.379s-12.528,7.8-8.67,23.923Z" transform="translate(23.094 133.907)" fill="#112f37"/>
      <path id="Trazado_86531" data-name="Trazado 86531" d="M436.128,180.018l.083-59.32c3.848-16.119-8.677-23.923-8.677-23.923L388.189,81.136v98.882Z" transform="translate(83.131 133.51)" fill="#112f37"/>
      <path id="Trazado_86532" data-name="Trazado 86532" d="M356.33,168.646h36.953c1.974-11.268,11.055-65.9,4.436-83.152l-26,11.03c-8.68,5.3-7.713,19.754-7.713,19.754Z" transform="translate(0 144.882)" fill="#112f37"/>
      <path id="Trazado_86533" data-name="Trazado 86533" d="M447.692,168.878l-3.876-51.509s-1.516-14.9-11.47-19.714L400.562,85.4c-6.612,17.253,2.516,72.151,4.5,83.473Z" transform="translate(109.238 144.649)" fill="#112f37"/>
      <path id="Trazado_86534" data-name="Trazado 86534" d="M385.4,152.069l9.277,27.553h12.908V81.288L367.09,95.69l30.348,45.29Z" transform="translate(28.076 133.907)" fill="#18414c"/>
      <path id="Trazado_86535" data-name="Trazado 86535" d="M400.907,180.019l9.461-28.106-12.041-11.082,30.355-45.293-40.492-14.4v98.883Z" transform="translate(83.132 133.509)" fill="#18414c"/>
      <g id="Grupo_38956" data-name="Grupo 38956" transform="translate(441.643 220.732)">
        <path id="Trazado_86536" data-name="Trazado 86536" d="M399.919,162.38,396.042,87.9H384.6l-3.821,74.485Z" transform="translate(-377.847 -69.585)" fill="#751b21"/>
        <path id="Trazado_86537" data-name="Trazado 86537" d="M379.967,82.822h25.061l-6.747,18.311H386.72Z" transform="translate(-379.967 -82.822)" fill="#581618"/>
      </g>
      <g id="Grupo_38957" data-name="Grupo 38957" transform="translate(421.926 208.512)">
        <path id="Trazado_86538" data-name="Trazado 86538" d="M383.449,90.681,398.14,79.437l17.349,12.044L398.26,113.4Z" transform="translate(-351.163 -79.437)" fill="#cbeafc"/>
        <path id="Trazado_86539" data-name="Trazado 86539" d="M406.544,90.681,391.853,79.437,374.5,91.481,391.733,113.4Z" transform="translate(-374.504 -79.437)" fill="#cbeafc"/>
      </g>
      <path id="Trazado_86540" data-name="Trazado 86540" d="M468.261,60.388c-.22.314-.87,4.23-1.079,4.551l-2.5,11.027s-.437,7.432-9.41,14.455c0,0-15.459,13.355-28.424,19.277,0,0-2.833.841-6.656,2.274v.126c-.054-.022-.1-.043-.17-.065l-.155.065v-.126c-3.826-1.433-6.652-2.27-6.652-2.27-12.979-5.919-28.431-19.263-28.431-19.263-8.984-7.024-11.55-14.452-11.55-14.452L371.7,60.352h-2.27l2.552,25.229s2.62,7.432,11.849,14.445c0,0,15.874,13.351,29.2,19.274,0,0,2.913.837,6.829,2.27v.123a1.287,1.287,0,0,0,.162-.069c.065.029.116.047.17.069v-.123c3.92-1.433,6.832-2.274,6.832-2.274,13.322-5.927,29.2-19.281,29.2-19.281,9.211-7.024,9.655-14.455,9.655-14.455L470.7,60.352Z" transform="translate(34.172 79.277)" fill="#aa632d"/>
      <g id="Grupo_38973" data-name="Grupo 38973" transform="translate(416.884 107.274)">
        <g id="Grupo_38958" data-name="Grupo 38958" transform="translate(29.391 43.825)">
          <path id="Trazado_86541" data-name="Trazado 86541" d="M381.463,63.53s.253.032.689.094c.433.094,1.065.061,1.783.152.733.054,1.559.231,2.483.22s1.9-.018,2.88-.029a11.725,11.725,0,0,0,2.869-.011c.92-.079,1.779-.155,2.512-.22,1.48-.087,2.49-.076,2.49-.076l.177.848-.1.408a9.072,9.072,0,0,1-.318,1.1,11.32,11.32,0,0,1-1.5,2.956,8.9,8.9,0,0,1-2.685,2.635,6.321,6.321,0,0,1-1.671.794,8.91,8.91,0,0,1-1.8.191,8.612,8.612,0,0,1-1.8-.263,6.7,6.7,0,0,1-1.693-.668,8.192,8.192,0,0,1-2.855-2.678,7.743,7.743,0,0,1-1.368-3.043c-.119-.408-.177-.888-.231-1.148-.047-.278-.072-.43-.072-.43Z" transform="translate(-381.25 -63.53)" fill="#d19b65"/>
        </g>
        <g id="Grupo_38969" data-name="Grupo 38969">
          <g id="Grupo_38963" data-name="Grupo 38963" transform="translate(45.614)">
            <g id="Grupo_38962" data-name="Grupo 38962">
              <g id="Grupo_38961" data-name="Grupo 38961">
                <g id="Grupo_38960" data-name="Grupo 38960">
                  <g id="Grupo_38959" data-name="Grupo 38959" transform="translate(7.162 13.309)">
                    <path id="Trazado_86542" data-name="Trazado 86542" d="M397.546,59.98a4.909,4.909,0,1,1-4.912-4.905A4.9,4.9,0,0,1,397.546,59.98Z" transform="translate(-387.729 -55.075)" fill="#3f1e0b"/>
                    <path id="Trazado_86543" data-name="Trazado 86543" d="M392.989,58.07a2.263,2.263,0,1,1-2.27-2.263A2.271,2.271,0,0,1,392.989,58.07Z" transform="translate(-385.814 -53.165)" fill="#1e0e00"/>
                    <path id="Trazado_86544" data-name="Trazado 86544" d="M392.782,57.347a1.779,1.779,0,1,1-1.776-1.779A1.78,1.78,0,0,1,392.782,57.347Z" transform="translate(-383.831 -53.789)" fill="#fff"/>
                    <path id="Trazado_86545" data-name="Trazado 86545" d="M390.75,56.5a1.065,1.065,0,1,1-1.065-1.072A1.062,1.062,0,0,1,390.75,56.5Z" transform="translate(-385.401 -54.154)" fill="#fff"/>
                  </g>
                  <path id="Trazado_86546" data-name="Trazado 86546" d="M387.074,52.078s25.384-4.18,27.629,8.031a41.845,41.845,0,0,0-16.383-2.57l-12.21.642S384.825,54,387.074,52.078Z" transform="translate(-385.745 -51.388)" fill="#aa632d"/>
                </g>
              </g>
            </g>
          </g>
          <g id="Grupo_38968" data-name="Grupo 38968">
            <g id="Grupo_38967" data-name="Grupo 38967">
              <g id="Grupo_38966" data-name="Grupo 38966">
                <g id="Grupo_38965" data-name="Grupo 38965">
                  <g id="Grupo_38964" data-name="Grupo 38964" transform="translate(11.979 13.309)">
                    <path id="Trazado_86547" data-name="Trazado 86547" d="M376.426,59.98a4.909,4.909,0,1,0,4.905-4.905A4.906,4.906,0,0,0,376.426,59.98Z" transform="translate(-376.426 -55.075)" fill="#3f1e0b"/>
                    <path id="Trazado_86548" data-name="Trazado 86548" d="M377.158,58.07a2.263,2.263,0,1,0,2.263-2.263A2.267,2.267,0,0,0,377.158,58.07Z" transform="translate(-374.516 -53.165)" fill="#1e0e00"/>
                    <path id="Trazado_86549" data-name="Trazado 86549" d="M376.666,57.347a1.776,1.776,0,1,0,1.776-1.779A1.78,1.78,0,0,0,376.666,57.347Z" transform="translate(-375.8 -53.789)" fill="#fff"/>
                    <path id="Trazado_86550" data-name="Trazado 86550" d="M377.666,56.5a1.065,1.065,0,1,0,1.058-1.072A1.065,1.065,0,0,0,377.666,56.5Z" transform="translate(-373.19 -54.154)" fill="#fff"/>
                  </g>
                  <path id="Trazado_86551" data-name="Trazado 86551" d="M400.737,52.078s-25.381-4.18-27.63,8.031a41.846,41.846,0,0,1,16.383-2.57l12.21.642S402.985,54,400.737,52.078Z" transform="translate(-373.107 -51.388)" fill="#aa632d"/>
                </g>
              </g>
            </g>
          </g>
        </g>
        <g id="Grupo_38972" data-name="Grupo 38972" transform="translate(19.53 58.716)">
          <g id="Grupo_38971" data-name="Grupo 38971">
            <g id="Grupo_38970" data-name="Grupo 38970">
              <path id="Trazado_86552" data-name="Trazado 86552" d="M410.664,68.12c-15.813.935-21.2,0-31.6.224C379.06,68.344,392.631,87.2,410.664,68.12Z" transform="translate(-377.104 -66.443)" fill="#fff"/>
              <path id="Trazado_86553" data-name="Trazado 86553" d="M412.085,69.57l-7.876.78c-2.617.314-5.277.375-7.933.549-2.674.141-5.28.141-7.926.217l-7.832.336,1.5-3c.379.448.913,1,1.408,1.476.513.491,1.05.953,1.6,1.39a20.885,20.885,0,0,0,3.53,2.213,16.7,16.7,0,0,0,3.743,1.422,15.856,15.856,0,0,0,3.862.545,18.236,18.236,0,0,0,7.959-1.765,37.691,37.691,0,0,0,3.916-2.054c1.325-.751,2.548-1.653,3.876-2.5Zm.162-.076a30.693,30.693,0,0,1-2.833,3.833,24.836,24.836,0,0,1-3.62,3.263,18.226,18.226,0,0,1-9.493,3.62,16.218,16.218,0,0,1-5.273-.509,19.5,19.5,0,0,1-4.772-2.093,24.916,24.916,0,0,1-3.985-3.126c-.606-.574-1.187-1.169-1.74-1.8a22.408,22.408,0,0,1-1.592-2.021l-.1-.134a1.832,1.832,0,0,1,1.592-2.873l7.973.379c2.624.162,5.281.4,7.879.5,2.609.134,5.226.4,7.868.4l7.915.166a.239.239,0,0,1,.235.245.252.252,0,0,1-.033.115Z" transform="translate(-378.518 -67.655)" fill="#d19b65"/>
            </g>
          </g>
          <path id="Trazado_86554" data-name="Trazado 86554" d="M382.113,71.544a18.944,18.944,0,0,0,9.554.018S386.682,77.536,382.113,71.544Z" transform="translate(-369.137 -57.509)" fill="#d19b65"/>
        </g>
      </g>
      <path id="Trazado_86555" data-name="Trazado 86555" d="M406.207,69.107s-14.889-9.182-25.807,2.729l-5.963,8.19,7.7,7.2s7.453-19.606,22.086-13.651l1.862.375Z" transform="translate(47.25 93.308)" fill="#aa632d"/>
      <path id="Trazado_86556" data-name="Trazado 86556" d="M383.172,69.185s14.394-9.428,25.807,2.729l5.959,8.19-7.691,7.2S399.8,67.694,385.154,73.649l-1.862.375Z" transform="translate(70.04 93.231)" fill="#aa632d"/>
      <path id="Trazado_86557" data-name="Trazado 86557" d="M440.671,109.59l-.12-1.463h-39.71v1.463Z" transform="translate(116.146 203.939)" fill="#112f37"/>
      <path id="Trazado_86558" data-name="Trazado 86558" d="M390.546,112.806v-5.911l-33.273.1-.9,5.812Z" transform="translate(0.122 200.723)" fill="#112f37"/>
    </g>
  </g>
</svg>
